<svg xmlns="http://www.w3.org/2000/svg" viewBox="0 0 383.2 383"><path d="M0 205.7v-29.9c1.4-2.4 1.1-5.2 1.5-7.8 1.9-14.8 5.2-29.2 10.7-43.1h358.9c.3.8.7 1.6 1 2.4 10.3 29 13.4 58.9 9.5 89.4-1.8 14.2-5.1 28.1-10.5 41.5H12.2c-4.3-10.7-7-21.8-9.2-33-1.4-6.6-1.4-13.2-3-19.5z" fill="#fed944"/><path d="M12.1 258.1H371c0 .2 0 .5-.1.7-28 68.2-78.2 109.1-151 122.1-4.5.8-9.1.4-13.4 2.1h-30.7c-4.9-1.7-10.1-1.6-15.2-2.4C117 373 80 353.1 50 320.5c-16.7-18.3-29.6-39-37.9-62.4zm0-133.3c8.1-22.8 20.5-43.1 36.7-61C79 30.4 116.3 9.1 160.9 2.5c66.3-9.8 123.3 9.7 170.1 57.7 17.3 17.8 30.1 38.6 39.1 61.7.4.9.6 1.9.9 2.8H122c-36.6.1-73.3.1-109.9.1z" fill="#d70027"/></svg>