<svg xmlns="http://www.w3.org/2000/svg" viewBox="0 0 383.1 383.4"><path d="M0 191.9v-16.5c1.5-2.9 1.2-6.2 1.7-9.3C9.4 114.4 33.5 72 74.9 40.2 120 5.5 171.4-7 227.1 3.8 293.4 16.7 340.3 55.4 367.9 117c10.6 23.7 15.4 48.8 15.2 74.8-127.8.1-255.5.1-383.1.1z" fill="#338af2"/><path d="M0 191.9h383c0 1.4.1 2.7.1 4.1-1 36.8-11.1 70.8-31.7 101.3-30.5 45.3-72.8 73.2-126.6 83.2-6.3 1.2-12.7 2-19 2.9h-29.2c-.5-.8-1.3-.7-2-.7-35.3-3.3-67.5-15.1-96-36.2-41-30.5-66.4-70.9-75.7-121.3-1.2-6.3-2-12.7-2.9-19.1v-14.2z" fill="#fed944"/></svg>