<?xml version="1.0" encoding="utf-8"?>
<!-- Generator: Adobe Illustrator 25.1.0, SVG Export Plug-In . SVG Version: 6.00 Build 0)  -->
<svg version="1.1" id="Illustration" xmlns="http://www.w3.org/2000/svg" xmlns:xlink="http://www.w3.org/1999/xlink" x="0px"
	 y="0px" viewBox="0 0 2774.5 2774.2" style="enable-background:new 0 0 2774.5 2774.2;" xml:space="preserve">
<style type="text/css">
	.st0{fill:url(#SVGID_1_);}
	.st1{fill:url(#SVGID_2_);}
	.st2{fill:#FFFFFF;}
	.st3{fill:url(#SVGID_3_);}
	.st4{fill:url(#SVGID_4_);}
	.st5{fill:#3054F2;}
	.st6{fill:url(#SVGID_5_);}
	.st7{fill:#D8DCF6;}
	.st8{opacity:0.51;fill:#3054F2;}
	.st9{opacity:0.51;fill:#D8DCF6;}
	.st10{opacity:0.51;}
	.st11{fill:url(#SVGID_6_);}
	.st12{fill:url(#SVGID_7_);}
	.st13{fill:#1D47DD;}
	.st14{fill:url(#SVGID_8_);}
	.st15{fill:#253390;}
	.st16{fill:url(#SVGID_9_);}
	.st17{fill:url(#SVGID_10_);}
	.st18{fill:url(#SVGID_11_);}
	.st19{fill:url(#SVGID_12_);}
	.st20{fill:url(#SVGID_13_);}
	.st21{fill:url(#SVGID_14_);}
	.st22{fill:url(#SVGID_15_);}
	.st23{opacity:0.61;fill:#3054F2;}
</style>
<g>
	<linearGradient id="SVGID_1_" gradientUnits="userSpaceOnUse" x1="2974.6497" y1="2848.0691" x2="985.95" y2="1107.958">
		<stop  offset="0" style="stop-color:#DAE3FE"/>
		<stop  offset="1" style="stop-color:#E9EFFD"/>
	</linearGradient>
	<path class="st0" d="M2661.2,1931.2c-262.3,588.1-961.1,917.5-1567,828.6c-98.6-14.5-368.9-57.5-608.2-260.7
		C25.2,2107.9-73.3,1333.2,298.3,787.4C568.8,390,1053.7,164.8,1514.5,176.1c99.2,2.4,479.6,17.4,813.9,279.8
		c49.1,38.5,157.4,130.1,255,275.4C2812.5,1072.5,2832.2,1547.9,2661.2,1931.2z"/>
	<g>
		<linearGradient id="SVGID_2_" gradientUnits="userSpaceOnUse" x1="1608.4633" y1="234.7574" x2="2356.7842" y2="234.7574">
			<stop  offset="0" style="stop-color:#DAE3FE"/>
			<stop  offset="1" style="stop-color:#E9EFFD"/>
		</linearGradient>
		<path class="st1" d="M1612.6,282c11.9-50.6,50.6-90.4,100-102.5c33.9-8.4,66.5-3.9,94,9.7c9.1,4.5,20-0.6,22.5-10.6
			c24.3-96.7,110-168.2,211.9-168.2c120.9,0,218.8,100.5,218.8,224.4c0,3.3-0.1,7.8-0.1,12.1c0.4,9.3,4.4,13.2,10.3,14.2
			c47.4,5.1,84.6,45.1,86.6,94.4c2.4,56.7-42.6,103.7-98,103.7h-511.9C1659.3,459.1,1590.7,375.7,1612.6,282z"/>
		<path class="st2" d="M1652.2,301c10.6-45.2,45.2-80.7,89.3-91.5c30.3-7.5,59.4-3.5,84,8.6c8.2,4,17.8-0.5,20.1-9.5
			c21.7-86.4,98.2-150.1,189.2-150.1c107.9,0,195.4,89.7,195.4,200.3c0,2.9-0.1,6.9-0.1,10.8c0.4,8.3,3.9,11.8,9.2,12.7
			c42.3,4.5,75.5,40.3,77.4,84.3c2.1,50.6-38.1,92.5-87.5,92.5h-457C1693.9,459.1,1632.6,384.6,1652.2,301z"/>
	</g>
	<g>
		<linearGradient id="SVGID_3_" gradientUnits="userSpaceOnUse" x1="324.7509" y1="436.866" x2="1279.0991" y2="436.866">
			<stop  offset="0" style="stop-color:#DAE3FE"/>
			<stop  offset="1" style="stop-color:#E9EFFD"/>
		</linearGradient>
		<path class="st3" d="M332,470c17.7-64.1,69.3-112.9,133-125.9c43.8-8.9,85.2-1.6,119.7,17.1c11.4,6.2,25.6,0.3,29.3-12.5
			c36-122.3,149.1-209.3,279.4-204.1c154.4,6.2,274.5,139.5,268.2,297.9c-0.2,4.2-0.5,9.9-0.8,15.5c0.1,11.9,4.9,17.1,12.4,18.7
			c60.3,8.9,105.8,61.9,105.9,125.1c0.1,72.6-59.8,130.3-130.5,127.5l-654.1-26.1C382.6,698.6,299.2,588.5,332,470z"/>
		<path class="st2" d="M381.7,496.2c15.8-57.2,61.9-100.8,118.8-112.4c39.1-8,76.1-1.4,106.9,15.3c10.2,5.5,22.8,0.2,26.2-11.1
			c32.2-109.2,133.1-186.9,249.4-182.2c137.9,5.5,245.1,124.6,239.5,266c-0.1,3.8-0.4,8.9-0.7,13.8c0.1,10.6,4.4,15.3,11.1,16.7
			c53.8,7.9,94.4,55.3,94.5,111.7c0.1,64.8-53.4,116.3-116.5,113.8l-584-23.3C426.8,700.4,352.4,602,381.7,496.2z"/>
	</g>
	<g>
		
			<linearGradient id="SVGID_4_" gradientUnits="userSpaceOnUse" x1="-1092.4019" y1="2634.6873" x2="-733.8856" y2="1559.1354" gradientTransform="matrix(-1 0 0 1 205.8769 0)">
			<stop  offset="0" style="stop-color:#09005D"/>
			<stop  offset="1" style="stop-color:#1A0F91"/>
		</linearGradient>
		<path class="st4" d="M372.6,2673.7c0,15.4,12.6,28,28.1,28h1518c15.4,0,28.1-12.6,28.1-28l12.6-872.3c0-15.4-18.2-45.5-51.5-43.3
			l-1483.5-38.4c-19.4-0.5-38.1,7-51.8,20.6c-13.7,13.7-21.2,32.4-20.8,51.7L372.6,2673.7z"/>
		<path class="st5" d="M400.3,2646.8c0,14.6,12,26.6,26.6,26.6H1882c14.6,0,26.6-12,26.6-26.6l11.9-791.9
			c-1.4-47.7-43.2-64.8-68.5-63.8L430.1,1753c-13.6-0.4-26.8,4.9-36.4,14.5c-9.6,9.6-14.9,22.8-14.6,36.4L400.3,2646.8z"/>
		<g>
			<path class="st5" d="M1892.8,2270.6C1892.8,2270.6,1892.8,2270.6,1892.8,2270.6c-2.2,0-3.9-1.8-3.9-4l0.9-64.2
				c0-2.1,1.8-3.8,3.9-3.8c0,0,0,0,0,0c2.2,0,3.9,1.8,3.9,4l-0.9,64.2C1896.7,2268.9,1895,2270.6,1892.8,2270.6z"/>
			<path class="st5" d="M1895.2,2113.2C1895.2,2113.2,1895.1,2113.2,1895.2,2113.2c-2.2,0-3.9-1.8-3.9-4l3.6-246
				c-0.1-14.6-4.5-26.3-13.2-34.6c-16.2-15.5-41.9-14.7-43-14.7l-454.5-12.2c-2.1-0.1-3.8-1.8-3.8-4c0.1-2.1,1.7-4,4-3.8l454.2,12.2
				c2.8-0.2,30.2-0.6,48.5,16.8c10.3,9.8,15.5,23.4,15.6,40.3l-3.6,246.1C1899,2111.5,1897.3,2113.2,1895.2,2113.2z"/>
		</g>
		
			<linearGradient id="SVGID_5_" gradientUnits="userSpaceOnUse" x1="-258.2442" y1="2570.407" x2="-1854.5846" y2="2958.7058" gradientTransform="matrix(-1 0 0 1 205.8769 0)">
			<stop  offset="0" style="stop-color:#09005D"/>
			<stop  offset="1" style="stop-color:#1A0F91"/>
		</linearGradient>
		<path class="st6" d="M255.1,2774.2h1778.3c3.1,0,5.7-2.5,5.7-5.7v-65.3c0-3.1-2.5-5.7-5.7-5.7H255.1c-3.1,0-5.7,2.5-5.7,5.7v65.3
			C249.4,2771.6,252,2774.2,255.1,2774.2z"/>
		<path class="st7" d="M1031.6,2634.7H471.3c-20.7,0-37.4-16.7-37.4-37.4V1866c0-21.2,17.6-38.2,38.8-37.4L1033,1850
			c20.1,0.8,36,17.3,36,37.4v709.9C1069,2618,1052.3,2634.7,1031.6,2634.7z"/>
		<g>
			<path class="st8" d="M920.2,2164.8H549c-2.9,0-5.3-2.4-5.3-5.3v-38.7c0-2.9,2.4-5.3,5.3-5.3h371.1c2.9,0,5.3,2.4,5.3,5.3v38.7
				C925.5,2162.4,923.1,2164.8,920.2,2164.8z"/>
			<path class="st8" d="M920.9,2243.6H549.8c-2.9,0-5.3-2.4-5.3-5.3v-38.7c0-2.9,2.4-5.3,5.3-5.3h371.1c2.9,0,5.3,2.4,5.3,5.3v38.7
				C926.2,2241.2,923.9,2243.6,920.9,2243.6z"/>
			<path class="st8" d="M923.1,2324H552c-2.9,0-5.3-2.4-5.3-5.3V2280c0-2.9,2.4-5.3,5.3-5.3h371.1c2.9,0,5.3,2.4,5.3,5.3v38.7
				C928.5,2321.6,926.1,2324,923.1,2324z"/>
			<path class="st8" d="M923.9,2402.8H552.8c-2.9,0-5.3-2.4-5.3-5.3v-38.7c0-2.9,2.4-5.3,5.3-5.3h371.1c2.9,0,5.3,2.4,5.3,5.3v38.7
				C929.2,2400.4,926.8,2402.8,923.9,2402.8z"/>
		</g>
		<g>
			<path class="st9" d="M1734.1,2164.8h-538.2c-2.9,0-5.3-2.4-5.3-5.3v-38.7c0-2.9,2.4-5.3,5.3-5.3h538.2c2.9,0,5.3,2.4,5.3,5.3
				v38.7C1739.4,2162.4,1737,2164.8,1734.1,2164.8z"/>
			<path class="st9" d="M1735.8,2243.6h-538.2c-2.9,0-5.3-2.4-5.3-5.3v-38.7c0-2.9,2.4-5.3,5.3-5.3h538.2c2.9,0,5.3,2.4,5.3,5.3
				v38.7C1741.1,2241.2,1738.7,2243.6,1735.8,2243.6z"/>
			<path class="st9" d="M1512.1,2324h-314.6c-2.9,0-5.3-2.4-5.3-5.3V2280c0-2.9,2.4-5.3,5.3-5.3h314.6c2.9,0,5.3,2.4,5.3,5.3v38.7
				C1517.4,2321.6,1515.1,2324,1512.1,2324z"/>
			<g class="st10">
				<path class="st7" d="M1481.9,1931.6h-8.4c-4.2,0-7.5-3.4-7.5-7.5v-28.6c0-10.2-8.3-18.5-18.5-18.5h-51.8
					c-10.2,0-18.5,8.3-18.5,18.5v28.6c0,4.2-3.4,7.5-7.5,7.5h-8.4c-4.2,0-7.5-3.4-7.5-7.5v-28.6c0-23.2,18.8-41.9,41.9-41.9h51.8
					c23.2,0,41.9,18.8,41.9,41.9v28.6C1489.4,1928.3,1486,1931.6,1481.9,1931.6z"/>
				<path class="st7" d="M1492.2,1938.4h-141.3c-8.7,0-15.7,7-15.7,15.7v108.5c0,8.7,7,15.7,15.7,15.7h141.3c8.7,0,15.7-7,15.7-15.7
					V1954C1507.9,1945.4,1500.9,1938.4,1492.2,1938.4z M1441.8,2043.2c0.9,3.7-1.9,7.2-5.6,7.2H1407c-3.8,0-6.5-3.5-5.6-7.2
					l6.8-28.3c-8-4.8-13.3-13.8-12.7-23.9c0.7-13.1,11.3-23.9,24.5-24.7c15.2-0.9,27.9,11.1,27.9,26.1c0,9.6-5.1,17.9-12.8,22.5
					L1441.8,2043.2z"/>
			</g>
		</g>
	</g>
	<g>
		<g>
			<path class="st2" d="M1416.3,1119.8c8.3-7.8,19.5-11.6,30.9-10.6c121.2,10.9,347.3-47.5,495-198.7c10.3-10.5,29-4.6,40.7,4.2
				c164.3,122.8,436.7,148.2,531.3,153.4c19.6,1.1,35.4,16.2,37.5,35.7c86,830.5-454.8,1131.5-566.9,1184.6
				c-12.3,5.8-26.7,5-38.2-2.2c-559-348.2-535.1-801-542.8-1136.5C1403.4,1138.5,1408,1127.5,1416.3,1119.8z"/>
			<path class="st5" d="M1969.5,2228.2c-2.5,0-5-0.7-7.2-2.1c-214.3-137-354-300.8-427-500.7c-65.2-178.5-68.4-360.4-71.2-520.8
				l-0.4-21.4c-0.1-3.6,1.3-6.9,3.8-9.5c2.5-2.6,5.9-4,9.5-4h0c132.7,0,331.9-58.6,478-189.5c4.5-4,11.1-4.5,16.2-1.2
				c160.5,106.5,389.5,137.5,511.7,146.5c6.5,0.5,11.6,5.5,12.2,12.1c28.4,324.1-39,598.1-200.3,814.5
				c-120.5,161.6-263.4,245.8-319.2,274.5l0,0C1973.7,2227.7,1971.6,2228.2,1969.5,2228.2z M1973.1,2221.9l1.2,2.4L1973.1,2221.9
				c55.5-28.5,197.5-112.2,317.4-272.9c160.5-215.3,227.6-488.1,199.3-810.8c-0.3-3.8-3.4-6.8-7.2-7.1
				c-122.7-9-352.8-40.2-514.3-147.4c-3-2-6.9-1.7-9.5,0.7c-147.2,131.9-347.9,190.9-481.5,190.9h0c-2.3,0-4.3,0.8-5.7,2.4
				c-1.5,1.5-2.3,3.5-2.2,5.6l0.4,21.4c2.8,160,6,341.3,70.9,519c72.6,198.7,211.6,361.6,424.8,498
				C1967.6,2223,1970.6,2223.2,1973.1,2221.9z"/>
		</g>
	</g>
	<g>
		
			<linearGradient id="SVGID_6_" gradientUnits="userSpaceOnUse" x1="1220.1816" y1="1735.1772" x2="1345.6401" y2="1866.2117" gradientTransform="matrix(-1 0 0 1 1528.5571 0)">
			<stop  offset="0" style="stop-color:#09005D"/>
			<stop  offset="1" style="stop-color:#1A0F91"/>
		</linearGradient>
		<path class="st11" d="M343.3,1667.5c0,0,34.6,1.8,38.9,73c0,0-80.2,71.9-188.6,89.1c-8.1,1.3,11.4-55.6,14.3-63.3
			C221.8,1729.7,265.8,1706.1,343.3,1667.5z"/>
		<path class="st5" d="M733.1,1583.8h-73c0,0-224.1-247.5-371.2-272.5c0,0-102.3,130.6,5.5,374.7c8.7,19.6,32.9,28.4,51,16.8
			c5.4-3.5,9.3-8.1,11.7-13.9l-8.7-208.4c0,0,191.2,167.2,224.4,199.5C606,1712.2,774.9,1692.6,733.1,1583.8z"/>
		
			<linearGradient id="SVGID_7_" gradientUnits="userSpaceOnUse" x1="1386.6097" y1="2064.0737" x2="1623.9188" y2="2238.2456" gradientTransform="matrix(-1 0 0 1 1528.5571 0)">
			<stop  offset="0" style="stop-color:#09005D"/>
			<stop  offset="1" style="stop-color:#1A0F91"/>
		</linearGradient>
		<path class="st12" d="M27.1,2103.5c30.6-26.8,79.4-56.9,149.8-65.5l23.8,14.6c0,0-15.2,22.4-42.9,46
			c-25.5,14.8-64.8,34.9-97.5,39.2C28.5,2142,23.8,2122.9,27.1,2103.5z"/>
		<path class="st7" d="M207.9,1766.3c18.9,6.1,27.1,32.8,75,15.1c46.3-17.1,80.7-39.1,98.4-51.8c0.4,3.4,0.7,7,1,10.9
			c0,0-84.6,80.5-193,97.6c-8.1,1.3-14.6-6.8-11.7-14.5C182.8,1809.8,192.3,1788.8,207.9,1766.3z"/>
		<path class="st7" d="M4,2126.4c6-6.9,13.7-14.7,23.1-22.9c-3.2,19.3,1.5,38.5,33.2,34.3c32.6-4.3,72-24.4,97.5-39.2
			c-31.9,27.2-80.6,56.2-141.9,54.5C2.2,2152.7-5,2136.7,4,2126.4z"/>
		<path class="st13" d="M730.4,1636.6l-342,3.7c0,0-195.3,161.6-230.7,408c0,0-5.9,18.1,29.4,21.2c0,0,118.1-77.1,195.1-213.5
			c94.4-167.2,281.4-91.9,281.4-91.9c89.9,19.8,161.4,12.5,213.7-68.1L730.4,1636.6z"/>
		
			<linearGradient id="SVGID_8_" gradientUnits="userSpaceOnUse" x1="1003.2101" y1="1420.3712" x2="842.1013" y2="1611.96" gradientTransform="matrix(-1 0 0 1 1528.5571 0)">
			<stop  offset="0" style="stop-color:#FEBBBA"/>
			<stop  offset="1" style="stop-color:#FF928E"/>
		</linearGradient>
		<path class="st14" d="M722.3,1361.1c0,0-36.8,184.5-217.2,257.5l-64.2-7.6l-15.1,24.1l150.5,4.8c0,0,128.7-51,196.8-189.8
			C775.4,1445.6,813,1368.1,722.3,1361.1z"/>
		<path class="st15" d="M702.6,1633.6c0,0,41.9-113.8,50.9-224.4c0,0-30.6-26.3-49.8-37.7c-6.2-3.7-8.5-11.5-5.4-17.9
			c14.1-29.2,99.2-143.6,105.6-145.2c34.7-8.6,176.8-76.2,276.9,60.7c43,58.8-8.5,239.7-203.4,427
			C814.6,1706.3,756,1688.2,702.6,1633.6z"/>
		
			<linearGradient id="SVGID_9_" gradientUnits="userSpaceOnUse" x1="815.3506" y1="1594.6946" x2="1137.382" y2="1154.1382" gradientTransform="matrix(-1 0 0 1 1528.5571 0)">
			<stop  offset="0" style="stop-color:#FEBBBA"/>
			<stop  offset="1" style="stop-color:#FF928E"/>
		</linearGradient>
		<path class="st16" d="M863.9,1434.2c0,0-116.3,137.7-265,157.9c0,0-38.4-35-67-22.5c-28.6,12.5-67.8,67.7-67.8,67.7h190.9
			c0,0,180.5-6.4,270.8-115.8C918.6,1483.1,896.8,1460.2,863.9,1434.2z"/>
		
			<linearGradient id="SVGID_10_" gradientUnits="userSpaceOnUse" x1="618.3552" y1="1229.6063" x2="630.217" y2="1122.8499" gradientTransform="matrix(-1 0 0 1 1528.5571 0)">
			<stop  offset="0" style="stop-color:#FEBBBA"/>
			<stop  offset="1" style="stop-color:#FF928E"/>
		</linearGradient>
		<path class="st17" d="M931.8,1111.8l25.5,84.9c1.2,3.9-0.3,8.1-3.6,10.4c-12.3,8.4-44.3,25.1-88.2,8.9c-5-1.9-8.5-6.5-8.9-11.9
			l-6-73.9L931.8,1111.8z"/>
		<g>
			
				<linearGradient id="SVGID_11_" gradientUnits="userSpaceOnUse" x1="681.6224" y1="1136.4829" x2="629.3395" y2="964.0413" gradientTransform="matrix(-1 0 0 1 1528.5571 0)">
				<stop  offset="0" style="stop-color:#FEBBBA"/>
				<stop  offset="1" style="stop-color:#FF928E"/>
			</linearGradient>
			<path class="st18" d="M782.8,1043c0,0,12.5,88,46.3,115.1c33.8,27.1,99.7,6.7,121.9-59.6L906.7,985L782.8,1043z"/>
			
				<linearGradient id="SVGID_12_" gradientUnits="userSpaceOnUse" x1="634.4424" y1="819.851" x2="683.0518" y2="1097.1039" gradientTransform="matrix(-1 0 0 1 1528.5571 0)">
				<stop  offset="0" style="stop-color:#09005D"/>
				<stop  offset="1" style="stop-color:#1A0F91"/>
			</linearGradient>
			<path class="st19" d="M911.7,1058.4c-2.6,0.8-5.3-0.8-5.7-3.5c-1.2-8.1-4.3-24.2-10.4-35.1c0,0,3.2-11.5-29.2,5.9
				c-32.4,17.4-81.1,43.1-109.7,27.8c-27.9-14.9-56.2-89.7,17.6-75.9c2.8,0.5,5.4-1.7,5.2-4.6c-0.9-12.3,0.3-40.6,29-49.7
				c26.8-8.5,41.5,3.6,47.6,10.9c1.8,2.2,5.1,2.1,6.8-0.1c8-10.5,29.9-32.8,62-18.7c26.5,11.7,30.6,28,30.1,38.1
				c-0.1,3.3,3.2,5.5,6.2,4.1c8.1-3.7,21.1-5.7,33.6,10c17.3,21.6-7.4,40.4-14.8,45.3c-1.2,0.8-2,2.1-2,3.6
				c-0.1,11.2-1.8,60.3-26.4,88c-2.1,2.4-6.1,1.7-7.3-1.3l-18.9-45.1c-0.9-2.1-3.2-3.2-5.4-2.5L911.7,1058.4z"/>
			
				<linearGradient id="SVGID_13_" gradientUnits="userSpaceOnUse" x1="627.468" y1="1152.9022" x2="575.1849" y2="980.4603" gradientTransform="matrix(-1 0 0 1 1528.5571 0)">
				<stop  offset="0" style="stop-color:#FEBBBA"/>
				<stop  offset="1" style="stop-color:#FF928E"/>
			</linearGradient>
			<path class="st20" d="M911.3,1067.6c0,0,11.6-47.1,29.1-31.8c17.6,15.3-4.6,48.9-24.7,55.3L911.3,1067.6z"/>
		</g>
		
			<linearGradient id="SVGID_14_" gradientUnits="userSpaceOnUse" x1="1054.814" y1="1495.0194" x2="1299.8634" y2="1495.0194" gradientTransform="matrix(-1 0 0 1 1528.5571 0)">
			<stop  offset="0" style="stop-color:#09005D"/>
			<stop  offset="1" style="stop-color:#1A0F91"/>
		</linearGradient>
		<path class="st21" d="M473.7,1647.9L388,1362c-3.5-11.7-13.9-19.9-26-20.8l-115.8-7.9c-11.8-0.8-20.5,10.7-16.6,21.8l95.8,273
			c3.1,8.8,11,15,20.3,15.9l114,12.7L473.7,1647.9z"/>
		<path class="st7" d="M315.6,1458.9c6.4,12.9,17.5,20.5,24.7,16.9c7.2-3.6,7.9-17,1.5-29.9c-6.4-12.9-17.5-20.5-24.7-16.9
			C309.9,1432.6,309.2,1446,315.6,1458.9z"/>
		
			<linearGradient id="SVGID_15_" gradientUnits="userSpaceOnUse" x1="1084.5559" y1="1602.1371" x2="888.6128" y2="1655.84" gradientTransform="matrix(-1 0 0 1 1528.5571 0)">
			<stop  offset="0" style="stop-color:#09005D"/>
			<stop  offset="1" style="stop-color:#1A0F91"/>
		</linearGradient>
		<path class="st22" d="M459.7,1656.8c0.2,0,0.4,0,0.6,0l242.9-12.3c6-0.3,10.6-5.4,10.3-11.4c-0.3-6-5.4-10.7-11.4-10.3L459.2,1635
			c-6,0.3-10.6,5.4-10.3,11.4C449.2,1652.3,454,1656.8,459.7,1656.8z"/>
		<path class="st7" d="M753.5,1410.9c-0.9,0-1.7-0.7-1.7-1.7c-0.2-51.3,19.6-119.1,19.8-119.8c0.3-0.9,1.2-1.4,2.1-1.1
			c0.9,0.3,1.4,1.2,1.1,2.1c-0.2,0.7-19.8,68.1-19.6,118.8C755.2,1410.2,754.4,1410.9,753.5,1410.9L753.5,1410.9z"/>
		<path class="st7" d="M863.9,1435.8c-0.4,0-0.7-0.1-1-0.4c-0.7-0.6-0.9-1.6-0.3-2.4c0.5-0.7,53.3-67.8,71.4-113.6
			c0.3-0.9,1.3-1.3,2.2-0.9c0.9,0.3,1.3,1.3,0.9,2.2c-18.3,46.2-71.3,113.7-71.9,114.4C864.9,1435.6,864.4,1435.8,863.9,1435.8z"/>
		<path class="st7" d="M938.8,1539l-9.6-13.6c-0.5-0.8-0.4-1.8,0.4-2.3c0.8-0.5,1.8-0.4,2.3,0.4l8,11.4
			c74.9-32.8,121.3-122.5,121.7-123.4c0.4-0.8,1.4-1.2,2.3-0.7c0.8,0.4,1.2,1.4,0.7,2.3c-0.5,0.9-47.9,92.6-124.7,125.5L938.8,1539z
			"/>
	</g>
</g>
<g>
	<path class="st23" d="M2104.7,1466.6h-17.3c-8.6,0-15.6-7-15.6-15.6v-59.3c0-21.2-17.2-38.4-38.4-38.4h-107.5
		c-21.2,0-38.4,17.2-38.4,38.4v59.3c0,8.6-7,15.6-15.6,15.6h-17.3c-8.6,0-15.6-7-15.6-15.6v-59.3c0-48,38.9-86.9,86.9-86.9h107.5
		c48,0,87,38.9,87,86.9v59.3C2120.3,1459.6,2113.3,1466.6,2104.7,1466.6z"/>
	<path class="st23" d="M2126.2,1480.6H1833c-18,0-32.5,14.6-32.5,32.5v225c0,18,14.6,32.5,32.5,32.5h293.2c18,0,32.5-14.6,32.5-32.5
		v-225C2158.7,1495.1,2144.2,1480.6,2126.2,1480.6z M2021.6,1698c1.8,7.6-3.9,14.9-11.7,14.9h-60.5c-7.8,0-13.5-7.3-11.7-14.9
		l14.1-58.7c-16.7-10-27.5-28.6-26.4-49.6c1.4-27.3,23.5-49.6,50.8-51.3c31.6-2,57.8,23.1,57.8,54.2c0,19.8-10.6,37.2-26.5,46.7
		L2021.6,1698z"/>
</g>
</svg>
