<?xml version="1.0" encoding="utf-8"?>
<!-- Generator: Adobe Illustrator 25.4.1, SVG Export Plug-In . SVG Version: 6.00 Build 0)  -->
<svg version="1.1" id="Capa_1" xmlns="http://www.w3.org/2000/svg" xmlns:xlink="http://www.w3.org/1999/xlink" x="0px" y="0px"
	 viewBox="0 0 512 512" style="enable-background:new 0 0 512 512;" xml:space="preserve">
<style type="text/css">
	.st0{fill:url(#SVGID_1_);}
	.st1{fill:#FFFFFF;}
</style>
<g>
	<g>
		<g>
			
				<linearGradient id="SVGID_1_" gradientUnits="userSpaceOnUse" x1="256.0005" y1="-327.9998" x2="256.0005" y2="184.0002" gradientTransform="matrix(1 0 0 -1 0 184.0002)">
				<stop  offset="6.926126e-08" style="stop-color:#3F77F2"/>
				<stop  offset="1" style="stop-color:#D8E5FF"/>
			</linearGradient>
			<path class="st0" d="M436,81.6c-83,0-169.1-77-169.9-77.7c-5.7-5.2-14.4-5.2-20.2,0C245.1,4.7,159.2,81.6,76,81.6
				c-8.3,0-15,6.7-15,15v179.6C61,421.8,169.2,479.9,250.6,511c1.7,0.7,3.5,1,5.4,1c1.8,0,3.6-0.3,5.4-1
				C375.5,467.4,451,399.5,451,276.3V96.6C451,88.3,444.3,81.6,436,81.6z"/>
		</g>
	</g>
</g>
<g>
	<path class="st1" d="M370.3,289.4c0-5.6-2.7-8.2-8.3-8.3c-9,0-18,0-27,0c-4.3,0-4.3,0-4.3-4.3c0-41.1,0-82.3,0-123.4c0-1,0-2,0-3
		c-0.1-4.1-1.6-5.9-5.5-6.9c-52.7,0-105.3,0-158,0c-4,1.3-5.4,3.3-5.5,7.5c0,0.6,0,1.2,0,1.7c0,68.1,0,136.2,0,204.4
		c0,0.8,0,1.6,0,2.4c0.2,4.5,2.9,7.1,7.4,7.1c58.5,0,117.1,0,175.6,0c2.3,0,4.6-0.2,6.9-0.9c11-3.8,18.6-14.3,18.7-26.3
		C370.4,322.6,370.4,306,370.3,289.4z M318.5,353.2c-46.9,0-93.7,0-140.6,0c-1.9,0-2.5-0.3-2.5-2.4c0.1-64,0.1-128.1,0-192.1
		c0-2,0.5-2.3,2.4-2.3c45.6,0.1,91.2,0.1,136.9,0c2,0,2.4,0.6,2.4,2.5c-0.1,59,0,117.9-0.1,176.9c0,6,0.7,11.8,4,17.4
		C319.9,353.2,319.2,353.2,318.5,353.2z M356.6,318.1c0,7,0.1,13.9,0,20.9c-0.1,6.4-4,11.9-9.5,13.7c-7.2,2.3-15-2.7-16.5-10.6
		c-0.3-1.4-0.4-2.9-0.4-4.3c0-13.6,0-27.2,0-40.9c0-1.6,0.2-2.3,2.1-2.2c7.5,0.1,15.1,0.1,22.6,0c1.6,0,1.9,0.5,1.9,1.9
		C356.5,303.7,356.6,310.9,356.6,318.1z"/>
	<path class="st1" d="M243.6,226.5c-15.7,0-31.3,0-47,0c-3.7,0-6.5-2.3-6.9-5.6c-0.5-3.8,2.2-7,6-7.4c0.4,0,0.9,0,1.3,0
		c31,0,61.9,0,92.9,0c5.3,0,8.7,4.3,6.9,8.9c-1,2.7-3.4,4.2-6.7,4.2C274.7,226.5,259.1,226.5,243.6,226.5z"/>
	<path class="st1" d="M243.6,255.6c-15.7,0-31.3,0-47,0c-3.7,0-6.5-2.3-6.9-5.6c-0.5-3.8,2.2-7,6-7.4c0.4,0,0.9,0,1.3,0
		c31,0,61.9,0,92.9,0c5.3,0,8.7,4.3,6.9,8.9c-1,2.7-3.4,4.2-6.7,4.2C274.7,255.6,259.1,255.6,243.6,255.6z"/>
	<path class="st1" d="M243.6,286.2c-15.7,0-31.3,0-47,0c-3.7,0-6.5-2.3-6.9-5.6c-0.5-3.8,2.2-7,6-7.4c0.4,0,0.9,0,1.3,0
		c31,0,61.9,0,92.9,0c5.3,0,8.7,4.3,6.9,8.9c-1,2.7-3.4,4.2-6.7,4.2C274.7,286.2,259.1,286.2,243.6,286.2z"/>
	<path class="st1" d="M243.6,315.2c-15.7,0-31.3,0-47,0c-3.7,0-6.5-2.3-6.9-5.6c-0.5-3.8,2.2-7,6-7.4c0.4,0,0.9,0,1.3,0
		c31,0,61.9,0,92.9,0c5.3,0,8.7,4.3,6.9,8.9c-1,2.7-3.4,4.2-6.7,4.2C274.7,315.2,259.1,315.2,243.6,315.2z"/>
	<path class="st1" d="M219.7,197.5c-7.5,0-14.9,0-22.4,0c-1.5,0-3-0.1-4.4-0.9c-2.4-1.4-3.6-4.1-3.1-6.9c0.5-2.5,2.5-4.6,5-5.1
		c0.6-0.1,1.1-0.2,1.7-0.2c15.4,0,30.7,0,46.1,0c3.6,0,6.2,2.1,6.8,5.2c0.8,4-1.9,7.6-6.1,7.8c-2.9,0.2-5.8,0.1-8.7,0.1
		C229.7,197.5,224.7,197.5,219.7,197.5z"/>
</g>
</svg>
