<svg xmlns="http://www.w3.org/2000/svg" viewBox="0 0 512 320"><path d="M259.1 320c74.1 0 47.7-46.9 53.4-60.4-.1-10.1-.2-19.8.2-25.6 4.7 1.3 15.8 6.9 38.6 29.2 35.3 35.6 44.3 56.9 72.9 56.9h52.5c16.6 0 25.3-6.9 29.6-12.7 4.2-5.6 8.3-15.4 3.8-30.7-11.7-36.8-80-100.3-84.3-107 .6-1.2 1.7-2.9 2.2-3.7 13.5-17.8 64.9-94.9 72.5-125.8V40c4.1-14.1.3-23.2-3.5-28.4C491.1 3.9 481.8 0 469.2 0h-52.5c-17.6 0-30.9 8.9-37.7 25-11.3 28.7-43 87.7-66.8 108.6-.7-29.6-.2-52.2.1-69 1-32.7 3.4-64.6-30.6-64.6h-82.5c-21.3 0-41.7 23.3-19.6 50.9 19.3 24.2 6.9 37.7 11.1 104.8-16.2-17.4-45.1-64.3-65.5-124.4C119.6 15.1 110.9 0 86.5 0H34C12.7 0 0 11.6 0 31.1 0 74.7 96.6 320 259.1 320zM86.5 32c4.6 0 5.1 0 8.5 9.7 20.9 61.5 67.7 152.5 102 152.5 25.7 0 25.7-26.3 25.7-36.3v-79c-1.4-26.1-10.9-39.1-17.2-47l74.8.1c0 .4-.4 87.4.2 108.4 0 29.9 23.8 47.1 60.9 9.5 39.1-44.2 66.2-110.2 67.3-112.9 1.6-3.8 3-5.1 8-5.1h52.7v.2c-4.8 22.4-52.2 93.8-68 115.9-.3.3-.5.7-.7 1.1-7 11.4-12.7 24 1 41.7 1.2 1.5 4.5 5 9.2 9.9 14.6 15.1 64.6 66.6 69.1 87-2.9.5-6.1.1-55.7.2-10.6 0-18.8-15.8-50.3-47.6-28.3-27.6-46.7-38.8-63.5-38.8-32.5 0-30.1 26.4-29.8 58.3.1 34.6-.1 23.7.1 25.8-1.9.7-7.3 2.2-21.5 2.2C123.7 288 35.6 73.2 32.2 32.1c1.2-.1 17.3-.1 54.3-.1z"/></svg>