<svg xmlns="http://www.w3.org/2000/svg" viewBox="0 0 512 512"><path d="M160 191.996v-48c0-6.272-3.68-11.968-9.376-14.56-5.728-2.624-12.448-1.6-17.152 2.528l-128 112A15.946 15.946 0 000 255.996c0 4.608 1.984 8.992 5.472 12.032l128 112a15.9 15.9 0 0017.152 2.528 16.013 16.013 0 009.376-14.56v-48h34.112l85.312-128H160zm346.528 51.968l-128-112c-4.704-4.096-11.392-5.088-17.152-2.528a15.96 15.96 0 00-9.376 14.56v48h-34.112l-85.344 128H352v48a15.96 15.96 0 009.376 14.56c2.112.96 4.384 1.44 6.624 1.44 3.808 0 7.552-1.344 10.528-3.968l128-112A15.946 15.946 0 00512 255.996c0-4.608-1.984-8.992-5.472-12.032z"/></svg>