<svg xmlns="http://www.w3.org/2000/svg" viewBox="0 0 512.001 512.001"><path d="M496.986 103.854H322.631a37.751 37.751 0 00-8.02-11.821l-27.558-27.558c-7.167-7.168-16.698-11.116-26.836-11.116-10.137 0-19.667 3.948-26.836 11.115l-27.558 27.558a37.768 37.768 0 00-8.02 11.821H15.015C6.723 103.853 0 110.575 0 118.867c0 8.292 6.723 15.016 15.015 15.016h182.79a37.751 37.751 0 008.02 11.821l27.558 27.558c7.168 7.168 16.699 11.115 26.836 11.115 10.138 0 19.668-3.948 26.836-11.115l27.558-27.558a37.768 37.768 0 008.02-11.821h174.354c8.292 0 15.015-6.723 15.015-15.015s-6.723-15.014-15.016-15.014zm-203.607 20.618l-27.558 27.558a7.87 7.87 0 01-5.602 2.32 7.87 7.87 0 01-5.602-2.32l-27.558-27.558c-3.089-3.09-3.089-8.116 0-11.205l27.558-27.557a7.87 7.87 0 015.602-2.32 7.87 7.87 0 015.602 2.32l27.558 27.558c3.089 3.089 3.089 8.115 0 11.204zm203.606 118.517H204.109a37.922 37.922 0 00-8.042-11.821L168.51 203.61c-7.168-7.168-16.699-11.115-26.836-11.115-10.138 0-19.668 3.948-26.836 11.115L87.28 231.168a37.768 37.768 0 00-8.02 11.821H15.015C6.723 242.989 0 249.711 0 258.003s6.723 15.015 15.015 15.015h64.247a37.751 37.751 0 008.02 11.821l27.558 27.558c7.167 7.168 16.698 11.116 26.836 11.116 10.137 0 19.667-3.948 26.836-11.116l27.557-27.557a37.94 37.94 0 008.042-11.821h292.876c8.292 0 15.015-6.723 15.015-15.015-.001-8.292-6.725-15.015-15.017-15.015zm-322.151 20.617l-27.557 27.557a7.87 7.87 0 01-5.602 2.32 7.87 7.87 0 01-5.602-2.32l-27.558-27.558c-3.089-3.089-3.089-8.115 0-11.204l27.558-27.558a7.87 7.87 0 015.602-2.32 7.87 7.87 0 015.602 2.32l27.557 27.558a7.869 7.869 0 012.32 5.601 7.876 7.876 0 01-2.32 5.604zM496.985 378.12h-74.257a37.751 37.751 0 00-8.02-11.821l-27.558-27.558c-7.167-7.168-16.698-11.116-26.836-11.116-10.137 0-19.667 3.948-26.836 11.115l-27.558 27.558a37.768 37.768 0 00-8.02 11.821H15.015C6.723 378.119 0 384.842 0 393.134c0 8.292 6.723 15.015 15.015 15.015h282.888a37.751 37.751 0 008.02 11.821l27.558 27.558c7.168 7.168 16.699 11.115 26.836 11.115 10.138 0 19.668-3.948 26.836-11.115l27.558-27.558a37.768 37.768 0 008.02-11.821h74.257c8.292 0 15.015-6.723 15.015-15.015-.002-8.292-6.726-15.014-15.018-15.014zm-103.509 20.617l-27.558 27.558a7.87 7.87 0 01-5.602 2.32 7.87 7.87 0 01-5.602-2.32l-27.558-27.558c-3.089-3.089-3.089-8.115 0-11.204l27.558-27.557a7.87 7.87 0 015.602-2.32 7.87 7.87 0 015.602 2.32l27.558 27.558c3.089 3.088 3.089 8.114 0 11.203z"/></svg>