<svg xmlns="http://www.w3.org/2000/svg" width="512" height="512"><path d="M502.974 305.88L189.547 169.814a15.002 15.002 0 00-19.733 19.733L305.88 502.973a15 15 0 0028.366-2.555l31.518-134.656 134.656-31.518a14.999 14.999 0 002.554-28.364zM349.86 338.674a15.002 15.002 0 00-11.187 11.187l-23.315 99.611-102.888-237 237.001 102.887-99.611 23.315zM195 120c8.284 0 15-6.716 15-15V15c0-8.284-6.716-15-15-15s-15 6.716-15 15v90c0 8.284 6.716 15 15 15zm-74.246 128.033l-63.64 63.64c-5.858 5.858-5.858 15.355 0 21.213 5.857 5.858 15.356 5.858 21.213 0l63.64-63.64c5.858-5.858 5.858-15.355 0-21.213-5.858-5.858-15.356-5.858-21.213 0zm148.492-106.066l63.64-63.64c5.858-5.858 5.858-15.355 0-21.213-5.857-5.858-15.355-5.858-21.213 0l-63.64 63.64c-5.858 5.858-5.858 15.355 0 21.213 5.857 5.858 15.356 5.858 21.213 0zM78.327 57.114c-5.857-5.858-15.355-5.858-21.213 0-5.858 5.858-5.858 15.355 0 21.213l63.64 63.64c5.857 5.858 15.356 5.858 21.213 0 5.858-5.858 5.858-15.355 0-21.213l-63.64-63.64zM120 195c0-8.284-6.716-15-15-15H15c-8.284 0-15 6.716-15 15s6.716 15 15 15h90c8.284 0 15-6.716 15-15z"/></svg>