<svg xmlns="http://www.w3.org/2000/svg" width="35.5" height="35.5"><path d="M35.154 16.667c.225.403.346.822.346 1.25 0 3.521-7.947 6.375-17.75 6.375S0 21.438 0 17.917c0-.428.123-.847.347-1.25 1.618 2.922 8.793 5.125 17.403 5.125 8.611 0 15.787-2.203 17.404-5.125zM17.75 28.625c-8.61 0-15.785-2.203-17.403-5.125A2.565 2.565 0 000 24.75c0 3.521 7.947 6.375 17.75 6.375 9.805 0 17.75-2.854 17.75-6.375 0-.428-.121-.846-.346-1.25-1.617 2.922-8.793 5.125-17.404 5.125zm0-24.25C7.947 4.375 0 7.229 0 10.75s7.947 6.375 17.75 6.375c9.805 0 17.75-2.854 17.75-6.375s-7.947-6.375-17.75-6.375z"/></svg>