<svg height="512" viewBox="0 0 512.003 512.003" width="512" xmlns="http://www.w3.org/2000/svg"><path d="M504.219 4.19a19.99 19.99 0 00-20.413-2.445l-472 211.105c-14.279 6.253-15.955 26.375-2.915 34.906l157.081 104.545v139.7c0 8.648 5.56 16.317 13.779 19.008 8.087 2.677 17.232-.165 22.351-7.184l62.808-85.677 135.981 90.502a20 20 0 0030.8-13.308l80-472a19.998 19.998 0 00-7.472-19.152zM205.972 430.891v-51.968l25.605 17.041zm191.43 27.389L217.408 338.485l174.651-173.286c7.841-7.779 7.891-20.442.11-28.284-7.779-7.84-20.442-7.891-28.284-.11L183.416 315.862 61.249 234.554 466.005 53.525z"/></svg>