<svg height="512pt" viewBox="0 0 512 512" width="512pt" xmlns="http://www.w3.org/2000/svg"><path d="M256 144.602c-52.566 0-95.332 42.765-95.332 95.332s42.766 95.332 95.332 95.332 95.332-42.766 95.332-95.332-42.766-95.332-95.332-95.332zm0 160.664c-36.023 0-65.332-29.309-65.332-65.332 0-36.024 29.309-65.332 65.332-65.332s65.332 29.304 65.332 65.332c0 36.023-29.309 65.332-65.332 65.332zm0 0"/><path d="M493.488 18.512C481.555 6.574 465.684 0 448.801 0H63.199C46.316 0 30.445 6.574 18.512 18.512 6.574 30.445 0 46.316 0 63.199v64.27c0 16.879 6.574 32.75 18.512 44.687s27.808 18.512 44.687 18.512h33.2v274.2c0 12.589 4.902 24.425 13.804 33.327 8.902 8.903 20.738 13.805 33.328 13.805H368.47c12.59 0 24.426-4.902 33.328-13.805 8.898-8.902 13.805-20.738 13.805-33.328V190.664H448.8c16.883 0 32.754-6.57 44.687-18.508C505.426 160.22 512 144.348 512 127.47V63.2c0-16.883-6.574-32.754-18.512-44.687zM385.602 464.867a17.02 17.02 0 01-5.02 12.113 17.01 17.01 0 01-12.113 5.02H143.53a17.01 17.01 0 01-12.113-5.02 17.026 17.026 0 01-5.02-12.113V110.332h259.204zM482 127.47c0 8.867-3.453 17.203-9.727 23.472-6.27 6.274-14.605 9.727-23.472 9.727h-33.203v-50.332h17.136c8.282 0 15-6.719 15-15 0-8.285-6.718-15-15-15H79.266c-8.282 0-15 6.715-15 15 0 8.281 6.718 15 15 15h17.132v50.332H63.2c-8.867 0-17.203-3.453-23.476-9.727-6.27-6.27-9.723-14.605-9.723-23.472V63.2c0-8.867 3.453-17.203 9.727-23.476C45.997 33.453 54.332 30 63.199 30h385.602c8.867 0 17.203 3.453 23.476 9.727 6.27 6.27 9.723 14.605 9.723 23.472zm0 0"/><path d="M336.332 401.668H175.668c-8.285 0-15 6.715-15 15 0 8.281 6.715 15 15 15h160.664c8.285 0 15-6.719 15-15 0-8.285-6.715-15-15-15zm0 0"/></svg>