<svg xmlns="http://www.w3.org/2000/svg" viewBox="0 0 512 394.6"><path d="M212 108.9c-10.6-6.3-24.2 1.3-24.2 13.7v149.3c0 12.5 13.6 20 24.2 13.8l125.2-74.6c10.4-6.2 10.4-21.3 0-27.5L212 108.9zm7.8 134.9v-93l78 46.6-78 46.4z"/><path d="M424.6 11.1c-99.3-14.7-237.9-14.7-337.2 0-39.7 5.9-71 37.1-77.8 77.6-12.7 75.2-12.7 142.2 0 217.3 6.8 40.5 38.1 71.7 77.8 77.6 49.7 7.4 109.3 11.1 168.9 11.1 59.4 0 118.8-3.7 168.4-11.1 39.7-5.9 71-37.1 77.8-77.6 12.7-75.2 12.7-142.2 0-217.3-6.9-40.6-38.2-71.8-77.9-77.6zm46.3 289.5c-4.5 26.8-25 47.4-51 51.2-96.4 14.3-231.2 14.3-327.9 0-26-3.9-46.5-24.4-51-51.2-12.2-72.4-12.2-134.2 0-206.7 4.5-26.8 25-47.4 51-51.2C140.4 35.5 198.2 32 256 32s115.7 3.6 163.9 10.7c26 3.9 46.5 24.4 51 51.2 12.3 72.5 12.3 134.3 0 206.7z"/></svg>