<svg height="512" width="512" xmlns="http://www.w3.org/2000/svg"><path d="M276 138v109.716l72.809 72.809c7.811 7.811 7.811 20.474 0 28.284-7.811 7.811-20.474 7.81-28.284 0l-78.667-78.667A19.998 19.998 0 01236 256V138c0-11.046 8.954-20 20-20s20 8.954 20 20zM334.667 0H177.333c-41.89 0-83.217 14.722-116.284 43.478V20c0-11.046-8.954-20-20-20s-20 8.954-20 20v78.667c0 11.046 9.031 20 20 20h78.667c11.046 0 20-8.954 20-20s-8.954-20-20-20H81.883C107.197 54.262 141.368 40 177.333 40h157.333C410.393 40 472 101.607 472 177.333v157.333C472 410.393 410.393 472 334.667 472H177.333C101.607 472 40 410.393 40 334.667V256c0-11.046-8.954-20-20-20s-20 8.954-20 20v78.667C0 432.449 79.551 512 177.333 512h157.333C432.449 512 512 432.449 512 334.667V177.333C512 79.551 432.449 0 334.667 0z"/></svg>