<svg xmlns="http://www.w3.org/2000/svg" viewBox="0 0 469.333 469.333"><path d="M426.667 0h-384C19.135 0 0 19.135 0 42.667v384c0 23.531 19.135 42.667 42.667 42.667h384c23.531 0 42.667-19.135 42.667-42.667v-384C469.333 19.135 450.198 0 426.667 0zM448 426.667c0 11.76-9.573 21.333-21.333 21.333h-384c-11.76 0-21.333-9.573-21.333-21.333v-320H448v320zm0-341.334H21.333V42.667c0-11.76 9.573-21.333 21.333-21.333h384c11.76 0 21.333 9.573 21.333 21.333v42.666z"/><circle cx="53.333" cy="53.333" r="10.667"/><circle cx="96" cy="53.333" r="10.667"/><circle cx="138.667" cy="53.333" r="10.667"/><path d="M74.667 341.333H288a10.66 10.66 0 0010.667-10.667V160A10.66 10.66 0 00288 149.333H74.667A10.66 10.66 0 0064 160v170.667a10.66 10.66 0 0010.667 10.666zm10.666-170.666h192V320h-192V170.667z"/><path d="M138.667 192c-17.646 0-32 14.354-32 32v64a10.66 10.66 0 0010.667 10.667A10.66 10.66 0 00128.001 288v-10.667h21.333V288a10.66 10.66 0 0010.667 10.667A10.66 10.66 0 00170.668 288v-64c-.001-17.646-14.356-32-32.001-32zm10.666 64H128v-32c0-5.885 4.781-10.667 10.667-10.667s10.667 4.781 10.667 10.667v32zM224 192h-21.333A10.66 10.66 0 00192 202.667V288a10.66 10.66 0 0010.667 10.667H224c17.646 0 32-14.354 32-32V224c0-17.646-14.354-32-32-32zm10.667 74.667c0 5.885-4.781 10.667-10.667 10.667h-10.667v-64H224c5.885 0 10.667 4.781 10.667 10.667v42.666zm-160 138.666h320a10.66 10.66 0 0010.667-10.667 10.66 10.66 0 00-10.667-10.667h-320A10.662 10.662 0 0064 394.667a10.66 10.66 0 0010.667 10.666zm256-192h64c5.896 0 10.667-4.771 10.667-10.667S400.563 192 394.667 192h-64c-5.896 0-10.667 4.771-10.667 10.667s4.771 10.666 10.667 10.666zm0 64h64c5.896 0 10.667-4.771 10.667-10.667S400.563 256 394.667 256h-64c-5.896 0-10.667 4.771-10.667 10.667s4.771 10.666 10.667 10.666zm0 64h64a10.66 10.66 0 0010.667-10.667 10.66 10.66 0 00-10.667-10.667h-64A10.66 10.66 0 00320 330.666a10.66 10.66 0 0010.667 10.667z"/></svg>