<svg xmlns="http://www.w3.org/2000/svg" viewBox="0 0 534 398"><path d="M515.5 18.5c-10-10-26.2-10-36.2 0L172.6 325.2 54.7 207.3c-10-10-26.2-10-36.2 0-10 10-10 26.2 0 36.2l136 136c10 10 26.2 10 36.2 0L515.5 54.7c10-10 10-26.2 0-36.2z"/><path d="M172.6 398c-9.8 0-19-3.8-25.9-10.7l-136-136C3.8 244.4 0 235.2 0 225.4c0-9.8 3.8-19 10.7-25.9 14.3-14.3 37.5-14.3 51.8 0l110.1 110.1L471.5 10.7C478.4 3.8 487.6 0 497.4 0c9.8 0 19 3.8 25.9 10.7 6.9 6.9 10.7 16.1 10.7 25.9 0 9.8-3.8 19-10.7 25.9L198.5 387.3c-6.9 6.9-16.1 10.7-25.9 10.7zm-136-187.2c-3.7 0-7.5 1.4-10.3 4.3-2.8 2.8-4.3 6.4-4.3 10.3s1.5 7.6 4.3 10.3l136 136c2.8 2.8 6.4 4.3 10.3 4.3 3.9 0 7.6-1.5 10.3-4.3L507.7 46.9c2.8-2.8 4.3-6.4 4.3-10.3s-1.5-7.6-4.3-10.3-6.4-4.3-10.3-4.3-7.6 1.5-10.3 4.3L172.6 340.8 46.9 215.1c-2.8-2.9-6.6-4.3-10.3-4.3z"/></svg>