<svg xmlns="http://www.w3.org/2000/svg" viewBox="0 0 482 482"><path d="M241 0C108.1 0 0 108.1 0 241s108.1 241 241 241 241-108.1 241-241S373.9 0 241 0zm149.7 390.7c-40 40-93.1 62-149.7 62-56.6 0-109.7-22-149.7-62-40-40-62-93.1-62-149.7 0-56.6 22-109.7 62-149.7 40-40 93.1-62 149.7-62 56.6 0 109.7 22 149.7 62 40 40 62 93.1 62 149.7-.1 56.6-22.1 109.7-62 149.7z"/><path d="M241 95.9C161 95.9 95.9 161 95.9 241c0 46.4 22.5 90.3 60.2 117.6 6.6 4.7 15.8 3.3 20.5-3.3 4.7-6.6 3.3-15.8-3.3-20.5-30.1-21.8-48-56.8-48-93.8 0-63.8 51.9-115.7 115.7-115.7S356.7 177.2 356.7 241 304.8 356.7 241 356.7c-8.1 0-14.7 6.6-14.7 14.7s6.6 14.7 14.7 14.7c80 0 145.1-65.1 145.1-145.1S321 95.9 241 95.9z"/><path d="M233.2 302.1v-52.2H181v-23.7h52.2v-51.9h23.7v51.9H309v23.7h-52.1v52.2h-23.7z"/></svg>