<svg version="1.1" id="Capa_1" xmlns="http://www.w3.org/2000/svg" x="0" y="0" width="512" height="512" xml:space="preserve"><style>.st0{stroke-width:20;stroke-miterlimit:10}</style><path class="st0" d="M382.8 20.5H117.9c-56.9 0-103 46.1-103 103v264.9c0 56.9 46.1 103 103 103h264.9c56.9 0 103-46.1 103-103V123.5c.1-56.9-46.1-103-103-103zm73.6 368c0 40.6-32.9 73.6-73.6 73.6H117.9c-40.6 0-73.6-32.9-73.6-73.6v-265c0-40.6 32.9-73.6 73.6-73.6h264.9c40.6 0 73.6 32.9 73.6 73.6v265z"/><path class="st0" d="M368.1 123.5H220.9V153h111.7L122.2 363.3l20.8 20.8 210.5-210.3v111.7h29.4V138.2c-.1-8.1-6.7-14.7-14.8-14.7z"/></svg>