<svg xmlns="http://www.w3.org/2000/svg" width="18.764" height="15.317"><g data-name="Group 108"><path data-name="Path 603" d="M7.659 14.169a.312.312 0 01-.024-.162c.008-.044-.02-.08-.084-.108s-.1-.05-.1-.066-.046-.028-.138-.036l-.133-.012H3.446a1.843 1.843 0 01-1.352-.563 1.844 1.844 0 01-.562-1.352V3.446a1.843 1.843 0 01.562-1.352 1.844 1.844 0 011.352-.563h3.83a.361.361 0 00.245-.078.4.4 0 00.12-.233 2.014 2.014 0 00.036-.281 2.977 2.977 0 00-.006-.317Q7.659.431 7.659.383A.388.388 0 007.276 0h-3.83a3.32 3.32 0 00-2.435 1.011A3.32 3.32 0 000 3.446v8.425a3.319 3.319 0 001.011 2.435 3.319 3.319 0 002.435 1.012h3.83a.363.363 0 00.245-.078.4.4 0 00.12-.234 2.017 2.017 0 00.036-.281 2.974 2.974 0 00-.006-.317q-.012-.192-.012-.239z"/><path data-name="Path 604" d="M18.536 7.12L12.026.61a.766.766 0 00-1.3.539v3.446H5.362a.776.776 0 00-.766.766v4.6a.777.777 0 00.766.766h5.361v3.446a.762.762 0 001.3.538l6.51-6.51a.752.752 0 000-1.077z"/></g></svg>