<svg xmlns="http://www.w3.org/2000/svg" viewBox="0 0 512 512"><path d="M452 232h-19.4c-8.3-23.3-30.5-40-56.6-40H276v-32h60c33.1 0 60-26.9 60-60V60c0-33.1-26.9-60-60-60H176c-33.1 0-60 26.9-60 60v40c0 33.1 26.9 60 60 60h60v32H136c-26.1 0-48.3 16.7-56.6 40H60c-33.1 0-60 26.9-60 60v140h40V292c0-11 9-20 20-20h16v180c0 33.1 26.9 60 60 60h240c33.1 0 60-26.9 60-60V272h16c11 0 20 9 20 20v140h40V292c0-33.1-26.9-60-60-60zM156 100V60c0-11 9-20 20-20h20v40h40V40h40v40h40V40h20c11 0 20 9 20 20v40c0 11-9 20-20 20H176c-11 0-20-9-20-20zm240 352c0 11-9 20-20 20H136c-11 0-20-9-20-20V252c0-11 9-20 20-20h240c11 0 20 9 20 20v200z"/></svg>