<svg xmlns="http://www.w3.org/2000/svg" viewBox="0 0 293.6 293.6"><path d="M276.8 114.8h-32c-1.6-4.8-3.6-9.6-6-14.4L261.2 78c6.4-6.4 6.4-16.8 0-23.2L238.8 32c-6.4-6.4-16.8-6.4-23.2 0l-22.4 22.4c-4.8-2.4-9.2-4.4-14.4-6v-32c0-8.8-7.2-16.4-16.4-16.4h-32c-8.8 0-16 7.2-16 16v32c-4.8 1.6-9.6 3.6-14.4 6L77.6 31.6c-6.4-6.4-16.8-6.4-23.2 0L32 54.8c-6.4 6.4-6.4 16.8 0 23.2l22.8 22.4c-2.4 4.8-4.4 9.2-6 14.4h-32C8 114.8.4 122 .4 131.2v32c0 8.8 7.2 16 16 16h32c1.6 4.8 3.6 9.6 6 14.4L32 216c-6.4 6.4-6.4 16.8 0 23.2L54.8 262c6.4 6.4 16.8 6.4 23.2 0l22.4-22.8c4.8 2.4 9.2 4.4 14.4 6v32c0 8.8 7.2 16.4 16.4 16.4h32c8.8 0 16-7.2 16-16v-32c4.8-1.6 9.6-3.6 14.4-6L216 262c6.4 6.4 16.8 6.4 23.2 0l22.8-22.8c6.4-6.4 6.4-16.8 0-23.2l-23.2-22.8c2.4-4.8 4.4-9.2 6-14.4h32c8.8 0 16.4-7.2 16.4-16.4v-32c0-8.4-7.2-15.6-16.4-15.6zm-130 89.2c-31.6 0-57.2-25.6-57.2-57.2s25.6-57.2 57.2-57.2 57.6 25.6 57.6 57.2-26 57.2-57.6 57.2z"/></svg>