<svg xmlns="http://www.w3.org/2000/svg" style="position:absolute; width: 0; height: 0"><symbol viewBox="0 0 512 512" id="icon-001-calendar"><path d="M279 364c0 22.056 17.944 40 40 40h47c22.056 0 40-17.944 40-40v-47c0-22.056-17.944-40-40-40h-47c-22.056 0-40 17.944-40 40v47zm40-47h47l.025 46.999L366 364h-47v-47z"></path><circle cx="386" cy="210" r="20"></circle><circle cx="299" cy="210" r="20"></circle><path d="M492 352c11.046 0 20-8.954 20-20V120c0-44.112-35.888-80-80-80h-26V20c0-11.046-8.954-20-20-20s-20 8.954-20 20v20h-91V20c0-11.046-8.954-20-20-20s-20 8.954-20 20v20h-90V20c0-11.046-8.954-20-20-20s-20 8.954-20 20v20H80C35.888 40 0 75.888 0 120v312c0 44.112 35.888 80 80 80h352c44.112 0 80-35.888 80-80 0-11.046-8.954-20-20-20s-20 8.954-20 20c0 22.056-17.944 40-40 40H80c-22.056 0-40-17.944-40-40V120c0-22.056 17.944-40 40-40h25v20c0 11.046 8.954 20 20 20s20-8.954 20-20V80h90v20c0 11.046 8.954 20 20 20s20-8.954 20-20V80h91v20c0 11.046 8.954 20 20 20s20-8.954 20-20V80h26c22.056 0 40 17.944 40 40v212c0 11.046 8.954 20 20 20z"></path><circle cx="125" cy="384" r="20"></circle><circle cx="125" cy="210" r="20"></circle><circle cx="125" cy="297" r="20"></circle><circle cx="212" cy="297" r="20"></circle><circle cx="212" cy="210" r="20"></circle><circle cx="212" cy="384" r="20"></circle></symbol><symbol viewBox="0 0 512 512" id="icon-001-double-arrow"><path d="M160 191.996v-48c0-6.272-3.68-11.968-9.376-14.56-5.728-2.624-12.448-1.6-17.152 2.528l-128 112A15.946 15.946 0 0 0 0 255.996c0 4.608 1.984 8.992 5.472 12.032l128 112a15.9 15.9 0 0 0 17.152 2.528 16.013 16.013 0 0 0 9.376-14.56v-48h34.112l85.312-128H160zM506.528 243.964l-128-112c-4.704-4.096-11.392-5.088-17.152-2.528a15.96 15.96 0 0 0-9.376 14.56v48h-34.112l-85.344 128H352v48a15.96 15.96 0 0 0 9.376 14.56c2.112.96 4.384 1.44 6.624 1.44 3.808 0 7.552-1.344 10.528-3.968l128-112A15.946 15.946 0 0 0 512 255.996c0-4.608-1.984-8.992-5.472-12.032z"></path></symbol><symbol viewBox="0 0 30.021 30.021" id="icon-001-down-arrow"><path d="M28.611 13.385L17.6 22.737a3.99 3.99 0 0 1-2.589.949 3.996 3.996 0 0 1-2.589-.949L1.411 13.385A4 4 0 1 1 6.59 7.288l8.421 7.151 8.42-7.151a4 4 0 0 1 5.18 6.097z"></path></symbol><symbol viewBox="0 0 512 320" id="icon-001-vk"><path d="M259.1 320c74.1 0 47.7-46.9 53.4-60.4-.1-10.1-.2-19.8.2-25.6 4.7 1.3 15.8 6.9 38.6 29.2 35.3 35.6 44.3 56.9 72.9 56.9h52.5c16.6 0 25.3-6.9 29.6-12.7 4.2-5.6 8.3-15.4 3.8-30.7-11.7-36.8-80-100.3-84.3-107 .6-1.2 1.7-2.9 2.2-3.7 13.5-17.8 64.9-94.9 72.5-125.8V40c4.1-14.1.3-23.2-3.5-28.4C491.1 3.9 481.8 0 469.2 0h-52.5c-17.6 0-30.9 8.9-37.7 25-11.3 28.7-43 87.7-66.8 108.6-.7-29.6-.2-52.2.1-69 1-32.7 3.4-64.6-30.6-64.6h-82.5c-21.3 0-41.7 23.3-19.6 50.9 19.3 24.2 6.9 37.7 11.1 104.8-16.2-17.4-45.1-64.3-65.5-124.4C119.6 15.1 110.9 0 86.5 0H34C12.7 0 0 11.6 0 31.1 0 74.7 96.6 320 259.1 320zM86.5 32c4.6 0 5.1 0 8.5 9.7 20.9 61.5 67.7 152.5 102 152.5 25.7 0 25.7-26.3 25.7-36.3v-79c-1.4-26.1-10.9-39.1-17.2-47l74.8.1c0 .4-.4 87.4.2 108.4 0 29.9 23.8 47.1 60.9 9.5 39.1-44.2 66.2-110.2 67.3-112.9 1.6-3.8 3-5.1 8-5.1h52.7v.2c-4.8 22.4-52.2 93.8-68 115.9-.3.3-.5.7-.7 1.1-7 11.4-12.7 24 1 41.7 1.2 1.5 4.5 5 9.2 9.9 14.6 15.1 64.6 66.6 69.1 87-2.9.5-6.1.1-55.7.2-10.6 0-18.8-15.8-50.3-47.6-28.3-27.6-46.7-38.8-63.5-38.8-32.5 0-30.1 26.4-29.8 58.3.1 34.6-.1 23.7.1 25.8-1.9.7-7.3 2.2-21.5 2.2C123.7 288 35.6 73.2 32.2 32.1c1.2-.1 17.3-.1 54.3-.1z"></path></symbol><symbol viewBox="0 0 509.381 509.381" id="icon-001-wallet"><path d="M462.793 127.236h-6.338v-61.55c0-25.688-20.899-46.588-46.588-46.588H71.963C34.675 19.098 3.931 47.619.382 83.99-.16 86.56.033 63.66.033 418.353c0 39.662 32.267 71.929 71.929 71.929h390.83c25.689 0 46.588-20.899 46.588-46.588v-269.87c.001-25.688-20.898-46.588-46.587-46.588zM71.963 51.099h337.904c8.044 0 14.588 6.544 14.588 14.588v61.55H71.963c-21.393 0-38.906-16.913-39.882-38.069.975-21.157 18.488-38.069 39.882-38.069zm390.83 407.183H71.963c-22.017 0-39.929-17.912-39.929-39.929V147.11a71.516 71.516 0 0 0 39.929 12.126h390.83c8.044 0 14.588 6.544 14.588 14.588v64.866H356.973c-41.007 0-74.369 33.361-74.369 74.368s33.362 74.368 74.369 74.368h120.408v56.268c0 8.044-6.544 14.588-14.588 14.588zm14.588-102.855H356.973c-23.362 0-42.369-19.006-42.369-42.368s19.006-42.368 42.369-42.368h120.408z"></path><circle cx="362.878" cy="313.059" r="23.188"></circle></symbol><symbol viewBox="0 0 35.5 35.5" id="icon-002-coins-stack"><path d="M35.154 16.667c.225.403.346.822.346 1.25 0 3.521-7.947 6.375-17.75 6.375S0 21.438 0 17.917c0-.428.123-.847.347-1.25 1.618 2.922 8.793 5.125 17.403 5.125 8.611 0 15.787-2.203 17.404-5.125zM17.75 28.625c-8.61 0-15.785-2.203-17.403-5.125A2.565 2.565 0 0 0 0 24.75c0 3.521 7.947 6.375 17.75 6.375 9.805 0 17.75-2.854 17.75-6.375 0-.428-.121-.846-.346-1.25-1.617 2.922-8.793 5.125-17.404 5.125zm0-24.25C7.947 4.375 0 7.229 0 10.75s7.947 6.375 17.75 6.375c9.805 0 17.75-2.854 17.75-6.375s-7.947-6.375-17.75-6.375z"></path></symbol><symbol viewBox="0 0 321.9 321.9" id="icon-002-funnel"><path d="M128.25 175.6c1.7 1.8 2.7 4.1 2.7 6.6v139.7l60-51.3v-88.4c0-2.5 1-4.8 2.7-6.6L295.15 65H26.75l101.5 110.6zM13.95 0h294v45h-294z"></path></symbol><symbol viewBox="0 0 383.4 511.4" id="icon-002-twitter"><path d="M309.3 301.4c98.8 0 98.8-152 0-152h-160v-74C149.3-25.1 0-25.2 0 75.4v240c0 108.1 86.1 196 192 196h117.3c98.8 0 98.8-152 0-152H192c-23.5 0-42.7-19.7-42.7-44v-14h160zm-117.3 90h117.3c56.5 0 56.4 88 0 88H192c-88.2 0-160-73.6-160-164v-240c0-58.3 85.3-58.2 85.3 0v90c0 8.8 7.2 16 16 16h176c56.5 0 56.4 88 0 88h-176c-8.8 0-16 7.2-16 16v30c0 41.9 33.5 76 74.7 76z"></path></symbol><symbol viewBox="0 0 365.6 512" id="icon-003-clicking"><path d="M54.4 135.8c8.2-1.4 13.6-9.2 12.2-17.3C58.7 72.2 94.4 30 141.1 30c46.5 0 82.3 42 74.4 88.3-1.4 8.2 4.1 15.9 12.3 17.3 8.2 1.4 15.9-4.1 17.3-12.3C256 58.9 206.3 0 141.1 0S25.9 58.8 37.1 123.6c1.4 8.1 9.2 13.6 17.3 12.2z"></path><path d="M300.7 240.6c-11.2-22.1-38-30.9-60-20-10.2-20.1-33.6-29.5-54.8-22.2v-91.9c0-24.5-19.7-44.9-43.9-45.6-25.3-.7-46.4 19.6-46.4 45V337L78 318.6c-16.9-17.7-45.2-19-63.1-2.8C-4 332.9-5 362 12.4 380.3l101.3 108c14.1 15.1 34.1 23.7 54.7 23.7h122.1c41.4 0 75-33.6 75-75V281c.1-33.2-35-55.1-64.8-40.4zM335.6 437c0 24.8-20.2 45-45 45H168.4c-12.4 0-24.4-5.2-32.8-14.2-.4-.4-101.1-107.8-101.4-108.2-5.8-6.1-5.5-15.8.8-21.5 6-5.4 15.5-4.8 21.3 1.2l43.5 45.5c9.3 9.8 25.8 3.1 25.8-10.4V106c0-8.4 7-15.2 15.5-15 8.1.2 14.7 7.2 14.7 15.6 0 165.1-.3 90.2-.3 179.4 0 8.3 6.8 15.1 15.1 15 8.4.1 15.1-6.7 15.1-15v-47.9c1.3-6.9 7.4-12.1 14.7-12.1 8.3 0 15 6.7 15 15v45c0 8.3 6.7 15 15 15s15-6.7 15-15v-25c0-8.3 6.7-15 15-15s15 6.7 15 15v25c0 8.3 6.7 15 15 15s15-6.7 15-15v-5c0-8.3 6.7-15 15-15s15 6.7 15 15v156z"></path></symbol><symbol viewBox="0 0 270.5 512" id="icon-003-facebook"><path d="M185.2 512h-130V331H0V211h55.2v-80.5C55.2 58.5 113.8 0 185.7 0h84.8v130h-64.3c-11.5 0-20.9 9.4-20.9 20.9V211h55.2v120h-55.2v181zm-100-30h70V301h55.2v-60h-55.2v-90.1c0-28.1 22.8-50.9 50.9-50.9h34.3V30h-54.8C130.3 30 85.2 75.1 85.2 130.5V241H30v60h55.2v181z"></path></symbol><symbol viewBox="0 0 512.007 512.007" id="icon-003-wallet"><path d="M466.004 176.007h-82V36.033c0-12.568-6.383-24.016-17.074-30.624-10.689-6.607-23.783-7.197-35.025-1.576a17.33 17.33 0 0 0-.428.222L34.697 163.777a65.863 65.863 0 0 0-34.693 58.07v244.16c0 25.364 20.636 46 46 46h420c25.364 0 46-20.636 46-46v-244c0-25.364-20.636-46-46-46zm-119 0H99.337c-5.195 0-6.944-6.941-2.37-9.403L346.355 32.388c1.587-.73 2.911-.276 3.751.243.866.535 1.897 1.56 1.897 3.403v134.974a4.998 4.998 0 0 1-4.999 4.999zm69 200c-17.645 0-32-14.355-32-32s14.355-32 32-32 32 14.355 32 32-14.356 32-32 32z"></path></symbol><symbol viewBox="0 0 512 512" id="icon-004-account"><path d="M512 256C512 114.512 397.504 0 256 0 114.512 0 0 114.496 0 256c0 140.234 113.54 256 256 256 141.875 0 256-115.121 256-256zM256 30c124.617 0 226 101.383 226 226 0 45.586-13.559 89.402-38.703 126.516-100.969-108.61-273.442-108.805-374.594 0C43.56 345.402 30 301.586 30 256 30 131.383 131.383 30 256 30zM87.414 406.5c89.773-100.695 247.422-100.672 337.168 0-90.074 100.773-247.055 100.805-337.168 0zm0 0"></path><path d="M256 271c49.625 0 90-40.375 90-90v-30c0-49.625-40.375-90-90-90s-90 40.375-90 90v30c0 49.625 40.375 90 90 90zm-60-120c0-33.086 26.914-60 60-60s60 26.914 60 60v30c0 33.086-26.914 60-60 60s-60-26.914-60-60zm0 0"></path></symbol><symbol viewBox="0 0 512.003 512.003" id="icon-004-telegram"><path d="M504.219 4.19a19.99 19.99 0 0 0-20.413-2.445l-472 211.105c-14.279 6.253-15.955 26.375-2.915 34.906l157.081 104.545v139.7c0 8.648 5.56 16.317 13.779 19.008 8.087 2.677 17.232-.165 22.351-7.184l62.808-85.677 135.981 90.502a20 20 0 0 0 30.8-13.308l80-472a19.998 19.998 0 0 0-7.472-19.152zM205.972 430.891v-51.968l25.605 17.041zm191.43 27.389L217.408 338.485l174.651-173.286c7.841-7.779 7.891-20.442.11-28.284-7.779-7.84-20.442-7.891-28.284-.11L183.416 315.862 61.249 234.554 466.005 53.525z"></path></symbol><symbol viewBox="0 0 512 512" id="icon-005-atm"><path d="M256 144.602c-52.566 0-95.332 42.765-95.332 95.332s42.766 95.332 95.332 95.332 95.332-42.766 95.332-95.332-42.766-95.332-95.332-95.332zm0 160.664c-36.023 0-65.332-29.309-65.332-65.332 0-36.024 29.309-65.332 65.332-65.332s65.332 29.304 65.332 65.332c0 36.023-29.309 65.332-65.332 65.332zm0 0"></path><path d="M493.488 18.512C481.555 6.574 465.684 0 448.801 0H63.199C46.316 0 30.445 6.574 18.512 18.512 6.574 30.445 0 46.316 0 63.199v64.27c0 16.879 6.574 32.75 18.512 44.687s27.808 18.512 44.687 18.512h33.2v274.2c0 12.589 4.902 24.425 13.804 33.327 8.902 8.903 20.738 13.805 33.328 13.805H368.47c12.59 0 24.426-4.902 33.328-13.805 8.898-8.902 13.805-20.738 13.805-33.328V190.664H448.8c16.883 0 32.754-6.57 44.687-18.508C505.426 160.22 512 144.348 512 127.47v-64.27c0-16.883-6.574-32.754-18.512-44.687zM385.602 464.867a17.02 17.02 0 0 1-5.02 12.113 17.01 17.01 0 0 1-12.113 5.02H143.53a17.01 17.01 0 0 1-12.113-5.02 17.026 17.026 0 0 1-5.02-12.113V110.332h259.204zM482 127.47c0 8.867-3.453 17.203-9.727 23.472-6.27 6.274-14.605 9.727-23.472 9.727h-33.203v-50.332h17.136c8.282 0 15-6.719 15-15 0-8.285-6.718-15-15-15H79.266c-8.282 0-15 6.715-15 15 0 8.281 6.718 15 15 15h17.132v50.332H63.2c-8.867 0-17.203-3.453-23.476-9.727-6.27-6.27-9.723-14.605-9.723-23.472v-64.27c0-8.867 3.453-17.203 9.727-23.476C45.997 33.453 54.332 30 63.199 30h385.602c8.867 0 17.203 3.453 23.476 9.727 6.27 6.27 9.723 14.605 9.723 23.472zm0 0"></path><path d="M336.332 401.668H175.668c-8.285 0-15 6.715-15 15 0 8.281 6.715 15 15 15h160.664c8.285 0 15-6.719 15-15 0-8.285-6.715-15-15-15zm0 0"></path></symbol><symbol viewBox="0 0 512 394.6" id="icon-005-youtube"><path d="M212 108.9c-10.6-6.3-24.2 1.3-24.2 13.7v149.3c0 12.5 13.6 20 24.2 13.8l125.2-74.6c10.4-6.2 10.4-21.3 0-27.5L212 108.9zm7.8 134.9v-93l78 46.6-78 46.4z"></path><path d="M424.6 11.1c-99.3-14.7-237.9-14.7-337.2 0-39.7 5.9-71 37.1-77.8 77.6-12.7 75.2-12.7 142.2 0 217.3 6.8 40.5 38.1 71.7 77.8 77.6 49.7 7.4 109.3 11.1 168.9 11.1 59.4 0 118.8-3.7 168.4-11.1 39.7-5.9 71-37.1 77.8-77.6 12.7-75.2 12.7-142.2 0-217.3-6.9-40.6-38.2-71.8-77.9-77.6zm46.3 289.5c-4.5 26.8-25 47.4-51 51.2-96.4 14.3-231.2 14.3-327.9 0-26-3.9-46.5-24.4-51-51.2-12.2-72.4-12.2-134.2 0-206.7 4.5-26.8 25-47.4 51-51.2C140.4 35.5 198.2 32 256 32s115.7 3.6 163.9 10.7c26 3.9 46.5 24.4 51 51.2 12.3 72.5 12.3 134.3 0 206.7z"></path></symbol><symbol viewBox="0 0 512 512" id="icon-006-history"><path d="M276 138v109.716l72.809 72.809c7.811 7.811 7.811 20.474 0 28.284-7.811 7.811-20.474 7.81-28.284 0l-78.667-78.667A19.998 19.998 0 0 1 236 256V138c0-11.046 8.954-20 20-20s20 8.954 20 20zM334.667 0H177.333c-41.89 0-83.217 14.722-116.284 43.478V20c0-11.046-8.954-20-20-20s-20 8.954-20 20v78.667c0 11.046 9.031 20 20 20h78.667c11.046 0 20-8.954 20-20s-8.954-20-20-20H81.883C107.197 54.262 141.368 40 177.333 40h157.333C410.393 40 472 101.607 472 177.333v157.333C472 410.393 410.393 472 334.667 472H177.333C101.607 472 40 410.393 40 334.667V256c0-11.046-8.954-20-20-20s-20 8.954-20 20v78.667C0 432.449 79.551 512 177.333 512h157.333C432.449 512 512 432.449 512 334.667V177.333C512 79.551 432.449 0 334.667 0z"></path></symbol><symbol viewBox="0 0 512 512.00006" id="icon-006-instagram"><path d="M261.04 512c-1.696 0-3.392 0-5.099-.008-40.132.098-77.214-.922-113.277-3.117-33.062-2.012-63.242-13.438-87.281-33.04-23.196-18.913-39.035-44.487-47.078-76.003-7-27.437-7.371-54.371-7.727-80.422C.32 300.72.055 278.57 0 256.047c.055-22.617.32-44.766.578-63.457.356-26.047.727-52.98 7.727-80.422 8.043-31.516 23.883-57.09 47.078-76.004 24.039-19.602 54.219-31.027 87.285-33.039C178.73.934 215.82-.09 256.039.008c40.145-.086 77.215.926 113.277 3.117 33.063 2.012 63.243 13.438 87.282 33.04 23.199 18.913 39.035 44.487 47.078 76.003 7 27.437 7.37 54.375 7.726 80.422.258 18.691.528 40.84.578 63.363v.094c-.05 22.523-.32 44.672-.578 63.363-.355 26.047-.722 52.98-7.726 80.422-8.043 31.516-23.88 57.09-47.078 76.004-24.04 19.602-54.22 31.027-87.282 33.039C334.781 510.977 299.305 512 261.04 512zm-5.099-40.008c39.48.094 75.73-.902 110.946-3.043 25-1.52 46.675-9.633 64.433-24.113 16.414-13.387 27.72-31.856 33.598-54.895 5.828-22.84 6.164-47.363 6.488-71.078.254-18.566.52-40.558.574-62.863-.054-22.309-.32-44.297-.574-62.863-.324-23.715-.66-48.239-6.488-71.082-5.879-23.04-17.184-41.508-33.598-54.895-17.758-14.476-39.433-22.59-64.433-24.11-35.215-2.144-71.465-3.132-110.852-3.046-39.473-.094-75.726.902-110.941 3.047-25 1.52-46.676 9.633-64.434 24.11-16.414 13.386-27.719 31.855-33.598 54.894-5.828 22.843-6.164 47.363-6.488 71.082-.254 18.582-.52 40.586-.574 62.91.055 22.226.32 44.234.574 62.816.324 23.715.66 48.239 6.488 71.078 5.88 23.04 17.184 41.508 33.598 54.895 17.758 14.476 39.434 22.59 64.434 24.11 35.215 2.144 71.476 3.144 110.847 3.046zM254.988 381c-68.922 0-125-56.074-125-125s56.078-125 125-125c68.926 0 125 56.074 125 125s-56.074 125-125 125zm0-210c-46.867 0-85 38.133-85 85s38.133 85 85 85c46.871 0 85-38.133 85-85s-38.129-85-85-85zm139-80c-16.566 0-30 13.43-30 30s13.434 30 30 30c16.57 0 30-13.43 30-30s-13.43-30-30-30zm0 0"></path></symbol><symbol viewBox="0 0 371.1 494.1" id="icon-play"><path d="M343.8 201.2L69.3 13.3C56.6 4.6 43.8 0 33.2 0 12.7 0 0 16.5 0 44v406.1c0 27.5 12.7 44 33.2 44 10.6 0 23.2-4.6 35.9-13.3l274.6-187.9c17.7-12.1 27.4-28.4 27.4-45.9 0-17.4-9.7-33.7-27.3-45.8z"></path></symbol><symbol viewBox="0 0 56.966 56.966" id="icon-search"><path d="M55.146 51.887L41.588 37.786A22.926 22.926 0 0 0 46.984 23c0-12.682-10.318-23-23-23s-23 10.318-23 23 10.318 23 23 23c4.761 0 9.298-1.436 13.177-4.162l13.661 14.208c.571.593 1.339.92 2.162.92.779 0 1.518-.297 2.079-.837a3.004 3.004 0 0 0 .083-4.242zM23.984 6c9.374 0 17 7.626 17 17s-7.626 17-17 17-17-7.626-17-17 7.626-17 17-17z"></path></symbol></svg>