<svg xmlns="http://www.w3.org/2000/svg" style="position:absolute; width: 0; height: 0"><symbol viewBox="0 0 512 512" id="icon-001-calendar"><path d="M279 364c0 22.056 17.944 40 40 40h47c22.056 0 40-17.944 40-40v-47c0-22.056-17.944-40-40-40h-47c-22.056 0-40 17.944-40 40v47zm40-47h47l.025 46.999L366 364h-47v-47z"></path><circle cx="386" cy="210" r="20"></circle><circle cx="299" cy="210" r="20"></circle><path d="M492 352c11.046 0 20-8.954 20-20V120c0-44.112-35.888-80-80-80h-26V20c0-11.046-8.954-20-20-20s-20 8.954-20 20v20h-91V20c0-11.046-8.954-20-20-20s-20 8.954-20 20v20h-90V20c0-11.046-8.954-20-20-20s-20 8.954-20 20v20H80C35.888 40 0 75.888 0 120v312c0 44.112 35.888 80 80 80h352c44.112 0 80-35.888 80-80 0-11.046-8.954-20-20-20s-20 8.954-20 20c0 22.056-17.944 40-40 40H80c-22.056 0-40-17.944-40-40V120c0-22.056 17.944-40 40-40h25v20c0 11.046 8.954 20 20 20s20-8.954 20-20V80h90v20c0 11.046 8.954 20 20 20s20-8.954 20-20V80h91v20c0 11.046 8.954 20 20 20s20-8.954 20-20V80h26c22.056 0 40 17.944 40 40v212c0 11.046 8.954 20 20 20z"></path><circle cx="125" cy="384" r="20"></circle><circle cx="125" cy="210" r="20"></circle><circle cx="125" cy="297" r="20"></circle><circle cx="212" cy="297" r="20"></circle><circle cx="212" cy="210" r="20"></circle><circle cx="212" cy="384" r="20"></circle></symbol><symbol viewBox="0 0 512 512" id="icon-001-double-arrow"><path d="M160 191.996v-48c0-6.272-3.68-11.968-9.376-14.56-5.728-2.624-12.448-1.6-17.152 2.528l-128 112A15.946 15.946 0 0 0 0 255.996c0 4.608 1.984 8.992 5.472 12.032l128 112a15.9 15.9 0 0 0 17.152 2.528 16.013 16.013 0 0 0 9.376-14.56v-48h34.112l85.312-128H160zM506.528 243.964l-128-112c-4.704-4.096-11.392-5.088-17.152-2.528a15.96 15.96 0 0 0-9.376 14.56v48h-34.112l-85.344 128H352v48a15.96 15.96 0 0 0 9.376 14.56c2.112.96 4.384 1.44 6.624 1.44 3.808 0 7.552-1.344 10.528-3.968l128-112A15.946 15.946 0 0 0 512 255.996c0-4.608-1.984-8.992-5.472-12.032z"></path></symbol><symbol viewBox="0 0 30 17.3" id="icon-001-down-arrow"><path d="M28.6 7l-11 9.4c-.7.6-1.7.9-2.6.9-.9 0-1.8-.3-2.6-.9L1.4 7C-.3 5.6-.5 3 .9 1.4 2.3-.3 4.9-.5 6.5.9L15 8.1 23.4 1c1.7-1.4 4.2-1.2 5.6.5 1.5 1.6 1.3 4.1-.4 5.5z"></path></symbol><symbol viewBox="0 0 512.001 512.001" id="icon-001-levels"><path d="M496.986 103.854H322.631a37.751 37.751 0 0 0-8.02-11.821l-27.558-27.558c-7.167-7.168-16.698-11.116-26.836-11.116-10.137 0-19.667 3.948-26.836 11.115l-27.558 27.558a37.768 37.768 0 0 0-8.02 11.821H15.015C6.723 103.853 0 110.575 0 118.867c0 8.292 6.723 15.016 15.015 15.016h182.79a37.751 37.751 0 0 0 8.02 11.821l27.558 27.558c7.168 7.168 16.699 11.115 26.836 11.115 10.138 0 19.668-3.948 26.836-11.115l27.558-27.558a37.768 37.768 0 0 0 8.02-11.821h174.354c8.292 0 15.015-6.723 15.015-15.015s-6.723-15.014-15.016-15.014zm-203.607 20.618l-27.558 27.558a7.87 7.87 0 0 1-5.602 2.32 7.87 7.87 0 0 1-5.602-2.32l-27.558-27.558c-3.089-3.09-3.089-8.116 0-11.205l27.558-27.557a7.87 7.87 0 0 1 5.602-2.32 7.87 7.87 0 0 1 5.602 2.32l27.558 27.558c3.089 3.089 3.089 8.115 0 11.204zM496.985 242.989H204.109a37.922 37.922 0 0 0-8.042-11.821L168.51 203.61c-7.168-7.168-16.699-11.115-26.836-11.115-10.138 0-19.668 3.948-26.836 11.115L87.28 231.168a37.768 37.768 0 0 0-8.02 11.821H15.015C6.723 242.989 0 249.711 0 258.003s6.723 15.015 15.015 15.015h64.247a37.751 37.751 0 0 0 8.02 11.821l27.558 27.558c7.167 7.168 16.698 11.116 26.836 11.116 10.137 0 19.667-3.948 26.836-11.116l27.557-27.557a37.94 37.94 0 0 0 8.042-11.821h292.876c8.292 0 15.015-6.723 15.015-15.015-.001-8.292-6.725-15.015-15.017-15.015zm-322.151 20.617l-27.557 27.557a7.87 7.87 0 0 1-5.602 2.32 7.87 7.87 0 0 1-5.602-2.32l-27.558-27.558c-3.089-3.089-3.089-8.115 0-11.204l27.558-27.558a7.87 7.87 0 0 1 5.602-2.32 7.87 7.87 0 0 1 5.602 2.32l27.557 27.558a7.869 7.869 0 0 1 2.32 5.601 7.876 7.876 0 0 1-2.32 5.604zM496.985 378.12h-74.257a37.751 37.751 0 0 0-8.02-11.821l-27.558-27.558c-7.167-7.168-16.698-11.116-26.836-11.116-10.137 0-19.667 3.948-26.836 11.115l-27.558 27.558a37.768 37.768 0 0 0-8.02 11.821H15.015C6.723 378.119 0 384.842 0 393.134c0 8.292 6.723 15.015 15.015 15.015h282.888a37.751 37.751 0 0 0 8.02 11.821l27.558 27.558c7.168 7.168 16.699 11.115 26.836 11.115 10.138 0 19.668-3.948 26.836-11.115l27.558-27.558a37.768 37.768 0 0 0 8.02-11.821h74.257c8.292 0 15.015-6.723 15.015-15.015-.002-8.292-6.726-15.014-15.018-15.014zm-103.509 20.617l-27.558 27.558a7.87 7.87 0 0 1-5.602 2.32 7.87 7.87 0 0 1-5.602-2.32l-27.558-27.558c-3.089-3.089-3.089-8.115 0-11.204l27.558-27.557a7.87 7.87 0 0 1 5.602-2.32 7.87 7.87 0 0 1 5.602 2.32l27.558 27.558c3.089 3.088 3.089 8.114 0 11.203z"></path></symbol><symbol viewBox="0 0 512 320" id="icon-001-vk"><path d="M259.1 320c74.1 0 47.7-46.9 53.4-60.4-.1-10.1-.2-19.8.2-25.6 4.7 1.3 15.8 6.9 38.6 29.2 35.3 35.6 44.3 56.9 72.9 56.9h52.5c16.6 0 25.3-6.9 29.6-12.7 4.2-5.6 8.3-15.4 3.8-30.7-11.7-36.8-80-100.3-84.3-107 .6-1.2 1.7-2.9 2.2-3.7 13.5-17.8 64.9-94.9 72.5-125.8V40c4.1-14.1.3-23.2-3.5-28.4C491.1 3.9 481.8 0 469.2 0h-52.5c-17.6 0-30.9 8.9-37.7 25-11.3 28.7-43 87.7-66.8 108.6-.7-29.6-.2-52.2.1-69 1-32.7 3.4-64.6-30.6-64.6h-82.5c-21.3 0-41.7 23.3-19.6 50.9 19.3 24.2 6.9 37.7 11.1 104.8-16.2-17.4-45.1-64.3-65.5-124.4C119.6 15.1 110.9 0 86.5 0H34C12.7 0 0 11.6 0 31.1 0 74.7 96.6 320 259.1 320zM86.5 32c4.6 0 5.1 0 8.5 9.7 20.9 61.5 67.7 152.5 102 152.5 25.7 0 25.7-26.3 25.7-36.3v-79c-1.4-26.1-10.9-39.1-17.2-47l74.8.1c0 .4-.4 87.4.2 108.4 0 29.9 23.8 47.1 60.9 9.5 39.1-44.2 66.2-110.2 67.3-112.9 1.6-3.8 3-5.1 8-5.1h52.7v.2c-4.8 22.4-52.2 93.8-68 115.9-.3.3-.5.7-.7 1.1-7 11.4-12.7 24 1 41.7 1.2 1.5 4.5 5 9.2 9.9 14.6 15.1 64.6 66.6 69.1 87-2.9.5-6.1.1-55.7.2-10.6 0-18.8-15.8-50.3-47.6-28.3-27.6-46.7-38.8-63.5-38.8-32.5 0-30.1 26.4-29.8 58.3.1 34.6-.1 23.7.1 25.8-1.9.7-7.3 2.2-21.5 2.2C123.7 288 35.6 73.2 32.2 32.1c1.2-.1 17.3-.1 54.3-.1z"></path></symbol><symbol viewBox="0 0 509.381 509.381" id="icon-001-wallet"><path d="M462.793 127.236h-6.338v-61.55c0-25.688-20.899-46.588-46.588-46.588H71.963C34.675 19.098 3.931 47.619.382 83.99-.16 86.56.033 63.66.033 418.353c0 39.662 32.267 71.929 71.929 71.929h390.83c25.689 0 46.588-20.899 46.588-46.588v-269.87c.001-25.688-20.898-46.588-46.587-46.588zM71.963 51.099h337.904c8.044 0 14.588 6.544 14.588 14.588v61.55H71.963c-21.393 0-38.906-16.913-39.882-38.069.975-21.157 18.488-38.069 39.882-38.069zm390.83 407.183H71.963c-22.017 0-39.929-17.912-39.929-39.929V147.11a71.516 71.516 0 0 0 39.929 12.126h390.83c8.044 0 14.588 6.544 14.588 14.588v64.866H356.973c-41.007 0-74.369 33.361-74.369 74.368s33.362 74.368 74.369 74.368h120.408v56.268c0 8.044-6.544 14.588-14.588 14.588zm14.588-102.855H356.973c-23.362 0-42.369-19.006-42.369-42.368s19.006-42.368 42.369-42.368h120.408z"></path><circle cx="362.878" cy="313.059" r="23.188"></circle></symbol><symbol viewBox="0 0 512 512" id="icon-002-click"><path d="M502.974 305.88L189.547 169.814a15.002 15.002 0 0 0-19.733 19.733L305.88 502.973a15 15 0 0 0 28.366-2.555l31.518-134.656 134.656-31.518a14.999 14.999 0 1 0 2.554-28.364zM349.86 338.674a15.002 15.002 0 0 0-11.187 11.187l-23.315 99.611-102.888-237 237.001 102.887-99.611 23.315zM195 120c8.284 0 15-6.716 15-15V15c0-8.284-6.716-15-15-15s-15 6.716-15 15v90c0 8.284 6.716 15 15 15zM120.754 248.033l-63.64 63.64c-5.858 5.858-5.858 15.355 0 21.213 5.857 5.858 15.356 5.858 21.213 0l63.64-63.64c5.858-5.858 5.858-15.355 0-21.213-5.858-5.858-15.356-5.858-21.213 0zM269.246 141.967l63.64-63.64c5.858-5.858 5.858-15.355 0-21.213-5.857-5.858-15.355-5.858-21.213 0l-63.64 63.64c-5.858 5.858-5.858 15.355 0 21.213 5.857 5.858 15.356 5.858 21.213 0zM78.327 57.114c-5.857-5.858-15.355-5.858-21.213 0-5.858 5.858-5.858 15.355 0 21.213l63.64 63.64c5.857 5.858 15.356 5.858 21.213 0 5.858-5.858 5.858-15.355 0-21.213l-63.64-63.64zM120 195c0-8.284-6.716-15-15-15H15c-8.284 0-15 6.716-15 15s6.716 15 15 15h90c8.284 0 15-6.716 15-15z"></path></symbol><symbol viewBox="0 0 35.5 35.5" id="icon-002-coins-stack"><path d="M35.154 16.667c.225.403.346.822.346 1.25 0 3.521-7.947 6.375-17.75 6.375S0 21.438 0 17.917c0-.428.123-.847.347-1.25 1.618 2.922 8.793 5.125 17.403 5.125 8.611 0 15.787-2.203 17.404-5.125zM17.75 28.625c-8.61 0-15.785-2.203-17.403-5.125A2.565 2.565 0 0 0 0 24.75c0 3.521 7.947 6.375 17.75 6.375 9.805 0 17.75-2.854 17.75-6.375 0-.428-.121-.846-.346-1.25-1.617 2.922-8.793 5.125-17.404 5.125zm0-24.25C7.947 4.375 0 7.229 0 10.75s7.947 6.375 17.75 6.375c9.805 0 17.75-2.854 17.75-6.375s-7.947-6.375-17.75-6.375z"></path></symbol><symbol viewBox="0 0 512 512" id="icon-002-coins"><path d="M336 16c-85.312 0-176 28.032-176 80v64c0 8.832 7.168 16 16 16s16-7.168 16-16v-16.672C225.952 164.736 282.016 176 336 176s110.048-11.264 144-32.672V160c0 15.648-39.36 40.608-113.344 46.784-8.768.704-15.328 8.48-14.592 17.28.672 8.352 7.68 14.656 15.904 14.656.48 0 .896-.032 1.376-.064 41.664-3.488 83.168-14.272 110.656-31.776V224c0 13.664-28.992 33.312-82.784 42.816-8.672 1.536-14.496 9.856-12.96 18.528 1.376 7.744 8.128 13.216 15.712 13.216.928 0 1.888-.064 2.816-.256 32.544-5.728 58.592-15.104 77.216-27.008V288c0 13.664-28.992 33.312-82.784 42.816-8.672 1.536-14.496 9.856-12.96 18.528 1.376 7.744 8.128 13.216 15.712 13.216.928 0 1.888-.064 2.816-.256 32.544-5.728 58.592-15.136 77.216-27.008V352c0 13.664-28.992 33.312-82.784 42.816-8.672 1.536-14.496 9.856-12.96 18.528 1.376 7.744 8.128 13.216 15.712 13.216.928 0 1.888-.064 2.816-.256 32.544-5.728 58.592-15.136 77.216-27.008V416c0 15.648-39.36 40.608-113.344 46.784-8.768.704-15.328 8.48-14.592 17.28.672 8.352 7.68 14.656 15.904 14.656.48 0 .896-.032 1.376-.064C440.352 488.704 512 462.112 512 416V96c0-51.968-90.688-80-176-80zm0 128c-87.904 0-144-28.448-144-48s56.096-48 144-48 144 28.448 144 48-56.096 48-144 48z"></path><path d="M176 208C90.688 208 0 236.032 0 288v128c0 51.968 90.688 80 176 80s176-28.032 176-80V288c0-51.968-90.688-80-176-80zm144 208c0 19.552-56.096 48-144 48S32 435.552 32 416v-16.672C65.952 420.736 122.016 432 176 432s110.048-11.264 144-32.672V416zm0-64c0 19.552-56.096 48-144 48S32 371.552 32 352v-16.672C65.952 356.736 122.016 368 176 368s110.048-11.264 144-32.672V352zm-144-16c-87.904 0-144-28.448-144-48s56.096-48 144-48 144 28.448 144 48-56.096 48-144 48z"></path></symbol><symbol viewBox="0 0 321.9 321.9" id="icon-002-funnel"><path d="M128.25 175.6c1.7 1.8 2.7 4.1 2.7 6.6v139.7l60-51.3v-88.4c0-2.5 1-4.8 2.7-6.6L295.15 65H26.75l101.5 110.6zM13.95 0h294v45h-294z"></path></symbol><symbol viewBox="0 0 383.4 511.4" id="icon-002-twitter"><path d="M309.3 301.4c98.8 0 98.8-152 0-152h-160v-74C149.3-25.1 0-25.2 0 75.4v240c0 108.1 86.1 196 192 196h117.3c98.8 0 98.8-152 0-152H192c-23.5 0-42.7-19.7-42.7-44v-14h160zm-117.3 90h117.3c56.5 0 56.4 88 0 88H192c-88.2 0-160-73.6-160-164v-240c0-58.3 85.3-58.2 85.3 0v90c0 8.8 7.2 16 16 16h176c56.5 0 56.4 88 0 88h-176c-8.8 0-16 7.2-16 16v30c0 41.9 33.5 76 74.7 76z"></path></symbol><symbol viewBox="0 0 365.6 512" id="icon-003-clicking"><path d="M54.4 135.8c8.2-1.4 13.6-9.2 12.2-17.3C58.7 72.2 94.4 30 141.1 30c46.5 0 82.3 42 74.4 88.3-1.4 8.2 4.1 15.9 12.3 17.3 8.2 1.4 15.9-4.1 17.3-12.3C256 58.9 206.3 0 141.1 0S25.9 58.8 37.1 123.6c1.4 8.1 9.2 13.6 17.3 12.2z"></path><path d="M300.7 240.6c-11.2-22.1-38-30.9-60-20-10.2-20.1-33.6-29.5-54.8-22.2v-91.9c0-24.5-19.7-44.9-43.9-45.6-25.3-.7-46.4 19.6-46.4 45V337L78 318.6c-16.9-17.7-45.2-19-63.1-2.8C-4 332.9-5 362 12.4 380.3l101.3 108c14.1 15.1 34.1 23.7 54.7 23.7h122.1c41.4 0 75-33.6 75-75V281c.1-33.2-35-55.1-64.8-40.4zM335.6 437c0 24.8-20.2 45-45 45H168.4c-12.4 0-24.4-5.2-32.8-14.2-.4-.4-101.1-107.8-101.4-108.2-5.8-6.1-5.5-15.8.8-21.5 6-5.4 15.5-4.8 21.3 1.2l43.5 45.5c9.3 9.8 25.8 3.1 25.8-10.4V106c0-8.4 7-15.2 15.5-15 8.1.2 14.7 7.2 14.7 15.6 0 165.1-.3 90.2-.3 179.4 0 8.3 6.8 15.1 15.1 15 8.4.1 15.1-6.7 15.1-15v-47.9c1.3-6.9 7.4-12.1 14.7-12.1 8.3 0 15 6.7 15 15v45c0 8.3 6.7 15 15 15s15-6.7 15-15v-25c0-8.3 6.7-15 15-15s15 6.7 15 15v25c0 8.3 6.7 15 15 15s15-6.7 15-15v-5c0-8.3 6.7-15 15-15s15 6.7 15 15v156z"></path></symbol><symbol viewBox="0 0 270.5 512" id="icon-003-facebook"><path d="M185.2 512h-130V331H0V211h55.2v-80.5C55.2 58.5 113.8 0 185.7 0h84.8v130h-64.3c-11.5 0-20.9 9.4-20.9 20.9V211h55.2v120h-55.2v181zm-100-30h70V301h55.2v-60h-55.2v-90.1c0-28.1 22.8-50.9 50.9-50.9h34.3V30h-54.8C130.3 30 85.2 75.1 85.2 130.5V241H30v60h55.2v181z"></path></symbol><symbol viewBox="0 0 471.2 471.2" id="icon-003-logout"><path d="M227.619 444.2h-122.9c-33.4 0-60.5-27.2-60.5-60.5V87.5c0-33.4 27.2-60.5 60.5-60.5h124.9c7.5 0 13.5-6 13.5-13.5s-6-13.5-13.5-13.5h-124.9c-48.3 0-87.5 39.3-87.5 87.5v296.2c0 48.3 39.3 87.5 87.5 87.5h122.9c7.5 0 13.5-6 13.5-13.5s-6.1-13.5-13.5-13.5z"></path><path d="M450.019 226.1l-85.8-85.8c-5.3-5.3-13.8-5.3-19.1 0-5.3 5.3-5.3 13.8 0 19.1l62.8 62.8h-273.9c-7.5 0-13.5 6-13.5 13.5s6 13.5 13.5 13.5h273.9l-62.8 62.8c-5.3 5.3-5.3 13.8 0 19.1 2.6 2.6 6.1 4 9.5 4s6.9-1.3 9.5-4l85.8-85.8c5.4-5.4 5.4-14 .1-19.2z"></path></symbol><symbol viewBox="0 0 512.007 512.007" id="icon-003-wallet"><path d="M466.004 176.007h-82V36.033c0-12.568-6.383-24.016-17.074-30.624-10.689-6.607-23.783-7.197-35.025-1.576a17.33 17.33 0 0 0-.428.222L34.697 163.777a65.863 65.863 0 0 0-34.693 58.07v244.16c0 25.364 20.636 46 46 46h420c25.364 0 46-20.636 46-46v-244c0-25.364-20.636-46-46-46zm-119 0H99.337c-5.195 0-6.944-6.941-2.37-9.403L346.355 32.388c1.587-.73 2.911-.276 3.751.243.866.535 1.897 1.56 1.897 3.403v134.974a4.998 4.998 0 0 1-4.999 4.999zm69 200c-17.645 0-32-14.355-32-32s14.355-32 32-32 32 14.355 32 32-14.356 32-32 32z"></path></symbol><symbol viewBox="0 0 512 512" id="icon-004-account"><path d="M512 256C512 114.512 397.504 0 256 0 114.512 0 0 114.496 0 256c0 140.234 113.54 256 256 256 141.875 0 256-115.121 256-256zM256 30c124.617 0 226 101.383 226 226 0 45.586-13.559 89.402-38.703 126.516-100.969-108.61-273.442-108.805-374.594 0C43.56 345.402 30 301.586 30 256 30 131.383 131.383 30 256 30zM87.414 406.5c89.773-100.695 247.422-100.672 337.168 0-90.074 100.773-247.055 100.805-337.168 0zm0 0"></path><path d="M256 271c49.625 0 90-40.375 90-90v-30c0-49.625-40.375-90-90-90s-90 40.375-90 90v30c0 49.625 40.375 90 90 90zm-60-120c0-33.086 26.914-60 60-60s60 26.914 60 60v30c0 33.086-26.914 60-60 60s-60-26.914-60-60zm0 0"></path></symbol><symbol viewBox="0 0 512.003 512.003" id="icon-004-telegram"><path d="M504.219 4.19a19.99 19.99 0 0 0-20.413-2.445l-472 211.105c-14.279 6.253-15.955 26.375-2.915 34.906l157.081 104.545v139.7c0 8.648 5.56 16.317 13.779 19.008 8.087 2.677 17.232-.165 22.351-7.184l62.808-85.677 135.981 90.502a20 20 0 0 0 30.8-13.308l80-472a19.998 19.998 0 0 0-7.472-19.152zM205.972 430.891v-51.968l25.605 17.041zm191.43 27.389L217.408 338.485l174.651-173.286c7.841-7.779 7.891-20.442.11-28.284-7.779-7.84-20.442-7.891-28.284-.11L183.416 315.862 61.249 234.554 466.005 53.525z"></path></symbol><symbol viewBox="0 0 512 512" id="icon-005-atm"><path d="M256 144.602c-52.566 0-95.332 42.765-95.332 95.332s42.766 95.332 95.332 95.332 95.332-42.766 95.332-95.332-42.766-95.332-95.332-95.332zm0 160.664c-36.023 0-65.332-29.309-65.332-65.332 0-36.024 29.309-65.332 65.332-65.332s65.332 29.304 65.332 65.332c0 36.023-29.309 65.332-65.332 65.332zm0 0"></path><path d="M493.488 18.512C481.555 6.574 465.684 0 448.801 0H63.199C46.316 0 30.445 6.574 18.512 18.512 6.574 30.445 0 46.316 0 63.199v64.27c0 16.879 6.574 32.75 18.512 44.687s27.808 18.512 44.687 18.512h33.2v274.2c0 12.589 4.902 24.425 13.804 33.327 8.902 8.903 20.738 13.805 33.328 13.805H368.47c12.59 0 24.426-4.902 33.328-13.805 8.898-8.902 13.805-20.738 13.805-33.328V190.664H448.8c16.883 0 32.754-6.57 44.687-18.508C505.426 160.22 512 144.348 512 127.47v-64.27c0-16.883-6.574-32.754-18.512-44.687zM385.602 464.867a17.02 17.02 0 0 1-5.02 12.113 17.01 17.01 0 0 1-12.113 5.02H143.53a17.01 17.01 0 0 1-12.113-5.02 17.026 17.026 0 0 1-5.02-12.113V110.332h259.204zM482 127.47c0 8.867-3.453 17.203-9.727 23.472-6.27 6.274-14.605 9.727-23.472 9.727h-33.203v-50.332h17.136c8.282 0 15-6.719 15-15 0-8.285-6.718-15-15-15H79.266c-8.282 0-15 6.715-15 15 0 8.281 6.718 15 15 15h17.132v50.332H63.2c-8.867 0-17.203-3.453-23.476-9.727-6.27-6.27-9.723-14.605-9.723-23.472v-64.27c0-8.867 3.453-17.203 9.727-23.476C45.997 33.453 54.332 30 63.199 30h385.602c8.867 0 17.203 3.453 23.476 9.727 6.27 6.27 9.723 14.605 9.723 23.472zm0 0"></path><path d="M336.332 401.668H175.668c-8.285 0-15 6.715-15 15 0 8.281 6.715 15 15 15h160.664c8.285 0 15-6.719 15-15 0-8.285-6.715-15-15-15zm0 0"></path></symbol><symbol viewBox="0 0 512 394.6" id="icon-005-youtube"><path d="M212 108.9c-10.6-6.3-24.2 1.3-24.2 13.7v149.3c0 12.5 13.6 20 24.2 13.8l125.2-74.6c10.4-6.2 10.4-21.3 0-27.5L212 108.9zm7.8 134.9v-93l78 46.6-78 46.4z"></path><path d="M424.6 11.1c-99.3-14.7-237.9-14.7-337.2 0-39.7 5.9-71 37.1-77.8 77.6-12.7 75.2-12.7 142.2 0 217.3 6.8 40.5 38.1 71.7 77.8 77.6 49.7 7.4 109.3 11.1 168.9 11.1 59.4 0 118.8-3.7 168.4-11.1 39.7-5.9 71-37.1 77.8-77.6 12.7-75.2 12.7-142.2 0-217.3-6.9-40.6-38.2-71.8-77.9-77.6zm46.3 289.5c-4.5 26.8-25 47.4-51 51.2-96.4 14.3-231.2 14.3-327.9 0-26-3.9-46.5-24.4-51-51.2-12.2-72.4-12.2-134.2 0-206.7 4.5-26.8 25-47.4 51-51.2C140.4 35.5 198.2 32 256 32s115.7 3.6 163.9 10.7c26 3.9 46.5 24.4 51 51.2 12.3 72.5 12.3 134.3 0 206.7z"></path></symbol><symbol viewBox="0 0 512 512" id="icon-006-history"><path d="M276 138v109.716l72.809 72.809c7.811 7.811 7.811 20.474 0 28.284-7.811 7.811-20.474 7.81-28.284 0l-78.667-78.667A19.998 19.998 0 0 1 236 256V138c0-11.046 8.954-20 20-20s20 8.954 20 20zM334.667 0H177.333c-41.89 0-83.217 14.722-116.284 43.478V20c0-11.046-8.954-20-20-20s-20 8.954-20 20v78.667c0 11.046 9.031 20 20 20h78.667c11.046 0 20-8.954 20-20s-8.954-20-20-20H81.883C107.197 54.262 141.368 40 177.333 40h157.333C410.393 40 472 101.607 472 177.333v157.333C472 410.393 410.393 472 334.667 472H177.333C101.607 472 40 410.393 40 334.667V256c0-11.046-8.954-20-20-20s-20 8.954-20 20v78.667C0 432.449 79.551 512 177.333 512h157.333C432.449 512 512 432.449 512 334.667V177.333C512 79.551 432.449 0 334.667 0z"></path></symbol><symbol viewBox="0 0 512 512.00006" id="icon-006-instagram"><path d="M261.04 512c-1.696 0-3.392 0-5.099-.008-40.132.098-77.214-.922-113.277-3.117-33.062-2.012-63.242-13.438-87.281-33.04-23.196-18.913-39.035-44.487-47.078-76.003-7-27.437-7.371-54.371-7.727-80.422C.32 300.72.055 278.57 0 256.047c.055-22.617.32-44.766.578-63.457.356-26.047.727-52.98 7.727-80.422 8.043-31.516 23.883-57.09 47.078-76.004 24.039-19.602 54.219-31.027 87.285-33.039C178.73.934 215.82-.09 256.039.008c40.145-.086 77.215.926 113.277 3.117 33.063 2.012 63.243 13.438 87.282 33.04 23.199 18.913 39.035 44.487 47.078 76.003 7 27.437 7.37 54.375 7.726 80.422.258 18.691.528 40.84.578 63.363v.094c-.05 22.523-.32 44.672-.578 63.363-.355 26.047-.722 52.98-7.726 80.422-8.043 31.516-23.88 57.09-47.078 76.004-24.04 19.602-54.22 31.027-87.282 33.039C334.781 510.977 299.305 512 261.04 512zm-5.099-40.008c39.48.094 75.73-.902 110.946-3.043 25-1.52 46.675-9.633 64.433-24.113 16.414-13.387 27.72-31.856 33.598-54.895 5.828-22.84 6.164-47.363 6.488-71.078.254-18.566.52-40.558.574-62.863-.054-22.309-.32-44.297-.574-62.863-.324-23.715-.66-48.239-6.488-71.082-5.879-23.04-17.184-41.508-33.598-54.895-17.758-14.476-39.433-22.59-64.433-24.11-35.215-2.144-71.465-3.132-110.852-3.046-39.473-.094-75.726.902-110.941 3.047-25 1.52-46.676 9.633-64.434 24.11-16.414 13.386-27.719 31.855-33.598 54.894-5.828 22.843-6.164 47.363-6.488 71.082-.254 18.582-.52 40.586-.574 62.91.055 22.226.32 44.234.574 62.816.324 23.715.66 48.239 6.488 71.078 5.88 23.04 17.184 41.508 33.598 54.895 17.758 14.476 39.434 22.59 64.434 24.11 35.215 2.144 71.476 3.144 110.847 3.046zM254.988 381c-68.922 0-125-56.074-125-125s56.078-125 125-125c68.926 0 125 56.074 125 125s-56.074 125-125 125zm0-210c-46.867 0-85 38.133-85 85s38.133 85 85 85c46.871 0 85-38.133 85-85s-38.129-85-85-85zm139-80c-16.566 0-30 13.43-30 30s13.434 30 30 30c16.57 0 30-13.43 30-30s-13.43-30-30-30zm0 0"></path></symbol><symbol viewBox="0 0 95.7 96" id="icon-area"><path d="M6.8 61.3S23.3 49.2 34 48.2c12.2-1 16.5-18.6 27.2-24.5 8.2-4.5 27.2-7.5 27.2-7.5v70.3H6.8V61.3z"></path></symbol><symbol viewBox="0 0 82.4 63.4" id="icon-arrow-line"><path d="M80.8 27.1L55.2 1.6c-2.2-2.2-5.8-2.2-8.1 0-2.2 2.2-2.2 5.8 0 8.1l15.8 15.7H5.7C2.6 25.4 0 28 0 31.1s2.6 5.7 5.7 5.7h57.1L45.7 53.6c-2.2 2.2-2.2 5.9 0 8.1 1.1 1.1 2.5 1.7 4 1.7h.1c1.5 0 3-.6 4-1.7l26.9-26.5c2.2-2.1 2.2-5.7.1-8.1z"></path></symbol><symbol viewBox="0 0 451.8 257.6" id="icon-arrow"><path d="M225.9 257.6c-8.1 0-16.2-3.1-22.4-9.3L9.3 54C-3.1 41.7-3.1 21.6 9.3 9.3 21.6-3.1 41.7-3.1 54 9.3l171.9 171.9L397.8 9.3c12.4-12.4 32.4-12.4 44.7 0 12.4 12.4 12.4 32.4 0 44.8L248.3 248.3c-6.2 6.2-14.3 9.3-22.4 9.3z"></path></symbol><symbol viewBox="0 0 77.4 77.4" id="icon-arrows"><style><![CDATA[.st0{stroke-width:2;stroke-miterlimit:10}]]></style><path class="st0" d="M52.7 45.4V32.2H31.9V13.3h20.7V0l22.7 22.7-22.6 22.7zM34.3 29.8H55v10l17.1-17.1L55 5.6v10H34.3v14.2zm-9.6 47.6L2 54.7 24.7 32v13.3h20.7v18.9H24.7v13.2zM5.3 54.7l17.1 17.1v-10h20.7V47.6H22.4v-10L5.3 54.7z"></path></symbol><symbol viewBox="0 0 469.333 469.333" id="icon-banners"><path d="M426.667 0h-384C19.135 0 0 19.135 0 42.667v384c0 23.531 19.135 42.667 42.667 42.667h384c23.531 0 42.667-19.135 42.667-42.667v-384C469.333 19.135 450.198 0 426.667 0zM448 426.667c0 11.76-9.573 21.333-21.333 21.333h-384c-11.76 0-21.333-9.573-21.333-21.333v-320H448v320zm0-341.334H21.333V42.667c0-11.76 9.573-21.333 21.333-21.333h384c11.76 0 21.333 9.573 21.333 21.333v42.666z"></path><circle cx="53.333" cy="53.333" r="10.667"></circle><circle cx="96" cy="53.333" r="10.667"></circle><circle cx="138.667" cy="53.333" r="10.667"></circle><path d="M74.667 341.333H288a10.66 10.66 0 0 0 10.667-10.667V160A10.66 10.66 0 0 0 288 149.333H74.667A10.66 10.66 0 0 0 64 160v170.667a10.66 10.66 0 0 0 10.667 10.666zm10.666-170.666h192V320h-192V170.667z"></path><path d="M138.667 192c-17.646 0-32 14.354-32 32v64a10.66 10.66 0 0 0 10.667 10.667A10.66 10.66 0 0 0 128.001 288v-10.667h21.333V288a10.66 10.66 0 0 0 10.667 10.667A10.66 10.66 0 0 0 170.668 288v-64c-.001-17.646-14.356-32-32.001-32zm10.666 64H128v-32c0-5.885 4.781-10.667 10.667-10.667s10.667 4.781 10.667 10.667v32zM224 192h-21.333A10.66 10.66 0 0 0 192 202.667V288a10.66 10.66 0 0 0 10.667 10.667H224c17.646 0 32-14.354 32-32V224c0-17.646-14.354-32-32-32zm10.667 74.667c0 5.885-4.781 10.667-10.667 10.667h-10.667v-64H224c5.885 0 10.667 4.781 10.667 10.667v42.666zM74.667 405.333h320a10.66 10.66 0 0 0 10.667-10.667 10.66 10.66 0 0 0-10.667-10.667h-320A10.662 10.662 0 0 0 64 394.667a10.66 10.66 0 0 0 10.667 10.666zM330.667 213.333h64c5.896 0 10.667-4.771 10.667-10.667S400.563 192 394.667 192h-64c-5.896 0-10.667 4.771-10.667 10.667s4.771 10.666 10.667 10.666zM330.667 277.333h64c5.896 0 10.667-4.771 10.667-10.667S400.563 256 394.667 256h-64c-5.896 0-10.667 4.771-10.667 10.667s4.771 10.666 10.667 10.666zM330.667 341.333h64a10.66 10.66 0 0 0 10.667-10.667 10.66 10.66 0 0 0-10.667-10.667h-64A10.66 10.66 0 0 0 320 330.666a10.66 10.66 0 0 0 10.667 10.667z"></path></symbol><symbol viewBox="0 0 512.001 512.001" id="icon-calendar"><path d="M15.001 421h75v45c0 8.284 6.716 15 15 15h392c8.284 0 15-6.716 15-15V76c0-8.284-6.716-15-15-15h-75V46c0-8.284-6.716-15-15-15s-15 6.716-15 15v15h-76V46c0-8.284-6.716-15-15-15s-15 6.716-15 15v15h-75V46c0-8.284-6.716-15-15-15s-15 6.716-15 15v15h-76c-8.284 0-15 6.716-15 15v90c0 110.55-45.945 195.596-84.603 228.477A15.001 15.001 0 0 0 15.001 421zm467 30h-362v-30h287c3.509 0 6.907-1.23 9.603-3.477 18.032-15.019 45.963-50.777 65.397-96.575zm-362-360h61v15c0 8.284 6.716 15 15 15s15-6.716 15-15V91h75v15c0 8.284 6.716 15 15 15s15-6.716 15-15V91h76v15c0 8.284 6.716 15 15 15s15-6.716 15-15V91h60v60h-362zm-.257 89.99h361.991c-3.38 95.155-39.901 170.023-80.616 210.01H49.12c46.133-58.781 68.149-135.318 70.624-210.01z"></path></symbol><symbol viewBox="0 0 62.5 90" id="icon-candle"><path d="M61 15.6h-9.2V0h-3v15.6h-9.2c-.8 0-1.5.7-1.5 1.5v55.8c0 .8.7 1.5 1.5 1.5h9.2V90h3V74.4H61c.8 0 1.5-.7 1.5-1.5V17.1c0-.8-.7-1.5-1.5-1.5zM22.9 26.2h-9.2V10.6h-3v15.6H1.5c-.8 0-1.5.7-1.5 1.5v34.6c0 .8.7 1.5 1.5 1.5h9.2v15.6h3V63.8h9.2c.8 0 1.5-.7 1.5-1.5V27.7c0-.8-.7-1.5-1.5-1.5z"></path></symbol><symbol viewBox="0 0 174.239 174.239" id="icon-check-bold"><path d="M74.439 157.519a4.199 4.199 0 0 1-6.111.313L1.38 94.468a4.447 4.447 0 0 1-.173-6.267l21.33-22.539a4.447 4.447 0 0 1 6.267-.173L65.375 100.1a4.199 4.199 0 0 0 6.111-.313l71.447-83.015a4.445 4.445 0 0 1 6.251-.468l23.518 20.242a4.446 4.446 0 0 1 .468 6.252L74.439 157.519z"></path></symbol><symbol viewBox="0 0 534 398" id="icon-check"><path d="M515.5 18.5c-10-10-26.2-10-36.2 0L172.6 325.2 54.7 207.3c-10-10-26.2-10-36.2 0-10 10-10 26.2 0 36.2l136 136c10 10 26.2 10 36.2 0L515.5 54.7c10-10 10-26.2 0-36.2z"></path><path d="M172.6 398c-9.8 0-19-3.8-25.9-10.7l-136-136C3.8 244.4 0 235.2 0 225.4c0-9.8 3.8-19 10.7-25.9 14.3-14.3 37.5-14.3 51.8 0l110.1 110.1L471.5 10.7C478.4 3.8 487.6 0 497.4 0c9.8 0 19 3.8 25.9 10.7 6.9 6.9 10.7 16.1 10.7 25.9 0 9.8-3.8 19-10.7 25.9L198.5 387.3c-6.9 6.9-16.1 10.7-25.9 10.7zm-136-187.2c-3.7 0-7.5 1.4-10.3 4.3-2.8 2.8-4.3 6.4-4.3 10.3s1.5 7.6 4.3 10.3l136 136c2.8 2.8 6.4 4.3 10.3 4.3 3.9 0 7.6-1.5 10.3-4.3L507.7 46.9c2.8-2.8 4.3-6.4 4.3-10.3s-1.5-7.6-4.3-10.3-6.4-4.3-10.3-4.3-7.6 1.5-10.3 4.3L172.6 340.8 46.9 215.1c-2.8-2.9-6.6-4.3-10.3-4.3z"></path></symbol><symbol viewBox="0 0 482 482" id="icon-coin"><path d="M241 0C108.1 0 0 108.1 0 241s108.1 241 241 241 241-108.1 241-241S373.9 0 241 0zm149.7 390.7c-40 40-93.1 62-149.7 62-56.6 0-109.7-22-149.7-62-40-40-62-93.1-62-149.7 0-56.6 22-109.7 62-149.7 40-40 93.1-62 149.7-62 56.6 0 109.7 22 149.7 62 40 40 62 93.1 62 149.7-.1 56.6-22.1 109.7-62 149.7z"></path><path d="M241 95.9C161 95.9 95.9 161 95.9 241c0 46.4 22.5 90.3 60.2 117.6 6.6 4.7 15.8 3.3 20.5-3.3 4.7-6.6 3.3-15.8-3.3-20.5-30.1-21.8-48-56.8-48-93.8 0-63.8 51.9-115.7 115.7-115.7S356.7 177.2 356.7 241 304.8 356.7 241 356.7c-8.1 0-14.7 6.6-14.7 14.7s6.6 14.7 14.7 14.7c80 0 145.1-65.1 145.1-145.1S321 95.9 241 95.9z"></path><path d="M233.2 302.1v-52.2H181v-23.7h52.2v-51.9h23.7v51.9H309v23.7h-52.1v52.2h-23.7z"></path></symbol><symbol viewBox="0 0 352.804 352.804" id="icon-copy"><path d="M318.54 57.282h-47.652V15c0-8.284-6.716-15-15-15H34.264c-8.284 0-15 6.716-15 15v265.522c0 8.284 6.716 15 15 15h47.651v42.281c0 8.284 6.716 15 15 15H318.54c8.284 0 15-6.716 15-15V72.282c0-8.284-6.716-15-15-15zM49.264 265.522V30h191.623v27.282H96.916c-8.284 0-15 6.716-15 15v193.24H49.264zm254.276 57.282H111.916V87.282H303.54v235.522z"></path></symbol><symbol viewBox="0 0 24 24" id="icon-cross-line"><path d="M14.8 12l8.6-8.6c.8-.8.8-2 0-2.8s-2-.8-2.8 0L12 9.2 3.4.6C2.6-.1 1.3 0 .6.8 0 1.5 0 2.7.6 3.4L9.2 12 .6 20.6c-.8.8-.8 2 0 2.8s2 .8 2.8 0l8.6-8.6 8.6 8.6c.8.8 2 .8 2.8 0s.8-2 0-2.8L14.8 12z"></path></symbol><symbol viewBox="0 0 311 311.07733" id="icon-cross"><path d="M16.035 311.078c-4.097 0-8.195-1.558-11.308-4.695-6.25-6.25-6.25-16.383 0-22.633L283.789 4.687c6.25-6.25 16.383-6.25 22.633 0s6.25 16.383 0 22.637L27.363 306.383a16.045 16.045 0 0 1-11.328 4.695zm0 0"></path><path d="M295.117 311.078a15.879 15.879 0 0 1-11.308-4.695L4.727 27.324c-6.25-6.254-6.25-16.386 0-22.636s16.382-6.25 22.636 0L306.422 283.75c6.25 6.25 6.25 16.383 0 22.633-3.137 3.117-7.23 4.695-11.305 4.695zm0 0"></path></symbol><symbol viewBox="0 0 488.152 488.152" id="icon-datepicker"><path d="M177.854 269.311c0-6.115-4.96-11.069-11.08-11.069h-38.665c-6.113 0-11.074 4.954-11.074 11.069v38.66c0 6.123 4.961 11.079 11.074 11.079h38.665c6.12 0 11.08-4.956 11.08-11.079v-38.66zM274.483 269.311c0-6.115-4.961-11.069-11.069-11.069h-38.67c-6.113 0-11.074 4.954-11.074 11.069v38.66c0 6.123 4.961 11.079 11.074 11.079h38.67c6.108 0 11.069-4.956 11.069-11.079v-38.66zM371.117 269.311c0-6.115-4.961-11.069-11.074-11.069h-38.665c-6.12 0-11.08 4.954-11.08 11.069v38.66c0 6.123 4.96 11.079 11.08 11.079h38.665c6.113 0 11.074-4.956 11.074-11.079v-38.66zM177.854 365.95c0-6.125-4.96-11.075-11.08-11.075h-38.665c-6.113 0-11.074 4.95-11.074 11.075v38.653c0 6.119 4.961 11.074 11.074 11.074h38.665c6.12 0 11.08-4.956 11.08-11.074V365.95zM274.483 365.95c0-6.125-4.961-11.075-11.069-11.075h-38.67c-6.113 0-11.074 4.95-11.074 11.075v38.653c0 6.119 4.961 11.074 11.074 11.074h38.67c6.108 0 11.069-4.956 11.069-11.074V365.95zM371.117 365.95c0-6.125-4.961-11.075-11.069-11.075h-38.67c-6.12 0-11.08 4.95-11.08 11.075v38.653c0 6.119 4.96 11.074 11.08 11.074h38.67c6.108 0 11.069-4.956 11.069-11.074V365.95z"></path><path d="M440.254 54.354v59.05c0 26.69-21.652 48.198-48.338 48.198h-30.493c-26.688 0-48.627-21.508-48.627-48.198V54.142h-137.44v59.262c0 26.69-21.938 48.198-48.622 48.198H96.235c-26.685 0-48.336-21.508-48.336-48.198v-59.05c-23.323.703-42.488 20.002-42.488 43.723v346.061c0 24.167 19.588 44.015 43.755 44.015h389.82c24.131 0 43.755-19.889 43.755-44.015V98.077c0-23.721-19.164-43.02-42.487-43.723zm-14.163 368.234c0 10.444-8.468 18.917-18.916 18.917H80.144c-10.448 0-18.916-8.473-18.916-18.917V243.835c0-10.448 8.467-18.921 18.916-18.921h327.03c10.448 0 18.916 8.473 18.916 18.921l.001 178.753z"></path><path d="M96.128 129.945h30.162c9.155 0 16.578-7.412 16.578-16.567V16.573C142.868 7.417 135.445 0 126.29 0H96.128C86.972 0 79.55 7.417 79.55 16.573v96.805c0 9.155 7.422 16.567 16.578 16.567zM361.035 129.945h30.162c9.149 0 16.572-7.412 16.572-16.567V16.573C407.77 7.417 400.347 0 391.197 0h-30.162c-9.154 0-16.577 7.417-16.577 16.573v96.805c0 9.155 7.423 16.567 16.577 16.567z"></path></symbol><symbol viewBox="0 0 512 512" id="icon-diagonal"><style><![CDATA[.st0{stroke-width:20;stroke-miterlimit:10}]]></style><path class="st0" d="M382.8 20.5H117.9c-56.9 0-103 46.1-103 103v264.9c0 56.9 46.1 103 103 103h264.9c56.9 0 103-46.1 103-103V123.5c.1-56.9-46.1-103-103-103zm73.6 368c0 40.6-32.9 73.6-73.6 73.6H117.9c-40.6 0-73.6-32.9-73.6-73.6v-265c0-40.6 32.9-73.6 73.6-73.6h264.9c40.6 0 73.6 32.9 73.6 73.6v265z"></path><path class="st0" d="M368.1 123.5H220.9V153h111.7L122.2 363.3l20.8 20.8 210.5-210.3v111.7h29.4V138.2c-.1-8.1-6.7-14.7-14.8-14.7z"></path></symbol><symbol viewBox="0 0 512 512" id="icon-discord"><path d="M484.629 225.058c-20.379-70.018-43.361-106.196-43.732-106.845-1.31-1.599-33.786-40.463-112.059-69.209l-10.343 28.16c37.237 13.676 63.655 30.36 78.184 41.14C353.303 105.351 301.702 97.418 256 97.418s-97.303 7.933-140.679 20.886c14.528-10.779 40.946-27.464 78.183-41.14l-10.343-28.16C104.89 77.75 72.414 116.614 71.104 118.213c-.371.649-23.354 36.827-43.732 106.845C7.732 292.534.271 387.723 0 391.54c1.75 2.736 42 71.456 151.693 71.456l27.804-40.262c-31.15-8.271-60.853-21.609-88.043-39.708l16.623-24.973c43.865 29.197 95.016 44.631 147.923 44.631s104.058-15.434 147.923-44.631l16.623 24.973c-27.189 18.099-56.893 31.437-88.043 39.708l27.804 40.262C470 462.996 510.25 394.276 512 391.54c-.271-3.817-7.732-99.006-27.371-166.482zM186.642 303.54h-30v-50h30zm168.716 0h-30v-50h30z"></path></symbol><symbol viewBox="0 0 512 350.8" id="icon-email"><path d="M467 0H45C20.2 0 0 20.2 0 45v260.8c0 24.8 20.2 45 45 45h422c24.8 0 45-20.2 45-45V45c0-24.8-20.2-45-45-45zm-5.9 30l-6 5-181.2 150.9c-10.3 8.6-25.4 8.6-35.7 0L56.9 35l-6-5h410.2zM30 51.7l147.7 123L30 272.9V51.7zm437 269.1H45c-7.2 0-13.3-5.2-14.7-12l171.4-114.1 17.2 14.3c10.7 8.9 23.9 13.4 37.1 13.4 13.2 0 26.3-4.5 37.1-13.4l17.2-14.3 171.4 114.1c-1.4 6.8-7.5 12-14.7 12zm15-47.9l-147.7-98.3L482 51.7v221.2z"></path></symbol><symbol id="icon-ex"><g data-name="Group 108"><path data-name="Path 603" d="M7.659 14.169a.312.312 0 0 1-.024-.162c.008-.044-.02-.08-.084-.108s-.1-.05-.1-.066-.046-.028-.138-.036l-.133-.012H3.446a1.843 1.843 0 0 1-1.352-.563 1.844 1.844 0 0 1-.562-1.352V3.446a1.843 1.843 0 0 1 .562-1.352 1.844 1.844 0 0 1 1.352-.563h3.83a.361.361 0 0 0 .245-.078.4.4 0 0 0 .12-.233 2.014 2.014 0 0 0 .036-.281 2.977 2.977 0 0 0-.006-.317Q7.659.431 7.659.383A.388.388 0 0 0 7.276 0h-3.83a3.32 3.32 0 0 0-2.435 1.011A3.32 3.32 0 0 0 0 3.446v8.425a3.319 3.319 0 0 0 1.011 2.435 3.319 3.319 0 0 0 2.435 1.012h3.83a.363.363 0 0 0 .245-.078.4.4 0 0 0 .12-.234 2.017 2.017 0 0 0 .036-.281 2.974 2.974 0 0 0-.006-.317q-.012-.192-.012-.239z"></path><path data-name="Path 604" d="M18.536 7.12L12.026.61a.766.766 0 0 0-1.3.539v3.446H5.362a.776.776 0 0 0-.766.766v4.6a.777.777 0 0 0 .766.766h5.361v3.446a.762.762 0 0 0 1.3.538l6.51-6.51a.752.752 0 0 0 0-1.077z"></path></g></symbol><symbol viewBox="0 0 23.9 21.2" id="icon-heart_icon"><style><![CDATA[.st0{fill:none;stroke:#000;stroke-width:3;stroke-linecap:round;stroke-linejoin:round}]]></style><path class="st0" d="M20.8 3.1C18.6 1 15.2 1 13 3.1l-1 1.1-1.1-1.1C8.7 1 5.3 1 3.1 3.1s-2.1 5.6 0 7.8L4.2 12l7.8 7.8 7.8-7.8 1.1-1.1c2-2.2 2-5.6-.1-7.8z"></path></symbol><symbol viewBox="0 0 565 505" id="icon-heart-line"><style><![CDATA[.st0{fill:#fff}]]></style><path class="st0" d="M402.5 26.5c-27.8 0-53.3 8.8-75.7 26.2-21.5 16.6-35.9 37.8-44.3 53.3-8.4-15.4-22.8-36.6-44.3-53.3-22.5-17.4-47.9-26.2-75.7-26.2-77.5 0-136 63.4-136 147.5 0 90.9 72.9 153 183.4 247.1 18.8 16 40 34.1 62.1 53.4 2.9 2.5 6.7 4 10.5 4s7.6-1.4 10.5-4c22.1-19.3 43.3-37.4 62.1-53.4C465.6 327 538.5 264.9 538.5 174c0-84.1-58.5-147.5-136-147.5z"></path><path d="M282.5 490.5c-6.8 0-13.3-2.5-18.4-6.9-22-19.2-43.1-37.3-61.8-53.2l-.1-.1c-54.8-46.6-102-86.8-134.7-126.3-36.2-43.7-53-85-53-130 0-43.7 15-84 42.1-113.4 27.4-29.7 65-46.1 105.9-46.1 30.5 0 58.4 9.6 83 28.7 15.9 12.3 28 26.8 37 39.8 8.9-13.1 21.1-27.6 37-39.8 24.6-19 52.5-28.7 83-28.7 40.9 0 78.5 16.4 105.9 46.1 27.2 29.4 42.1 69.7 42.1 113.4 0 45-16.9 86.3-53 130-32.7 39.5-79.9 79.7-134.5 126.2l-.1.1c-18.7 15.9-39.9 34-61.9 53.2-5.2 4.5-11.7 7-18.5 7zm-120-452c-70.7 0-124 58.3-124 135.5 0 85.3 71.3 146.1 179.2 238l.1.1c18.7 16 40 34.1 62.1 53.4 1.5 1.3 3.8 1.3 5.3 0 22.1-19.3 43.4-37.4 62.1-53.4l.1-.1c107.9-91.9 179.1-152.7 179.1-238 0-77.3-53.3-135.5-124-135.5-25.1 0-48.1 8-68.4 23.7-20.1 15.5-33.4 35.5-41.1 49.5l-10.5 19.2-10.5-19.2c-7.7-14-21-34-41.1-49.5-20.3-15.7-43.3-23.7-68.4-23.7z"></path><g><path d="M282.5 482c-4.7 0-9.3-1.7-12.8-4.8-22-19.3-43.2-37.3-61.9-53.3l-.1-.1C96.4 329.1 23 266.5 23 174 23 87.9 83 23 162.5 23c28.6 0 54.8 9.1 77.8 26.9 19.7 15.2 33.4 34.2 42.2 49 8.7-14.8 22.5-33.7 42.2-49 23-17.8 49.2-26.9 77.8-26.9C482 23 542 87.9 542 174c0 92.5-73.4 155-184.6 249.8l-.1.1c-18.7 16-39.9 34-62 53.3-3.5 3.1-8.1 4.8-12.8 4.8zm-120-452C87 30 30 91.9 30 174c0 89.2 72.5 151 182.1 244.5l.1.1c18.7 16 39.9 34 62 53.3 2.3 2 5.2 3.1 8.2 3.1s6-1.1 8.2-3.1c22.1-19.3 43.3-37.4 62-53.4l.1-.1C462.5 325 535 263.3 535 174c0-82.1-57-144-132.5-144-27 0-51.7 8.6-73.6 25.4-21.2 16.4-35.3 37.4-43.4 52.2l-3.1 5.6-3.1-5.6c-8.1-14.7-22.1-35.8-43.4-52.2C214.2 38.6 189.5 30 162.5 30z"></path><path d="M282.5 494c-7.6 0-15-2.8-20.7-7.8-22-19.3-43.2-37.3-61.8-53.2l-.1-.1c-55-46.9-102.5-87.4-135.5-127.2C28 261.6 11 219.8 11 174c0-44.7 15.3-85.8 43.1-115.9C82.2 27.7 120.7 11 162.5 11c31.3 0 60 9.9 85.2 29.4 14.7 11.4 26.2 24.6 34.8 36.5 8.6-11.9 20.1-25.2 34.8-36.5C342.5 20.9 371.2 11 402.5 11c41.8 0 80.3 16.7 108.4 47.1C538.7 88.2 554 129.3 554 174c0 45.8-17 87.6-53.4 131.7-32.9 39.9-80.4 80.3-135.4 127.2l-.1.1c-18.7 15.9-39.9 34-61.8 53.2-5.8 5-13.2 7.8-20.8 7.8zm-120-452C93.8 42 42 98.8 42 174c0 83.7 70.8 144 177.9 235.3l.2.2c18.7 16 39.9 34 62 53.4.2.2.5.2.7 0 22.2-19.4 43.4-37.5 62.1-53.5l.1-.1C452.2 318 523 257.7 523 174c0-75.3-51.8-132-120.5-132-24.3 0-46.6 7.7-66.2 22.9-19.6 15.1-32.7 34.7-40.2 48.4l-13.6 24.8-13.6-24.8c-7.5-13.7-20.6-33.3-40.2-48.4C209.1 49.7 186.8 42 162.5 42z"></path></g><g><path d="M282.5 489.5c-6.5 0-12.9-2.4-17.8-6.7-22-19.2-43.2-37.3-61.8-53.2l-.1-.1C148.1 383 101 342.8 68.3 303.4c-36-43.5-52.8-84.6-52.8-129.4 0-90.4 63.2-158.5 147-158.5 30.3 0 58 9.6 82.4 28.5 16.3 12.6 28.6 27.5 37.6 40.8 9-13.3 21.3-28.3 37.6-40.8 24.4-18.9 52.2-28.5 82.4-28.5 83.8 0 147 68.1 147 158.5 0 44.8-16.8 85.9-52.8 129.4-32.7 39.4-79.8 79.6-134.4 126.1l-.1.1c-18.7 15.9-39.9 34-61.9 53.2-4.9 4.3-11.3 6.7-17.8 6.7zm-120-452c-71.3 0-125 58.7-125 136.5 0 85.8 71.4 146.6 179.5 238.7l.1.1c18.7 16 40 34.1 62.1 53.4 1.8 1.6 4.8 1.6 6.6 0 22.1-19.3 43.4-37.4 62.1-53.4l.1-.1c108.1-92.1 179.5-153 179.5-238.7 0-77.8-53.7-136.5-125-136.5-25.3 0-48.5 8-69 23.9-20.2 15.6-33.6 35.7-41.4 49.8l-9.6 17.6-9.6-17.6c-7.7-14.1-21.2-34.2-41.4-49.8-20.5-15.9-43.7-23.9-69-23.9z"></path><path d="M282.5 501.5c-9.5 0-18.6-3.4-25.7-9.6-21.9-19.2-43-37.2-61.7-53.1l-.2-.2c-55-46.9-102.5-87.4-135.8-127.6-37.9-45.7-55.6-89.3-55.6-137 0-46.7 16.1-89.8 45.3-121.3C78.2 21 118.6 3.5 162.5 3.5c33 0 63.2 10.4 89.8 31 10.9 8.4 21 18.5 30.2 30 9.2-11.5 19.3-21.6 30.2-30 26.6-20.6 56.8-31 89.8-31 43.9 0 84.3 17.5 113.7 49.2 29.2 31.5 45.3 74.6 45.3 121.3 0 47.7-17.7 91.3-55.6 137-33.3 40.2-80.8 80.7-135.9 127.6l-.1.1c-18.7 15.9-39.8 34-61.8 53.2-7 6.2-16.1 9.6-25.6 9.6zm-120-452c-64.4 0-113 53.5-113 124.5 0 80.2 69.7 139.7 175.3 229.6l.2.2c17.4 14.9 37 31.6 57.5 49.4 20.5-17.9 40.1-34.6 57.6-49.5l.1-.1C445.8 313.7 515.5 254.2 515.5 174c0-71-48.6-124.5-113-124.5-22.6 0-43.3 7.2-61.6 21.4-18.6 14.4-31 33-38.2 46.1l-20.2 36.9-20.2-36.9c-7.2-13.1-19.6-31.8-38.2-46.1-18.3-14.2-39-21.4-61.6-21.4z"></path><g><path d="M282.5 493c-7.4 0-14.5-2.7-20.1-7.5-21.9-19.2-43.1-37.2-61.8-53.1l-.2-.2c-54.7-46.7-102-86.9-134.9-126.6C29 261.5 12 219.7 12 174 12 81.7 76.7 12 162.5 12c31.1 0 59.5 9.8 84.6 29.2 13.1 10.1 25 22.7 35.4 37.4 10.5-14.8 22.4-27.3 35.4-37.4C343 21.8 371.4 12 402.5 12 488.3 12 553 81.7 553 174c0 45.6-17 87.5-53.6 131.6-32.8 39.6-80.1 79.9-134.8 126.6l-.1.1c-18.7 15.9-39.9 34-61.9 53.2-5.6 4.8-12.7 7.5-20.1 7.5zm-120-474C80.7 19 19 85.6 19 174c0 43.9 16.5 84.3 52 127.1 32.5 39.2 79.5 79.3 134 125.7l.2.1c18.7 16 39.9 34 61.9 53.2 4.3 3.7 9.8 5.8 15.5 5.8 5.7 0 11.2-2.1 15.5-5.8 22-19.3 43.2-37.3 61.9-53.3l.1-.1c54.5-46.4 101.5-86.5 134-125.7 35.5-42.8 52-83.2 52-127.1 0-88.4-61.7-155-143.5-155-29.5 0-56.5 9.3-80.3 27.7-13.7 10.6-26.1 24-36.8 40l-2.9 4.3-2.9-4.3c-10.7-16-23.1-29.4-36.8-40C219 28.3 192 19 162.5 19zm120 452c-2 0-4-.7-5.6-2.1-22-19.3-43.2-37.3-61.9-53.3l-.2-.2C105.9 322.7 34 261.4 34 174 34 94.2 89.2 34 162.5 34c26.1 0 50 8.3 71.1 24.6 20.7 16 34.4 36.5 42.3 50.9l6.6 12 6.6-12c7.9-14.4 21.6-34.9 42.3-50.9 21.1-16.3 45-24.6 71.1-24.6C475.8 34 531 94.2 531 174c0 87.4-71.9 148.7-180.7 241.4l-.1.1c-18.7 16-40 34.1-62.1 53.4-1.6 1.4-3.6 2.1-5.6 2.1zm-120-430C93.2 41 41 98.2 41 174c0 84.2 70.9 144.6 178.3 236.1l.2.2c18.7 16 39.9 34 62 53.3.5.4 1.5.4 2 0 22.1-19.4 43.4-37.5 62.1-53.5l.1-.1C453.1 318.6 524 258.2 524 174c0-75.8-52.2-133-121.5-133-24.5 0-47 7.8-66.8 23.1-19.7 15.2-32.9 34.9-40.4 48.8l-12.7 23.2-12.7-23.2c-7.6-13.8-20.7-33.5-40.4-48.8-20-15.3-42.5-23.1-67-23.1z"></path><path d="M282.5 505c-10.3 0-20.2-3.7-28-10.5-21.9-19.1-43-37.1-61.6-53l-.2-.2c-55.2-47-102.8-87.6-136.3-128C17.9 266.9 0 222.6 0 174c0-47.7 16.4-91.7 46.3-123.8C76.4 17.8 117.6 0 162.5 0c33.8 0 64.7 10.7 91.9 31.7 10 7.8 19.4 16.9 28.1 27.3 8.6-10.4 18-19.5 28.1-27.3C337.8 10.7 368.7 0 402.5 0c44.9 0 86.1 17.8 116.2 50.2C548.6 82.3 565 126.3 565 174c0 48.6-17.9 92.8-56.4 139.2-33.5 40.4-81.1 81-136.3 128l-.2.2c-18.6 15.9-39.7 33.9-61.6 53-7.8 6.9-17.7 10.6-28 10.6zm-120-452C100.1 53 53 105 53 174c0 78.6 69.2 137.6 174.1 226.9l.3.3c16.8 14.3 35.5 30.3 55.1 47.3 19.6-17.1 38.4-33.1 55.2-47.4l.3-.3C442.8 311.6 512 252.6 512 174c0-69-47.1-121-109.5-121-21.8 0-41.8 6.9-59.5 20.6-18.1 14-30.2 32.2-37.3 45l-23.2 42.5-23.2-42.5c-7-12.8-19.2-31-37.3-45C204.3 59.9 184.3 53 162.5 53z"></path></g></g></symbol><symbol viewBox="0 0 512 452" id="icon-heart"><path d="M376 0c-27.8 0-53.3 8.8-75.7 26.2C278.8 42.8 264.4 64 256 79.4c-8.4-15.4-22.8-36.6-44.3-53.3C189.3 8.8 163.8 0 136 0 58.5 0 0 63.4 0 147.5c0 90.9 72.9 153 183.4 247.1 18.8 16 40 34.1 62.1 53.4 2.9 2.5 6.7 4 10.5 4s7.6-1.4 10.5-4c22.1-19.3 43.3-37.4 62.1-53.4C439.1 300.5 512 238.4 512 147.5 512 63.4 453.5 0 376 0z"></path></symbol><symbol viewBox="0 0 512.002 512.002" id="icon-key"><circle cx="364" cy="140.062" r="32"></circle><path d="M506.478 165.937c-10.68-27.194-30.264-66.431-62.915-98.927-32.535-32.384-71.356-51.408-98.194-61.666-29.464-11.261-62.945-4.163-85.295 18.082l-78.538 78.17c-23.281 23.171-29.991 58.825-16.698 88.72a369.522 369.522 0 0 0 13.395 27.103L5.858 389.793A20 20 0 0 0 0 403.936v88c0 11.046 8.954 20 20 20h88c11.046 0 20-8.954 20-20v-36l36-.001c11.046 0 20-8.954 20-20v-35.999h36c11.046 0 20-8.954 20-20s-8.954-20-20-20h-56c-11.046 0-20 8.954-20 20v35.999l-36 .001c-11.046 0-20 8.954-20 20v36H40V412.22l177.355-177.354a20 20 0 0 0 2.958-24.517c-6.931-11.424-13.298-23.632-18.923-36.285-6.599-14.841-3.237-32.57 8.366-44.119l78.537-78.169c11.213-11.159 28.011-14.718 42.798-9.068 23.222 8.876 56.69 25.214 84.256 52.652 27.735 27.604 44.62 61.567 53.9 85.197a39.716 39.716 0 0 1-8.965 42.687l-79.486 79.114c-11.575 11.519-28.851 14.887-44.016 8.58-12.507-5.202-24.62-11.382-36-18.367-9.413-5.778-21.729-2.83-27.507 6.584-5.778 9.414-2.831 21.73 6.583 27.508 13.152 8.072 27.136 15.207 41.562 21.207 30.142 12.539 64.525 5.8 87.595-17.161l79.486-79.113c22.545-22.439 29.602-56.062 17.979-85.659z"></path></symbol><symbol viewBox="0 0 471.641 471.641" id="icon-paper-clip"><path d="M431.666 49.412c-51.692-50.578-134.33-50.567-186.009.025L28.911 266.184C-10.281 306.3-9.532 370.591 30.584 409.783c39.456 38.548 102.47 38.548 141.926 0l196.267-196.267c25.515-25.515 25.515-66.884 0-92.399s-66.884-25.515-92.399 0L88.644 308.85c-6.548 6.78-6.36 17.584.42 24.132 6.614 6.388 17.099 6.388 23.713 0L300.51 145.249c12.449-11.926 32.209-11.501 44.134.948 11.565 12.073 11.565 31.114 0 43.187L148.378 385.65c-26.514 26.137-69.197 25.831-95.334-.683-25.873-26.246-25.873-68.405 0-94.651L269.79 73.569c38.608-38.622 101.214-38.633 139.836-.026 38.622 38.607 38.633 101.214.026 139.836L192.905 430.126c-7.159 6.131-7.993 16.905-1.862 24.064 6.131 7.159 16.905 7.993 24.064 1.862a17.05 17.05 0 0 0 1.862-1.862l216.747-216.747c51.357-52.489 50.44-136.674-2.05-188.031z"></path></symbol><symbol viewBox="0 0 371.1 494.1" id="icon-play"><path d="M343.8 201.2L69.3 13.3C56.6 4.6 43.8 0 33.2 0 12.7 0 0 16.5 0 44v406.1c0 27.5 12.7 44 33.2 44 10.6 0 23.2-4.6 35.9-13.3l274.6-187.9c17.7-12.1 27.4-28.4 27.4-45.9 0-17.4-9.7-33.7-27.3-45.8z"></path></symbol><symbol viewBox="0 0 512 512" id="icon-robot"><path d="M452 232h-19.4c-8.3-23.3-30.5-40-56.6-40H276v-32h60c33.1 0 60-26.9 60-60V60c0-33.1-26.9-60-60-60H176c-33.1 0-60 26.9-60 60v40c0 33.1 26.9 60 60 60h60v32H136c-26.1 0-48.3 16.7-56.6 40H60c-33.1 0-60 26.9-60 60v140h40V292c0-11 9-20 20-20h16v180c0 33.1 26.9 60 60 60h240c33.1 0 60-26.9 60-60V272h16c11 0 20 9 20 20v140h40V292c0-33.1-26.9-60-60-60zM156 100V60c0-11 9-20 20-20h20v40h40V40h40v40h40V40h20c11 0 20 9 20 20v40c0 11-9 20-20 20H176c-11 0-20-9-20-20zm240 352c0 11-9 20-20 20H136c-11 0-20-9-20-20V252c0-11 9-20 20-20h240c11 0 20 9 20 20v200z"></path></symbol><symbol viewBox="0 0 56.966 56.966" id="icon-search"><path d="M55.146 51.887L41.588 37.786A22.926 22.926 0 0 0 46.984 23c0-12.682-10.318-23-23-23s-23 10.318-23 23 10.318 23 23 23c4.761 0 9.298-1.436 13.177-4.162l13.661 14.208c.571.593 1.339.92 2.162.92.779 0 1.518-.297 2.079-.837a3.004 3.004 0 0 0 .083-4.242zM23.984 6c9.374 0 17 7.626 17 17s-7.626 17-17 17-17-7.626-17-17 7.626-17 17-17z"></path></symbol><symbol viewBox="0 0 293.6 293.6" id="icon-settings"><path d="M276.8 114.8h-32c-1.6-4.8-3.6-9.6-6-14.4L261.2 78c6.4-6.4 6.4-16.8 0-23.2L238.8 32c-6.4-6.4-16.8-6.4-23.2 0l-22.4 22.4c-4.8-2.4-9.2-4.4-14.4-6v-32c0-8.8-7.2-16.4-16.4-16.4h-32c-8.8 0-16 7.2-16 16v32c-4.8 1.6-9.6 3.6-14.4 6L77.6 31.6c-6.4-6.4-16.8-6.4-23.2 0L32 54.8c-6.4 6.4-6.4 16.8 0 23.2l22.8 22.4c-2.4 4.8-4.4 9.2-6 14.4h-32C8 114.8.4 122 .4 131.2v32c0 8.8 7.2 16 16 16h32c1.6 4.8 3.6 9.6 6 14.4L32 216c-6.4 6.4-6.4 16.8 0 23.2L54.8 262c6.4 6.4 16.8 6.4 23.2 0l22.4-22.8c4.8 2.4 9.2 4.4 14.4 6v32c0 8.8 7.2 16.4 16.4 16.4h32c8.8 0 16-7.2 16-16v-32c4.8-1.6 9.6-3.6 14.4-6L216 262c6.4 6.4 16.8 6.4 23.2 0l22.8-22.8c6.4-6.4 6.4-16.8 0-23.2l-23.2-22.8c2.4-4.8 4.4-9.2 6-14.4h32c8.8 0 16.4-7.2 16.4-16.4v-32c0-8.4-7.2-15.6-16.4-15.6zm-130 89.2c-31.6 0-57.2-25.6-57.2-57.2s25.6-57.2 57.2-57.2 57.6 25.6 57.6 57.2-26 57.2-57.6 57.2z"></path></symbol><symbol viewBox="0 0 82.4 142.5" id="icon-swap"><style><![CDATA[.st0{fill:#4d7fed}.st1{fill:#cacacc}]]></style><path class="st0" d="M80.8 27.1L55.2 1.6c-2.2-2.2-5.8-2.2-8.1 0-2.2 2.2-2.2 5.8 0 8.1l15.8 15.7H5.7C2.6 25.4 0 28 0 31.1s2.6 5.7 5.7 5.7h57.1L45.7 53.6c-2.2 2.2-2.2 5.9 0 8.1 1.1 1.1 2.5 1.7 4 1.7h.1c1.5 0 3-.6 4-1.7l26.9-26.5c2.2-2.1 2.2-5.7.1-8.1z"></path><path class="st1" d="M1.6 115.3l25.6 25.5c2.2 2.2 5.8 2.2 8.1 0 2.2-2.2 2.2-5.8 0-8.1L19.5 117h57.2c3.1 0 5.7-2.6 5.7-5.7s-2.6-5.7-5.7-5.7H19.6l17.1-16.7c2.2-2.2 2.2-5.9 0-8.1-1.1-1.1-2.5-1.7-4-1.7h-.1c-1.5 0-3 .6-4 1.7l-27 26.4c-2.1 2.2-2.2 5.8 0 8.1z"></path></symbol><symbol viewBox="0 -39 512.00011 512" id="icon-telegram-line"><path d="M504.094 11.86C497.84 4.21 488.473 0 477.714 0c-5.847 0-12.042 1.23-18.41 3.664L25.907 169.105c-23 8.778-26.097 21.95-25.898 29.02s4.039 20.047 27.5 27.512c.14.043.281.086.422.125l89.898 25.726 48.617 139.024c6.63 18.953 21.508 30.726 38.836 30.726 10.926 0 21.672-4.578 31.078-13.234l55.606-51.2 80.652 64.942c.008.008.02.012.028.02l.765.617.215.168c8.965 6.953 18.75 10.625 28.309 10.629h.003c18.676 0 33.547-13.825 37.88-35.215l71.011-350.64c2.852-14.075.461-26.669-6.734-35.466zM147.902 246.601l173.442-88.606L213.348 272.75a14.975 14.975 0 0 0-3.641 6.684l-20.824 84.351zm68.133 139.332c-.719.66-1.441 1.25-2.164 1.793l19.32-78.25 35.145 28.3zm265.39-344.567l-71.01 350.645c-.685 3.355-2.868 11.164-8.481 11.164-2.774 0-6.258-1.512-9.825-4.258l-91.39-73.586a.173.173 0 0 0-.043-.031l-54.38-43.79 156.177-165.949a15 15 0 0 0-17.746-23.636L127.859 223.152l-91.12-26.07 433.265-165.39c3.66-1.399 6.215-1.692 7.71-1.692.919 0 2.552.11 3.157.855.797.973 1.813 4.29.555 10.512zm0 0"></path></symbol><symbol viewBox="0 0 24 24" id="icon-telegram"><path d="M9.417 15.181l-.397 5.584c.568 0 .814-.244 1.109-.537l2.663-2.545 5.518 4.041c1.012.564 1.725.267 1.998-.931L23.93 3.821l.001-.001c.321-1.496-.541-2.081-1.527-1.714l-21.29 8.151c-1.453.564-1.431 1.374-.247 1.741l5.443 1.693L18.953 5.78c.595-.394 1.136-.176.691.218z"></path></symbol><symbol viewBox="0 0 24 24" id="icon-twitter"><path d="M21.534 7.113A9.822 9.822 0 0 0 24 4.559v-.001c-.893.391-1.843.651-2.835.777a4.894 4.894 0 0 0 2.165-2.719 9.845 9.845 0 0 1-3.12 1.191 4.919 4.919 0 0 0-8.511 3.364c0 .39.033.765.114 1.122-4.09-.2-7.71-2.16-10.142-5.147a4.962 4.962 0 0 0-.674 2.487c0 1.704.877 3.214 2.186 4.089A4.863 4.863 0 0 1 .96 9.116v.054a4.943 4.943 0 0 0 3.942 4.835c-.401.11-.837.162-1.29.162-.315 0-.633-.018-.931-.084.637 1.948 2.447 3.381 4.597 3.428a9.89 9.89 0 0 1-6.101 2.098c-.403 0-.79-.018-1.177-.067a13.856 13.856 0 0 0 7.548 2.208c8.683 0 14.342-7.244 13.986-14.637z"></path></symbol><symbol viewBox="0 0 207.2 207.2" id="icon-upload"><path d="M38.8 17h129.5c4.4 0 8-3.6 8-8s-3.6-8-8-8H38.8c-4.4 0-8 3.6-8 8s3.6 8 8 8zM111.6 69.7l26.7 26.7c1.5 1.5 3.5 2.3 5.7 2.3 2.1 0 4.1-.8 5.7-2.3 3.1-3.1 3.1-8.2 0-11.3l-40.3-40.3c-3.1-3.1-8.2-3.1-11.3 0L57.6 85.1c-1.5 1.5-2.3 3.5-2.3 5.7s.8 4.1 2.3 5.7c1.5 1.5 3.5 2.3 5.7 2.3 2.1 0 4.1-.8 5.7-2.3l26.7-26.7v128.5c0 4.4 3.6 8 8 8s8-3.6 8-8V69.7z"></path></symbol><symbol viewBox="0 0 512 512" id="icon-user-strong"><path d="M256 0c-74.439 0-135 60.561-135 135s60.561 135 135 135 135-60.561 135-135S330.439 0 256 0zM423.966 358.195C387.006 320.667 338.009 300 286 300h-60c-52.008 0-101.006 20.667-137.966 58.195C51.255 395.539 31 444.833 31 497c0 8.284 6.716 15 15 15h420c8.284 0 15-6.716 15-15 0-52.167-20.255-101.461-57.034-138.805z"></path></symbol><symbol viewBox="0 0 512 512" id="icon-user"><style><![CDATA[.st0{stroke-width:19;stroke-miterlimit:10}]]></style><path class="st0" d="M362.2 242c13.8-20.4 21.8-45 21.8-71.4V128C384 57.4 326.6 0 256 0S128 57.4 128 128v42.7c0 26.4 8 51 21.8 71.4C85.9 278.9 42.7 347.7 42.7 426.7V448c0 35.3 28.7 64 64 64h298.7c35.3 0 64-28.7 64-64v-21.3c-.1-79-43.3-147.8-107.2-184.7zM170.7 128c0-47.1 38.3-85.3 85.3-85.3S341.3 81 341.3 128v42.7c0 47.1-38.3 85.3-85.3 85.3s-85.3-38.3-85.3-85.3V128zm256 320c0 11.8-9.6 21.3-21.3 21.3H106.7c-11.8 0-21.3-9.6-21.3-21.3v-21.3c0-67 38.8-125 95.1-152.9 21.2 15.6 47.3 24.9 75.6 24.9s54.4-9.3 75.6-24.9c56.3 27.9 95.1 86 95.1 152.9l-.1 21.3z"></path></symbol><symbol viewBox="0 0 507.246 507.246" id="icon-wallet-strong"><path d="M331.898 289.906c0 22.786 18.537 41.323 41.322 41.323h134.025v-82.646H373.221c-22.785.001-41.323 18.538-41.323 41.323zm63.92 1.214c0 9.2-7.458 16.658-16.658 16.658s-16.658-7.458-16.658-16.658 7.458-16.658 16.658-16.658c9.2.001 16.658 7.459 16.658 16.658z"></path><path d="M373.221 363.229c-40.43 0-73.322-32.893-73.322-73.323s32.893-73.323 73.322-73.323h134.025v-55.838c0-37.771-30.729-68.5-68.5-68.5H68.5c-37.771 0-68.5 30.729-68.5 68.5v256.333c0 37.771 30.729 68.5 68.5 68.5h370.247c37.771 0 68.5-30.729 68.5-68.5v-53.849zM68.5 60.246c402.455 0 373.612-.332 382.448.742-10.978-23.216-34.618-39.32-61.956-39.32H68.5c-36.779 0-66.868 29.139-68.424 65.541C18.03 70.491 42.089 60.246 68.5 60.246z"></path></symbol><symbol viewBox="0 0 330.002 330.002" id="icon-world"><path d="M165.001 330.002c90.981 0 165-74.019 165-165C330.001 74.02 255.982 0 165.001 0s-165 74.02-165 165.002c0 90.981 74.019 165 165 165zM57.423 246.464c13.074-5.142 29.535-9.24 48.037-12.048 2.512 15.081 5.846 29.062 9.956 41.395 2.153 6.459 4.42 12.16 6.762 17.225-26.003-8.72-48.496-25.154-64.755-46.572zm-27.422-81.462c0-19.745 4.262-38.513 11.911-55.433 16.223 6.945 36.716 12.318 59.802 15.787a454.788 454.788 0 0 0-1.713 39.646c0 13.542.589 26.835 1.713 39.645-23.086 3.47-43.58 8.843-59.801 15.788-7.65-16.92-11.912-35.688-11.912-55.433zM165.001 30c3.23 0 12.644 8.231 21.126 33.678 3.486 10.46 6.353 22.323 8.565 35.168a426.753 426.753 0 0 1-29.695 1.03c-10.105 0-20.046-.355-29.687-1.03 2.212-12.845 5.079-24.707 8.566-35.167C152.358 38.231 161.771 30 165.001 30zm-.004 99.876c11.427 0 22.629-.42 33.479-1.221 1.002 11.705 1.525 23.891 1.525 36.347 0 12.456-.523 24.64-1.524 36.345a455.425 455.425 0 0 0-33.476-1.221c-11.426 0-22.626.42-33.475 1.221-1.002-11.705-1.525-23.89-1.525-36.345 0-12.456.523-24.641 1.525-36.347a455.288 455.288 0 0 0 33.471 1.221zm135.004 35.126c0 19.744-4.262 38.511-11.911 55.431-16.223-6.945-36.716-12.317-59.802-15.786a454.748 454.748 0 0 0 1.713-39.645c0-13.544-.589-26.836-1.713-39.647 23.086-3.469 43.579-8.843 59.8-15.789 7.651 16.921 11.913 35.69 11.913 55.436zm-135 135c-3.23 0-12.643-8.232-21.124-33.678-3.487-10.461-6.354-22.323-8.567-35.168a426.041 426.041 0 0 1 29.691-1.03c10.107 0 20.049.355 29.691 1.03-2.212 12.845-5.079 24.708-8.565 35.168-8.482 25.447-17.895 33.678-21.126 33.678zm42.825-6.966c2.341-5.065 4.608-10.766 6.761-17.225 4.111-12.333 7.445-26.314 9.957-41.395 18.5 2.808 34.961 6.905 48.035 12.047-16.258 21.417-38.75 37.852-64.753 46.573zm64.751-209.499c-13.072 5.142-29.533 9.241-48.034 12.048-2.512-15.08-5.845-29.062-9.956-41.394-2.152-6.459-4.42-12.16-6.762-17.226 26.002 8.722 48.494 25.155 64.752 46.572zM122.178 36.966c-2.342 5.064-4.608 10.766-6.762 17.225-4.11 12.334-7.444 26.315-9.956 41.396-18.502-2.808-34.963-6.906-48.037-12.047 16.258-21.418 38.751-37.854 64.755-46.574z"></path></symbol></svg>