<svg xmlns="http://www.w3.org/2000/svg" viewBox="0 0 82.4 142.5"><path d="M80.8 27.1L55.2 1.6c-2.2-2.2-5.8-2.2-8.1 0-2.2 2.2-2.2 5.8 0 8.1l15.8 15.7H5.7C2.6 25.4 0 28 0 31.1s2.6 5.7 5.7 5.7h57.1L45.7 53.6c-2.2 2.2-2.2 5.9 0 8.1 1.1 1.1 2.5 1.7 4 1.7h.1c1.5 0 3-.6 4-1.7l26.9-26.5c2.2-2.1 2.2-5.7.1-8.1z" fill="#4d7fed"/><path d="M1.6 115.3l25.6 25.5c2.2 2.2 5.8 2.2 8.1 0 2.2-2.2 2.2-5.8 0-8.1L19.5 117h57.2c3.1 0 5.7-2.6 5.7-5.7s-2.6-5.7-5.7-5.7H19.6l17.1-16.7c2.2-2.2 2.2-5.9 0-8.1-1.1-1.1-2.5-1.7-4-1.7h-.1c-1.5 0-3 .6-4 1.7l-27 26.4c-2.1 2.2-2.2 5.8 0 8.1z" fill="#cacacc"/></svg>