<svg xmlns="http://www.w3.org/2000/svg" width="512" height="512"><path d="M362.2 242c13.8-20.4 21.8-45 21.8-71.4V128C384 57.4 326.6 0 256 0S128 57.4 128 128v42.7c0 26.4 8 51 21.8 71.4C85.9 278.9 42.7 347.7 42.7 426.7V448c0 35.3 28.7 64 64 64h298.7c35.3 0 64-28.7 64-64v-21.3c-.1-79-43.3-147.8-107.2-184.7zM170.7 128c0-47.1 38.3-85.3 85.3-85.3S341.3 81 341.3 128v42.7c0 47.1-38.3 85.3-85.3 85.3s-85.3-38.3-85.3-85.3V128zm256 320c0 11.8-9.6 21.3-21.3 21.3H106.7c-11.8 0-21.3-9.6-21.3-21.3v-21.3c0-67 38.8-125 95.1-152.9 21.2 15.6 47.3 24.9 75.6 24.9s54.4-9.3 75.6-24.9c56.3 27.9 95.1 86 95.1 152.9l-.1 21.3z"/></svg>