<svg xmlns="http://www.w3.org/2000/svg" viewBox="0 0 330.002 330.002"><path d="M165.001 330.002c90.981 0 165-74.019 165-165C330.001 74.02 255.982 0 165.001 0s-165 74.02-165 165.002c0 90.981 74.019 165 165 165zM57.423 246.464c13.074-5.142 29.535-9.24 48.037-12.048 2.512 15.081 5.846 29.062 9.956 41.395 2.153 6.459 4.42 12.16 6.762 17.225-26.003-8.72-48.496-25.154-64.755-46.572zm-27.422-81.462c0-19.745 4.262-38.513 11.911-55.433 16.223 6.945 36.716 12.318 59.802 15.787a454.788 454.788 0 00-1.713 39.646c0 13.542.589 26.835 1.713 39.645-23.086 3.47-43.58 8.843-59.801 15.788-7.65-16.92-11.912-35.688-11.912-55.433zM165.001 30c3.23 0 12.644 8.231 21.126 33.678 3.486 10.46 6.353 22.323 8.565 35.168a426.753 426.753 0 01-29.695 1.03c-10.105 0-20.046-.355-29.687-1.03 2.212-12.845 5.079-24.707 8.566-35.167C152.358 38.231 161.771 30 165.001 30zm-.004 99.876c11.427 0 22.629-.42 33.479-1.221 1.002 11.705 1.525 23.891 1.525 36.347 0 12.456-.523 24.64-1.524 36.345a455.425 455.425 0 00-33.476-1.221c-11.426 0-22.626.42-33.475 1.221-1.002-11.705-1.525-23.89-1.525-36.345 0-12.456.523-24.641 1.525-36.347a455.288 455.288 0 0033.471 1.221zm135.004 35.126c0 19.744-4.262 38.511-11.911 55.431-16.223-6.945-36.716-12.317-59.802-15.786a454.748 454.748 0 001.713-39.645c0-13.544-.589-26.836-1.713-39.647 23.086-3.469 43.579-8.843 59.8-15.789 7.651 16.921 11.913 35.69 11.913 55.436zm-135 135c-3.23 0-12.643-8.232-21.124-33.678-3.487-10.461-6.354-22.323-8.567-35.168a426.041 426.041 0 0129.691-1.03c10.107 0 20.049.355 29.691 1.03-2.212 12.845-5.079 24.708-8.565 35.168-8.482 25.447-17.895 33.678-21.126 33.678zm42.825-6.966c2.341-5.065 4.608-10.766 6.761-17.225 4.111-12.333 7.445-26.314 9.957-41.395 18.5 2.808 34.961 6.905 48.035 12.047-16.258 21.417-38.75 37.852-64.753 46.573zm64.751-209.499c-13.072 5.142-29.533 9.241-48.034 12.048-2.512-15.08-5.845-29.062-9.956-41.394-2.152-6.459-4.42-12.16-6.762-17.226 26.002 8.722 48.494 25.155 64.752 46.572zM122.178 36.966c-2.342 5.064-4.608 10.766-6.762 17.225-4.11 12.334-7.444 26.315-9.956 41.396-18.502-2.808-34.963-6.906-48.037-12.047 16.258-21.418 38.751-37.854 64.755-46.574z"/></svg>