<svg xmlns="http://www.w3.org/2000/svg" width="512" height="512"><linearGradient id="a" gradientUnits="userSpaceOnUse" x1="256" y1="-1" x2="256" y2="511" gradientTransform="matrix(1 0 0 -1 0 511)"><stop offset="0" stop-color="#d1d4d9"/><stop offset="1" stop-color="#dbdee3"/></linearGradient><path d="M436 81.6c-83 0-169.1-77-169.9-77.7-5.7-5.2-14.4-5.2-20.2 0-.8.8-86.7 77.7-169.9 77.7-8.3 0-15 6.7-15 15v179.6C61 421.8 169.2 479.9 250.6 511c1.7.7 3.5 1 5.4 1 1.8 0 3.6-.3 5.4-1C375.5 467.4 451 399.5 451 276.3V96.6c0-8.3-6.7-15-15-15z" fill="url(#a)"/><linearGradient id="b" gradientUnits="userSpaceOnUse" x1="256" y1="150" x2="256" y2="360" gradientTransform="matrix(1 0 0 -1 0 511)"><stop offset="0" stop-color="#fbfcfe"/><stop offset=".997" stop-color="#fbfcfe"/></linearGradient><path d="M256 151c-57.9 0-105 47.1-105 105s47.1 105 105 105 105-47.1 105-105-47.1-105-105-105zm40.6 100.6l-45 45c-2.9 2.9-6.8 4.4-10.6 4.4s-7.7-1.5-10.6-4.4l-15-15c-5.9-5.9-5.9-15.4 0-21.2 5.9-5.9 15.4-5.9 21.2 0l4.4 4.4 34.4-34.4c5.9-5.9 15.4-5.9 21.2 0 5.9 5.9 5.9 15.3 0 21.2z" fill="url(#b)"/></svg>