<svg version="1.1" id="Isolation_Mode" xmlns="http://www.w3.org/2000/svg" xmlns:xlink="http://www.w3.org/1999/xlink" x="0" y="0" viewBox="0 0 386 502.5" xml:space="preserve"><style>.st11,.st16{clip-path:url(#SVGID_31_);fill:#f1fcff}.st16{clip-path:url(#SVGID_41_)}</style><defs><path id="SVGID_1_" d="M123.3 317c-16.9 23-29.7 45.4-39.4 65.4-3.2 6.7-30.2 44.4-36.1 49-.5.4-7.4 5.6-7.9 5.9-3.2 2.3-21 9.7-23.7 10.9 6.8 3.5 46-.4 49.7-.6 6.1-.2 8.6-2.2 13.6-.8 5.5 1.6 4.9 4.9 10.1 6.8 3.7 1.3 6.5.5 9.3-.3 2.8-.8 5.5-1.5 9.2-.4 5.5 1.7 4.4 5 10.2 7.8 4.6 2.2 7.9 1.5 11.6.8 3.3-.6 6.9-1.2 11.8.3 7.7 2.4 7.2 6.4 16.1 8.8 3.4.9 5.1.8 7.1.6 1.8-.1 3.7-.3 7.2.4 9.3 1.7 11.3 5.4 22.3 8.8 5 1.5 9.2 2.1 11.9 2.4 2.4-3.9 5.8-9.9 9.7-17.3 13.8-26.5 35.8-87.4 35.5-114.4-.1-10.1-2-28-14.5-49.5-29.3-5.4-58.7-10.9-88-16.3-8.4 9.5-17.1 20-25.7 31.7"/></defs><linearGradient id="SVGID_2_" gradientUnits="userSpaceOnUse" x1="76.436" y1="384.153" x2="336.095" y2="384.153"><stop offset="0" stop-color="#497dea"/><stop offset="1" stop-color="#74a0ff"/></linearGradient><use xlink:href="#SVGID_1_" overflow="visible" fill="url(#SVGID_2_)"/><clipPath id="SVGID_3_"><use xlink:href="#SVGID_1_" overflow="visible"/></clipPath><linearGradient id="SVGID_4_" gradientUnits="userSpaceOnUse" x1="-54.997" y1="384.153" x2="323.101" y2="384.153"><stop offset="0" stop-color="#497dea"/><stop offset="1" stop-color="#74a0ff"/></linearGradient><path clip-path="url(#SVGID_3_)" fill="url(#SVGID_4_)" d="M323.1 452.6L215.7 200.4-55 315.7 52.4 567.9z"/><defs><path id="SVGID_5_" d="M308.4 298.4c-38 8.6-46.8 5.3-54 15.1-.8 1.1-5 6.9-4.6 14.5.4 6.1 3.5 10.9 5.5 13 12.3 13 48.4-.6 69.5-16.4 4.6-3.4 16.9-12.7 14.8-19.7-.9-2.9-3.4-4-5.7-4.7l-15.2-3.3h-1.1c-3.6-.1-6.6.9-9.2 1.5"/></defs><clipPath id="SVGID_6_"><use xlink:href="#SVGID_5_" overflow="visible"/></clipPath><linearGradient id="SVGID_7_" gradientUnits="userSpaceOnUse" x1="-970.532" y1="641.674" x2="-969.532" y2="641.674" gradientTransform="rotate(144.731 -70719.16 87987.478) scale(184.7587)"><stop offset="0" stop-color="#979797"/><stop offset=".045" stop-color="#979797"/><stop offset="1" stop-color="#e4e4e4"/></linearGradient><path clip-path="url(#SVGID_6_)" fill="url(#SVGID_7_)" d="M311 253.3l-88.5 62.6 57.8 81.6 88.5-62.6z"/><defs><path id="SVGID_8_" transform="rotate(-80.758 235.892 61.378)" d="M209.6 57.4h52.5v8h-52.5z"/></defs><clipPath id="SVGID_9_"><use xlink:href="#SVGID_8_" overflow="visible"/></clipPath><linearGradient id="SVGID_10_" gradientUnits="userSpaceOnUse" x1="-970.532" y1="641.723" x2="-969.532" y2="641.723" gradientTransform="rotate(-162.455 -12853.725 5986.193) scale(24.2798)"><stop offset="0" stop-color="#0e151a"/><stop offset="1" stop-color="#203346"/></linearGradient><path clip-path="url(#SVGID_9_)" fill="url(#SVGID_10_)" d="M259.3 39.6l-30.1-9.5-16.8 53 30.2 9.5z"/><defs><path id="SVGID_11_" d="M197.1 81.4l-3.9 23.7c-.5 2.9 1.5 5.6 4.4 6l58.8 9.6c2.9.5 5.6-1.5 6-4.4l3.9-23.7c.5-2.9-1.5-5.6-4.4-6L203.1 77c-.3 0-.6-.1-.9-.1-2.4.1-4.6 2-5.1 4.5"/></defs><clipPath id="SVGID_12_"><use xlink:href="#SVGID_11_" overflow="visible"/></clipPath><linearGradient id="SVGID_13_" gradientUnits="userSpaceOnUse" x1="-970.532" y1="641.722" x2="-969.532" y2="641.722" gradientTransform="rotate(-122.284 -43526.46 3522.228) scale(65.9823)"><stop offset="0" stop-color="#b0b0b0"/><stop offset=".04" stop-color="#b0b0b0"/><stop offset="1" stop-color="#e4e4e4"/></linearGradient><path clip-path="url(#SVGID_12_)" fill="url(#SVGID_13_)" d="M286.7 108.6l-41-65-72.8 46 41 65z"/><defs><path id="SVGID_14_" d="M94.4 150.5l-12.2 75c-3.7 22.5 11.6 43.7 34.1 47.4l166 27c22.4 3.6 43.7-11.7 47.4-34.1l12.2-75c6.5-39.9-20.8-77.8-60.7-84.2L178.6 89.8c-3.9-.6-7.9-1-11.8-1-35.2.1-66.6 25.8-72.4 61.7"/></defs><clipPath id="SVGID_15_"><use xlink:href="#SVGID_14_" overflow="visible"/></clipPath><linearGradient id="SVGID_16_" gradientUnits="userSpaceOnUse" x1="-970.532" y1="641.737" x2="-969.532" y2="641.737" gradientTransform="rotate(-125.752 -167052.052 18691.785) scale(257.4928)"><stop offset="0" stop-color="#b0b0b0"/><stop offset=".04" stop-color="#b0b0b0"/><stop offset="1" stop-color="#e4e4e4"/></linearGradient><path clip-path="url(#SVGID_15_)" fill="url(#SVGID_16_)" d="M450.1 230.2L256.2-39.1-23.3 162.2l193.9 269.3z"/><defs><path id="SVGID_17_" d="M116.7 187.7c-.1.2-.1.4-.2.6-2.4 8 .7 16.6 8.1 21.9 3 2.1 6.5 3.6 10.2 4.2l148.5 24.2c3.7.6 7.5.4 11-.7 8.6-2.6 14.4-9.8 14.6-18.2v-.6c.7-28.2-20.8-53.5-51.2-60.1-12.9-2.8-26.4-5.3-40.6-7.6-11.1-1.7-21.9-3.2-32.3-4.3-2.6-.3-5.3-.4-7.9-.4-28-.1-52.5 16.2-60.2 41"/></defs><clipPath id="SVGID_18_"><use xlink:href="#SVGID_17_" overflow="visible"/></clipPath><linearGradient id="SVGID_19_" gradientUnits="userSpaceOnUse" x1="-970.532" y1="641.689" x2="-969.532" y2="641.689" gradientTransform="matrix(9.3747 -66.92 66.92 9.3747 -33636.18 -70737.79)"><stop offset="0" stop-color="#0e151a"/><stop offset="1" stop-color="#203346"/></linearGradient><path clip-path="url(#SVGID_18_)" fill="url(#SVGID_19_)" d="M305.8 265.9l16.4-117.6-204.3-28.6-16.5 117.6z"/><defs><path id="SVGID_20_" d="M-970.5-438.3h1920v1080h-1920z"/></defs><clipPath id="SVGID_21_"><use xlink:href="#SVGID_20_" overflow="visible"/></clipPath><g clip-path="url(#SVGID_21_)"><defs><path id="SVGID_22_" d="M225.3 170.3h56.8v56.8h-56.8z"/></defs><clipPath id="SVGID_23_"><use xlink:href="#SVGID_22_" overflow="visible"/></clipPath><g clip-path="url(#SVGID_23_)"><defs><path id="SVGID_24_" d="M225.7 194.1c-2.5 15.5 8 30 23.4 32.6 15.5 2.5 30-8 32.6-23.4 2.5-15.5-8-30-23.4-32.6-15.5-2.6-30.1 7.9-32.6 23.4"/></defs><clipPath id="SVGID_25_"><use xlink:href="#SVGID_24_" overflow="visible"/></clipPath><radialGradient id="SVGID_26_" cx="-970.532" cy="641.723" r="1" gradientTransform="rotate(-170.753 -14219.34 7996.416) scale(28.0786)" gradientUnits="userSpaceOnUse"><stop offset="0" stop-color="#537ff7"/><stop offset=".13" stop-color="#537ff7"/><stop offset="1"/></radialGradient><path clip-path="url(#SVGID_25_)" fill="url(#SVGID_26_)" d="M293.9 169.7l-69.1-11.3-11.3 69.2 69.2 11.2z"/></g></g><path d="M233.6 195.4c-1.8 11.1 5.7 21.6 16.8 23.4 11.1 1.8 21.6-5.7 23.4-16.8 1.8-11.1-5.7-21.6-16.8-23.4-11.1-1.9-21.6 5.7-23.4 16.8" clip-path="url(#SVGID_21_)" fill="#f1fcff"/><defs><path id="SVGID_27_" d="M236.8 195.9c-1.5 9.3 4.8 18.1 14.1 19.6s18.1-4.8 19.6-14.1-4.8-18.1-14.1-19.6c-.9-.2-1.9-.2-2.8-.2-8.1-.1-15.4 5.9-16.8 14.3"/></defs><clipPath id="SVGID_28_"><use xlink:href="#SVGID_27_" overflow="visible"/></clipPath><linearGradient id="SVGID_29_" gradientUnits="userSpaceOnUse" x1="-970.532" y1="641.705" x2="-969.532" y2="641.705" gradientTransform="rotate(-170.752 -17344.609 9723.473) scale(34.2088)"><stop offset="0" stop-color="#0e151a"/><stop offset="1" stop-color="#203346"/></linearGradient><path clip-path="url(#SVGID_28_)" fill="url(#SVGID_29_)" d="M277.8 182.5l-41.5-6.8-6.6 40.4 41.5 6.8z"/><defs><path id="SVGID_30_" d="M-970.5-438.3h1920v1080h-1920z"/></defs><clipPath id="SVGID_31_"><use xlink:href="#SVGID_30_" overflow="visible"/></clipPath><path class="st11" d="M243.6 192.5c-.6 3.5 1.8 6.7 5.2 7.3 3.5.6 6.7-1.8 7.3-5.2s-1.8-6.7-5.2-7.3c-3.5-.6-6.7 1.8-7.3 5.2m8 19.1c-.2 1.4.7 2.7 2.1 2.9 1.4.2 2.7-.7 2.9-2.1.2-1.4-.7-2.7-2.1-2.9-1.4-.2-2.7.7-2.9 2.1m9.3-2.3c-.1.7.4 1.3 1 1.5s1.3-.4 1.5-1c.1-.7-.4-1.3-1-1.5-.7-.2-1.4.3-1.5 1"/><g clip-path="url(#SVGID_31_)"><defs><path id="SVGID_32_" d="M149.7 158h56.8v56.8h-56.8z"/></defs><clipPath id="SVGID_33_"><use xlink:href="#SVGID_32_" overflow="visible"/></clipPath><g clip-path="url(#SVGID_33_)"><defs><path id="SVGID_34_" d="M150.1 181.8c-2.5 15.5 8 30 23.4 32.6 15.5 2.5 30-8 32.6-23.4 2.5-15.5-8-30-23.4-32.6-15.5-2.6-30.1 7.9-32.6 23.4"/></defs><clipPath id="SVGID_35_"><use xlink:href="#SVGID_34_" overflow="visible"/></clipPath><radialGradient id="SVGID_36_" cx="-970.532" cy="641.723" r="1" gradientTransform="rotate(-170.753 -14257.647 7993.31) scale(28.0786)" gradientUnits="userSpaceOnUse"><stop offset="0" stop-color="#537ff7"/><stop offset=".13" stop-color="#537ff7"/><stop offset="1"/></radialGradient><path clip-path="url(#SVGID_35_)" fill="url(#SVGID_36_)" d="M218.3 157.4l-69.2-11.3-11.2 69.2 69.1 11.2z"/></g></g><path class="st11" d="M158 183.1c-1.8 11.1 5.7 21.6 16.8 23.4 11.1 1.8 21.6-5.7 23.4-16.8 1.8-11.1-5.7-21.6-16.8-23.4-11.2-1.9-21.6 5.7-23.4 16.8"/><defs><path id="SVGID_37_" d="M161.2 183.6c-1.5 9.3 4.8 18.1 14.1 19.6s18.1-4.8 19.6-14.1-4.8-18.1-14.1-19.6c-.9-.2-1.9-.2-2.8-.2-8.2-.1-15.4 5.9-16.8 14.3"/></defs><clipPath id="SVGID_38_"><use xlink:href="#SVGID_37_" overflow="visible"/></clipPath><linearGradient id="SVGID_39_" gradientUnits="userSpaceOnUse" x1="-970.532" y1="641.705" x2="-969.532" y2="641.705" gradientTransform="rotate(-170.752 -17382.933 9720.375) scale(34.2088)"><stop offset="0" stop-color="#0e151a"/><stop offset="1" stop-color="#203346"/></linearGradient><path clip-path="url(#SVGID_38_)" fill="url(#SVGID_39_)" d="M202.1 170.1l-41.5-6.7-6.6 40.4 41.5 6.8z"/><defs><path id="SVGID_40_" d="M-970.5-438.3h1920v1080h-1920z"/></defs><clipPath id="SVGID_41_"><use xlink:href="#SVGID_40_" overflow="visible"/></clipPath><path class="st16" d="M168 180.2c-.6 3.5 1.8 6.7 5.2 7.3 3.5.6 6.7-1.8 7.3-5.2s-1.8-6.7-5.2-7.3c-3.5-.6-6.8 1.7-7.3 5.2m8 19.1c-.2 1.4.7 2.7 2.1 2.9 1.4.2 2.7-.7 2.9-2.1.2-1.4-.7-2.7-2.1-2.9-1.4-.2-2.7.7-2.9 2.1m9.3-2.4c-.1.7.4 1.3 1 1.5.7.1 1.3-.4 1.5-1 .1-.7-.4-1.3-1-1.5-.8-.1-1.4.4-1.5 1"/><g clip-path="url(#SVGID_41_)"><defs><path id="SVGID_42_" d="M230.4 21.7h20.5v20.5h-20.5z"/></defs><clipPath id="SVGID_43_"><use xlink:href="#SVGID_42_" overflow="visible"/></clipPath><g clip-path="url(#SVGID_43_)"><defs><path id="SVGID_44_" d="M230.5 30.3c-.9 5.6 2.9 10.9 8.5 11.8 5.6.9 10.9-2.9 11.8-8.5.9-5.6-2.9-10.9-8.5-11.8-5.6-.9-10.8 2.9-11.8 8.5"/></defs><clipPath id="SVGID_45_"><use xlink:href="#SVGID_44_" overflow="visible"/></clipPath><radialGradient id="SVGID_46_" cx="-970.532" cy="641.723" r="1" gradientTransform="rotate(-170.752 -5123.177 2895.499) scale(10.2592)" gradientUnits="userSpaceOnUse"><stop offset="0" stop-color="#537ff7"/><stop offset=".13" stop-color="#537ff7"/><stop offset="1"/></radialGradient><path clip-path="url(#SVGID_45_)" fill="url(#SVGID_46_)" d="M255.2 21.5l-25-4.1-4.1 25.1 25 4z"/></g></g><path d="M234.3 26.9c-.3 1.7.9 3.3 2.6 3.6 1.7.3 3.3-.9 3.6-2.6.3-1.7-.9-3.3-2.6-3.6-1.7-.3-3.3.9-3.6 2.6m-96.9 89.6c-.9 4.7 2 11 6.4 12.2 4.1 1.1 8.1-2.6 12.2-6.4 4.1-3.8 13.2-13.6 10.8-17.2-3.2-4.8-27.2.2-29.4 11.4m37.9-16c-.3 1.9 1 3.8 2.9 4.1 1.9.3 3.8-1 4.1-2.9.3-1.9-1-3.8-2.9-4.1-2-.4-3.8 1-4.1 2.9m-48 81.6c1 1 11.5-13.8 34.9-24.2 8.2-3.7 16.1-6 15.9-7.1-.3-1.1-8.8-.5-16 1.5-22.7 6.3-36 28.6-34.8 29.8m71-95.4c.2.1.6-1.4 2.3-3.5 0 0 .8-1 1.6-1.8 2.6-2.6 9.8-1.3 10.3-1.2 11.2 1.9 18.5 2.4 18.5 2.4 0 .1-5.2-.9-9.1-1.6-10.8-2-17.2-3.6-20.4-1.2-1.3 1-2.2 2.5-2.2 2.5-1.2 2.1-1.3 4.3-1 4.4" fill="#fff" clip-path="url(#SVGID_41_)"/><path class="st16" d="M176.8 233.4c-.2 2.7 1.7 5.2 4.4 5.9l36.5 9.6c2.6.7 5.5-.5 6.7-2.9.5-1.1 1-2.2 1.4-3.4.1-.3.1-.7-.1-1-.2-.3-.4-.5-.8-.6l-46.1-12.1c-.3-.1-.7 0-1 .1-.3.2-.5.5-.6.8-.1 1.2-.3 2.4-.4 3.6"/><path d="M176.8 233.4c-.7 11.7 6.9 22.6 18.7 25.7 11.6 3.1 23.4-2.5 28.7-12.8-1.3 2.2-4 3.2-6.5 2.5l-36.5-9.6c-2.6-.6-4.5-3-4.4-5.8" clip-path="url(#SVGID_41_)" fill="#b2282e"/><defs><path id="SVGID_47_" d="M113.5 294.6c-4 4.3-6.9 9.2-8.6 14.5-.2.7-.4 1.5-.6 2.3-.2.8-.4 1.7-.5 2.6-.1.4-.1.8-.2 1.2-.5 3.9-.2 6.9-.1 8.2 4 40.1 6.8 61.3 12.7 79.1 1 3.1 2.1 6 3.4 9 1.6 3.9 3.5 7.8 5.5 11.8 4.6 8.9 13 14 15.7 15.7 9.8 6.3 19.3 7 25.5 8.1l1.1.2c6.2.9 15.4 3.3 26.7.4 3.1-.8 12.7-2.9 19.9-9.9 19.9-19.2 29.1-36.3 52.2-87.8.5-1.2 1.7-3.8 2.4-7.3.2-1 .4-2.1.5-3.1.7-6.5-.4-13.1-3.2-19.5-4.8-10.9-13.9-18-24.2-19.7l-49.6-8.3-48.7-8.2c-1.7-.3-3.4-.4-5.1-.4-8.9-.2-17.9 3.6-24.8 11.1"/></defs><clipPath id="SVGID_48_"><use xlink:href="#SVGID_47_" overflow="visible"/></clipPath><linearGradient id="SVGID_49_" gradientUnits="userSpaceOnUse" x1="-970.532" y1="641.695" x2="-969.532" y2="641.695" gradientTransform="matrix(-97.9673 -204.6887 174.9903 -133.1317 -207152.094 -112792.586)"><stop offset="0" stop-color="#7f7f7f"/><stop offset=".04" stop-color="#7f7f7f"/><stop offset=".087" stop-color="#8e8e8e"/><stop offset=".221" stop-color="#b3b3b3"/><stop offset=".346" stop-color="#cecece"/><stop offset=".457" stop-color="#dedede"/><stop offset=".542" stop-color="#e4e4e4"/><stop offset=".652" stop-color="#b8c6d9"/><stop offset=".898" stop-color="#4b7abc"/><stop offset="1" stop-color="#1c59b0"/></linearGradient><path clip-path="url(#SVGID_48_)" fill="url(#SVGID_49_)" d="M328.4 405.8L225.3 190.3 44.4 327.9l103.1 215.5z"/><defs><path id="SVGID_50_" d="M241.6 300.1c10.3 1.7 19.5 7.7 24.7 16.8 3 5.3 4.3 10.8 3.7 16 .6-5.4-.7-11-3.9-16.5-5.3-9.2-14.8-15.3-25.4-17l-48.8-7.7 49.7 8.4z"/></defs><clipPath id="SVGID_51_"><use xlink:href="#SVGID_50_" overflow="visible"/></clipPath><linearGradient id="SVGID_52_" gradientUnits="userSpaceOnUse" x1="-970.532" y1="641.704" x2="-969.532" y2="641.704" gradientTransform="rotate(-121.328 -79523.928 5864.47) scale(119.8042)"><stop offset="0" stop-color="#75cdee"/><stop offset=".04" stop-color="#75cdee"/><stop offset="1" stop-color="#e5f992"/></linearGradient><path clip-path="url(#SVGID_51_)" fill="url(#SVGID_52_)" d="M289 321.8l-39.6-64.9-75.6 46 39.5 65z"/><defs><path id="SVGID_53_" d="M112.4 291.5c-16.8 6.2-18.4 44.8-12.2 70.3 1.4 5.6 5 20.5 12.3 21.3 3 .3 5.6-1.8 7.4-3.3 8.1-6.8 9.8-17.1 10.9-22.9 7-38.4 13.4-45.1 7.2-55.6-.7-1.2-4.3-7.3-11.5-9.9-2.4-.9-4.8-1.2-7-1.2-3 .1-5.5.7-7.1 1.3"/></defs><clipPath id="SVGID_54_"><use xlink:href="#SVGID_53_" overflow="visible"/></clipPath><linearGradient id="SVGID_55_" gradientUnits="userSpaceOnUse" x1="-970.532" y1="641.705" x2="-969.532" y2="641.705" gradientTransform="scale(120.2031 -120.2031) rotate(26.935 861.086 2346.974)"><stop offset="0" stop-color="#7f7f7f"/><stop offset=".04" stop-color="#7f7f7f"/><stop offset=".087" stop-color="#8e8e8e"/><stop offset=".221" stop-color="#b3b3b3"/><stop offset=".346" stop-color="#cecece"/><stop offset=".457" stop-color="#dedede"/><stop offset=".542" stop-color="#e4e4e4"/><stop offset=".648" stop-color="#b8c1ce"/><stop offset=".885" stop-color="#4b6a97"/><stop offset="1" stop-color="#143e7b"/></linearGradient><path clip-path="url(#SVGID_54_)" fill="url(#SVGID_55_)" d="M56.3 309.4l77.6-39.4 48 94.4-77.6 39.4z"/><defs><path id="SVGID_56_" d="M130.8 356.9c-1 5.8-2.8 16.1-10.9 22.9-.1 0-.1.1-.1.1 1.1 2.5 2.3 5 3.6 7.4.6-.5 1.2-.9 1.7-1.4 8.1-6.8 9.8-17.1 10.9-22.9 7-38.4 13.4-45.1 7.2-55.5-.5-.8-2.1-3.6-5.1-6.1 6.1 10.4-.3 17.2-7.3 55.5"/></defs><clipPath id="SVGID_57_"><use xlink:href="#SVGID_56_" overflow="visible"/></clipPath><linearGradient id="SVGID_58_" gradientUnits="userSpaceOnUse" x1="-970.532" y1="641.753" x2="-969.532" y2="641.753" gradientTransform="rotate(-143.227 -45760.691 12529.565) scale(77.5454)"><stop offset="0" stop-color="#979797"/><stop offset=".045" stop-color="#979797"/><stop offset="1" stop-color="#e4e4e4"/></linearGradient><path clip-path="url(#SVGID_57_)" fill="url(#SVGID_58_)" d="M190.7 332.2l-60.3-45-51.8 69.4 60.2 45z"/><defs><path id="SVGID_59_" d="M-970.5-438.3h1920v1080h-1920z"/></defs><clipPath id="SVGID_60_"><use xlink:href="#SVGID_59_" overflow="visible"/></clipPath><path d="M107.2 320.2c.9-4.1 2.2-7 4.7-12.8 3.3-7.6 6.5-11.1 5.1-12.9-.9-1.2-3.1-.8-3.7-.8-7.7 1.1-12.1 14.4-13.2 23-.7 5.3-.3 11.3 1.5 11.9.3.1 1.1.2 1.7-.2 2.5-1.6 3.3-5.1 3.9-8.2m-7.3 13.7c-.1.8.4 1.6 1.3 1.8.8.1 1.6-.4 1.8-1.3.1-.8-.4-1.6-1.3-1.8-.9-.1-1.7.5-1.8 1.3" clip-path="url(#SVGID_60_)" fill="#fff"/><defs><path id="SVGID_61_" d="M154.1 285.4l3.3.7-2.8-1.4z"/></defs><clipPath id="SVGID_62_"><use xlink:href="#SVGID_61_" overflow="visible"/></clipPath><path transform="rotate(-78.217 155.721 285.407)" clip-path="url(#SVGID_62_)" fill="#1c59b0" d="M154.7 283.6h2.1v3.5h-2.1z"/><defs><path id="SVGID_63_" d="M234.5 298.5l3.3.5-.4-.8z"/></defs><clipPath id="SVGID_64_"><use xlink:href="#SVGID_63_" overflow="visible"/></clipPath><path transform="rotate(-78.217 236.135 298.634)" clip-path="url(#SVGID_64_)" fill="#1c59b0" d="M235.4 296.9h1.4v3.4h-1.4z"/><defs><path id="SVGID_65_" d="M192.7 293.7c-13.5 11.2-6.7 19.7 2.9 41.4 0 0-3.5-22.2 2.4-25.9 5.4-3.3-.5-15.9-4.3-15.9-.3 0-.7.1-1 .4"/></defs><clipPath id="SVGID_66_"><use xlink:href="#SVGID_65_" overflow="visible"/></clipPath><path transform="rotate(-23.074 191.25 314.137)" clip-path="url(#SVGID_66_)" fill="#1c59b0" d="M172 290.2h38.6v47.9H172z"/><defs><path id="SVGID_67_" d="M191.6 298.6c-1.1 1.5.9 3.2 4 11.5 3 8 2.6 10.1 5.3 13.5 2.7 3.4 6.1 5.3 8.5 6.2-2-2.2-4.4-5.8-4.9-10.5-.8-7.8 4.8-11.6 2.8-16.3-1.6-3.8-7.4-5.9-11.5-5.9-1.9.1-3.5.6-4.2 1.5"/></defs><clipPath id="SVGID_68_"><use xlink:href="#SVGID_67_" overflow="visible"/></clipPath><path transform="rotate(-78.217 200.021 313.533)" clip-path="url(#SVGID_68_)" fill="#1c59b0" d="M182.1 300.9h35.8v25.2h-35.8z"/><defs><path id="SVGID_69_" d="M154.6 284.7s24 13 36.2 16.5c0 0 1.8-5.8-10.6-11.4-10.7-4.8-21.9-5.1-24.9-5.1h-.7"/></defs><clipPath id="SVGID_70_"><use xlink:href="#SVGID_69_" overflow="visible"/></clipPath><path transform="rotate(-78.217 173.69 292.939)" clip-path="url(#SVGID_70_)" fill="#1c59b0" d="M161.7 272.6h24v40.6h-24z"/><defs><path id="SVGID_71_" d="M211.5 294.9c-13.6 1.3-13.7 7.4-13.7 7.4 12.8.6 39.6-4 39.6-4s-9.5-3.6-21-3.6c-1.6 0-3.3 0-4.9.2"/></defs><clipPath id="SVGID_72_"><use xlink:href="#SVGID_71_" overflow="visible"/></clipPath><path transform="rotate(-83.09 217.563 298.77)" clip-path="url(#SVGID_72_)" fill="#1c59b0" d="M211.1 278.6H224v40.3h-12.9z"/><defs><path id="SVGID_73_" d="M187.3 299c0 5 4 9 9 9s9-4 9-9-4-9-9-9-9 4.1-9 9"/></defs><clipPath id="SVGID_74_"><use xlink:href="#SVGID_73_" overflow="visible"/></clipPath><path transform="rotate(-23.074 196.26 298.993)" clip-path="url(#SVGID_74_)" fill="#1c59b0" d="M184.5 287.2H208v23.5h-23.5z"/><defs><path id="SVGID_75_" d="M-970.5-438.3h1920v1080h-1920z"/></defs><clipPath id="SVGID_76_"><use xlink:href="#SVGID_75_" overflow="visible"/></clipPath><path d="M262.2 306.4c7.1-3.1 35.3-8.1 43.6-8.8 8.4-.6-45.9 9.8-43.6 8.8M123.7 364c-2.5 9.8-8.8 12.8-8 9.7.9-3.2 9.1-14 8-9.7" clip-path="url(#SVGID_76_)" fill="#fff"/><defs><path id="SVGID_77_" d="M-970.5-438.3h1920v1080h-1920z"/></defs><clipPath id="SVGID_78_"><use xlink:href="#SVGID_77_" overflow="visible"/></clipPath><g clip-path="url(#SVGID_78_)"><defs><path id="SVGID_79_" d="M-1821-232.5h621V34.2h-621z"/></defs><clipPath id="SVGID_80_"><use xlink:href="#SVGID_79_" overflow="visible"/></clipPath><path d="M-1728.3-107.6c11.1-2.2 22.6-3.9 33.2-6.8 5.7-1.5 11.3-4.6 14.2-7.9 5-5.5 7.7-11.7 11.5-17.5 2.1-3.1 4-6.3 6.9-9.2 7.4-7.2 17.6-7.3 24.1.2 5.5 6.3 8.7 13.3 13.3 19.9 4.1 5.9 6.4 13.8 19.4 14.3 13 .5 16.9-7.1 22.1-12.8 2.5-2.8 4.5-5.7 7.3-8.3 8.4-7.8 20.5-8.8 32.4-2.7 4 2.1 7.3 4.6 11.3 6.6 12.2 6.4 24.7 5.5 33.4-2.6 4.2-4 6.8-8.7 11.8-12.2 4.5-3.2 11.2-7.1 17.1-7.1 4.8-.1 11.3 4.5 14.3 7.9 4.9 5.5 7.3 11.7 11.3 17.5 3.9 5.7 6.5 13.8 18.9 13.5 11.9-.4 13-8.5 15.2-14.2 5.8-14.8 10.6-29.8 15.9-44.7.9-2.6 2-5.4 4.2-7.6 2.5-2.5 7.2-6.6 9.7-6.3 4.5.5 9.8 3.3 11.8 6 4.5 6.1 7 12.7 10.5 19.1 3.7 6.8 6.8 13.8 11.5 20.3 1.8 2.5 7.8 6.2 10.8 5.8 4.4-.5 9.9-3.8 11.1-6.5 5.6-12.8 9.7-25.8 14.7-38.6 3.5-9.2 7.2-18.3 11.6-27.3 1-2 5.9-4.9 7.9-4.7 3.5.5 8.2 2.9 9 4.9 5.2 12.8 9.5 25.8 14 38.7 3.9 11.2 7 22.5 11.8 33.5 1.4 3.2 7.2 8.1 11 8.1 5.4 0 12-3.2 15.9-6.1 5.3-4 8.3-9 12.9-13.4 8.9-8.3 21.4-9 32.8-1.9 4.2 2.6 7.5 5.7 11.7 8.2 11.7 7 24 6 30.5-3 5.5-7.6 9-15.7 13.9-23.4 3.4-5.3 5.3-13 17-12.7 11.9.3 12.5 8.1 14.8 13.5 5.1 11.7 9 23.6 13.5 35.4.9 2.4 1.9 4.8 3.2 7.1 7 12.1 17.9 13.7 34.4 5.4 5.4-2.7 11.4-5.6 17.9-6.7 10.4-1.8 19.7.5 27.9 5 20 10.8 32.4 9.3 45-5 2.3-2.6 4.4-5.2 7-7.7 10.1-9.6 23.3-9.7 33.3-.2 3.8 3.6 6.1 7.9 10.8 11 4.9 3.3 11.8 7.5 17.9 7.6 5 .1 11.9-5 14.8-8.6 5.3-6.6 8.2-13.9 12.3-20.9 1.9-3.2 4-6.3 6.9-9.2 6.6-6.4 15.8-6.7 21.7-.1 5.3 5.9 8.3 12.4 12.3 18.7 2.9 4.6 5.6 9.3 8.9 13.8 3.2 4.4 9.1 6.3 17.4 7.4 9.9 1.3 19.1 4.4 28.6 6.7.1.9.1 1.8.2 2.8-11 2.3-22.3 4-32.7 7-5.9 1.7-12.1 4.9-14.7 8.4-5.9 7.7-9.3 16.1-14.3 24-3.1 4.9-5.4 11.3-16.6 11.3-10.6 0-13-6.2-16-10.9-5.3-8.1-8.9-16.7-14.6-24.7-7.5-10.5-20.4-10.9-30.9-1.4-4.8 4.3-8.1 9.1-12.9 13.4-9 8.2-21.6 8.2-30.9.1-3.6-3.1-6.3-6.6-9.3-10-11.6-12.9-24.4-14.3-43.2-4.6-1.4.7-2.8 1.5-4.2 2.2-10.9 5.1-24.3 5.3-35.5.4-3.3-1.5-6.1-3.3-9.4-4.9-14.5-6.8-25.6-5.3-30.7 5.2-6.3 12.9-10.4 26.2-15.9 39.2-2.1 5-4.7 10-8.5 14.5-4.4 5.4-12.3 5.8-17.4.7-5.2-5.1-8.3-11-12-16.6-3.8-5.8-6.4-12-11-17.6-6.3-7.7-16.8-8.7-27.5-3-5.3 2.8-9.2 6.5-14.2 9.6-11.1 6.7-23.6 5.9-32.1-2-5-4.7-8.6-10.1-14.2-14.5-3.3-2.6-9.9-5.6-14.3-5.3-4.2.3-9.9 4.4-11.1 7.3-5.5 14.2-9.6 28.6-14.5 42.8-3.5 10.1-7.2 20.1-11.6 30.1-.9 2.1-5.7 3.6-8.6 5.4-3-1.8-7.8-3.3-8.7-5.4-5.8-13.9-10.6-27.9-15.9-41.9-3-7.9-5.7-15.8-9.9-23.4-1.5-2.8-7-6.6-10.8-6.6-3.9 0-9.8 3.5-11.6 6.2-5.3 8.1-8.9 16.6-13.4 24.9-2.9 5.3-5.6 10.7-9.6 15.8-1.7 2.1-6.6 4.5-9.9 4.5-3.3-.1-8.1-2.8-9.2-4.9-4.6-9-8.2-18.1-11.7-27.3-4.2-10.7-7.3-21.6-12.3-32.1-1.6-3.4-7.9-6-12-9-5 2.7-11.8 4.9-14.7 8.3-6.2 7.4-9.6 15.6-15.7 23-2.8 3.4-9.4 8-14.2 8-5.9 0-12.7-3.8-17.2-7-5.2-3.7-7.8-8.7-12.3-12.8-8.2-7.5-20.2-8.4-31.9-2.7-4.3 2.1-8 4.8-12.2 7.1-11.6 6.2-24.2 5.3-32.4-2.5-4.8-4.5-7.7-9.9-13.1-14.1-4-3.1-10.9-7-16.2-6.8-5.3.2-11.7 4.4-14.9 7.7-4.8 5-6.9 10.9-10.6 16.3-2.7 3.9-5.2 8-9.1 11.5-5.8 5.2-14.2 5.4-20.3.3-3.7-3-6.2-6.6-8.6-10.2-3.5-5.2-6.2-10.6-9.6-15.8-4.3-6.5-11-10.4-24.1-11.2-8.7-.5-16.9-4.4-25.3-6.7-.3-.5-.4-1.4-.5-2.3" clip-path="url(#SVGID_80_)" fill="#b2282e"/></g><linearGradient id="SVGID_81_" gradientUnits="userSpaceOnUse" x1="186.605" y1="1075.811" x2="186.605" y2="1018.405" gradientTransform="rotate(10.887 3736.334 706.47)"><stop offset="0" stop-color="#1c59b0"/><stop offset="1" stop-color="#74a0ff"/></linearGradient><path d="M181.3 368.5c.6-3.2 1.2-6.4 1.9-9.6 0-.2.1-.3.4-.3l11.1 2.1c2.1.4 3.8 1.4 5.3 3 1.7 1.8 2.7 4.1 2.8 6.7.1 1.9-.4 3.6-1.3 5.3-1.2 2-2.8 3.5-4.9 4.4-.4.2-.4.2-.3.6 1.3 4.9 2.7 9.8 4 14.6.1.4 0 .8-.2 1.1-.3.5-.8.9-1.3 1-2.6 1.1-5.5 1.7-8.3 1.9-1.6.1-3.2.1-4.8 0-1.5-.1-2.9-.4-4.4-.8-2-.5-4-1.2-5.8-2.1-3-1.5-5.6-3.4-7.9-5.8-2-2-3.6-4.2-4.8-6.7-1.8-3.5-2.9-7.4-3.2-11.3-.1-1.4 0-2.9.1-4.3.1-1.6.4-3 .7-4.6.8-3.3 2.2-6.4 4-9.2 1.2-1.8 2.5-3.4 4.1-4.8 1.7-1.6 3.6-3 5.7-4.2 3-1.7 6.2-2.8 9.6-3.4 1.6-.2 3.1-.3 4.7-.4.7 0 1.3 0 2.1.1 1.8.2 3.6.6 5.4.9 1.4.3 2.6.8 3.9 1.3 1.8.8 3.5 1.7 5 2.8 2.1 1.5 4.1 3.3 5.7 5.3 1.4 1.7 2.5 3.5 3.5 5.5.4.7.7 1.4.9 2.1.2.7-.1 1.5-.8 1.8-1.4.5-2.8.9-4.1 1.4-.7.3-1.5-.1-1.7-.8-.3-1-.8-1.8-1.4-2.8-1.4-2.5-3.4-4.7-5.7-6.4-1.5-1.1-3.2-2-4.9-2.7-.8-.3-1.5-.5-2.3-.8-1-.3-2-.5-3-.6-2.1-.2-4.3-.1-6.4.2-2.3.4-4.4 1.2-6.5 2.2-2.4 1.3-4.4 2.8-6 4.6-1.7 1.9-3 3.9-4.1 6.2l-.9 2.4c-.2.7-.4 1.4-.6 2.2-.1.7-.3 1.5-.3 2.3-.1.8-.1 1.7-.1 2.6 0 2.4.6 4.6 1.3 6.8.6 1.6 1.4 3.1 2.3 4.6 1.6 2.4 3.6 4.4 6.1 6 1.5 1 3.1 1.8 4.8 2.4.8.2 1.5.5 2.3.7.3.1.5.3.9.3h.7c2.5.4 5.1.4 7.7-.2.5-.1.5-.1.4-.6-1-3.6-1.9-7-2.9-10.6v-.4c.3-1.5.6-3.1.9-4.5.2-.9 1-1.6 1.9-1.5.7 0 1.3-.2 1.9-.5 1.1-.5 1.9-1.5 2.1-2.7.3-1.6-.3-2.9-1.6-3.9-.4-.3-.9-.5-1.5-.6l-4.5-.9c-.2 0-.3 0-.3.2-.8 4.4-1.7 8.8-2.5 13.2-.2.9-1.1 1.5-2 1.4-1-.3-2.2-.4-3.3-.6-.9-.2-1.4-1.2-1.3-1.9.5-3.3 1.1-6.5 1.7-9.7z" fill="url(#SVGID_81_)"/></svg>