<svg version="1.1" id="Capa_1" xmlns="http://www.w3.org/2000/svg" x="0" y="0" viewBox="0 0 512 512" xml:space="preserve"><style>.st1{fill:#fff}</style><linearGradient id="SVGID_1_" gradientUnits="userSpaceOnUse" x1="256" y1="-328" x2="256" y2="184" gradientTransform="matrix(1 0 0 -1 0 184)"><stop offset="0" stop-color="#3f77f2"/><stop offset="1" stop-color="#d8e5ff"/></linearGradient><path d="M436 81.6c-83 0-169.1-77-169.9-77.7-5.7-5.2-14.4-5.2-20.2 0-.8.8-86.7 77.7-169.9 77.7-8.3 0-15 6.7-15 15v179.6C61 421.8 169.2 479.9 250.6 511c1.7.7 3.5 1 5.4 1 1.8 0 3.6-.3 5.4-1C375.5 467.4 451 399.5 451 276.3V96.6c0-8.3-6.7-15-15-15z" fill="url(#SVGID_1_)"/><path class="st1" d="M370.3 289.4c0-5.6-2.7-8.2-8.3-8.3h-27c-4.3 0-4.3 0-4.3-4.3V150.4c-.1-4.1-1.6-5.9-5.5-6.9h-158c-4 1.3-5.4 3.3-5.5 7.5v208.5c.2 4.5 2.9 7.1 7.4 7.1h175.6c2.3 0 4.6-.2 6.9-.9 11-3.8 18.6-14.3 18.7-26.3.1-16.8.1-33.4 0-50zm-51.8 63.8H177.9c-1.9 0-2.5-.3-2.5-2.4.1-64 .1-128.1 0-192.1 0-2 .5-2.3 2.4-2.3 45.6.1 91.2.1 136.9 0 2 0 2.4.6 2.4 2.5-.1 59 0 117.9-.1 176.9 0 6 .7 11.8 4 17.4h-2.5zm38.1-35.1c0 7 .1 13.9 0 20.9-.1 6.4-4 11.9-9.5 13.7-7.2 2.3-15-2.7-16.5-10.6-.3-1.4-.4-2.9-.4-4.3v-40.9c0-1.6.2-2.3 2.1-2.2 7.5.1 15.1.1 22.6 0 1.6 0 1.9.5 1.9 1.9-.3 7.1-.2 14.3-.2 21.5z"/><path class="st1" d="M243.6 226.5h-47c-3.7 0-6.5-2.3-6.9-5.6-.5-3.8 2.2-7 6-7.4h94.2c5.3 0 8.7 4.3 6.9 8.9-1 2.7-3.4 4.2-6.7 4.2-15.4-.1-31-.1-46.5-.1zm0 29.1h-47c-3.7 0-6.5-2.3-6.9-5.6-.5-3.8 2.2-7 6-7.4h94.2c5.3 0 8.7 4.3 6.9 8.9-1 2.7-3.4 4.2-6.7 4.2-15.4-.1-31-.1-46.5-.1zm0 30.6h-47c-3.7 0-6.5-2.3-6.9-5.6-.5-3.8 2.2-7 6-7.4h94.2c5.3 0 8.7 4.3 6.9 8.9-1 2.7-3.4 4.2-6.7 4.2-15.4-.1-31-.1-46.5-.1zm0 29h-47c-3.7 0-6.5-2.3-6.9-5.6-.5-3.8 2.2-7 6-7.4h94.2c5.3 0 8.7 4.3 6.9 8.9-1 2.7-3.4 4.2-6.7 4.2-15.4-.1-31-.1-46.5-.1zm-23.9-117.7h-22.4c-1.5 0-3-.1-4.4-.9-2.4-1.4-3.6-4.1-3.1-6.9.5-2.5 2.5-4.6 5-5.1.6-.1 1.1-.2 1.7-.2h46.1c3.6 0 6.2 2.1 6.8 5.2.8 4-1.9 7.6-6.1 7.8-2.9.2-5.8.1-8.7.1h-14.9z"/></svg>