<?xml version="1.0" encoding="utf-8"?>
<!-- Generator: Adobe Illustrator 25.1.0, SVG Export Plug-In . SVG Version: 6.00 Build 0)  -->
<svg version="1.1" id="regular" xmlns="http://www.w3.org/2000/svg" xmlns:xlink="http://www.w3.org/1999/xlink" x="0px" y="0px"
	 viewBox="0 0 512 320" style="enable-background:new 0 0 512 320;" xml:space="preserve">
<path d="M259.1,320c74.1,0,47.7-46.9,53.4-60.4c-0.1-10.1-0.2-19.8,0.2-25.6c4.7,1.3,15.8,6.9,38.6,29.2
	c35.3,35.6,44.3,56.9,72.9,56.9h52.5c16.6,0,25.3-6.9,29.6-12.7c4.2-5.6,8.3-15.4,3.8-30.7c-11.7-36.8-80-100.3-84.3-107
	c0.6-1.2,1.7-2.9,2.2-3.7h0c13.5-17.8,64.9-94.9,72.5-125.8c0,0,0-0.1,0-0.2c4.1-14.1,0.3-23.2-3.5-28.4C491.1,3.9,481.8,0,469.2,0
	h-52.5c-17.6,0-30.9,8.9-37.7,25c-11.3,28.7-43,87.7-66.8,108.6c-0.7-29.6-0.2-52.2,0.1-69C313.3,31.9,315.7,0,281.7,0h-82.5
	c-21.3,0-41.7,23.3-19.6,50.9c19.3,24.2,6.9,37.7,11.1,104.8c-16.2-17.4-45.1-64.3-65.5-124.4C119.6,15.1,110.9,0,86.5,0H34
	C12.7,0,0,11.6,0,31.1C0,74.7,96.6,320,259.1,320L259.1,320z M86.5,32c4.6,0,5.1,0,8.5,9.7c20.9,61.5,67.7,152.5,102,152.5
	c25.7,0,25.7-26.3,25.7-36.3l0-79c-1.4-26.1-10.9-39.1-17.2-47l74.8,0.1c0,0.4-0.4,87.4,0.2,108.4c0,29.9,23.8,47.1,60.9,9.5
	c39.1-44.2,66.2-110.2,67.3-112.9c1.6-3.8,3-5.1,8-5.1h52.5h0.2c0,0.1,0,0.1,0,0.2c-4.8,22.4-52.2,93.8-68,115.9
	c-0.3,0.3-0.5,0.7-0.7,1.1c-7,11.4-12.7,24,1,41.7h0c1.2,1.5,4.5,5,9.2,9.9c14.6,15.1,64.6,66.6,69.1,87c-2.9,0.5-6.1,0.1-55.7,0.2
	c-10.6,0-18.8-15.8-50.3-47.6c-28.3-27.6-46.7-38.8-63.5-38.8c-32.5,0-30.1,26.4-29.8,58.3c0.1,34.6-0.1,23.7,0.1,25.8
	c-1.9,0.7-7.3,2.2-21.5,2.2C123.7,288,35.6,73.2,32.2,32.1C33.4,32,49.5,32,86.5,32L86.5,32z"/>
</svg>
