<?xml version="1.0" encoding="utf-8"?>
<!-- Generator: Adobe Illustrator 25.1.0, SVG Export Plug-In . SVG Version: 6.00 Build 0)  -->
<svg version="1.1" id="regular" xmlns="http://www.w3.org/2000/svg" xmlns:xlink="http://www.w3.org/1999/xlink" x="0px" y="0px"
	 viewBox="0 0 383.4 511.4" style="enable-background:new 0 0 383.4 511.4;" xml:space="preserve">
<path d="M309.3,301.4c98.8,0,98.8-152,0-152h-160v-74C149.3-25.1,0-25.2,0,75.4v240c0,108.1,86.1,196,192,196h117.3
	c98.8,0,98.8-152,0-152H192c-23.5,0-42.7-19.7-42.7-44v-14L309.3,301.4L309.3,301.4z M192,391.4h117.3c56.5,0,56.4,88,0,88H192
	c-88.2,0-160-73.6-160-164v-240c0-58.3,85.3-58.2,85.3,0v90c0,8.8,7.2,16,16,16h176c56.5,0,56.4,88,0,88h-176c-8.8,0-16,7.2-16,16
	v30C117.3,357.3,150.8,391.4,192,391.4z"/>
</svg>
