<?xml version="1.0" encoding="utf-8"?>
<!-- Generator: Adobe Illustrator 25.1.0, SVG Export Plug-In . SVG Version: 6.00 Build 0)  -->
<svg version="1.1" id="Слой_1" xmlns="http://www.w3.org/2000/svg" xmlns:xlink="http://www.w3.org/1999/xlink" x="0px" y="0px"
	 viewBox="0 0 365.6 512" style="enable-background:new 0 0 365.6 512;" xml:space="preserve">
<path d="M54.4,135.8c8.2-1.4,13.6-9.2,12.2-17.3C58.7,72.2,94.4,30,141.1,30c46.5,0,82.3,42,74.4,88.3c-1.4,8.2,4.1,15.9,12.3,17.3
	c8.2,1.4,15.9-4.1,17.3-12.3C256,58.9,206.3,0,141.1,0C75.9,0,25.9,58.8,37.1,123.6C38.5,131.7,46.3,137.2,54.4,135.8z"/>
<path d="M300.7,240.6c-11.2-22.1-38-30.9-60-20c-10.2-20.1-33.6-29.5-54.8-22.2v-91.9c0-24.5-19.7-44.9-43.9-45.6
	c-25.3-0.7-46.4,19.6-46.4,45v231.1L78,318.6c-16.9-17.7-45.2-19-63.1-2.8C-4,332.9-5,362,12.4,380.3l101.3,108
	c14.1,15.1,34.1,23.7,54.7,23.7h122.1c41.4,0,75-33.6,75-75V281C365.6,247.8,330.5,225.9,300.7,240.6z M335.6,437
	c0,24.8-20.2,45-45,45H168.4c-12.4,0-24.4-5.2-32.8-14.2C135.2,467.4,34.5,360,34.2,359.6c-5.8-6.1-5.5-15.8,0.8-21.5
	c6-5.4,15.5-4.8,21.3,1.2l43.5,45.5c9.3,9.8,25.8,3.1,25.8-10.4V106c0-8.4,7-15.2,15.5-15c8.1,0.2,14.7,7.2,14.7,15.6
	c0,165.1-0.3,90.2-0.3,179.4c0,8.3,6.8,15.1,15.1,15c8.4,0.1,15.1-6.7,15.1-15v-47.9c1.3-6.9,7.4-12.1,14.7-12.1c8.3,0,15,6.7,15,15
	v45c0,8.3,6.7,15,15,15s15-6.7,15-15v-25c0-8.3,6.7-15,15-15c8.3,0,15,6.7,15,15v25c0,8.3,6.7,15,15,15s15-6.7,15-15v-5
	c0-8.3,6.7-15,15-15s15,6.7,15,15V437z"/>
</svg>
