<?xml version="1.0" encoding="utf-8"?>
<!-- Generator: Adobe Illustrator 25.1.0, SVG Export Plug-In . SVG Version: 6.00 Build 0)  -->
<svg version="1.1" id="Слой_1" xmlns="http://www.w3.org/2000/svg" xmlns:xlink="http://www.w3.org/1999/xlink" x="0px" y="0px"
	 viewBox="0 0 62.5 90" style="enable-background:new 0 0 62.5 90;" xml:space="preserve">
<path d="M61,15.6h-9.2V0h-3v15.6h-9.2c-0.8,0-1.5,0.7-1.5,1.5v55.8c0,0.8,0.7,1.5,1.5,1.5h9.2V90h3V74.4H61c0.8,0,1.5-0.7,1.5-1.5
	V17.1C62.5,16.3,61.8,15.6,61,15.6z"/>
<path d="M22.9,26.2h-9.2V10.6h-3v15.6H1.5c-0.8,0-1.5,0.7-1.5,1.5v34.6c0,0.8,0.7,1.5,1.5,1.5h9.2v15.6h3V63.8h9.2
	c0.8,0,1.5-0.7,1.5-1.5V27.7C24.4,26.9,23.7,26.2,22.9,26.2z"/>
</svg>
