<?xml version="1.0" encoding="utf-8"?>
<!-- Generator: Adobe Illustrator 25.4.1, SVG Export Plug-In . SVG Version: 6.00 Build 0)  -->
<svg version="1.1" id="Layer_1" xmlns="http://www.w3.org/2000/svg" xmlns:xlink="http://www.w3.org/1999/xlink" x="0px" y="0px"
	 viewBox="0 0 534 398" style="enable-background:new 0 0 534 398;" xml:space="preserve">
<g>
	<g>
		<g>
			<path d="M515.5,18.5c-10-10-26.2-10-36.2,0L172.6,325.2L54.7,207.3c-10-10-26.2-10-36.2,0c-10,10-10,26.2,0,36.2l136,136
				c10,10,26.2,10,36.2,0L515.5,54.7C525.5,44.7,525.5,28.5,515.5,18.5z"/>
			<path d="M172.6,398c-9.8,0-19-3.8-25.9-10.7l-136-136C3.8,244.4,0,235.2,0,225.4c0-9.8,3.8-19,10.7-25.9
				c14.3-14.3,37.5-14.3,51.8,0l110.1,110.1L471.5,10.7C478.4,3.8,487.6,0,497.4,0c9.8,0,19,3.8,25.9,10.7
				c6.9,6.9,10.7,16.1,10.7,25.9c0,9.8-3.8,19-10.7,25.9L198.5,387.3C191.6,394.2,182.4,398,172.6,398z M36.6,210.8
				c-3.7,0-7.5,1.4-10.3,4.3c-2.8,2.8-4.3,6.4-4.3,10.3s1.5,7.6,4.3,10.3l136,136c2.8,2.8,6.4,4.3,10.3,4.3c3.9,0,7.6-1.5,10.3-4.3
				L507.7,46.9c2.8-2.8,4.3-6.4,4.3-10.3s-1.5-7.6-4.3-10.3s-6.4-4.3-10.3-4.3s-7.6,1.5-10.3,4.3L172.6,340.8L46.9,215.1
				C44.1,212.2,40.3,210.8,36.6,210.8z"/>
		</g>
	</g>
</g>
</svg>
