<?xml version="1.0" encoding="utf-8"?>
<!-- Generator: Adobe Illustrator 25.4.1, SVG Export Plug-In . SVG Version: 6.00 Build 0)  -->
<svg version="1.1" id="Слой_1" xmlns="http://www.w3.org/2000/svg" xmlns:xlink="http://www.w3.org/1999/xlink" x="0px" y="0px"
	 viewBox="0 0 24 24" style="enable-background:new 0 0 24 24;" xml:space="preserve">
<g id="Layer_57">
	<path d="M14.8,12l8.6-8.6c0.8-0.8,0.8-2,0-2.8s-2-0.8-2.8,0L12,9.2L3.4,0.6C2.6-0.1,1.3,0,0.6,0.8c-0.6,0.7-0.6,1.9,0,2.6L9.2,12
		l-8.6,8.6c-0.8,0.8-0.8,2,0,2.8s2,0.8,2.8,0l8.6-8.6l8.6,8.6c0.8,0.8,2,0.8,2.8,0s0.8-2,0-2.8L14.8,12z"/>
</g>
</svg>
