<?xml version="1.0" encoding="utf-8"?>
<!-- Generator: Adobe Illustrator 25.2.3, SVG Export Plug-In . SVG Version: 6.00 Build 0)  -->
<svg version="1.1" id="Capa_1" xmlns="http://www.w3.org/2000/svg" xmlns:xlink="http://www.w3.org/1999/xlink" x="0px" y="0px"
	 width="512px" height="512px" viewBox="0 0 512 512" style="enable-background:new 0 0 512 512;" xml:space="preserve">
<style type="text/css">
	.st0{stroke-width:20;stroke-miterlimit:10;}
</style>
<g>
	<g>
		<g>
			<path class="st0" d="M382.8,20.5H117.9c-56.9,0-103,46.1-103,103v264.9c0,56.9,46.1,103,103,103h264.9c56.9,0,103-46.1,103-103
				V123.5C485.9,66.6,439.7,20.5,382.8,20.5z M456.4,388.5c0,40.6-32.9,73.6-73.6,73.6H117.9c-40.6,0-73.6-32.9-73.6-73.6V123.5
				c0-40.6,32.9-73.6,73.6-73.6h264.9c40.6,0,73.6,32.9,73.6,73.6V388.5z"/>
			<path class="st0" d="M368.1,123.5H220.9V153h111.7L122.2,363.3l20.8,20.8l210.5-210.3v111.7h29.4V138.2
				C382.8,130.1,376.2,123.5,368.1,123.5z"/>
		</g>
	</g>
</g>
</svg>
