<?xml version="1.0" encoding="utf-8"?>
<!-- Generator: Adobe Illustrator 25.4.1, SVG Export Plug-In . SVG Version: 6.00 Build 0)  -->
<svg version="1.1" id="Capa_1" xmlns="http://www.w3.org/2000/svg" xmlns:xlink="http://www.w3.org/1999/xlink" x="0px" y="0px"
	 viewBox="0 0 512 350.8" style="enable-background:new 0 0 512 350.8;" xml:space="preserve">
<g>
	<g>
		<path d="M467,0H45C20.2,0,0,20.2,0,45v260.8c0,24.8,20.2,45,45,45h422c24.8,0,45-20.2,45-45V45C512,20.2,491.8,0,467,0z M461.1,30
			l-6,5L273.9,185.9c-10.3,8.6-25.4,8.6-35.7,0L56.9,35l-6-5H461.1z M30,51.7l147.7,123L30,272.9V51.7z M467,320.8H45
			c-7.2,0-13.3-5.2-14.7-12l171.4-114.1l17.2,14.3c10.7,8.9,23.9,13.4,37.1,13.4c13.2,0,26.3-4.5,37.1-13.4l17.2-14.3l171.4,114.1
			C480.3,315.6,474.2,320.8,467,320.8z M482,272.9l-147.7-98.3L482,51.7V272.9z"/>
	</g>
</g>
</svg>
