<svg xmlns="http://www.w3.org/2000/svg" width="18.764" height="15.317"><g data-name="Group 108"><path data-name="Path 603" d="M7.659 14.169a.312.312 0 0 1-.024-.162c.008-.044-.02-.08-.084-.108s-.1-.05-.1-.066-.046-.028-.138-.036l-.133-.012H3.446a1.843 1.843 0 0 1-1.352-.563 1.844 1.844 0 0 1-.562-1.352V3.446a1.843 1.843 0 0 1 .562-1.352 1.844 1.844 0 0 1 1.352-.563h3.83a.361.361 0 0 0 .245-.078.4.4 0 0 0 .12-.233 2.014 2.014 0 0 0 .036-.281 2.977 2.977 0 0 0-.006-.317Q7.659.431 7.659.383A.388.388 0 0 0 7.276 0h-3.83a3.32 3.32 0 0 0-2.435 1.011A3.32 3.32 0 0 0 0 3.446v8.425a3.319 3.319 0 0 0 1.011 2.435 3.319 3.319 0 0 0 2.435 1.012h3.83a.363.363 0 0 0 .245-.078.4.4 0 0 0 .12-.234 2.017 2.017 0 0 0 .036-.281 2.974 2.974 0 0 0-.006-.317q-.012-.192-.012-.239z"/><path data-name="Path 604" d="M18.536 7.12 12.026.61a.766.766 0 0 0-1.3.539v3.446H5.362a.776.776 0 0 0-.766.766v4.6a.777.777 0 0 0 .766.766h5.361v3.446a.762.762 0 0 0 1.3.538l6.51-6.51a.752.752 0 0 0 0-1.077z"/></g></svg>