<?xml version="1.0" encoding="utf-8"?>
<!-- Generator: Adobe Illustrator 25.1.0, SVG Export Plug-In . SVG Version: 6.00 Build 0)  -->
<svg version="1.1" id="Capa_1" xmlns="http://www.w3.org/2000/svg" xmlns:xlink="http://www.w3.org/1999/xlink" x="0px" y="0px"
	 viewBox="0 0 565 505" style="enable-background:new 0 0 565 505;" xml:space="preserve">
<style type="text/css">
	.st0{fill:#FFFFFF;}
</style>
<g>
	<g>
		<g>
			<g>
				<g>
					<path class="st0" d="M402.5,26.5c-27.8,0-53.3,8.8-75.7,26.2c-21.5,16.6-35.9,37.8-44.3,53.3c-8.4-15.4-22.8-36.6-44.3-53.3
						c-22.5-17.4-47.9-26.2-75.7-26.2c-77.5,0-136,63.4-136,147.5c0,90.9,72.9,153,183.4,247.1c18.8,16,40,34.1,62.1,53.4
						c2.9,2.5,6.7,4,10.5,4s7.6-1.4,10.5-4c22.1-19.3,43.3-37.4,62.1-53.4C465.6,327,538.5,264.9,538.5,174
						C538.5,89.9,480,26.5,402.5,26.5z"/>
					<path d="M282.5,490.5c-6.8,0-13.3-2.5-18.4-6.9c-22-19.2-43.1-37.3-61.8-53.2l-0.1-0.1C147.4,383.7,100.2,343.5,67.5,304
						c-36.2-43.7-53-85-53-130c0-43.7,15-84,42.1-113.4c27.4-29.7,65-46.1,105.9-46.1c30.5,0,58.4,9.6,83,28.7
						c15.9,12.3,28,26.8,37,39.8c8.9-13.1,21.1-27.6,37-39.8c24.6-19,52.5-28.7,83-28.7c40.9,0,78.5,16.4,105.9,46.1
						c27.2,29.4,42.1,69.7,42.1,113.4c0,45-16.9,86.3-53,130c-32.7,39.5-79.9,79.7-134.5,126.2l-0.1,0.1
						c-18.7,15.9-39.9,34-61.9,53.2C295.8,488,289.3,490.5,282.5,490.5z M162.5,38.5c-70.7,0-124,58.3-124,135.5
						c0,85.3,71.3,146.1,179.2,238l0.1,0.1c18.7,16,40,34.1,62.1,53.4c1.5,1.3,3.8,1.3,5.3,0c22.1-19.3,43.4-37.4,62.1-53.4l0.1-0.1
						c107.9-91.9,179.1-152.7,179.1-238c0-77.3-53.3-135.5-124-135.5c-25.1,0-48.1,8-68.4,23.7c-20.1,15.5-33.4,35.5-41.1,49.5
						l-10.5,19.2L272,111.7c-7.7-14-21-34-41.1-49.5C210.6,46.5,187.6,38.5,162.5,38.5z"/>
				</g>
				<g>
					<path d="M282.5,482c-4.7,0-9.3-1.7-12.8-4.8c-22-19.3-43.2-37.3-61.9-53.3l-0.1-0.1C96.4,329.1,23,266.5,23,174
						C23,87.9,83,23,162.5,23c28.6,0,54.8,9.1,77.8,26.9c19.7,15.2,33.4,34.2,42.2,49c8.7-14.8,22.5-33.7,42.2-49
						C347.7,32.1,373.9,23,402.5,23C482,23,542,87.9,542,174c0,92.5-73.4,155-184.6,249.8l-0.1,0.1c-18.7,16-39.9,34-62,53.3
						C291.8,480.3,287.2,482,282.5,482z M162.5,30C87,30,30,91.9,30,174c0,89.2,72.5,151,182.1,244.5l0.1,0.1
						c18.7,16,39.9,34,62,53.3c2.3,2,5.2,3.1,8.2,3.1s6-1.1,8.2-3.1c22.1-19.3,43.3-37.4,62-53.4l0.1-0.1
						C462.5,325,535,263.3,535,174c0-82.1-57-144-132.5-144c-27,0-51.7,8.6-73.6,25.4c-21.2,16.4-35.3,37.4-43.4,52.2l-3.1,5.6
						l-3.1-5.6c-8.1-14.7-22.1-35.8-43.4-52.2C214.2,38.6,189.5,30,162.5,30z"/>
					<path d="M282.5,494c-7.6,0-15-2.8-20.7-7.8c-22-19.3-43.2-37.3-61.8-53.2l-0.1-0.1c-55-46.9-102.5-87.4-135.5-127.2
						C28,261.6,11,219.8,11,174c0-44.7,15.3-85.8,43.1-115.9C82.2,27.7,120.7,11,162.5,11c31.3,0,60,9.9,85.2,29.4
						c14.7,11.4,26.2,24.6,34.8,36.5c8.6-11.9,20.1-25.2,34.8-36.5C342.5,20.9,371.2,11,402.5,11c41.8,0,80.3,16.7,108.4,47.1
						C538.7,88.2,554,129.3,554,174c0,45.8-17,87.6-53.4,131.7c-32.9,39.9-80.4,80.3-135.4,127.2l-0.1,0.1
						c-18.7,15.9-39.9,34-61.8,53.2C297.5,491.2,290.1,494,282.5,494z M162.5,42C93.8,42,42,98.8,42,174
						c0,83.7,70.8,144,177.9,235.3l0.2,0.2c18.7,16,39.9,34,62,53.4c0.2,0.2,0.5,0.2,0.7,0c22.2-19.4,43.4-37.5,62.1-53.5l0.1-0.1
						C452.2,318,523,257.7,523,174c0-75.3-51.8-132-120.5-132c-24.3,0-46.6,7.7-66.2,22.9c-19.6,15.1-32.7,34.7-40.2,48.4
						l-13.6,24.8l-13.6-24.8c-7.5-13.7-20.6-33.3-40.2-48.4C209.1,49.7,186.8,42,162.5,42z"/>
				</g>
			</g>
			<g>
				<g>
					<path d="M282.5,489.5c-6.5,0-12.9-2.4-17.8-6.7c-22-19.2-43.2-37.3-61.8-53.2l-0.1-0.1C148.1,383,101,342.8,68.3,303.4
						c-36-43.5-52.8-84.6-52.8-129.4c0-90.4,63.2-158.5,147-158.5c30.3,0,58,9.6,82.4,28.5c16.3,12.6,28.6,27.5,37.6,40.8
						c9-13.3,21.3-28.3,37.6-40.8c24.4-18.9,52.2-28.5,82.4-28.5c83.8,0,147,68.1,147,158.5c0,44.8-16.8,85.9-52.8,129.4
						C464,342.8,416.9,383,362.3,429.5l-0.1,0.1c-18.7,15.9-39.9,34-61.9,53.2C295.4,487.1,289,489.5,282.5,489.5z M162.5,37.5
						c-71.3,0-125,58.7-125,136.5c0,85.8,71.4,146.6,179.5,238.7l0.1,0.1c18.7,16,40,34.1,62.1,53.4c1.8,1.6,4.8,1.6,6.6,0
						c22.1-19.3,43.4-37.4,62.1-53.4l0.1-0.1c108.1-92.1,179.5-153,179.5-238.7c0-77.8-53.7-136.5-125-136.5c-25.3,0-48.5,8-69,23.9
						c-20.2,15.6-33.6,35.7-41.4,49.8l-9.6,17.6l-9.6-17.6c-7.7-14.1-21.2-34.2-41.4-49.8C211,45.5,187.8,37.5,162.5,37.5z"/>
					<path d="M282.5,501.5c-9.5,0-18.6-3.4-25.7-9.6c-21.9-19.2-43-37.2-61.7-53.1l-0.2-0.2C139.9,391.7,92.4,351.2,59.1,311
						C21.2,265.3,3.5,221.7,3.5,174c0-46.7,16.1-89.8,45.3-121.3C78.2,21,118.6,3.5,162.5,3.5c33,0,63.2,10.4,89.8,31
						c10.9,8.4,21,18.5,30.2,30c9.2-11.5,19.3-21.6,30.2-30c26.6-20.6,56.8-31,89.8-31c43.9,0,84.3,17.5,113.7,49.2
						c29.2,31.5,45.3,74.6,45.3,121.3c0,47.7-17.7,91.3-55.6,137c-33.3,40.2-80.8,80.7-135.9,127.6l-0.1,0.1
						c-18.7,15.9-39.8,34-61.8,53.2C301.1,498.1,292,501.5,282.5,501.5z M162.5,49.5c-64.4,0-113,53.5-113,124.5
						c0,80.2,69.7,139.7,175.3,229.6l0.2,0.2c17.4,14.9,37,31.6,57.5,49.4c20.5-17.9,40.1-34.6,57.6-49.5l0.1-0.1
						C445.8,313.7,515.5,254.2,515.5,174c0-71-48.6-124.5-113-124.5c-22.6,0-43.3,7.2-61.6,21.4c-18.6,14.4-31,33-38.2,46.1
						l-20.2,36.9L262.3,117c-7.2-13.1-19.6-31.8-38.2-46.1C205.8,56.7,185.1,49.5,162.5,49.5z"/>
				</g>
				<g>
					<path d="M282.5,493c-7.4,0-14.5-2.7-20.1-7.5c-21.9-19.2-43.1-37.2-61.8-53.1l-0.2-0.2c-54.7-46.7-102-86.9-134.9-126.6
						C29,261.5,12,219.7,12,174C12,81.7,76.7,12,162.5,12c31.1,0,59.5,9.8,84.6,29.2c13.1,10.1,25,22.7,35.4,37.4
						c10.5-14.8,22.4-27.3,35.4-37.4C343,21.8,371.4,12,402.5,12C488.3,12,553,81.7,553,174c0,45.6-17,87.5-53.6,131.6
						c-32.8,39.6-80.1,79.9-134.8,126.6l-0.1,0.1c-18.7,15.9-39.9,34-61.9,53.2C297,490.3,289.9,493,282.5,493z M162.5,19
						C80.7,19,19,85.6,19,174c0,43.9,16.5,84.3,52,127.1c32.5,39.2,79.5,79.3,134,125.7l0.2,0.1c18.7,16,39.9,34,61.9,53.2
						c4.3,3.7,9.8,5.8,15.5,5.8c5.7,0,11.2-2.1,15.5-5.8c22-19.3,43.2-37.3,61.9-53.3l0.1-0.1c54.5-46.4,101.5-86.5,134-125.7
						c35.5-42.8,52-83.2,52-127.1c0-88.4-61.7-155-143.5-155c-29.5,0-56.5,9.3-80.3,27.7c-13.7,10.6-26.1,24-36.8,40l-2.9,4.3
						l-2.9-4.3c-10.7-16-23.1-29.4-36.8-40C219,28.3,192,19,162.5,19z M282.5,471c-2,0-4-0.7-5.6-2.1c-22-19.3-43.2-37.3-61.9-53.3
						l-0.2-0.2C105.9,322.7,34,261.4,34,174C34,94.2,89.2,34,162.5,34c26.1,0,50,8.3,71.1,24.6c20.7,16,34.4,36.5,42.3,50.9l6.6,12
						l6.6-12c7.9-14.4,21.6-34.9,42.3-50.9c21.1-16.3,45-24.6,71.1-24.6C475.8,34,531,94.2,531,174c0,87.4-71.9,148.7-180.7,241.4
						l-0.1,0.1c-18.7,16-40,34.1-62.1,53.4C286.5,470.3,284.5,471,282.5,471z M162.5,41C93.2,41,41,98.2,41,174
						c0,84.2,70.9,144.6,178.3,236.1l0.2,0.2c18.7,16,39.9,34,62,53.3c0.5,0.4,1.5,0.4,2,0c22.1-19.4,43.4-37.5,62.1-53.5l0.1-0.1
						C453.1,318.6,524,258.2,524,174c0-75.8-52.2-133-121.5-133c-24.5,0-47,7.8-66.8,23.1c-19.7,15.2-32.9,34.9-40.4,48.8
						l-12.7,23.2l-12.7-23.2c-7.6-13.8-20.7-33.5-40.4-48.8C209.5,48.8,187,41,162.5,41z"/>
					<path d="M282.5,505c-10.3,0-20.2-3.7-28-10.5c-21.9-19.1-43-37.1-61.6-53l-0.2-0.2c-55.2-47-102.8-87.6-136.3-128
						C17.9,266.9,0,222.6,0,174c0-47.7,16.4-91.7,46.3-123.8C76.4,17.8,117.6,0,162.5,0c33.8,0,64.7,10.7,91.9,31.7
						c10,7.8,19.4,16.9,28.1,27.3c8.6-10.4,18-19.5,28.1-27.3C337.8,10.7,368.7,0,402.5,0c44.9,0,86.1,17.8,116.2,50.2
						C548.6,82.3,565,126.3,565,174c0,48.6-17.9,92.8-56.4,139.2c-33.5,40.4-81.1,81-136.3,128l-0.2,0.2
						c-18.6,15.9-39.7,33.9-61.6,53C302.7,501.3,292.8,505,282.5,505z M162.5,53C100.1,53,53,105,53,174
						c0,78.6,69.2,137.6,174.1,226.9l0.3,0.3c16.8,14.3,35.5,30.3,55.1,47.3c19.6-17.1,38.4-33.1,55.2-47.4l0.3-0.3
						C442.8,311.6,512,252.6,512,174c0-69-47.1-121-109.5-121c-21.8,0-41.8,6.9-59.5,20.6c-18.1,14-30.2,32.2-37.3,45l-23.2,42.5
						l-23.2-42.5c-7-12.8-19.2-31-37.3-45C204.3,59.9,184.3,53,162.5,53z"/>
				</g>
			</g>
		</g>
	</g>
</g>
</svg>
