<?xml version="1.0" encoding="utf-8"?>
<!-- Generator: Adobe Illustrator 23.1.0, SVG Export Plug-In . SVG Version: 6.00 Build 0)  -->
<svg version="1.1" id="Capa_1" xmlns="http://www.w3.org/2000/svg" xmlns:xlink="http://www.w3.org/1999/xlink" x="0px" y="0px"
	 viewBox="0 0 512 512" style="enable-background:new 0 0 512 512;" xml:space="preserve">
<g>
	<path d="M452,232h-19.4c-8.3-23.3-30.5-40-56.6-40H276v-32h60c33.1,0,60-26.9,60-60V60c0-33.1-26.9-60-60-60H176
		c-33.1,0-60,26.9-60,60v40c0,33.1,26.9,60,60,60h60v32H136c-26.1,0-48.3,16.7-56.6,40H60c-33.1,0-60,26.9-60,60v140h40V292
		c0-11,9-20,20-20h16v180c0,33.1,26.9,60,60,60h240c33.1,0,60-26.9,60-60V272h16c11,0,20,9,20,20v140h40V292
		C512,258.9,485.1,232,452,232z M156,100V60c0-11,9-20,20-20h20v40h40V40h40v40h40V40h20c11,0,20,9,20,20v40c0,11-9,20-20,20H176
		C165,120,156,111,156,100z M396,452c0,11-9,20-20,20H136c-11,0-20-9-20-20V252c0-11,9-20,20-20h240c11,0,20,9,20,20V452z"/>
</g>
</svg>
