<?xml version="1.0" encoding="utf-8"?>
<!-- Generator: Adobe Illustrator 25.2.3, SVG Export Plug-In . SVG Version: 6.00 Build 0)  -->
<svg version="1.1" id="Capa_1" xmlns="http://www.w3.org/2000/svg" xmlns:xlink="http://www.w3.org/1999/xlink" x="0px" y="0px"
	 width="207.2px" height="207.2px" viewBox="0 0 207.2 207.2" style="enable-background:new 0 0 207.2 207.2;" xml:space="preserve"
	>
<g>
	<path d="M38.8,17h129.5c4.4,0,8-3.6,8-8s-3.6-8-8-8H38.8c-4.4,0-8,3.6-8,8S34.4,17,38.8,17z"/>
	<path d="M111.6,69.7l26.7,26.7c1.5,1.5,3.5,2.3,5.7,2.3c2.1,0,4.1-0.8,5.7-2.3c3.1-3.1,3.1-8.2,0-11.3l-40.3-40.3
		c-3.1-3.1-8.2-3.1-11.3,0L57.6,85.1c-1.5,1.5-2.3,3.5-2.3,5.7s0.8,4.1,2.3,5.7c1.5,1.5,3.5,2.3,5.7,2.3c2.1,0,4.1-0.8,5.7-2.3
		l26.7-26.7v128.5c0,4.4,3.6,8,8,8s8-3.6,8-8V69.7z"/>
</g>
</svg>
