<?xml version="1.0" encoding="utf-8"?>
<!-- Generator: Adobe Illustrator 24.1.2, SVG Export Plug-In . SVG Version: 6.00 Build 0)  -->
<svg version="1.1" id="Capa_1" xmlns="http://www.w3.org/2000/svg" xmlns:xlink="http://www.w3.org/1999/xlink" x="0px" y="0px"
	 width="512px" height="512px" viewBox="0 0 512 512" style="enable-background:new 0 0 512 512;" xml:space="preserve">
<style type="text/css">
	.st0{stroke-width:19;stroke-miterlimit:10;}
</style>
<g>
	<g>
		<path class="st0" d="M362.2,242c13.8-20.4,21.8-45,21.8-71.4V128C384,57.4,326.6,0,256,0S128,57.4,128,128v42.7
			c0,26.4,8,51,21.8,71.4C85.9,278.9,42.7,347.7,42.7,426.7V448c0,35.3,28.7,64,64,64h298.7c35.3,0,64-28.7,64-64v-21.3
			C469.3,347.7,426.1,278.9,362.2,242z M170.7,128c0-47.1,38.3-85.3,85.3-85.3S341.3,81,341.3,128v42.7c0,47.1-38.3,85.3-85.3,85.3
			s-85.3-38.3-85.3-85.3L170.7,128L170.7,128z M426.7,448c0,11.8-9.6,21.3-21.3,21.3H106.7c-11.8,0-21.3-9.6-21.3-21.3v-21.3
			c0-67,38.8-125,95.1-152.9c21.2,15.6,47.3,24.9,75.6,24.9s54.4-9.3,75.6-24.9c56.3,27.9,95.1,86,95.1,152.9L426.7,448L426.7,448z"
			/>
	</g>
</g>
</svg>
