<?xml version="1.0" encoding="utf-8"?>
<!-- Generator: Adobe Illustrator 25.1.0, SVG Export Plug-In . SVG Version: 6.00 Build 0)  -->
<svg version="1.1" id="Layer_1" xmlns="http://www.w3.org/2000/svg" xmlns:xlink="http://www.w3.org/1999/xlink" x="0px" y="0px"
	 viewBox="0 0 184.3 36.2" style="enable-background:new 0 0 184.3 36.2;" xml:space="preserve">
<style type="text/css">
	.st0{fill:#0C0D0D;}
	.st1{fill:#E8590D;}
</style>
<g>
	<path class="st0" d="M18.3,2.3c1,2.7,1.9,6.1,2.9,9.3c0.6-0.1,1.3-0.1,1.9-0.1C22.1,7.9,21,4.2,20,1.4C19.7,0.6,19.2,0,18.2,0
		s-1.6,0.5-1.9,1.4C15.1,4.5,14,8,13,11.5c0.3,0.1,0.6,0.2,0.9,0.3c0.3,0.1,0.5,0.1,0.7,0.2c0.3,0.1,0.3,0.1,0.1,0
		c0.1,0,0.2,0,0.3,0C16.1,8.8,17.1,5.4,18.3,2.3z"/>
	<path class="st0" d="M30.5,32.5c-1-3-2.9-7.8-4-10.7c-0.3-0.7-0.5-1.8-1.6-1.3s-0.5,1.4-0.2,2.1c1,3,2.9,7.8,3.9,10.8
		c0.1,0.3,0.1,0.4-0.1,0.5c-0.2-0.1-0.3-0.2-0.5-0.3c-2.5-1.4-6.6-3.6-9-5.2c-0.3-0.2-0.6-0.4-0.9-0.5c-0.3,0.6-0.8,1.2-1.2,1.7
		c0.3,0.1,0.5,0.1,0.7,0.3c2.6,1.5,6.7,4,9.3,5.5c1,0.6,2.1,1.2,3.1,0.4C31.4,34.7,30.9,33.6,30.5,32.5z"/>
</g>
<g>
	<g>
		<path class="st1" d="M10,33c2.4-2.1,5.8-4.9,8.2-7c0.6-0.5,1.2-1.4,2-0.5s-0.1,1.4-0.6,1.9c-2.3,2.1-5.7,5-8.1,7
			c-0.8,0.7-1.8,1.6-3,0.8c-1.1-0.7-1-1.9-0.8-3.1c0.5-3,0.8-6,1.4-9c0.1-1-0.3-1.5-0.9-2c-2.3-1.9-4.5-4-6.8-5.9
			c-0.8-0.7-1.7-1.5-1.3-2.7s1.6-1.4,2.7-1.4c10,0,20,0.1,30,0.1c1,0,1.6,0.3,2,1.3c0.4,0.9,0,1.6-0.6,2.1c-3.8,3.2-6.5,5.7-10.3,9
			c-0.5,0.5-1.1,0.9-1.8,0.2c-0.6-0.8,0-1.2,0.5-1.7c3.6-3.1,6.2-5.5,10.1-8.9c-10.3,0-20.3,0-30.6,0c2.4,2.1,4.7,4.2,7.1,6.1
			c1.6,1.2,2,2.5,1.6,4.5c-0.6,2.8-0.8,5.7-1.2,8.6c0,0.2-0.1,0.4-0.1,0.6C9.6,33.1,9.8,33,10,33z"/>
		<path class="st1" d="M10,33c-0.1,0.1-0.3,0.1-0.5,0.1c0-0.2,0.1-0.4,0.1-0.6C9.7,32.7,9.8,32.9,10,33z"/>
	</g>
</g>
<g>
	<path d="M51.9,28.2l6-17.9H61l6,17.9h-2.3l-5.6-16.6h0.7l-5.5,16.6H51.9z M54.8,24v-2.1h9.3V24H54.8z"/>
	<path d="M77,28.6c-1.3,0-2.4-0.2-3.4-0.6c-1-0.4-1.8-1-2.5-1.8s-1.1-1.7-1.3-2.8l2.3-0.4c0.3,1.1,0.9,2,1.8,2.6s2,0.9,3.2,0.9
		c0.8,0,1.5-0.1,2.2-0.4c0.6-0.3,1.2-0.6,1.5-1.1c0.4-0.5,0.6-1,0.6-1.7c0-0.4-0.1-0.7-0.2-1s-0.3-0.5-0.6-0.7
		c-0.2-0.2-0.5-0.4-0.8-0.5s-0.6-0.3-0.9-0.3l-4.5-1.4c-0.5-0.1-1-0.3-1.4-0.6c-0.5-0.2-0.9-0.5-1.2-0.9c-0.4-0.3-0.7-0.8-0.9-1.2
		s-0.3-1.1-0.3-1.7c0-1.1,0.3-2,0.8-2.7s1.3-1.3,2.2-1.7c0.9-0.4,2-0.6,3.2-0.6s2.3,0.2,3.2,0.6s1.7,1,2.4,1.8
		c0.6,0.8,1,1.7,1.3,2.8l-2.3,0.4c-0.1-0.7-0.4-1.4-0.8-1.9s-1-0.9-1.6-1.2s-1.3-0.4-2.1-0.4c-0.7,0-1.4,0.1-2,0.3
		c-0.6,0.2-1.1,0.6-1.4,1c-0.5,0.5-0.7,1-0.7,1.5s0.2,1,0.5,1.3s0.7,0.6,1.2,0.8c0.5,0.2,0.9,0.4,1.3,0.5l3.4,1
		c0.4,0.1,0.8,0.3,1.3,0.4c0.5,0.2,1,0.5,1.5,0.8c0.5,0.3,0.9,0.8,1.2,1.4c0.3,0.6,0.5,1.3,0.5,2.1c0,0.9-0.2,1.6-0.5,2.3
		s-0.8,1.2-1.4,1.7s-1.3,0.8-2.1,1C78.8,28.5,77.9,28.6,77,28.6z"/>
	<path d="M92.8,28.2V12.5h-6.1v-2.1h14.4v2.1H95v15.8h-2.2V28.2z"/>
	<path d="M105.1,28.2V10.4h11.3v2.1h-9.1v5.6h7.6v2.1h-7.6v6h9.1v2.1L105.1,28.2L105.1,28.2z"/>
	<path d="M121.3,28.2V10.4h7.1c0.2,0,0.4,0,0.6,0c0.2,0,0.5,0,0.7,0.1c1,0.1,1.8,0.5,2.4,1c0.7,0.5,1.2,1.2,1.5,1.9
		c0.3,0.8,0.5,1.6,0.5,2.6c0,1.4-0.4,2.6-1.1,3.6c-0.7,1-1.8,1.6-3.2,1.9l-0.8,0.1h-5.5v6.6H121.3z M123.5,19.5h4.8
		c0.2,0,0.3,0,0.5,0s0.4,0,0.6-0.1c0.6-0.1,1-0.4,1.4-0.7c0.4-0.4,0.6-0.8,0.8-1.2c0.2-0.5,0.2-1,0.2-1.5s-0.1-1-0.2-1.5
		c-0.2-0.5-0.4-0.9-0.8-1.2c-0.4-0.4-0.8-0.6-1.4-0.7c-0.2,0-0.4-0.1-0.6-0.1c-0.2,0-0.4,0-0.5,0h-4.8V19.5z M132,28.2l-3.5-7.3
		l2.2-0.7l3.9,7.9L132,28.2L132,28.2z"/>
	<path d="M139.4,28.2V10.4h2.2v17.9h-2.2V28.2z"/>
	<path d="M154.4,28.6c-1.4,0-2.6-0.3-3.7-0.9c-1.1-0.6-1.9-1.4-2.5-2.4s-0.9-2.2-0.9-3.6V10.4h2.2v11.2c0,0.8,0.1,1.6,0.4,2.2
		c0.3,0.6,0.7,1.1,1.1,1.6c0.5,0.4,1,0.7,1.6,0.9s1.1,0.3,1.7,0.3c0.6,0,1.1-0.1,1.7-0.3s1.1-0.5,1.6-0.9s0.8-0.9,1.1-1.6
		c0.3-0.6,0.4-1.4,0.4-2.2V10.4h2.2v11.3c0,1.4-0.3,2.6-0.9,3.6s-1.4,1.8-2.5,2.4C157,28.3,155.8,28.6,154.4,28.6z"/>
	<path d="M166.9,28.2V10.4h2l6.7,14.2l6.7-14.2h2v17.8h-2.1v-13l-6.1,13h-1.2l-6.1-13v13H166.9z"/>
</g>
</svg>
