<?xml version="1.0" encoding="utf-8"?>
<!-- Generator: Adobe Illustrator 25.1.0, SVG Export Plug-In . SVG Version: 6.00 Build 0)  -->
<svg version="1.1" id="Layer_1" xmlns="http://www.w3.org/2000/svg" xmlns:xlink="http://www.w3.org/1999/xlink" x="0px" y="0px"
	 viewBox="0 0 469.5 69.8" style="enable-background:new 0 0 469.5 69.8;" xml:space="preserve">
<style type="text/css">
	.st0{fill:url(#SVGID_1_);}
	.st1{fill:#4C7FED;}
	.st2{fill:#FFFFFF;}
</style>
<g>
	
		<linearGradient id="SVGID_1_" gradientUnits="userSpaceOnUse" x1="32.1" y1="983.7906" x2="32.1" y2="914.2522" gradientTransform="matrix(1 0 0 1 0 -914)">
		<stop  offset="0" style="stop-color:#497DEA"/>
		<stop  offset="1" style="stop-color:#74A0FF"/>
	</linearGradient>
	<path class="st0" d="M25.9,33.8c0-4,0-7.9,0-11.9c0-0.3,0.1-0.4,0.4-0.4c4.6,0,9.1,0,13.7,0c2.6,0,4.9,0.8,7,2.3
		c2.5,1.8,4.2,4.3,4.9,7.3c0.5,2.2,0.4,4.4-0.3,6.6c-0.9,2.7-2.5,4.8-4.8,6.4c-0.4,0.3-0.4,0.3-0.2,0.8c2.7,5.5,5.4,11,8.1,16.5
		c0.2,0.5,0.2,0.9,0,1.4c-0.2,0.7-0.7,1.2-1.3,1.5c-2.9,1.9-6.1,3.3-9.4,4.2c-1.9,0.5-3.8,0.9-5.7,1.1c-1.8,0.2-3.6,0.2-5.4,0.1
		c-2.5-0.1-5-0.5-7.4-1.2c-3.9-1.1-7.4-2.8-10.7-5.1c-2.8-1.9-5.2-4.2-7.3-6.9c-3-3.8-5.1-8.1-6.4-12.7c-0.4-1.7-0.7-3.4-0.9-5.1
		C0,36.8,0,35,0,33.1C0.2,29,1.1,25,2.7,21.2c1-2.4,2.2-4.6,3.8-6.7c1.7-2.3,3.6-4.4,5.8-6.3C15.5,5.5,19,3.4,23,2
		c1.8-0.6,3.6-1.1,5.5-1.5c0.8-0.2,1.6-0.3,2.5-0.4C33.2-0.1,35.4,0,37.6,0c1.7,0,3.3,0.4,4.9,0.7c2.3,0.5,4.5,1.2,6.6,2.2
		c2.9,1.3,5.6,3,8,5c2,1.7,3.8,3.6,5.4,5.7c0.6,0.7,1.1,1.5,1.5,2.3c0.4,0.8,0.2,1.8-0.6,2.3c-1.5,0.9-3.1,1.7-4.6,2.6
		C58,21.3,57,21,56.6,20.2c-0.6-1.1-1.4-2-2.3-3c-2.3-2.7-5.1-4.8-8.3-6.3c-2.1-1-4.3-1.7-6.5-2.1c-1-0.2-1.9-0.3-2.9-0.4
		c-1.2-0.1-2.5-0.1-3.7,0c-2.6,0.2-5.1,0.8-7.6,1.7c-2.6,1-5,2.4-7.2,4.1c-2.6,2.1-4.6,4.3-6.1,6.8c-1.6,2.6-2.7,5.3-3.4,8.3
		c-0.2,1-0.4,2-0.5,3C8,33.2,7.9,34.1,7.9,35c0,0.9,0,1.9,0.2,2.8c0.1,1,0.3,2.1,0.5,3.1c0.6,2.8,1.7,5.3,3.1,7.8
		c1.1,1.8,2.4,3.4,3.8,4.9c2.5,2.5,5.3,4.4,8.6,5.8c2,0.9,4.1,1.4,6.3,1.7c1,0.1,1.9,0.3,2.9,0.3c0.4,0,0.7,0.2,1.1,0.1
		c0.3,0,0.5-0.1,0.8-0.1c3.1-0.1,6.2-0.7,9.1-2c0.6-0.2,0.6-0.2,0.3-0.8c-2-4-3.9-7.9-5.9-11.9c-0.1-0.2-0.1-0.3-0.1-0.5
		c0-1.9,0-3.8,0-5.6c0-1.1,0.8-2.1,1.9-2.2c0.8-0.1,1.5-0.5,2.2-1c1.2-0.9,1.9-2.2,1.9-3.7c0-2-1-3.4-2.8-4.3
		c-0.6-0.3-1.2-0.4-1.9-0.4c-1.8,0-3.7,0-5.5,0c-0.3,0-0.3,0.1-0.3,0.3c0,5.4,0,10.9,0,16.3c0,1.1-1,2.1-2.1,2.1
		c-1.3-0.1-2.7,0-4.1,0c-1.1,0-2-1.1-2-2C25.9,41.7,25.9,37.8,25.9,33.8z"/>
</g>
<g>
	<path d="M96.4,54.3c-3.3,0-6.1-0.7-8.5-2.1c-2.4-1.4-4.2-3.4-5.5-6s-1.9-5.6-1.9-9s0.6-6.4,1.9-9s3.1-4.6,5.5-6
		c2.4-1.4,5.2-2.1,8.5-2.1c3.8,0,6.9,0.9,9.5,2.8c2.6,1.9,4.4,4.4,5.4,7.6l-6.3,1.7c-0.6-2-1.6-3.5-3.1-4.6
		c-1.4-1.1-3.3-1.7-5.6-1.7c-2.1,0-3.8,0.5-5.2,1.4s-2.4,2.2-3.1,3.9c-0.7,1.7-1.1,3.7-1.1,6s0.4,4.3,1.1,6s1.7,3,3.1,3.9
		c1.4,0.9,3.1,1.4,5.2,1.4c2.3,0,4.1-0.6,5.6-1.7c1.4-1.1,2.5-2.7,3.1-4.6l6.3,1.7c-1.1,3.2-2.9,5.7-5.4,7.6
		C103.3,53.3,100.1,54.3,96.4,54.3z"/>
	<path d="M127.4,54.3c-2.5,0-4.7-0.6-6.5-1.7c-1.9-1.1-3.3-2.6-4.4-4.6c-1-2-1.6-4.2-1.6-6.7c0-2.6,0.5-4.8,1.6-6.8s2.5-3.5,4.4-4.6
		s4-1.6,6.5-1.6s4.7,0.6,6.5,1.7c1.9,1.1,3.3,2.6,4.4,4.6c1.1,2,1.6,4.2,1.6,6.7c0,2.6-0.5,4.8-1.6,6.8s-2.5,3.5-4.4,4.6
		C132,53.7,129.9,54.3,127.4,54.3z M127.4,48.5c2,0,3.5-0.7,4.5-2s1.5-3.1,1.5-5.2c0-2.2-0.5-3.9-1.5-5.3s-2.5-2-4.4-2
		c-1.4,0-2.5,0.3-3.3,0.9c-0.9,0.6-1.5,1.5-1.9,2.5s-0.6,2.3-0.6,3.8c0,2.2,0.5,4,1.5,5.3S125.5,48.5,127.4,48.5z"/>
	<path d="M145.4,25.5V20h6.2v5.5H145.4z M145.4,53.6V28.9h6.2v24.7C151.6,53.6,145.4,53.6,145.4,53.6z"/>
	<path d="M158.4,53.6V28.9h5.5v8.2h0.8v16.5H158.4z M175.3,53.6V42c0-0.6,0-1.3-0.1-2.2c-0.1-0.9-0.3-1.8-0.6-2.6
		c-0.3-0.9-0.8-1.6-1.6-2.2s-1.7-0.9-3.1-0.9c-0.5,0-1.1,0.1-1.7,0.3c-0.6,0.2-1.2,0.5-1.7,1s-1,1.2-1.3,2.1s-0.5,2.2-0.5,3.7
		l-3.6-1.7c0-1.9,0.4-3.8,1.2-5.5s2-3.1,3.6-4.1c1.6-1.1,3.6-1.6,6-1.6c1.9,0,3.5,0.3,4.7,1s2.2,1.5,2.8,2.5s1.2,2.1,1.5,3.1
		c0.3,1.1,0.5,2.1,0.5,3c0.1,0.9,0.1,1.6,0.1,2v13.8h-6.2L175.3,53.6L175.3,53.6z"/>
	<path class="st1" d="M193,53.6V20.7h13.3c0.3,0,0.7,0,1.2,0s0.9,0.1,1.3,0.1c1.8,0.3,3.4,0.9,4.6,1.9c1.2,1,2.1,2.2,2.8,3.6
		c0.6,1.5,0.9,3.1,0.9,4.8c0,2.6-0.7,4.9-2,6.8s-3.3,3.1-6,3.6l-1.9,0.2h-9.3v11.8L193,53.6L193,53.6z M197.8,37.3h8.3
		c0.3,0,0.6,0,1,0s0.7-0.1,1.1-0.2c1-0.2,1.8-0.7,2.4-1.3c0.6-0.6,1-1.3,1.3-2.1c0.3-0.8,0.4-1.6,0.4-2.4s-0.1-1.6-0.4-2.4
		c-0.3-0.8-0.7-1.5-1.3-2.1s-1.4-1-2.4-1.3c-0.3-0.1-0.7-0.2-1.1-0.2c-0.4,0-0.7,0-1,0h-8.3V37.3z M212.2,53.6l-6.5-13.4l4.8-1.2
		l7.1,14.6H212.2z"/>
	<path class="st1" d="M233.6,54.3c-2.5,0-4.6-0.5-6.5-1.6c-1.8-1.1-3.3-2.6-4.3-4.5s-1.5-4.2-1.5-6.7c0-2.7,0.5-5,1.5-7
		s2.4-3.5,4.2-4.6s3.9-1.6,6.3-1.6c2.5,0,4.7,0.6,6.4,1.7c1.8,1.2,3.1,2.8,4,5c0.9,2.1,1.2,4.7,1,7.7h-4.8V41c0-2.9-0.6-5-1.6-6.3
		c-1.1-1.4-2.7-2.1-4.8-2.1c-2.4,0-4.2,0.8-5.4,2.3s-1.8,3.7-1.8,6.5c0,2.7,0.6,4.8,1.8,6.3s2.9,2.2,5.2,2.2c1.5,0,2.8-0.3,3.9-1
		c1.1-0.7,1.9-1.6,2.5-2.9l4.7,1.5c-1,2.2-2.4,3.9-4.4,5.1C238.2,53.7,236,54.3,233.6,54.3z M224.8,42.6v-3.7h17.7v3.7H224.8z"/>
	<path class="st1" d="M255.7,53.6l-9-24.7h4.8l6.6,18.7l6.6-18.7h4.8l-9,24.7C260.5,53.6,255.7,53.6,255.7,53.6z"/>
	<path class="st1" d="M274.1,24.9v-4.6h4.8v4.6H274.1z M274.1,53.6V28.9h4.8v24.7C278.9,53.6,274.1,53.6,274.1,53.6z"/>
	<path class="st1" d="M296.6,54.3c-2.5,0-4.6-0.5-6.5-1.6s-3.3-2.6-4.3-4.5s-1.5-4.2-1.5-6.7c0-2.7,0.5-5,1.5-7s2.4-3.5,4.2-4.6
		s3.9-1.6,6.3-1.6c2.5,0,4.7,0.6,6.4,1.7c1.8,1.2,3.1,2.8,4,5c0.9,2.1,1.2,4.7,1,7.7h-4.8V41c0-2.9-0.6-5-1.6-6.3
		c-1.1-1.4-2.7-2.1-4.8-2.1c-2.4,0-4.2,0.8-5.4,2.3c-1.2,1.5-1.8,3.7-1.8,6.5c0,2.7,0.6,4.8,1.8,6.3c1.2,1.5,2.9,2.2,5.2,2.2
		c1.5,0,2.8-0.3,3.9-1s1.9-1.6,2.5-2.9l4.7,1.5c-1,2.2-2.4,3.9-4.4,5.1C301.2,53.7,299,54.3,296.6,54.3z M287.8,42.6v-3.7h17.6v3.7
		H287.8z"/>
	<path class="st1" d="M317.3,53.6l-7.5-24.7h4.7l5.2,16.9l5.2-16.9h4.1l5.2,16.9l5.2-16.9h4.7l-7.5,24.7h-3.8L327,35.7l-5.8,17.9
		C321.2,53.6,317.3,53.6,317.3,53.6z"/>
</g>
<g>
	<path d="M438.9,54.5c-5.4,0-57.3,0-62.7,0c-5-0.1-9.1-2.2-11.9-6.4c-5.6-8.4-0.7-19.9,9.2-21.8c0.9-0.2,1.8-0.2,2.7-0.2
		c10.8,0,68.1,0,78.9,0c6.9,0,12.7,4.8,14.1,11.6c1.5,7.6-3.5,15.1-11.1,16.6c-1,0.2-1.9,0.3-2.9,0.3
		C449.8,54.5,444.4,54.5,438.9,54.5z"/>
</g>
<g>
	<path class="st2" d="M393.4,46.4c-1.2,0-2.2-0.2-3.1-0.7s-1.6-1.2-2.1-2.1s-0.7-1.9-0.7-3c0-1.2,0.2-2.3,0.7-3.2
		c0.5-0.9,1.2-1.6,2-2.1s1.8-0.8,3-0.8s2.2,0.3,3,0.8c0.8,0.6,1.4,1.3,1.8,2.3s0.5,2.2,0.4,3.6h-2.8v-1c0-1.1-0.2-2-0.5-2.5
		c-0.4-0.5-1-0.8-1.8-0.8c-1,0-1.7,0.3-2.1,0.9c-0.5,0.6-0.7,1.5-0.7,2.6c0,1,0.2,1.9,0.7,2.4c0.5,0.6,1.1,0.9,2,0.9
		c0.6,0,1-0.1,1.4-0.4s0.7-0.6,0.9-1.1l2.8,0.8c-0.4,1-1.1,1.8-2,2.4C395.5,46.1,394.5,46.4,393.4,46.4z M389.7,41.2v-2.1h7.5v2.1
		H389.7z"/>
	<path class="st2" d="M399.2,46.1l4-5.7l-3.9-5.6h3.3l2.3,3.3l2.2-3.3h3.3l-3.9,5.6l4,5.7h-3.3l-2.3-3.5l-2.3,3.5H399.2z"/>
	<path class="st2" d="M412.2,51.1V34.8h2.5v7.7h0.4v8.6H412.2z M417.7,46.4c-1.1,0-2.1-0.3-2.8-0.8s-1.3-1.2-1.7-2.1s-0.6-1.9-0.6-3
		s0.2-2.1,0.6-3s0.9-1.6,1.7-2.1c0.7-0.5,1.6-0.8,2.7-0.8s2,0.3,2.8,0.8s1.4,1.2,1.9,2.1c0.4,0.9,0.7,1.9,0.7,3.1
		c0,1.1-0.2,2.1-0.7,3c-0.4,0.9-1,1.6-1.8,2.1C419.7,46.1,418.8,46.4,417.7,46.4z M417.3,43.8c0.6,0,1.1-0.2,1.5-0.5
		s0.7-0.7,0.9-1.2c0.2-0.5,0.3-1.1,0.3-1.7s-0.1-1.2-0.3-1.7c-0.2-0.5-0.5-0.9-0.9-1.2c-0.4-0.3-0.9-0.5-1.6-0.5
		c-0.6,0-1.1,0.1-1.4,0.4s-0.6,0.7-0.8,1.2c-0.2,0.5-0.3,1.1-0.3,1.8s0.1,1.3,0.3,1.8c0.2,0.5,0.4,0.9,0.8,1.2
		S416.7,43.8,417.3,43.8z"/>
	<path class="st2" d="M430.1,46.4c-1.2,0-2.2-0.2-3.1-0.7s-1.6-1.2-2.1-2.1s-0.7-1.9-0.7-3c0-1.2,0.2-2.3,0.7-3.2
		c0.5-0.9,1.2-1.6,2-2.1s1.8-0.8,3-0.8s2.2,0.3,3,0.8c0.8,0.6,1.4,1.3,1.8,2.3s0.5,2.2,0.4,3.6h-2.8v-1c0-1.1-0.2-2-0.5-2.5
		c-0.4-0.5-1-0.8-1.8-0.8c-1,0-1.7,0.3-2.1,0.9c-0.5,0.6-0.7,1.5-0.7,2.6c0,1,0.2,1.9,0.7,2.4c0.5,0.6,1.1,0.9,2,0.9
		c0.6,0,1-0.1,1.4-0.4s0.7-0.6,0.9-1.1L435,43c-0.4,1-1.1,1.8-2,2.4C432.1,46.1,431.1,46.4,430.1,46.4z M426.3,41.2v-2.1h7.5v2.1
		H426.3z"/>
	<path class="st2" d="M445.1,37v-2.2h8V37H445.1z M453.1,46.1c-0.8,0.1-1.5,0.2-2.3,0.2c-0.7,0-1.4-0.2-2-0.4
		c-0.6-0.2-1-0.6-1.3-1.2c-0.3-0.5-0.4-1-0.4-1.6c0-0.5,0-1.1,0-1.8v-9.6h2.8v9.5c0,0.4,0,0.8,0,1.2c0,0.4,0.1,0.6,0.2,0.8
		c0.3,0.4,0.7,0.6,1.2,0.6s1.2,0,1.8-0.1L453.1,46.1L453.1,46.1z"/>
	<path class="st2" d="M436.9,46.1V34.8h2.5v2.7l-0.3-0.4c0.1-0.4,0.3-0.7,0.6-1.1c0.2-0.3,0.5-0.6,0.9-0.8c0.3-0.2,0.6-0.3,0.9-0.4
		s0.7-0.2,1-0.2s0.7,0,1,0v2.6c-0.3-0.1-0.7-0.1-1.1-0.1s-0.8,0.1-1.1,0.3c-0.3,0.2-0.6,0.4-0.8,0.6s-0.4,0.6-0.5,0.9
		s-0.2,0.7-0.2,1.2v5.8h-2.9V46.1z"/>
</g>
<circle class="st2" cx="375.8" cy="40.1" r="5"/>
</svg>
