<svg xmlns="http://www.w3.org/2000/svg" width="32" height="32"><linearGradient id="a" gradientUnits="userSpaceOnUse" x1="0" y1="16" x2="32" y2="16"><stop offset="0" stop-color="#b6509e"/><stop offset="1" stop-color="#2ebac6"/></linearGradient><path fill="url(#a)" d="M31.521 19.87c-2.137 8.572-10.82 13.788-19.393 11.651C3.558 29.384-1.659 20.702.48 12.131 2.615 3.56 11.298-1.659 19.87.48c8.573 2.137 13.79 10.82 11.652 19.392z"/><path fill="#FFF" d="M24.519 22.881L18.271 7.776c-.352-.781-.876-1.162-1.567-1.162h-.552c-.69 0-1.214.38-1.567 1.162l-2.72 6.58H9.81c-.615.006-1.115.5-1.12 1.12v.014a1.13 1.13 0 001.12 1.12h1.105l-2.597 6.27a1.31 1.31 0 00-.076.429c0 .352.11.628.305.843.195.214.476.319.828.319a1.11 1.11 0 00.643-.215c.2-.138.338-.338.448-.566l2.857-7.086h1.981a1.127 1.127 0 001.12-1.12v-.028a1.13 1.13 0 00-1.12-1.12h-1.057l2.181-5.433 5.943 14.782c.11.228.248.428.448.567.186.138.414.21.643.214.352 0 .628-.105.828-.32.2-.213.305-.49.305-.842a.999.999 0 00-.076-.424z"/></svg>