<svg xmlns="http://www.w3.org/2000/svg" width="32" height="32"><path fill="#F7931A" d="M31.521 19.87c-2.137 8.572-10.82 13.788-19.393 11.651C3.558 29.384-1.659 20.702.48 12.131 2.615 3.56 11.298-1.659 19.87.48c8.573 2.137 13.79 10.82 11.652 19.392z"/><path fill="#FFF" d="M23.056 13.72c.319-2.129-1.303-3.273-3.52-4.037l.72-2.884L18.5 6.36l-.7 2.809a72.76 72.76 0 00-1.407-.331l.705-2.827-1.755-.438-.72 2.883a58.046 58.046 0 01-1.12-.263l.001-.01-2.421-.604-.467 1.876s1.302.298 1.275.317c.711.177.84.648.818 1.02l-.819 3.287c.049.012.113.03.183.058l-.186-.046-1.148 4.603c-.087.216-.308.54-.805.417.018.026-1.276-.318-1.276-.318l-.872 2.01 2.285.57c.425.106.842.217 1.252.322l-.727 2.917 1.754.438.72-2.886c.48.13.944.25 1.4.363l-.718 2.872 1.756.438.727-2.912c2.994.567 5.245.338 6.193-2.37.764-2.18-.038-3.438-1.613-4.258 1.147-.264 2.011-1.019 2.242-2.577zm-4.012 5.625c-.542 2.18-4.214 1.002-5.404.707l.964-3.865c1.19.297 5.007.885 4.44 3.158zm.543-5.656c-.495 1.983-3.55.975-4.542.728l.875-3.505c.99.247 4.183.708 3.667 2.777z"/></svg>