<svg xmlns="http://www.w3.org/2000/svg" width="32" height="32"><linearGradient id="a" gradientUnits="userSpaceOnUse" x1="0" y1="16" x2="32" y2="16"><stop offset="0" stop-color="#301a36"/><stop offset="1" stop-color="#a72f36"/></linearGradient><circle fill="url(#a)" cx="16" cy="16" r="16"/><g fill="#FFF"><path d="M9.921 8.76c3.022-2.912 7.882-3.454 11.53-1.238.805.488 1.086 1.555.63 2.395-.496.914-1.456 1.197-2.448.644-1.407-.786-2.879-1.085-4.447-.696-3.342.83-5.233 4.337-4.087 7.535 1.164 3.244 4.733 4.747 7.91 3.327.332-.149.637-.364.978-.484.868-.308 1.809.128 2.19.98.34.762.028 1.783-.68 2.224-3.616 2.252-8.658 1.629-11.652-1.441-2.978-3.053-3.478-7.99-1.156-11.57.376-.58.82-1.118 1.232-1.675z"/><path d="M14.928 13.845c.87-.87 2.163-.87 3.273.003 1.69 1.329 3.26 1.3 4.945-.09.968-.796 2.335-.737 3.182.138.845.875.849 2.32.009 3.18-.84.86-2.25.917-3.188.13-1.69-1.42-3.188-1.43-5.035-.034-1.133.856-2.516.763-3.34-.224-.725-.868-.655-2.295.154-3.103z"/></g></svg>