<svg xmlns="http://www.w3.org/2000/svg" width="32" height="32"><circle fill="#F5AC37" cx="16" cy="16" r="16"/><path fill="#FEFEFD" d="M17.292 17.699h6.08c.13 0 .19 0 .2-.17.05-.619.05-1.24 0-1.86 0-.12-.06-.17-.19-.17h-12.1c-.15 0-.19.05-.19.19v1.78c0 .23 0 .23.24.23h5.96zm5.6-4.28a.195.195 0 000-.14 3.954 3.954 0 00-.36-.63 5.102 5.102 0 00-.74-.93 2.453 2.453 0 00-.46-.45 7.188 7.188 0 00-3.001-1.52 7.458 7.458 0 00-1.7-.18h-5.37c-.15 0-.17.06-.17.19v3.55c0 .15 0 .19.19.19h11.54s.1-.02.12-.08h-.049zm0 6.36a2.334 2.334 0 00-.51 0h-11.09c-.15 0-.2 0-.2.2v3.47c0 .16 0 .2.2.2h5.12c.245.02.49.002.73-.049a7.622 7.622 0 002.17-.48c.254-.088.498-.203.73-.34h.07a6.497 6.497 0 002.79-2.809s.07-.151-.01-.19v-.002zm-13.81 5.67v-5.53c0-.13 0-.15-.16-.15h-2.17c-.12 0-.17 0-.17-.16v-1.9h2.32c.13 0 .18 0 .18-.17v-1.88c0-.12 0-.149-.16-.149h-2.17c-.12 0-.17 0-.17-.16v-1.76c0-.11 0-.14.16-.14h2.15c.15 0 .19 0 .19-.19V7.87c0-.16 0-.2.2-.2h7.5c.544.022 1.085.082 1.62.18a9.775 9.775 0 013.13 1.16 8.82 8.82 0 011.76 1.36c.396.412.753.857 1.07 1.33.314.48.576.994.78 1.53a.26.26 0 00.3.21h1.79c.23 0 .23 0 .24.221v1.64c0 .16-.06.2-.221.2h-1.38c-.14 0-.18 0-.17.18.054.61.054 1.22 0 1.83 0 .17 0 .19.19.19h1.58c.07.09 0 .18 0 .27.01.117.01.234 0 .35v1.21c0 .17-.05.22-.2.22h-1.89a.25.25 0 00-.29.19 7.996 7.996 0 01-2.101 3.06c-.34.307-.697.595-1.07.86-.4.23-.79.47-1.2.66-.756.34-1.548.591-2.36.75-.772.138-1.555.201-2.34.19H9.08v-.01l.002-.002z"/></svg>