<svg xmlns="http://www.w3.org/2000/svg" width="32" height="32"><circle fill="#00DCFA" cx="16" cy="16" r="16"/><path fill="#FFF" d="M19.53 5.57c-3.642 0-6.735 2.8-7.124 6.405C8.8 12.365 6 15.457 6 19.098a7.177 7.177 0 007.172 7.173c3.642 0 6.747-2.8 7.124-6.405 3.606-.39 6.406-3.483 6.406-7.124A7.177 7.177 0 0019.53 5.57zm5.491 7.975a5.58 5.58 0 01-4.676 4.677v-4.677h4.676zm-17.34 4.75a5.58 5.58 0 014.676-4.689v4.677H7.681v.012zm10.984 1.619a5.547 5.547 0 01-5.493 4.738 5.546 5.546 0 01-5.491-4.737h10.984v-.001zm.061-6.369v4.738h-4.75v-4.738h4.75zm6.295-1.618H14.037a5.547 5.547 0 015.493-4.738 5.546 5.546 0 015.491 4.737z"/></svg>