<svg xmlns="http://www.w3.org/2000/svg" width="32" height="32"><circle fill="#D2F9ED" cx="60.473" cy="60.473" r="60.473" transform="scale(.26458)"/><path fill="#31CB9E" d="M15.085 16.191l8.886 5.09a.47.47 0 00.71-.405v-9.377a.466.466 0 00-.71-.401l-8.886 5.093zm8.698-7.347l-6.075-4.468a.483.483 0 00-.76.256l-2.219 9.953 9-4.977a.448.448 0 00.054-.764M17.7 28.003l6.083-4.468a.455.455 0 00-.05-.775l-9.004-4.976 2.218 9.952a.48.48 0 00.754.274"/><path fill="#31CB9E" d="M12.775 16.006l2.31-10.805a.459.459 0 00-.711-.466l-5.918 4.54a1.226 1.226 0 00-.48.977v11.516c-.006.388.172.756.48.992l5.89 4.525a.459.459 0 00.71-.466l-2.281-10.813z"/></svg>