<svg xmlns="http://www.w3.org/2000/svg" width="32" height="32"><path fill="#8247E5" d="M31.521 19.87c-2.137 8.572-10.82 13.788-19.393 11.651C3.558 29.384-1.659 20.702.48 12.131 2.615 3.56 11.298-1.659 19.87.48c8.573 2.137 13.79 10.82 11.652 19.392z"/><path fill="#FFF" d="M21.72 12.197c-.407-.232-.93-.232-1.394 0l-3.252 1.916-2.206 1.22-3.194 1.915c-.406.233-.929.233-1.393 0l-2.497-1.51a1.415 1.415 0 01-.697-1.219v-2.903c0-.464.233-.929.697-1.219l2.497-1.452c.406-.232.929-.232 1.393 0l2.497 1.51c.406.232.697.697.697 1.22v1.915l2.206-1.277V10.34c0-.465-.232-.929-.697-1.22l-4.645-2.728c-.406-.233-.929-.233-1.393 0L5.578 9.178c-.465.232-.697.696-.697 1.161v5.458c0 .464.232.929.697 1.22l4.703 2.728c.406.232.929.232 1.393 0l3.194-1.858 2.206-1.277 3.194-1.858c.406-.233.929-.233 1.393 0l2.497 1.451c.406.232.696.697.696 1.22v2.903c0 .464-.232.929-.696 1.219l-2.439 1.451c-.406.233-.929.233-1.393 0l-2.497-1.451a1.415 1.415 0 01-.697-1.22v-1.857l-2.206 1.277v1.916c0 .465.232.929.697 1.22l4.703 2.728c.406.233.929.233 1.393 0l4.703-2.729c.407-.232.697-.696.697-1.219v-5.516c0-.464-.232-.929-.697-1.22l-4.703-2.728z"/></svg>