<svg xmlns="http://www.w3.org/2000/svg" width="32" height="32"><g transform="scale(.26458)"><linearGradient id="a" gradientUnits="userSpaceOnUse" x1="4604.754" y1="-731.296" x2="4604.754" y2="-688.625" gradientTransform="translate(-853.271 145.115) scale(.19844)"><stop offset="0" stop-color="#090220"/><stop offset="1" stop-color="#170659"/></linearGradient><circle fill="url(#a)" cx="60.473" cy="60.473" r="60.473"/><path fill="#00D1FF" d="M40.554 45.438a2.547 2.547 0 00-2-.933H22.402a.538.538 0 01-.35-.134.417.417 0 01-.133-.3V33.187c0-.117.05-.217.133-.3.1-.1.217-.15.35-.133h17.069c4.3 0 8.017 1.766 11.151 5.283l4.15 5.068-8.084 9.85-6.134-7.517zm29.837-7.45c3.117-3.484 6.85-5.234 11.201-5.234h17.019a.427.427 0 01.316.1c.084.083.117.2.1.333V44.07a.465.465 0 01-.1.3.35.35 0 01-.316.134H82.459a2.544 2.544 0 00-2 .933L68.557 59.923 80.51 74.508c.483.55 1.2.883 1.933.867h16.152c.117-.017.25.05.317.133.066.1.116.234.1.35v10.885a.465.465 0 01-.1.3c-.084.1-.2.15-.317.133H81.592c-4.35 0-8.05-1.767-11.151-5.284L60.54 69.808l-9.901 12.084c-3.117 3.517-6.85 5.284-11.201 5.284H22.402a.374.374 0 01-.316-.133.457.457 0 01-.1-.35V75.808c0-.116.033-.216.1-.3.083-.1.2-.15.316-.133h16.152c.767 0 1.5-.35 2-.934L52.24 60.173l18.152-22.186z"/></g></svg>