<svg xmlns="http://www.w3.org/2000/svg" xmlns:xlink="http://www.w3.org/1999/xlink" width="32" height="32"><linearGradient id="a" gradientUnits="userSpaceOnUse" x1="0" y1="16" x2="32" y2="16"><stop offset="0" stop-color="#03b8ff"/><stop offset="1" stop-color="#fa52a0"/></linearGradient><path fill="url(#a)" d="M31.521 19.87c-2.137 8.572-10.82 13.788-19.393 11.651C3.558 29.384-1.659 20.702.48 12.131 2.615 3.56 11.298-1.659 19.87.48c8.573 2.137 13.79 10.82 11.652 19.392z"/><defs><path id="b" d="M6.181 5.447h19.638v19.638H6.181z"/></defs><clipPath id="c"><use xlink:href="#b" overflow="visible"/></clipPath><g clip-path="url(#c)"><linearGradient id="d" gradientUnits="userSpaceOnUse" x1="25.258" y1="-974.15" x2="28.276" y2="-963.786" gradientTransform="translate(-12 980)"><stop offset="0" stop-color="#03b8ff"/><stop offset="1" stop-color="#fa52a0"/></linearGradient><path fill="url(#d)" d="M10.272 7.329l15.22 10.392-3.764 5.564L6.508 12.81l3.764-5.482z"/><linearGradient id="e" gradientUnits="userSpaceOnUse" x1="27.731" y1="-974.87" x2="30.749" y2="-964.506" gradientTransform="translate(-12 980)"><stop offset="0" stop-color="#03b8ff"/><stop offset="1" stop-color="#fa52a0"/></linearGradient><path fill="url(#e)" d="M25.492 17.72c-1.31 1.883-5.728 1.146-9.901-1.8-4.255-2.863-6.546-6.71-5.319-8.591 1.31-1.882 5.728-1.146 9.901 1.8 4.255 2.782 6.546 6.71 5.319 8.592z"/><linearGradient id="f" gradientUnits="userSpaceOnUse" x1="22.814" y1="-973.438" x2="25.833" y2="-963.074" gradientTransform="translate(-12 980)"><stop offset="0" stop-color="#03b8ff"/><stop offset="1" stop-color="#fa52a0"/></linearGradient><path fill="url(#f)" d="M21.728 23.203c-1.31 1.882-5.728 1.146-9.901-1.8s-6.546-6.71-5.237-8.674c1.31-1.882 5.728-1.145 9.901 1.8s6.464 6.792 5.237 8.674z"/><path fill="#0E0F23" d="M25.492 17.72l-3.764 5.565c-1.31 1.882-5.728 1.064-9.901-1.8a24.652 24.652 0 01-2.291-1.8c.573-.082 1.309-.41 2.045-1.228 1.31-1.39 1.964-1.718 2.537-1.636.573 0 1.227.572 2.291 1.963 1.064 1.392 2.537 1.8 3.437 1.064.082-.082.163-.082.245-.163.737-.573.982-.819 2.373-3.437.328-.655 1.473-1.718 3.028-1.228.409 1.064.409 1.964 0 2.7z"/><path fill-rule="evenodd" clip-rule="evenodd" fill="#FFF" d="M24.92 17.393c-1.147 1.637-5.156.819-9.002-1.882-3.927-2.7-6.219-6.137-5.073-7.773s5.155-.818 9 1.882 6.138 6.137 5.074 7.773zm-3.601-2.454c-.573.818-2.537.409-4.5-.9-1.883-1.31-3.028-3.028-2.456-3.846.573-.819 2.537-.41 4.5.9 1.883 1.309 3.028 3.027 2.456 3.846z"/><path fill="#FFF" d="M9.945 9.21c0-.081-.082-.163-.164-.081s-.163.082-.163.164c.081.245.163.409.163.572 0 .082.082.164.164.082.082 0 .164-.082.082-.163 0-.164 0-.328-.082-.573zm.409 1.31c0-.082-.082-.164-.164-.082s-.081.082-.081.164c.9 2.046 2.782 4.255 5.236 5.891.082.082.164 0 .246 0 .082-.081 0-.163 0-.245-2.537-1.637-4.337-3.764-5.237-5.728zm9.901 8.019c-.082 0-.164 0-.164.082s0 .163.082.163c.246.082.573.164.818.246.082 0 .164 0 .164-.082s0-.164-.082-.164c-.245-.081-.573-.163-.818-.245zm1.473.327a.176.176 0 00-.164.164c0 .082.082.164.164.164.654.081 1.39.163 1.964.081.081 0 .163-.081.163-.163s-.082-.164-.163-.164c-.655.082-1.31 0-1.964-.082z"/></g></svg>