<svg xmlns="http://www.w3.org/2000/svg" width="32" height="32"><path fill="#FF007A" d="M31.521 19.87c-2.137 8.572-10.82 13.788-19.393 11.651C3.558 29.384-1.659 20.702.48 12.131 2.615 3.56 11.298-1.659 19.87.48c8.573 2.137 13.79 10.82 11.652 19.392z"/><g fill="#FFF"><path d="M12.829 7.373c-.24-.035-.251-.046-.137-.057.216-.035.718.01 1.072.09.821.195 1.563.697 2.35 1.575l.205.24.297-.046c1.266-.206 2.566-.046 3.65.456.296.137.764.41.82.48.024.022.058.17.08.318.08.537.046.936-.125 1.244-.091.17-.091.216-.034.365.046.114.183.194.308.194.274 0 .559-.434.696-1.038l.057-.24.102.114c.582.65 1.038 1.551 1.107 2.19l.023.171-.103-.148a1.926 1.926 0 00-.547-.582c-.388-.262-.799-.342-1.882-.399-.981-.057-1.54-.137-2.088-.32-.935-.307-1.414-.706-2.52-2.178-.491-.65-.8-1.004-1.107-1.3-.673-.65-1.346-.993-2.224-1.13z"/><path d="M21.326 8.821c.023-.433.08-.718.206-.98.045-.103.091-.195.102-.195s-.011.08-.045.171c-.091.251-.103.605-.046 1.004.08.513.114.582.662 1.14.25.263.547.594.661.73l.194.252-.194-.183c-.24-.228-.787-.661-.912-.718-.08-.046-.091-.046-.149.011-.045.046-.057.114-.057.445-.011.513-.08.833-.25 1.163-.092.171-.103.137-.023-.057.057-.148.068-.216.068-.707 0-.992-.114-1.232-.81-1.631a8.518 8.518 0 00-.638-.33 2.526 2.526 0 01-.308-.15c.022-.022.695.172.958.286.399.16.467.171.513.16.034-.034.057-.126.068-.41zm-8.03 1.699c-.479-.66-.787-1.687-.718-2.452l.023-.24.114.024c.205.034.558.17.73.273.456.274.661.65.855 1.586.057.274.137.593.171.696.057.17.274.57.456.82.126.183.046.275-.24.252-.433-.046-1.014-.445-1.39-.958zm7.449 4.962c-2.259-.912-3.057-1.7-3.057-3.034 0-.194.011-.353.011-.353.012 0 .091.068.194.148.456.365.97.525 2.395.73.833.126 1.312.217 1.746.365 1.38.456 2.235 1.392 2.44 2.658.058.365.023 1.06-.068 1.426-.08.285-.308.81-.365.82-.011 0-.034-.056-.034-.147-.023-.48-.262-.936-.662-1.29-.479-.41-1.095-.718-2.6-1.323zm-1.597.377a2.702 2.702 0 00-.114-.48l-.057-.17.102.125c.149.171.263.377.365.662.08.216.08.285.08.639 0 .342-.011.422-.08.615-.114.308-.25.525-.479.765-.41.422-.946.65-1.71.753-.138.01-.525.045-.868.068-.855.046-1.425.137-1.939.32-.068.022-.137.045-.148.034-.023-.023.33-.229.616-.365.4-.194.81-.297 1.711-.457.445-.068.901-.16 1.015-.205 1.13-.354 1.688-1.232 1.506-2.304z"/><path d="M20.186 17.695c-.297-.65-.365-1.266-.206-1.848.023-.057.046-.114.069-.114s.091.035.16.08c.136.092.422.251 1.152.65.924.502 1.448.89 1.813 1.335.32.388.514.833.605 1.38.057.308.023 1.05-.057 1.358-.251.97-.821 1.745-1.654 2.19a1.585 1.585 0 01-.24.114c-.011 0 .035-.114.103-.251.274-.582.308-1.141.103-1.768-.126-.388-.388-.856-.913-1.643-.627-.912-.776-1.152-.935-1.483zm-8.498 3.491c.844-.708 1.882-1.21 2.84-1.37.41-.068 1.095-.045 1.472.058.604.16 1.152.502 1.437.924.274.41.4.764.525 1.551.045.308.102.627.114.696.09.41.273.73.501.901.354.262.97.274 1.575.046.102-.035.193-.069.193-.057.023.022-.285.228-.49.33a1.615 1.615 0 01-.821.194c-.548 0-1.015-.285-1.392-.855-.08-.114-.24-.445-.376-.753-.4-.924-.605-1.198-1.072-1.506-.411-.262-.936-.319-1.335-.125-.525.25-.662.924-.297 1.334.149.172.422.308.65.343A.696.696 0 0016 22.2c0-.274-.103-.434-.377-.56-.365-.159-.764.024-.753.377 0 .149.069.24.217.308.091.046.091.046.023.035-.33-.069-.41-.48-.148-.742.319-.32.992-.182 1.22.262.091.183.103.548.023.776-.194.502-.741.764-1.3.616-.377-.103-.536-.205-.993-.673-.798-.821-1.106-.98-2.247-1.152l-.217-.034.24-.228z"/><path fill-rule="evenodd" clip-rule="evenodd" d="M5.688 2.833c2.658 3.228 6.753 8.247 6.958 8.52.171.228.103.445-.182.605-.16.091-.49.182-.65.182a.823.823 0 01-.548-.24c-.103-.102-.548-.752-1.551-2.315a147.962 147.962 0 00-1.426-2.201c-.046-.023-.046-.023 1.346 2.464.878 1.562 1.163 2.121 1.163 2.19 0 .148-.045.228-.228.433-.308.342-.445.73-.547 1.54-.114.901-.422 1.54-1.3 2.624-.514.638-.594.752-.72 1.015-.159.32-.205.502-.227.912-.023.434.022.707.148 1.118.114.365.24.605.547 1.072.263.41.422.719.422.833 0 .091.023.091.434 0 .98-.228 1.79-.616 2.236-1.095.273-.297.342-.456.342-.867 0-.262-.012-.32-.08-.48-.114-.25-.33-.455-.799-.775-.616-.422-.878-.764-.946-1.22-.057-.388.011-.65.353-1.369.354-.741.445-1.05.502-1.802.034-.48.091-.673.228-.821.149-.16.274-.217.628-.263.581-.08.958-.228 1.254-.513.263-.24.377-.48.388-.833l.012-.262-.149-.16C12.76 10.51 5.335 2.342 5.3 2.342c-.011 0 .172.217.388.49zm3.502 16.22a.47.47 0 00-.148-.628c-.194-.125-.49-.068-.49.103 0 .046.022.091.09.114.103.057.115.114.035.24-.08.125-.08.24.023.319.16.125.376.057.49-.148zm4.62-6c-.274.08-.537.376-.616.673-.046.182-.023.513.057.616.125.16.24.205.559.205.627 0 1.163-.274 1.22-.604.057-.274-.182-.65-.513-.822-.171-.09-.525-.125-.707-.068zm.73.57c.09-.137.057-.285-.114-.388-.308-.193-.776-.034-.776.263 0 .148.24.308.468.308.148 0 .353-.092.422-.183z"/></g></svg>