<svg xmlns="http://www.w3.org/2000/svg" width="32" height="32"><circle fill="#2775CA" cx="16" cy="16" r="16"/><g fill="#FFF"><path d="M20.368 18.225c0-2.225-1.335-2.988-4.005-3.306-1.908-.254-2.29-.763-2.29-1.653s.637-1.463 1.908-1.463c1.145 0 1.78.382 2.098 1.336a.48.48 0 00.446.318h1.017a.435.435 0 00.445-.445v-.064a3.177 3.177 0 00-2.861-2.607V8.815c0-.254-.191-.445-.509-.509h-.954c-.254 0-.445.191-.508.509v1.462c-1.908.255-3.116 1.526-3.116 3.116 0 2.098 1.272 2.925 3.942 3.243 1.78.318 2.353.7 2.353 1.717 0 1.017-.89 1.716-2.098 1.716-1.654 0-2.226-.7-2.417-1.653-.063-.254-.254-.381-.445-.381h-1.08a.435.435 0 00-.446.445v.063c.255 1.59 1.272 2.734 3.37 3.052v1.526c0 .255.19.445.509.51h.954c.254 0 .445-.192.508-.51v-1.526c1.908-.318 3.18-1.653 3.18-3.37z"/><path d="M12.93 24.902c-4.96-1.78-7.504-7.312-5.66-12.208.954-2.671 3.052-4.706 5.66-5.66.254-.126.38-.317.38-.635v-.89c0-.255-.126-.446-.38-.509-.064 0-.192 0-.255.063-6.04 1.908-9.347 8.33-7.44 14.37a11.439 11.439 0 007.44 7.44c.254.127.509 0 .572-.255.064-.063.064-.127.064-.254v-.89c0-.19-.191-.445-.382-.572zm6.74-19.839c-.255-.127-.51 0-.573.255-.064.064-.064.127-.064.254v.89c0 .255.191.509.382.636 4.96 1.78 7.503 7.312 5.659 12.208-.954 2.671-3.052 4.706-5.66 5.66-.254.126-.38.317-.38.635v.89c0 .255.126.446.38.509.064 0 .191 0 .255-.063 6.04-1.908 9.347-8.33 7.44-14.37a11.532 11.532 0 00-7.44-7.504z"/></g></svg>