<svg xmlns="http://www.w3.org/2000/svg" width="32" height="32"><circle fill="#50AF95" cx="16" cy="16" r="16"/><path fill-rule="evenodd" clip-rule="evenodd" fill="#FFF" d="M18.455 17.58c-.1.007-.61.038-1.747.038-.905 0-1.547-.027-1.773-.038-3.497-.154-6.107-.763-6.107-1.491 0-.73 2.61-1.337 6.107-1.494v2.379c.229.016.884.055 1.789.055 1.086 0 1.63-.045 1.727-.054v-2.378c3.49.156 6.095.764 6.095 1.492 0 .727-2.604 1.336-6.095 1.49l.004.001zm0-3.229v-2.128h4.87V8.977h-13.26v3.246h4.87v2.127c-3.96.182-6.935.966-6.935 1.906s2.976 1.722 6.934 1.905v6.82h3.52v-6.823c3.949-.181 6.92-.965 6.92-1.903 0-.939-2.969-1.722-6.92-1.905v.001zm0 0z"/></svg>