<svg xmlns="http://www.w3.org/2000/svg" width="32" height="32"><path fill="#5A5564" d="M26.093 6.652l-.879.878a12.439 12.439 0 010 16.788l.879.879c4.834-5.245 4.834-13.322 0-18.566v.02zm-18.478.076a12.439 12.439 0 0116.788 0l.878-.879c-5.244-4.835-13.321-4.835-18.565 0l.899.879zm-.823 17.599a12.439 12.439 0 010-16.78l-.879-.878c-4.835 5.244-4.835 13.321 0 18.566l.879-.908zm17.599.811a12.439 12.439 0 01-16.788 0l-.878.879c5.244 4.835 13.32 4.835 18.565 0l-.899-.879z"/><path fill="#F09242" d="M21.547 13.004c-.176-1.833-1.757-2.448-3.758-2.636V7.844h-1.546v2.477h-1.236V7.844h-1.535v2.542h-3.136v1.655s1.142-.021 1.124 0a.8.8 0 01.879.679v6.959a.542.542 0 01-.187.378.536.536 0 01-.399.134c.02.018-1.124 0-1.124 0l-.293 1.848h3.107v2.584h1.547v-2.546h1.236v2.534h1.549v-2.554c2.612-.158 4.434-.802 4.662-3.248.185-1.968-.74-2.847-2.22-3.201.9-.442 1.456-1.263 1.33-2.604zm-2.167 5.5c0 1.922-3.292 1.702-4.34 1.702v-3.41c1.048.004 4.34-.298 4.34 1.708zm-.718-4.803c0 1.757-2.747 1.544-3.62 1.544v-3.099c.873 0 3.62-.275 3.62 1.555z"/><path fill="#282138" d="M15.997 31.936C7.161 31.934-.002 24.769 0 15.933S7.166-.066 16.003-.064C24.837-.063 31.998 7.099 32 15.933c.002 8.836-7.16 16.001-15.997 16.003h-.006zm0-30.753C7.854 1.19 1.26 7.796 1.265 15.94c.007 8.142 6.613 14.738 14.756 14.732 8.135-.007 14.728-6.602 14.731-14.738.004-8.143-6.595-14.746-14.737-14.75h-.018z"/></svg>