<svg xmlns="http://www.w3.org/2000/svg" width="32" height="32"><circle fill="none" stroke="#050405" stroke-width=".5" stroke-miterlimit="10" cx="16.029" cy="16.183" r="15.817"/><path fill="#050405" d="M28.058 14.318c.51.437.998.866 1.5 1.28.154.126.136.181-.018.285-.475.32-.94.654-1.433 1 .463.338.895.664 1.34.973.173.121.228.183.017.337-.471.344-.92.719-1.41 1.106l1.132 1.003c.153.136.307.271.459.408.042.037.107.069.09.136-.02.077-.096.048-.148.05-1.353.084-2.687-.005-3.981-.445-.322-.109-.4-.062-.426.294a50.933 50.933 0 00-.112 1.836c-.007.2-.074.31-.251.403-.697.365-1.384.75-2.08 1.12-.158.085-.289.19-.406.323-.47.534-.951 1.058-1.414 1.598-.136.159-.274.215-.478.187-.907-.124-1.818-.222-2.722-.364-.494-.077-.943.1-1.412.156-.367.043-.729.127-1.091.2a.475.475 0 01-.47-.143c-.445-.436-.928-.835-1.36-1.284-.468-.49-1.032-.812-1.64-1.083a40.046 40.046 0 01-1.34-.64c-.151-.076-.32-.147-.323-.367-.001-.05-.05-.102-.084-.149-.674-.905-1.35-1.81-2.025-2.714-.067-.09-.104-.195-.265-.082-1.003.7-2.154.968-3.346 1.097-.64.07-1.283.094-1.926.022-.064-.007-.154.027-.185-.047-.038-.092.057-.134.112-.183.451-.402.9-.806 1.359-1.199.14-.12.172-.183-.001-.313-.476-.355-.934-.733-1.433-1.128l1.558-1.139-1.622-1.142c.506-.415.988-.821 1.482-1.213.173-.136.219-.213.01-.37-.442-.336-.85-.715-1.296-1.046-.197-.147-.207-.323-.17-.508.032-.169.22-.12.336-.132 1.553-.156 3.076-.077 4.507.633.128.063.16.008.22-.082.23-.35.325-.739.372-1.15.056-.493.152-.98.203-1.474.022-.218.125-.31.312-.388.68-.285 1.354-.589 2.033-.878.157-.067.284-.159.398-.284.486-.533.984-1.054 1.462-1.593a.437.437 0 01.46-.156c.659.127 1.321.24 1.978.378.44.092.85-.062 1.27-.12.49-.068.978-.168 1.466-.26a.488.488 0 01.448.13c.734.64 1.441 1.32 2.229 1.889.957.69 1.765 1.54 2.668 2.286.082.067.174.125.267.176.654.364 1.31.725 1.965 1.087.06.032.162.055.172.1.083.357.29.15.445.096 1.314-.466 2.665-.533 4.036-.376.083.01.248-.044.246.126-.002.154.057.315-.116.449-.455.35-.892.724-1.335 1.09-.075.06-.147.124-.233.198zM20.34 25.537c.094.034.161-.029.229-.108.126-.148.27-.283.386-.438a6.479 6.479 0 012.61-2.082c.296-.13.687-.226.824-.501.136-.274.08-.648.087-.978.011-.589.108-1.146.391-1.679.296-.555.524-1.146.794-1.716.072-.153.084-.27 0-.428-.238-.445-.444-.907-.678-1.354-.11-.211-.17-.43-.202-.662-.097-.732-.205-1.463-.288-2.197-.02-.182-.093-.275-.247-.348a12.38 12.38 0 01-3.551-2.514c-.02-.02-.048-.036-.065-.06-.37-.507-.847-.546-1.433-.419-.583.126-1.176.292-1.787.211-.647-.085-1.295-.165-1.938-.272-.337-.057-.608-.032-.857.243-.24.266-.55.468-.797.729a5.264 5.264 0 01-2.325 1.435c-.305.093-.594.241-.897.345-.168.057-.215.15-.213.32.004.642-.011 1.285-.01 1.927.002.19-.035.36-.12.53-.332.67-.65 1.346-.985 2.014a.39.39 0 00.008.405c.385.708.758 1.422 1.136 2.134.069.13.121.26.134.411.03.378.127.76.097 1.132-.055.697.276 1.043.895 1.264a6.684 6.684 0 012.868 1.985c.508.596 1.047.732 1.783.51a4.356 4.356 0 012.134-.107c.657.132 1.33.18 2.017.268zm-16.471-5.37c1.14-.019 2.223-.217 3.207-.787.683-.395 1.18-.948 1.397-1.72.06-.216.131-.436.078-.69-.586.298-1.151.578-1.708.874-.21.112-.382.099-.495-.11-.121-.228.013-.358.214-.455.288-.14.571-.292.858-.436.129-.065.233-.15.234-.306 0-.166-.103-.264-.252-.32-.036-.015-.07-.035-.104-.052-.193-.098-.332-.236-.221-.462.105-.216.292-.224.499-.139.299.123.601.239.932.37-.178-.923-.636-1.613-1.396-2.101-.73-.47-1.546-.67-2.396-.76-.419-.043-.839-.087-1.304-.03.48.395.92.766 1.37 1.121.145.115.157.17.003.291-.497.39-.98.798-1.487 1.214l1.667 1.171-1.602 1.171c.475.376.928.743 1.392 1.097.142.108.135.165.004.274-.304.254-.594.523-.89.786zm24.73-7.146c-1.163 0-2.212.107-3.208.536-.156.067-.213.139-.18.326.085.478.14.962.198 1.444.014.118.027.177.175.198.302.042.385.291.203.534-.037.05-.138.076-.084.16.241.372.263.887.737 1.107.219.102.23.281.109.461-.381.569-.584 1.223-.895 1.824-.056.108-.047.17.086.204.207.053.406.134.613.185.57.141 1.146.235 1.8.26-.336-.299-.61-.561-.904-.796-.182-.145-.194-.225.003-.37.45-.332.88-.688 1.34-1.05-.489-.356-.939-.695-1.402-1.015-.191-.133-.16-.2.012-.314.429-.286.84-.599 1.273-.879.191-.124.146-.187.005-.304-.42-.348-.825-.715-1.25-1.057-.162-.132-.172-.2-.002-.333.443-.345.87-.709 1.371-1.121zM19.266 9.39c-.505-.433-.99-.796-1.408-1.223-.371-.38-.745-.447-1.249-.332-.992.227-1.996.428-3.015.099-.267-.087-.554-.106-.83-.167-.168-.038-.289 0-.408.134-.388.436-.782.868-1.187 1.288-.132.136-.12.22-.003.354.417.475.83.955 1.229 1.446.134.166.212.19.38.033.585-.542 1.19-1.063 1.78-1.6A.498.498 0 0115 9.276c.635.094 1.28.143 1.907.272.789.163 1.535-.02 2.36-.16zM9.212 16.114c.477-.792.51-.904.514-1.735.003-.33-.021-.664.013-.991.047-.457-.082-.821-.395-1.16-.311-.34-.572-.725-.88-1.122-.025.106-.039.153-.046.2-.111.716-.127 1.459-.58 2.08-.086.117.008.173.08.237.235.206.445.435.623.693.367.53.564 1.125.67 1.798zm1.026-3.921c.547-.215 1.1-.43 1.65-.653.111-.044.027-.112-.012-.158-.434-.513-.872-1.023-1.305-1.537-.08-.097-.153-.123-.275-.067-.451.205-.906.404-1.364.596-.132.055-.132.104-.051.208.392.497.778.998 1.167 1.498.047.06.086.135.19.113zm-.326 9.142l.055-.018c-.03-.278.01-.588-.1-.83-.304-.667-.67-1.307-1.015-1.966-.15.205-.276.387-.413.56-.067.086-.097.152-.02.254.501.664.996 1.333 1.493 2z"/><path fill="#D63977" d="M19.266 9.39c-.824.139-1.57.322-2.36.16-.627-.13-1.27-.18-1.906-.273a.498.498 0 00-.445.144c-.59.538-1.195 1.059-1.78 1.601-.168.156-.246.133-.38-.033-.399-.491-.812-.97-1.23-1.446-.116-.134-.128-.218.004-.354.405-.42.8-.852 1.187-1.288.119-.135.24-.172.409-.134.275.06.562.08.829.167 1.02.33 2.023.128 3.015-.1.504-.114.878-.047 1.249.333.418.427.903.79 1.408 1.223zM9.212 16.114c-.107-.673-.304-1.268-.67-1.798a3.824 3.824 0 00-.624-.693c-.072-.064-.166-.12-.08-.238.453-.62.469-1.363.58-2.078.007-.048.021-.095.046-.2.308.396.569.782.88 1.12.313.34.442.704.395 1.16-.034.328-.01.662-.013.992-.005.831-.037.943-.514 1.735zm1.026-3.921c-.104.022-.143-.053-.19-.113-.39-.5-.775-1.001-1.167-1.498-.081-.104-.08-.153.051-.208.458-.192.913-.39 1.364-.596.122-.056.194-.03.275.067.433.514.87 1.024 1.305 1.537.04.046.123.114.013.158-.55.223-1.104.438-1.65.653zm-.326 9.142c-.497-.667-.992-1.336-1.493-2-.077-.102-.047-.168.02-.253.137-.174.263-.356.413-.561.346.66.711 1.299 1.014 1.966.11.242.072.552.1.83l-.054.018z"/><path fill="#050405" d="M13.36 17.747c-.08.557-.182 1.088-.223 1.624-.024.31-.145.396-.426.36-.12-.016-.242-.003-.363-.003-.734 0-.733 0-.811-.718-.121-1.118-.24-2.237-.368-3.355-.029-.25-.02-.383.309-.373.81.025.808.006.854.815.017.302.045.603.07.905.026.287.054.575.124.864.082-.725.177-1.448.24-2.175.027-.306.12-.452.455-.405.26.037.59-.067.775.058.182.123.063.474.097.723.038.276.05.554.074.832l.07.835c.186-.36.138-.73.192-1.078.06-.382.109-.766.139-1.152.013-.177.078-.21.243-.217.944-.038.934-.043.815.895-.138 1.08-.269 2.16-.376 3.244-.025.259-.11.323-.35.306a6.072 6.072 0 00-.836 0c-.236.016-.34-.046-.366-.305-.05-.492-.144-.98-.221-1.47-.01-.069-.013-.143-.117-.21zm10.099-.237c0 .653-.008 1.305.004 1.958.004.2-.046.262-.256.265-.917.014-.917.021-.917-.906 0-.241-.008-.483.003-.725.007-.155-.042-.209-.203-.21-.17-.001-.16.096-.16.209.001.459-.018.92.008 1.377.014.268-.14.303-.303.24-.277-.104-.797.296-.823-.212-.07-1.326-.021-2.658-.027-3.988 0-.168.044-.222.221-.231.965-.05.964-.055.964.9 0 .17.006.34-.001.509-.005.128.02.2.174.199.148 0 .185-.055.182-.192-.007-.4-.066-.811.014-1.194.1-.48.531-.117.8-.208.132-.045.335-.083.326.214-.02.665-.006 1.33-.006 1.995zm-7.533-.053c0-.641.007-1.283-.003-1.924-.004-.188.05-.25.243-.246.497.013.994.01 1.49.002.152-.003.232.031.208.198-.009.06-.001.121-.001.182 0 .49 0 .505-.482.495-.233-.005-.28.072-.278.287.005.526-.006.536.51.557.184.007.233.074.219.238-.01.108-.015.22 0 .326.033.228-.059.317-.28.276-.364-.068-.513.073-.445.44a.666.666 0 010 .218c-.036.236.056.314.296.302.17-.009.436-.105.501.06.084.209.034.474.03.716-.001.125-.11.105-.191.105-.533.001-1.067-.008-1.6.005-.225.005-.219-.12-.218-.277.003-.653.001-1.307.001-1.96zm2.781.477c0-.496-.012-.992.005-1.488.008-.227-.065-.296-.287-.282-.133.008-.357.085-.392-.066-.054-.24-.017-.503 0-.754.004-.061.099-.052.158-.052.727 0 1.454.003 2.18-.003.14 0 .2.04.186.184-.01.096-.014.195 0 .29.048.313-.05.475-.395.408-.222-.044-.287.045-.284.272.013.992-.004 1.984.012 2.975.004.26-.074.318-.323.316-.86-.008-.86.002-.86-.857v-.943zM14.9 11.64c.164.01.305.066.34.252.036.198-.067.318-.252.363-.332.08-.66.17-.972.308a5.01 5.01 0 00-1.704 1.203c-.14.152-.29.207-.457.069-.179-.149-.153-.33-.01-.487a5.404 5.404 0 012.993-1.696l.062-.012z"/></svg>