<?xml version="1.0" encoding="utf-8"?>
<!-- Generator: Adobe Illustrator 25.2.3, SVG Export Plug-In . SVG Version: 6.00 Build 0)  -->
<svg version="1.1" id="Слой_1" xmlns="http://www.w3.org/2000/svg" xmlns:xlink="http://www.w3.org/1999/xlink" x="0px" y="0px"
	 width="32px" height="32px" viewBox="0 0 32 32" enable-background="new 0 0 32 32" xml:space="preserve">
<g id="Layer_x0020_1">
	<g id="_1421344023328">
		<linearGradient id="SVGID_1_" gradientUnits="userSpaceOnUse" x1="0" y1="16" x2="32" y2="16">
			<stop  offset="0" style="stop-color:#B6509E"/>
			<stop  offset="1" style="stop-color:#2EBAC6"/>
		</linearGradient>
		<path fill="url(#SVGID_1_)" d="M31.5212708,19.8704777c-2.1371574,8.571516-10.8196888,13.7879696-19.3931904,11.650507
			C3.5581782,29.3840694-1.6588647,20.7019691,0.4792306,12.1311579C2.615449,3.5587044,11.2979813-1.6581408,19.8688221,0.4787747
			c8.5728741,2.1369154,13.7896023,10.819953,11.6522121,19.3918591l0.0001564-0.0001564H31.5212708z"/>
	</g>
</g>
<g>
	<g>
		<defs>
			<rect id="SVGID_4_" x="-17.1276588" y="63.6595726" width="48.0531921" height="48.0531921"/>
		</defs>
		<clipPath id="SVGID_2_">
			<use xlink:href="#SVGID_4_"  overflow="visible"/>
		</clipPath>
	</g>
</g>
<path fill="#FFFFFF" d="M24.5189571,22.8810997L18.2710209,7.7755709c-0.3523998-0.780992-0.876236-1.1619635-1.5667477-1.1619635
	H16.151865c-0.6905117,0-1.2143478,0.3809714-1.5667467,1.1619635l-2.7191858,6.5812864H9.8086843
	C9.1943674,14.3616199,8.6943417,14.856883,8.68958,15.4759617v0.014286
	c0.0047617,0.6143169,0.5047874,1.1143417,1.1191044,1.1191044h1.1048183l-2.5953703,6.2717476
	c-0.0476208,0.1381035-0.0761948,0.2809696-0.0761948,0.4285946c0,0.3523998,0.1095295,0.628603,0.3047771,0.8428993
	c0.1952477,0.2142982,0.4762154,0.3190651,0.8286133,0.3190651c0.233345-0.0047607,0.4571667-0.0761929,0.64289-0.2142963
	c0.2000113-0.1381035,0.3381128-0.3381119,0.4476414-0.5666962l2.8572884-7.0860748h1.9810543
	c0.614316-0.0047626,1.1143408-0.5000248,1.1191034-1.1191044v-0.028573
	c-0.0047626-0.6143169-0.5047874-1.1143427-1.1191034-1.1191053h-1.0571976l2.1810617-5.43361l5.9431591,14.7817068
	c0.1095295,0.2285824,0.247633,0.4285927,0.4476433,0.5666962c0.1857262,0.1381035,0.4143085,0.2095356,0.6428909,0.2142963
	c0.3523998,0,0.628603-0.1047688,0.8286152-0.3190651c0.2000103-0.2142963,0.3047771-0.4904995,0.3047771-0.8428993
	C24.5999126,23.1620693,24.5761032,23.0144424,24.5189571,22.8810997z"/>
</svg>
