<?xml version="1.0" encoding="utf-8"?>
<!-- Generator: Adobe Illustrator 25.2.3, SVG Export Plug-In . SVG Version: 6.00 Build 0)  -->
<svg version="1.1" id="Слой_1" xmlns="http://www.w3.org/2000/svg" xmlns:xlink="http://www.w3.org/1999/xlink" x="0px" y="0px"
	 width="32px" height="32px" viewBox="0 0 32 32" enable-background="new 0 0 32 32" xml:space="preserve">
<g id="Layer_x0020_1">
	<g id="_1421344023328">
		<path fill="#F7931A" d="M31.5212708,19.8704777c-2.1371574,8.571516-10.8196888,13.7879696-19.3931904,11.650507
			C3.5581782,29.3840694-1.6588647,20.7019691,0.4792306,12.1311579C2.615449,3.5587044,11.2979813-1.6581408,19.8688221,0.4787747
			c8.5728741,2.1369154,13.7896023,10.819953,11.6522121,19.3918591l0.0001564-0.0001564H31.5212708z"/>
		<path fill="#FFFFFF" d="M23.056097,13.7203941c0.3184929-2.1292515-1.3027554-3.2738047-3.5196915-4.0373344l0.7191906-2.8842573
			l-1.7559357-0.4374876l-0.7001057,2.8083181c-0.461628-0.1151199-0.9356899-0.2235918-1.4068604-0.3311262l0.7051888-2.8268533
			l-1.7548399-0.4374871l-0.7195816,2.8833189c-0.3820038-0.0869656-0.7572031-0.1729145-1.1212177-0.2634773l0.0020342-0.0090723
			l-2.4214697-0.6046152l-0.4671021,1.8752365c0,0,1.3027544,0.2985926,1.2753019,0.3169708
			c0.7110567,0.1774502,0.8396416,0.648098,0.8182898,1.0211439L11.89007,14.0795193
			c0.0489626,0.012435,0.1124735,0.0304232,0.1825542,0.0585766c-0.0585833-0.0145464-0.1209202-0.0304222-0.185605-0.045907
			L10.73874,18.6951923c-0.0868969,0.2160072-0.3074646,0.5401726-0.8046017,0.4170761
			c0.0175991,0.0254955-1.2762403-0.3184566-1.2762403-0.3184566l-0.871789,2.0097504l2.2850618,0.5695801
			c0.4251003,0.1065941,0.8416758,0.2181168,1.2519159,0.3229923l-0.7266207,2.9173393l1.7539015,0.4374866l0.7195816-2.8863697
			c0.479147,0.1300564,0.9441366,0.2500267,1.3993511,0.3631134l-0.7171564,2.8727608l1.7560139,0.4374866l0.7265415-2.9118633
			c2.9942417,0.5666046,5.2456703,0.3381634,6.1933289-2.3698158c0.7636147-2.1802425-0.0380135-3.4378033-1.6132698-4.2578754
			c1.1473408-0.2645741,2.0115414-1.0191107,2.2419662-2.5777664l-0.0005493-0.000392L23.056097,13.7203941z M19.0441971,19.3454781
			c-0.5426579,2.1802425-4.213932,1.0016708-5.404213,0.7061272l0.9642391-3.8649673
			c1.1902046,0.2971077,5.0071144,0.8850632,4.440052,3.1588402H19.0441971z M19.5872459,13.6887989
			c-0.4950256,1.983161-3.5506649,0.9756269-4.5418882,0.7285728l0.8742132-3.5052958
			c0.9912243,0.2470541,4.1833496,0.7081614,3.6678314,2.7767229H19.5872459z"/>
	</g>
</g>
</svg>
