<?xml version="1.0" encoding="utf-8"?>
<!-- Generator: Adobe Illustrator 25.2.3, SVG Export Plug-In . SVG Version: 6.00 Build 0)  -->
<svg version="1.1" id="Слой_1" xmlns="http://www.w3.org/2000/svg" xmlns:xlink="http://www.w3.org/1999/xlink" x="0px" y="0px"
	 width="32px" height="32px" viewBox="0 0 32 32" enable-background="new 0 0 32 32" xml:space="preserve">
<linearGradient id="SVGID_1_" gradientUnits="userSpaceOnUse" x1="9.094947e-13" y1="16" x2="32" y2="16">
	<stop  offset="0" style="stop-color:#301A36"/>
	<stop  offset="1" style="stop-color:#A72F36"/>
</linearGradient>
<circle fill="url(#SVGID_1_)" cx="16" cy="16" r="16"/>
<g>
	<path fill="#FFFFFF" d="M9.9214001,8.7607851c3.0219488-2.9130187,7.8815098-3.454524,11.5303841-1.239172
		c0.8047123,0.4885683,1.0850334,1.5555458,0.6293888,2.3956394c-0.4956818,0.9139128-1.4566097,1.197031-2.4483662,0.6433296
		c-1.4065857-0.7853012-2.8786011-1.0847025-4.446558-0.6952801c-3.3426676,0.8301945-5.233552,4.336998-4.0868158,7.5350256
		c1.1632385,3.2440491,4.7322111,4.7470646,7.9093828,3.3265381c0.3319817-0.1484299,0.6374378-0.3637352,0.9778442-0.4841938
		c0.8686543-0.3073864,1.8090706,0.1285877,2.1905746,0.9812222c0.3403664,0.7606907,0.0276947,1.7818279-0.680727,2.223156
		c-3.6153297,2.2522526-8.6571856,1.6285667-11.6517897-1.4413395c-2.9776921-3.0525723-3.4776483-7.9890518-1.156002-11.5699081
		C9.0651951,9.8551292,9.5088148,9.3180275,9.9214001,8.7607851z"/>
	<path fill="#FFFFFF" d="M14.9276066,13.8451653c0.8708897-0.8704023,2.1638775-0.8692875,3.2732048,0.0028238
		c1.6898899,1.3285284,3.2593021,1.300211,4.945364-0.0892334c0.9673634-0.7971811,2.3350563-0.7381344,3.1813278,0.1373472
		c0.8452549,0.8744287,0.849535,2.3208084,0.0094128,3.1804752c-0.8399658,0.8595047-2.2504501,0.9166756-3.187603,0.1292038
		c-1.6895065-1.4196615-3.1883602-1.4298611-5.0350704-0.0342617c-1.1329212,0.8561726-2.5165749,0.7637653-3.3402853-0.2230835
		C14.0488195,16.0796871,14.1194658,14.6528549,14.9276066,13.8451653z"/>
</g>
</svg>
