<?xml version="1.0" encoding="utf-8"?>
<!-- Generator: Adobe Illustrator 25.2.3, SVG Export Plug-In . SVG Version: 6.00 Build 0)  -->
<svg version="1.1" id="Слой_1" xmlns="http://www.w3.org/2000/svg" xmlns:xlink="http://www.w3.org/1999/xlink" x="0px" y="0px"
	 width="32px" height="32px" viewBox="0 0 32 32" enable-background="new 0 0 32 32" xml:space="preserve">
<path fill="#070A0E" d="M16,32c8.8368015,0,16-7.1631985,16-16S24.8368015,0,16,0S0,7.1632004,0,16S7.1632004,32,16,32z"/>
<path fill-rule="evenodd" clip-rule="evenodd" fill="#00D395" d="M9.2432003,21.3648014
	C8.7648001,21.0720005,8.4720001,20.552,8.4720001,19.9920006v-3.1264019c0-0.3711987,0.3024006-0.671999,0.6735992-0.6703987
	c0.1184006,0,0.2352009,0.0319996,0.3375998,0.0911999l7.0544004,4.1135998
	c0.4128017,0.2399998,0.6672001,0.6816006,0.6672001,1.1599998v3.2384014
	c0.0015984,0.4447994-0.3584003,0.8064003-0.8031998,0.8064003c-0.1487999,0-0.2959995-0.0415993-0.4224005-0.1184006
	L9.2432003,21.3648014z M19.7584,15.4304008c0.4128017,0.2399998,0.6655998,0.6831989,0.6672001,1.1599998v6.5727978
	c0,0.1935997-0.1040001,0.3728008-0.2735996,0.4671993l-1.5440006,0.8688011
	c-0.0191994,0.0112-0.039999,0.0191994-0.0624008,0.0256004v-3.649601c0-0.4719982-0.2479992-0.9104004-0.6543999-1.1535988
	l-6.195199-3.7055988v-4.1200008c0-0.3712006,0.3024006-0.6719999,0.6735992-0.6704006
	c0.1184006,0,0.2352009,0.0320005,0.3375998,0.0912008L19.7584,15.4304008z M22.8464012,10.5760002
	c0.4144001,0.2399998,0.6688004,0.6831999,0.6688004,1.1615992v9.5999994
	c-0.0016003,0.1968021-0.1104012,0.3775997-0.2831993,0.4720001l-1.4640007,0.7904015v-6.6832008
	c0-0.4720001-0.2479992-0.9087992-0.6511993-1.1519995l-6.3328018-3.7983999V7.0592003
	c0-0.1184001,0.0319996-0.2352004,0.0895996-0.3376002c0.1871996-0.3200002,0.5984001-0.4287996,0.9183998-0.2432003
	L22.8464012,10.5760002z"/>
</svg>
