<?xml version="1.0" encoding="utf-8"?>
<!-- Generator: Adobe Illustrator 25.2.3, SVG Export Plug-In . SVG Version: 6.00 Build 0)  -->
<svg version="1.1" id="Слой_1" xmlns="http://www.w3.org/2000/svg" xmlns:xlink="http://www.w3.org/1999/xlink" x="0px" y="0px"
	 width="32px" height="32px" viewBox="0 0 32 32" enable-background="new 0 0 32 32" xml:space="preserve">
<circle fill="#F5AC37" cx="16" cy="16" r="16"/>
<g id="Layer_x0020_1">
	<path fill="#FEFEFD" d="M17.2918129,17.6988411h6.0797424c0.1296005,0,0.1908016,0,0.200161-0.1699219
		c0.0496807-0.6184864,0.0496807-1.240572,0-1.8597794c0-0.1202412-0.0597591-0.1699219-0.1900826-0.1699219h-12.099721
		c-0.1497622,0-0.1900826,0.0496807-0.1900826,0.1900816v1.7798586c0,0.2296829,0,0.2296829,0.2397633,0.2296829
		C11.3315935,17.6988411,17.2918129,17.6988411,17.2918129,17.6988411z M22.8927498,13.4191179
		c0.0172806-0.0453615,0.0172806-0.0950422,0-0.1396818c-0.1015205-0.2210426-0.2217598-0.4320049-0.3614426-0.6300068
		c-0.2102432-0.3384027-0.4579239-0.6501665-0.7401676-0.9302492c-0.1332016-0.1692019-0.287281-0.3211231-0.4600849-0.4500046
		c-0.865448-0.7365665-1.8943386-1.2578526-3.0002708-1.5199347c-0.5580044-0.1252813-1.1282501-0.1850424-1.6999359-0.1800022
		H11.261034c-0.1497622,0-0.1699219,0.059761-0.1699219,0.1900826v3.5496349c0,0.1497622,0,0.1900826,0.1900816,0.1900826
		h11.5395555c0,0,0.1000824-0.0201607,0.1202431-0.0799208h-0.0489597H22.8927498z M22.8927498,19.7789402
		c-0.16992-0.0187206-0.3412819-0.0187206-0.5112057,0h-11.08955c-0.1497622,0-0.2001619,0-0.2001619,0.200161v3.4704361
		c0,0.1598415,0,0.2001629,0.2001619,0.2001629h5.1199703c0.2448025,0.0187206,0.4896049,0.0014381,0.7293682-0.0496807
		c0.7430477-0.0532799,1.4738541-0.2145634,2.1708202-0.4802456c0.2534428-0.087841,0.4982471-0.202322,0.7293682-0.3398438
		h0.0698414c1.2002525-0.6242485,2.1751404-1.6048965,2.7900276-2.8087502c0,0,0.0698414-0.1512012-0.0086403-0.1908016V19.7789402z
		 M9.0822926,25.4489975v-0.059761v-2.3299446v-0.7898464V19.919342c0-0.1303215,0-0.1497593-0.1598415-0.1497593H6.7523494
		c-0.1202412,0-0.1699219,0-0.1699219-0.1598434v-1.9000988h2.3198628c0.1296015,0,0.1800022,0,0.1800022-0.1699219v-1.8799381
		c0-0.1202412,0-0.1497612-0.1598415-0.1497612H6.7523494c-0.1202412,0-0.1699219,0-0.1699219-0.1598425v-1.759697
		c0-0.1101618,0-0.1396818,0.1598415-0.1396818H8.892211c0.1497612,0,0.1900816,0,0.1900816-0.1900816V7.8707423
		c0-0.159842,0-0.2001619,0.2001619-0.2001619h7.4995947c0.5443249,0.0216002,1.0850525,0.0813603,1.6200161,0.1800017
		c1.1023312,0.2037621,2.1614609,0.5976057,3.1298714,1.1599312c0.6422482,0.3780041,1.2333736,0.8344889,1.7596989,1.3600941
		c0.3960037,0.4111242,0.7531261,0.8560886,1.0699291,1.3298531c0.314642,0.4802446,0.5760059,0.9936104,0.781208,1.5300159
		c0.0251999,0.1396809,0.1591206,0.2340021,0.2988033,0.2102413h1.789938c0.2296829,0,0.2296829,0,0.2397614,0.2203226v1.6401758
		c0,0.1598415-0.0597591,0.2001619-0.2203217,0.2001619h-1.3802547c-0.1396809,0-0.1800022,0-0.16992,0.1800022
		c0.0547199,0.6091261,0.0547199,1.2204123,0,1.8295374c0,0.1699219,0,0.1900826,0.1908016,0.1900826h1.5789738
		c0.0698414,0.0900002,0,0.1800022,0,0.2707233c0.0100822,0.115921,0.0100822,0.2332821,0,0.3492031v1.2103329
		c0,0.16992-0.0496807,0.2203217-0.200161,0.2203217h-1.8900185c-0.1317616-0.0251999-0.259922,0.059042-0.290163,0.1900826
		c-0.4500046,1.1700134-1.1700115,2.2190628-2.1002617,3.0600319c-0.3398438,0.3060017-0.6969662,0.5940056-1.069931,0.8596878
		c-0.4003239,0.2304039-0.7898464,0.4701653-1.2002525,0.6602478c-0.7552872,0.3398438-1.5472946,0.5904064-2.3601837,0.7495289
		c-0.7718468,0.1382408-1.5544949,0.200882-2.340023,0.1900826H9.0794106v-0.0100822L9.0822926,25.4489975z"/>
</g>
</svg>
