<?xml version="1.0" encoding="utf-8"?>
<!-- Generator: Adobe Illustrator 25.2.3, SVG Export Plug-In . SVG Version: 6.00 Build 0)  -->
<svg version="1.1" id="Слой_1" xmlns="http://www.w3.org/2000/svg" xmlns:xlink="http://www.w3.org/1999/xlink" x="0px" y="0px"
	 width="32px" height="32px" viewBox="0 0 32 32" enable-background="new 0 0 32 32" xml:space="preserve">
<circle fill="#00DCFA" cx="16" cy="16" r="16"/>
<path fill="#FFFFFF" d="M19.5297813,5.569149c-3.6416922,0-6.7347775,2.8004332-7.1234131,6.405427
	C8.7994919,12.364152,6,15.4572382,6,19.09799c0.0020766,3.9604683,3.2118769,7.1706905,7.1723461,7.1732864
	c3.6416931,0,6.7470112-2.8004322,7.1234131-6.405426c3.6059361-0.389576,6.4063683-3.4826622,6.4063683-7.1234131
	C26.7000523,8.7819672,23.4902496,5.5717449,19.5297813,5.569149z M25.021492,13.5451136
	c-0.367548,2.4143858-2.262413,4.3092508-4.6767979,4.6767988v-4.6767988H25.021492z M7.6806359,18.295311
	c0.3626571-2.4191399,2.2586141-4.320055,4.6767993-4.6890316v4.6767979H7.6806359V18.295311z M18.6649971,19.9138412
	c-0.4016094,2.7234383-2.7397623,4.7403316-5.492651,4.7379646c-2.7523737,0.0023708-5.0901089-2.0141068-5.4917102-4.7370243
	h10.9843616V19.9138412z M18.726162,13.5451136v4.7379637h-4.7501965v-4.7379637H18.726162z M25.021492,11.9265833H14.0371313
	c0.4016085-2.7234383,2.7397604-4.7403302,5.49265-4.7379637c2.7523746-0.0023718,5.0901089,2.0141048,5.4917107,4.7370224
	V11.9265833z"/>
</svg>
