<?xml version="1.0" encoding="utf-8"?>
<!-- Generator: Adobe Illustrator 25.2.3, SVG Export Plug-In . SVG Version: 6.00 Build 0)  -->
<svg version="1.1" id="Слой_1" xmlns="http://www.w3.org/2000/svg" xmlns:xlink="http://www.w3.org/1999/xlink" x="0px" y="0px"
	 width="32px" height="32px" viewBox="0 0 32 32" enable-background="new 0 0 32 32" xml:space="preserve">
<g transform="translate(257.63 -97.669)">
	<g transform="matrix(.26458 0 0 .26458 -257.63 97.669)">
		<circle fill="#D2F9ED" cx="60.4732018" cy="60.4732018" r="60.4732018"/>
	</g>
</g>
<path fill="#31CB9E" d="M15.0848808,16.1912136l8.8860588,5.0899353c0.2220917,0.1334915,0.5103493,0.0616703,0.6438427-0.1604214
	c0.0444107-0.073885,0.067606-0.1585789,0.0670433-0.2447834v-9.3765697
	c0.0032406-0.2571402-0.2025852-0.4682198-0.4597244-0.4714613c-0.0886593-0.0011177-0.1757965,0.0231018-0.2511616,0.0698109
	L15.0848808,16.1912136z"/>
<path fill="#31CB9E" d="M23.7825565,8.8442202L17.708046,4.3763089c-0.2117672-0.1625748-0.5152321-0.1226964-0.6778069,0.0890708
	c-0.0381699,0.0497189-0.0663052,0.1063871-0.08284,0.1668477l-2.2179604,9.9523869l8.9997997-4.9761934
	c0.2199497-0.1131449,0.3065319-0.3831711,0.193388-0.6031199C23.8896027,8.941102,23.8415451,8.8858385,23.7825565,8.8442202"/>
<path fill="#31CB9E" d="M17.7009373,28.0025635l6.0816193-4.4679108c0.2055759-0.1444817,0.2551022-0.4282627,0.1106205-0.6338387
	c-0.0415154-0.0590687-0.096489-0.1074085-0.1603832-0.1410255l-9.003355-4.9761925l2.2179604,9.9523849
	c0.0613441,0.2578144,0.3200741,0.4170856,0.5778885,0.3557415c0.0635223-0.0151157,0.123291-0.0430336,0.1756496-0.0820522"/>
<path fill="#31CB9E" d="M12.7745056,16.0063839l2.3103752-10.8054485c0.0489607-0.2484555-0.1127615-0.4895597-0.3612165-0.5385208
	c-0.1216173-0.0239663-0.247756,0.0023284-0.3496685,0.0728912L8.4558811,9.2743053
	C8.1521101,9.5073519,7.9746199,9.868906,7.9760337,10.251771v11.5163336
	c-0.0058975,0.3878479,0.1720557,0.755619,0.4798474,0.991684l5.8896799,4.5247822
	c0.2081985,0.1441536,0.4938383,0.0922375,0.6379929-0.115963c0.0705624-0.1019096,0.096858-0.2280483,0.0728912-0.3496666
	L12.7745056,16.0063839z"/>
</svg>
