<?xml version="1.0" encoding="utf-8"?>
<!-- Generator: Adobe Illustrator 25.2.3, SVG Export Plug-In . SVG Version: 6.00 Build 0)  -->
<svg version="1.1" id="Слой_1" xmlns="http://www.w3.org/2000/svg" xmlns:xlink="http://www.w3.org/1999/xlink" x="0px" y="0px"
	 width="32px" height="32px" viewBox="0 0 32 32" enable-background="new 0 0 32 32" xml:space="preserve">
<g id="Layer_2">
	<g id="Layer_1-2">
		
			<linearGradient id="SVGID_1_" gradientUnits="userSpaceOnUse" x1="16" y1="-570" x2="16" y2="-538" gradientTransform="matrix(1 0 0 1 0 570)">
			<stop  offset="0" style="stop-color:#4FA89B"/>
			<stop  offset="1" style="stop-color:#6ACEBB"/>
		</linearGradient>
		<circle fill="url(#SVGID_1_)" cx="16" cy="16" r="16"/>
		<path fill="#FFFFFF" d="M8.1247997,20.7999992v-7.5306654l5.7109327,4.2981329v3.2325325h1.4575996v-3.5359993
			c-0.0005426-0.2663651-0.1258984-0.5170803-0.338666-0.6773338L8.0288,11.3722668
			c-0.3783417-0.2810078-0.9128504-0.2021027-1.1938577,0.176239c-0.1084671,0.1460381-0.1674271,0.322917-0.1682758,0.5048275
			v8.746666H8.1247997z M23.9189339,20.7999992v-7.5306654l-5.7109337,4.2981329v3.2325325h-1.4575996v-3.5359993
			c0.0005417-0.2663651,0.1259003-0.5170803,0.3386669-0.6773338l6.9258671-5.2122669
			c0.3783379-0.2810135,0.9128475-0.2021179,1.193861,0.176219c0.1080379,0.1454573,0.166975,0.3215284,0.168272,0.5027151v8.746666
			H23.9189339z"/>
	</g>
</g>
</svg>
