<?xml version="1.0" encoding="utf-8"?>
<!-- Generator: Adobe Illustrator 25.2.3, SVG Export Plug-In . SVG Version: 6.00 Build 0)  -->
<svg version="1.1" id="Слой_1" xmlns="http://www.w3.org/2000/svg" xmlns:xlink="http://www.w3.org/1999/xlink" x="0px" y="0px"
	 width="32px" height="32px" viewBox="0 0 32 32" enable-background="new 0 0 32 32" xml:space="preserve">
<g id="Layer_x0020_1">
	<g id="_1421344023328">
		<path fill="#8247E5" d="M31.5212708,19.8704777c-2.1371574,8.571516-10.8196888,13.7879696-19.3931904,11.650507
			C3.5581782,29.3840694-1.6588647,20.7019691,0.4792306,12.1311579C2.615449,3.5587044,11.2979813-1.6581408,19.8688221,0.4787747
			c8.5728741,2.1369154,13.7896023,10.819953,11.6522121,19.3918591l0.0001564-0.0001564H31.5212708z"/>
	</g>
</g>
<g>
	<path fill="#FFFFFF" d="M21.7191124,12.1969357c-0.406435-0.2322483-0.9289932-0.2322483-1.3934898,0l-3.2514744,1.9160471
		l-2.206358,1.2193041l-3.1934128,1.9160461c-0.4064341,0.2322483-0.9289923,0.2322483-1.3934889,0l-2.4966688-1.509613
		c-0.4064341-0.2322474-0.6967444-0.696744-0.6967444-1.2193031v-2.9031029c0-0.4644966,0.2322478-0.9289923,0.6967444-1.2193031
		l2.4966688-1.4515505c0.4064341-0.2322483,0.9289923-0.2322483,1.3934889,0l2.4966679,1.509613
		c0.406435,0.2322483,0.6967449,0.6967449,0.6967449,1.2193031v1.916048l2.206358-1.2773657v-1.9741087
		c0-0.4644966-0.2322483-0.9289932-0.6967449-1.2193031L11.732439,6.3907304c-0.4064341-0.2322483-0.9289932-0.2322483-1.3934889,0
		L5.5778618,9.1777086c-0.4644961,0.2322483-0.6967444,0.6967449-0.6967444,1.1612415v5.4578323
		c0,0.4644957,0.2322483,0.9289923,0.6967444,1.2193041l4.7030268,2.7289162c0.4064341,0.2322483,0.9289923,0.2322483,1.3934889,0
		l3.1934128-1.8579865l2.206358-1.2773647l3.1934128-1.8579865c0.406435-0.2322474,0.9289932-0.2322474,1.3934898,0
		l2.4966679,1.4515514c0.406435,0.2322483,0.6967449,0.6967449,0.6967449,1.2193031v2.9031029
		c0,0.4644947-0.2322483,0.9289932-0.6967449,1.2193031l-2.4386063,1.4515514c-0.406435,0.2322483-0.9289932,0.2322483-1.3934898,0
		l-2.4966679-1.4515514c-0.406435-0.2322483-0.6967449-0.6967449-0.6967449-1.2193031v-1.8579865l-2.206358,1.2773666v1.916048
		c0,0.4644947,0.2322483,0.9289913,0.6967449,1.2193031l4.7030258,2.7289143c0.406435,0.2322502,0.9289932,0.2322502,1.3934898,0
		l4.7030258-2.7289162c0.406435-0.2322483,0.6967449-0.6967449,0.6967449-1.2193031V16.145155
		c0-0.4644957-0.2322502-0.9289932-0.6967449-1.2193031L21.7191124,12.1969357z"/>
</g>
</svg>
