<?xml version="1.0" encoding="utf-8"?>
<!-- Generator: Adobe Illustrator 25.2.3, SVG Export Plug-In . SVG Version: 6.00 Build 0)  -->
<svg version="1.1" id="Слой_1" xmlns="http://www.w3.org/2000/svg" xmlns:xlink="http://www.w3.org/1999/xlink" x="0px" y="0px"
	 width="32px" height="32px" viewBox="0 0 32 32" enable-background="new 0 0 32 32" xml:space="preserve">
<g transform="translate(257.63 -97.669)">
	<g transform="matrix(.26458 0 0 .26458 -257.63 97.669)">
		
			<linearGradient id="SVGID_1_" gradientUnits="userSpaceOnUse" x1="4604.7539062" y1="-731.2964478" x2="4604.7539062" y2="-688.6251221" gradientTransform="matrix(0.198435 0 0 0.198435 -853.2712402 145.1148071)">
			<stop  offset="0" style="stop-color:#090220"/>
			<stop  offset="1" style="stop-color:#170659"/>
		</linearGradient>
		<circle fill="url(#SVGID_1_)" cx="60.4732018" cy="60.4732018" r="60.4732018"/>
		<g>
			<path fill="#00D1FF" d="M40.5543861,45.4382477c-0.483387-0.6000671-1.2168007-0.9334373-2.0002174-0.9334373H22.402422
				c-0.1333485,0-0.2500286-0.0500031-0.3500404-0.1333427c-0.0833416-0.0833435-0.1333485-0.1833572-0.1333485-0.3000336v-10.88451
				c0-0.1166763,0.0500069-0.2166901,0.1333485-0.3000336c0.1000118-0.1000099,0.216692-0.150013,0.3500404-0.1333466H39.470932
				c4.3004646,0,8.0175362,1.7668571,11.1512032,5.283905L54.772583,43.10466l-8.0842056,9.8510666L40.5543861,45.4382477z
				 M70.3909454,37.9874382c3.1170044-3.4837074,6.8507385-5.2338982,11.20121-5.2338982h17.0185013
				c0.116684-0.0166664,0.2333603,0.0333366,0.3167038,0.1000137c0.0833435,0.0833435,0.116684,0.2000198,0.1000061,0.3333702
				v10.88451c0,0.116684-0.0333328,0.2166901-0.1000061,0.3000336c-0.0833435,0.1000099-0.2000198,0.150013-0.3167038,0.1333427
				h-16.151741c-0.7667542-0.0166664-1.5001678,0.3333702-2.0002213,0.9334373L68.5574112,59.9231453l11.9512939,14.5849113
				c0.4833832,0.5500565,1.2001343,0.8834229,1.9335403,0.8667603h16.1517487
				c0.116684-0.0166702,0.2500229,0.0500031,0.3167038,0.1333466c0.0666809,0.1000137,0.116684,0.2333603,0.1000061,0.3500366
				v10.8845139c0,0.116684-0.0333405,0.2166901-0.1000061,0.3000336c-0.0833435,0.1000061-0.2000198,0.1500168-0.3167038,0.1333466
				H81.5921555c-4.3504715,0-8.0508728-1.7668533-11.151207-5.283905l-9.9010658-12.0846405L50.638813,81.892189
				c-3.1170082,3.5170364-6.8507423,5.283905-11.2012138,5.283905H22.402422
				c-0.1166801,0.0166626-0.2500286-0.0500031-0.3167-0.1333466c-0.0833435-0.1000061-0.1166801-0.2333603-0.1000118-0.3500366
				V75.8082047c0-0.116684,0.0333347-0.2166901,0.1000118-0.3000336c0.0833416-0.1000061,0.2000198-0.1500092,0.3167-0.1333466
				h16.1517429c0.7667503,0,1.500164-0.3500366,2.0002174-0.9334335l11.684597-14.2682076L70.3909454,37.9874382z"/>
		</g>
	</g>
</g>
</svg>
