<?xml version="1.0" encoding="utf-8"?>
<!-- Generator: Adobe Illustrator 25.2.3, SVG Export Plug-In . SVG Version: 6.00 Build 0)  -->
<svg version="1.1" id="Слой_1" xmlns="http://www.w3.org/2000/svg" xmlns:xlink="http://www.w3.org/1999/xlink" x="0px" y="0px"
	 width="32px" height="32px" viewBox="0 0 32 32" enable-background="new 0 0 32 32" xml:space="preserve">
<g id="Layer_x0020_1">
	<g id="_1421344023328">
		<linearGradient id="SVGID_1_" gradientUnits="userSpaceOnUse" x1="0" y1="16" x2="32" y2="16">
			<stop  offset="0" style="stop-color:#03B8FF"/>
			<stop  offset="1" style="stop-color:#FA52A0"/>
		</linearGradient>
		<path fill="url(#SVGID_1_)" d="M31.5212708,19.8704777c-2.1371574,8.571516-10.8196888,13.7879696-19.3931904,11.650507
			C3.5581782,29.3840694-1.6588647,20.7019691,0.4792306,12.1311579C2.615449,3.5587044,11.2979813-1.6581408,19.8688221,0.4787747
			c8.5728741,2.1369154,13.7896023,10.819953,11.6522121,19.3918591l0.0001564-0.0001564H31.5212708z"/>
	</g>
</g>
<g>
	<g>
		<defs>
			<rect id="SVGID_6_" x="6.180851" y="5.4468083" width="19.638298" height="19.638298"/>
		</defs>
		<clipPath id="SVGID_2_">
			<use xlink:href="#SVGID_6_"  overflow="visible"/>
		</clipPath>
		<g clip-path="url(#SVGID_2_)">
			
				<linearGradient id="SVGID_3_" gradientUnits="userSpaceOnUse" x1="25.2579689" y1="-974.1498413" x2="28.2762127" y2="-963.7855835" gradientTransform="matrix(1 0 0 1 -12 980)">
				<stop  offset="0" style="stop-color:#03B8FF"/>
				<stop  offset="1" style="stop-color:#FA52A0"/>
			</linearGradient>
			<path fill="url(#SVGID_3_)" d="M10.2721634,7.3288121l15.2196808,10.3919334l-3.7640076,5.5641842L6.5081558,12.8111706
				L10.2721634,7.3288121z"/>
			
				<linearGradient id="SVGID_4_" gradientUnits="userSpaceOnUse" x1="27.7308693" y1="-974.8700562" x2="30.7491932" y2="-964.5057373" gradientTransform="matrix(1 0 0 1 -12 980)">
				<stop  offset="0" style="stop-color:#03B8FF"/>
				<stop  offset="1" style="stop-color:#FA52A0"/>
			</linearGradient>
			<path fill="url(#SVGID_4_)" d="M25.4918442,17.7207451c-1.3092194,1.8820019-5.7278366,1.1455669-9.9009752-1.8001776
				c-4.2549648-2.8639183-6.5460997-6.7097521-5.3187056-8.5917549C11.5813828,5.4468083,16,6.1832447,20.1731377,9.1289892
				C24.4281025,11.9110813,26.7192383,15.8387413,25.4918442,17.7207451z"/>
			
				<linearGradient id="SVGID_5_" gradientUnits="userSpaceOnUse" x1="22.8142567" y1="-973.4382324" x2="25.8325825" y2="-963.0739136" gradientTransform="matrix(1 0 0 1 -12 980)">
				<stop  offset="0" style="stop-color:#03B8FF"/>
				<stop  offset="1" style="stop-color:#FA52A0"/>
			</linearGradient>
			<path fill="url(#SVGID_5_)" d="M21.7278366,23.203104C20.4186172,25.0851059,16,24.348671,11.8268614,21.4029255
				s-6.5460992-6.7097511-5.2368793-8.6735821c1.3092198-1.8820038,5.7278366-1.1455669,9.9009752,1.8001776
				S22.9552307,21.3210983,21.7278366,23.203104z"/>
			<path fill="#0E0F23" d="M25.4918442,17.7207451L25.4918442,17.7207451l-3.7640076,5.5641842l0,0
				C20.4186172,25.1669312,16,24.3486691,11.8268614,21.4847507c-0.8182621-0.5727844-1.5546989-1.1455669-2.2911348-1.8001785
				c0.5727835-0.0818253,1.3092194-0.4091301,2.0456562-1.2273941c1.3092203-1.3910446,1.96383-1.7183514,2.5366125-1.6365242
				c0.5727835,0,1.2273941,0.5727844,2.2911348,1.963829c1.0637417,1.3910465,2.5366135,1.8001785,3.4367027,1.0637417
				c0.0818253-0.0818272,0.1636524-0.0818272,0.2454777-0.1636543c0.7364349-0.5727844,0.9819164-0.8182621,2.372961-3.4367008
				c0.3273048-0.6546106,1.4728718-1.7183514,3.0275707-1.2273941
				C25.9009762,16.084219,25.9009762,16.9843082,25.4918442,17.7207451z"/>
			<path fill-rule="evenodd" clip-rule="evenodd" fill="#FFFFFF" d="M24.9190598,17.3934402
				c-1.1455669,1.6365242-5.1550541,0.8182621-9.000886-1.8820038c-3.92766-2.7002659-6.2187939-6.1369686-5.0732269-7.7734933
				S16,6.9196806,19.8458347,9.6199465S25.9828014,15.7569151,24.9190598,17.3934402z M21.3187065,14.938653
				c-0.5727844,0.8182621-2.5366154,0.4091311-4.5004444-0.9000893c-1.8820038-1.3092203-3.0275707-3.0275707-2.4547873-3.8458328
				c0.5727835-0.8182631,2.5366144-0.4091311,4.5004435,0.9000883
				C20.7459221,12.4020386,21.8914909,14.1203899,21.3187065,14.938653z"/>
			<path fill="#FFFFFF" d="M9.9448586,9.2108154c0-0.0818262-0.0818262-0.1636524-0.1636524-0.0818262
				S9.6175528,9.2108154,9.6175528,9.2926416c0.0818272,0.2454786,0.1636534,0.4091311,0.1636534,0.5727844
				c0,0.0818253,0.0818262,0.1636515,0.1636524,0.0818253c0.0818253,0,0.1636515-0.0818253,0.0818253-0.1636515
				C10.0266838,9.6199465,10.0266838,9.4562941,9.9448586,9.2108154z"/>
			<path fill="#FFFFFF" d="M10.3539896,10.5200357c0-0.0818262-0.0818262-0.1636524-0.1636524-0.0818262
				s-0.0818262,0.0818262-0.0818262,0.1636524c0.9000883,2.0456562,2.7820921,4.2549639,5.2368793,5.891489
				c0.0818272,0.0818272,0.1636524,0,0.2454796,0c0.0818262-0.0818272,0-0.1636524,0-0.2454796
				C13.0542545,14.6113472,11.2540779,12.4838657,10.3539896,10.5200357z"/>
			<path fill="#FFFFFF" d="M20.2549648,18.5390072c-0.0818272,0-0.1636524,0-0.1636524,0.0818272
				c0,0.0818253,0,0.1636524,0.0818253,0.1636524c0.2454796,0.0818272,0.5727844,0.1636524,0.818264,0.2454777
				c0.0818253,0,0.1636524,0,0.1636524-0.0818253c0-0.0818272,0-0.1636543-0.0818272-0.1636543
				C20.8277473,18.7026596,20.5004425,18.6208344,20.2549648,18.5390072z"/>
			<path fill="#FFFFFF" d="M21.7278366,18.866312c-0.0818272,0-0.1636524,0.0818272-0.1636524,0.1636524
				c0,0.0818272,0.0818253,0.1636543,0.1636524,0.1636543c0.6546097,0.0818253,1.3910465,0.1636524,1.963829,0.0818253
				c0.0818272,0,0.1636543-0.0818253,0.1636543-0.1636524s-0.0818272-0.1636524-0.1636543-0.1636524
				C23.0370579,19.0299644,22.3824463,18.9481392,21.7278366,18.866312z"/>
		</g>
	</g>
</g>
</svg>
