<?xml version="1.0" encoding="utf-8"?>
<!-- Generator: Adobe Illustrator 25.1.0, SVG Export Plug-In . SVG Version: 6.00 Build 0)  -->
<svg version="1.1" id="Слой_1" xmlns="http://www.w3.org/2000/svg" xmlns:xlink="http://www.w3.org/1999/xlink" x="0px" y="0px"
	 viewBox="0 0 32 32" style="enable-background:new 0 0 32 32;" xml:space="preserve">
<style type="text/css">
	.st0{fill:#50AF95;}
	.st1{fill-rule:evenodd;clip-rule:evenodd;fill:#FFFFFF;}
</style>
<circle class="st0" cx="16" cy="16" r="16"/>
<path class="st1" d="M18.5,17.6L18.5,17.6c-0.1,0-0.6,0-1.7,0c-0.9,0-1.5,0-1.8,0l0,0c-3.5-0.2-6.1-0.8-6.1-1.5
	c0-0.7,2.6-1.3,6.1-1.5V17c0.2,0,0.9,0.1,1.8,0.1c1.1,0,1.6,0,1.7-0.1v-2.4c3.5,0.2,6.1,0.8,6.1,1.5C24.5,16.8,21.9,17.4,18.5,17.6
	L18.5,17.6L18.5,17.6z M18.5,14.4v-2.1h4.9V9H10.1v3.2h4.9v2.1c-4,0.2-6.9,1-6.9,1.9c0,0.9,3,1.7,6.9,1.9V25h3.5v-6.8
	c3.9-0.2,6.9-1,6.9-1.9C25.4,15.3,22.4,14.5,18.5,14.4L18.5,14.4L18.5,14.4z M18.5,14.4"/>
</svg>
