<?xml version="1.0" encoding="utf-8"?>
<!-- Generator: Adobe Illustrator 25.2.3, SVG Export Plug-In . SVG Version: 6.00 Build 0)  -->
<svg version="1.1" id="Слой_1" xmlns="http://www.w3.org/2000/svg" xmlns:xlink="http://www.w3.org/1999/xlink" x="0px" y="0px"
	 width="32px" height="32px" viewBox="0 0 32 32" enable-background="new 0 0 32 32" xml:space="preserve">
<g id="Layer_x0020_1">
	<g id="_1421344023328">
		<path fill="#FF007A" d="M31.5212708,19.8704777c-2.1371574,8.571516-10.8196888,13.7879696-19.3931904,11.650507
			C3.5581782,29.3840694-1.6588647,20.7019691,0.4792306,12.1311579C2.615449,3.5587044,11.2979813-1.6581408,19.8688221,0.4787747
			c8.5728741,2.1369154,13.7896023,10.819953,11.6522121,19.3918591l0.0001564-0.0001564H31.5212708z"/>
	</g>
</g>
<g>
	<path fill="#FFFFFF" d="M12.8286438,7.3725324c-0.2395344-0.0342188-0.2509413-0.0456257-0.1368761-0.0570321
		c0.2167215-0.0342188,0.7186031,0.0114064,1.0722017,0.0912514c0.8212614,0.1939092,1.5626774,0.6957903,2.34972,1.5740843
		l0.2053146,0.2395344l0.2965679-0.0456257c1.2661095-0.2053156,2.5664406-0.0456266,3.6500492,0.4562559
		c0.2965679,0.1368761,0.7642307,0.4106302,0.8212624,0.4790688c0.0228119,0.0228119,0.0570316,0.1710958,0.0798435,0.3193798
		c0.0798454,0.5361004,0.0456257,0.9353247-0.1254711,1.2432985c-0.0912514,0.1710958-0.0912514,0.2167215-0.0342197,0.3650045
		c0.0456257,0.1140642,0.1825047,0.1939087,0.3079739,0.1939087c0.2737522,0,0.5589123-0.433444,0.6957912-1.0379829
		l0.0570316-0.2395344l0.1026573,0.1140642c0.581728,0.6501646,1.0379829,1.5512705,1.1064205,2.1900301l0.0228119,0.1710958
		l-0.1026554-0.148283c-0.1710968-0.2623482-0.3307858-0.433444-0.5475082-0.581727
		c-0.3878174-0.2623472-0.7984486-0.3421917-1.8820572-0.3992243c-0.9809513-0.0570316-1.5398655-0.1368761-2.0873737-0.3193798
		c-0.9353237-0.307972-1.4143944-0.7071962-2.5208149-2.1786232c-0.4904757-0.6501646-0.7984486-1.0037632-1.1064215-1.3003302
		C14.3799152,7.8516016,13.7069368,7.5094094,12.8286438,7.3725324z"/>
	<path fill="#FFFFFF" d="M21.326416,8.821146c0.0228138-0.4334431,0.0798454-0.7186031,0.2053165-0.9809508
		c0.0456238-0.1026578,0.0912514-0.1939092,0.1026573-0.1939092s-0.0114079,0.079845-0.0456257,0.1710958
		c-0.0912514,0.2509413-0.1026573,0.6045399-0.0456257,1.0037642c0.0798454,0.5132885,0.1140652,0.5817261,0.6615734,1.1406403
		c0.2509403,0.2623482,0.5475063,0.593133,0.6615715,0.73001l0.1939087,0.2509413l-0.1939087-0.1825027
		c-0.2395363-0.2281284-0.7870407-0.6615715-0.9125137-0.7186041c-0.0798435-0.0456257-0.0912514-0.0456257-0.148283,0.0114059
		c-0.0456238,0.0456266-0.0570316,0.1140642-0.0570316,0.4448509c-0.0114079,0.5132875-0.0798454,0.8326674-0.2509403,1.1634531
		c-0.0912514,0.1710958-0.1026573,0.1368761-0.0228119-0.0570326c0.0570316-0.148284,0.0684376-0.2167215,0.0684376-0.7071972
		c0-0.9923563-0.1140633-1.2318916-0.8098545-1.6311159c-0.1710968-0.1026573-0.4676647-0.2509403-0.6387596-0.3307858
		c-0.1825027-0.0798445-0.3193798-0.148283-0.307972-0.148283c0.0228119-0.0228128,0.6957912,0.1710958,0.9581356,0.2851601
		c0.3992252,0.1596899,0.4676647,0.1710958,0.5132885,0.1596899C21.2921963,9.1975574,21.3150101,9.1063061,21.326416,8.821146z"/>
	<path fill="#FFFFFF" d="M13.2963066,10.5207005C12.8172379,9.859129,12.509264,8.832552,12.5777025,8.0683231l0.0228128-0.2395344
		l0.1140642,0.0228128c0.2053156,0.0342193,0.5589142,0.1710958,0.73001,0.2737541
		c0.4562569,0.2737541,0.6615725,0.6501656,0.8554811,1.5854902c0.0570316,0.2737541,0.1368761,0.593133,0.1710958,0.6957903
		c0.0570316,0.1710958,0.2737541,0.5703201,0.4562559,0.8212614c0.1254702,0.1825018,0.0456257,0.2737532-0.2395344,0.2509403
		C14.2544441,11.4332132,13.672718,11.033989,13.2963066,10.5207005z"/>
	<path fill="#FFFFFF" d="M20.7446899,15.4824877c-2.2584705-0.9125128-3.0569172-1.6995554-3.0569172-3.0341043
		c0-0.1939087,0.0114059-0.3535986,0.0114059-0.3535986c0.0114059,0,0.0912514,0.0684385,0.1939087,0.148284
		c0.456255,0.3650045,0.9695435,0.5246944,2.3953457,0.73001c0.8326683,0.1254702,1.3117371,0.2167215,1.7451801,0.3650045
		c1.3801765,0.4562559,2.2356567,1.3915815,2.4409714,2.657692c0.0570316,0.3650055,0.0228119,1.0607967-0.0684395,1.4258003
		c-0.0798454,0.2851601-0.3079739,0.8098564-0.3650055,0.8212624c-0.0114059,0-0.0342197-0.0570335-0.0342197-0.1482849
		c-0.0228119-0.4790688-0.2623482-0.9353237-0.6615715-1.2889233
		C22.8662815,16.3950005,22.2503357,16.0870266,20.7446899,15.4824877z"/>
	<path fill="#FFFFFF" d="M19.1477928,15.8588991c-0.0228119-0.1710958-0.0798435-0.3878183-0.1140633-0.4790688
		l-0.0570316-0.1710958l0.1026573,0.1254702c0.148283,0.1710958,0.2623482,0.3764114,0.3650036,0.6615715
		c0.0798454,0.2167215,0.0798454,0.285161,0.0798454,0.6387587c0,0.3421917-0.0114059,0.4220371-0.0798454,0.6159458
		c-0.1140633,0.307972-0.2509403,0.5246944-0.4790688,0.7642288c-0.4106293,0.4220371-0.9467316,0.6501637-1.7109604,0.7528229
		c-0.1368771,0.0114079-0.5246944,0.0456257-0.8668861,0.0684395c-0.8554811,0.0456257-1.4258013,0.1368771-1.9390898,0.3193798
		c-0.0684376,0.0228119-0.1368761,0.0456257-0.148283,0.0342197c-0.0228128-0.0228119,0.3307858-0.2281284,0.6159458-0.3650055
		c0.3992243-0.1939087,0.8098545-0.296566,1.7109613-0.456255c0.444849-0.0684395,0.9011059-0.1596889,1.0151691-0.2053165
		C18.7713814,17.8093948,19.3302956,16.9311008,19.1477928,15.8588991z"/>
	<path fill="#FFFFFF" d="M20.1857758,17.6953316c-0.296566-0.6501656-0.3650055-1.2661114-0.2053146-1.8478374
		c0.0228119-0.0570326,0.0456238-0.1140642,0.0684376-0.1140642s0.0912514,0.0342188,0.1596889,0.0798445
		c0.1368771,0.0912514,0.4220371,0.2509403,1.1520481,0.6501637c0.9239197,0.5018826,1.4486141,0.8897018,1.8136177,1.3345509
		c0.3193798,0.3878155,0.5132885,0.8326664,0.6045399,1.3801746c0.0570316,0.3079739,0.0228138,1.0493889-0.0570316,1.3573627
		c-0.2509403,0.9695435-0.8212605,1.7451801-1.6539288,2.1900291c-0.1254711,0.0684395-0.2281284,0.1140633-0.2395344,0.1140633
		c-0.0114079,0,0.0342178-0.1140633,0.1026554-0.2509403c0.2737541-0.5817261,0.3079739-1.1406403,0.1026573-1.767992
		c-0.1254711-0.3878174-0.3878174-0.8554802-0.9125118-1.6425228
		C20.4937477,18.2656517,20.3454647,18.0261154,20.1857758,17.6953316z"/>
	<path fill="#FFFFFF" d="M11.6880035,21.1856899c0.8440742-0.7071972,1.8820562-1.2090797,2.8401947-1.3687687
		c0.4106302-0.0684395,1.0950155-0.0456238,1.471427,0.0570316c0.6045389,0.1596889,1.1520472,0.5018826,1.4372072,0.9239197
		c0.2737541,0.4106312,0.3992233,0.7642288,0.5246944,1.5512733c0.0456257,0.307972,0.1026573,0.6273518,0.1140633,0.6957912
		c0.0912514,0.4106312,0.2737541,0.7300091,0.5018826,0.9011059c0.3535976,0.2623463,0.9695454,0.2737522,1.5740833,0.0456238
		c0.1026573-0.0342197,0.1939087-0.0684395,0.1939087-0.0570316c0.0228119,0.0228119-0.2851601,0.2281284-0.4904766,0.3307858
		c-0.2851601,0.148283-0.5132866,0.1939087-0.8212605,0.1939087c-0.5475082,0-1.0151691-0.285162-1.3915806-0.8554821
		c-0.0798454-0.1140633-0.2395344-0.444849-0.3764114-0.7528229c-0.3992252-0.9239197-0.6045399-1.1976719-1.0722027-1.5056458
		c-0.4106302-0.2623463-0.9353256-0.3193798-1.334549-0.1254711c-0.5246954,0.2509403-0.6615725,0.9239197-0.296567,1.334549
		c0.148284,0.1710968,0.4220371,0.3079739,0.6501646,0.3421936c0.4220371,0.0570316,0.7870426-0.2737541,0.7870426-0.6957912
		c0-0.2737541-0.1026583-0.433445-0.3764114-0.5589142c-0.3650055-0.1596889-0.7642288,0.0228119-0.7528229,0.3764114
		c0,0.1482849,0.0684385,0.2395363,0.2167215,0.3079739c0.0912514,0.0456238,0.0912514,0.0456238,0.0228128,0.0342178
		c-0.3307858-0.0684376-0.4106302-0.4790688-0.148284-0.741415c0.3193798-0.3193798,0.9923573-0.1825027,1.2204847,0.2623463
		c0.0912514,0.1825047,0.1026592,0.5475082,0.0228138,0.7756367c-0.1939087,0.5018806-0.7414169,0.7642288-1.3003311,0.6159458
		c-0.3764114-0.1026573-0.5361013-0.2053165-0.9923573-0.6729774c-0.7984486-0.8212605-1.1064205-0.9809513-2.2470617-1.1520481
		l-0.2167225-0.0342197L11.6880035,21.1856899z"/>
	<path fill-rule="evenodd" clip-rule="evenodd" fill="#FFFFFF" d="M5.6882334,2.832783
		c2.6576929,3.2280128,6.752593,8.2468328,6.9579077,8.520586c0.1710968,0.2281275,0.1026583,0.44485-0.1825018,0.6045399
		c-0.1596899,0.0912514-0.4904757,0.1825018-0.6501656,0.1825018c-0.1825018,0-0.3992243-0.0912514-0.5475073-0.2395344
		c-0.1026583-0.1026573-0.5475073-0.7528219-1.5512714-2.3155003c-0.7642288-1.1976728-1.4143944-2.1900301-1.4258003-2.201436
		C8.243268,7.3611264,8.243268,7.3611264,9.6348495,9.847723c0.878294,1.5626774,1.1634541,2.1215916,1.1634541,2.1900301
		c0,0.148283-0.0456257,0.2281275-0.2281284,0.433444c-0.3079729,0.3421917-0.44485,0.73001-0.5475073,1.5398645
		c-0.1140642,0.9011059-0.4220371,1.5398645-1.3003302,2.6234732c-0.5132885,0.6387596-0.593133,0.7528229-0.7186041,1.0151691
		c-0.1596894,0.3193798-0.2053151,0.5018826-0.228128,0.9125137c-0.0228128,0.4334431,0.0228128,0.7071953,0.1482835,1.1178284
		c0.1140642,0.3650036,0.2395344,0.6045399,0.5475073,1.0722008c0.2623472,0.4106312,0.4220371,0.7186031,0.4220371,0.8326683
		c0,0.0912514,0.0228128,0.0912514,0.4334431,0c0.9809513-0.2281284,1.7908058-0.6159458,2.2356558-1.0950165
		c0.2737541-0.2965679,0.3421926-0.4562569,0.3421926-0.866888c0-0.2623463-0.0114059-0.3193798-0.0798454-0.4790688
		c-0.1140633-0.2509403-0.3307858-0.456255-0.7984476-0.7756348c-0.6159468-0.4220371-0.878294-0.7642288-0.9467316-1.2204857
		c-0.0570326-0.3878174,0.0114059-0.6501656,0.3535976-1.3687687c0.3535986-0.741416,0.44485-1.0493889,0.5018826-1.8022127
		c0.0342188-0.4790688,0.0912514-0.6729784,0.2281275-0.8212605c0.148284-0.1596899,0.2737541-0.2167225,0.6273527-0.2623482
		c0.581727-0.0798445,0.9581385-0.2281275,1.2547045-0.5132885c0.2623482-0.2395344,0.3764124-0.4790678,0.3878183-0.8326674
		l0.0114059-0.2623482l-0.148283-0.159687c-0.5361013-0.6159458-7.9616718-8.7829323-7.9958911-8.7829323
		C5.2890091,2.3423076,5.4715118,2.5590291,5.6882334,2.832783z M9.1899996,19.0526924
		c0.1254711-0.2167206,0.0570326-0.4904747-0.148283-0.6273518c-0.1939087-0.1254711-0.4904757-0.0684395-0.4904757,0.1026573
		c0,0.0456238,0.0228138,0.0912514,0.0912514,0.1140633c0.1026583,0.0570316,0.1140642,0.1140652,0.0342197,0.2395363
		c-0.0798454,0.1254711-0.0798454,0.2395344,0.0228128,0.3193798C8.8592148,19.3264465,9.0759363,19.258009,9.1899996,19.0526924z"
		/>
	<path fill-rule="evenodd" clip-rule="evenodd" fill="#FFFFFF" d="M13.8095942,13.0529232
		c-0.2737532,0.0798445-0.5361004,0.3764114-0.6159458,0.6729784c-0.0456257,0.1825018-0.0228128,0.5132885,0.0570316,0.6159458
		c0.1254711,0.1596899,0.2395344,0.2053156,0.5589142,0.2053156c0.6273527,0,1.1634531-0.2737541,1.2204857-0.6045399
		c0.0570316-0.2737541-0.1825027-0.6501646-0.5132885-0.8212605C14.3456964,13.0301104,13.9920969,12.9958916,13.8095942,13.0529232
		z M14.5396051,13.6232433c0.0912514-0.1368761,0.0570316-0.2851601-0.1140642-0.3878174
		c-0.3079729-0.1939087-0.7756367-0.0342197-0.7756367,0.2623472c0,0.148284,0.2395344,0.3079729,0.4676628,0.3079729
		C14.265851,13.8057461,14.4711666,13.7144947,14.5396051,13.6232433z"/>
</g>
</svg>
