<?xml version="1.0" encoding="utf-8"?>
<!-- Generator: Adobe Illustrator 25.2.3, SVG Export Plug-In . SVG Version: 6.00 Build 0)  -->
<svg version="1.1" id="Слой_1" xmlns="http://www.w3.org/2000/svg" xmlns:xlink="http://www.w3.org/1999/xlink" x="0px" y="0px"
	 width="32px" height="32px" viewBox="0 0 32 32" enable-background="new 0 0 32 32" xml:space="preserve">
<circle fill="#2775CA" cx="16" cy="16" r="16"/>
<g>
	<path fill="#FFFFFF" d="M20.3684883,18.2253933c0-2.2253933-1.3352661-2.9884033-4.0057983-3.3062735
		c-1.9075241-0.2543869-2.2890291-0.7630091-2.2890291-1.6532879s0.6358919-1.4623833,1.9075241-1.4623833
		c1.1445131,0,1.780406,0.3815041,2.0982752,1.3352661c0.0636349,0.190752,0.2543888,0.3178701,0.4451408,0.3178701h1.0172443
		c0.2543869,0,0.4451408-0.190753,0.4451408-0.4449873v-0.0636349c-0.2543888-1.398901-1.3989029-2.4797802-2.8612862-2.6068974
		V8.8150463c0-0.2543869-0.190752-0.4451389-0.5086212-0.5087738h-0.9537611c-0.2543869,0-0.4451399,0.1907511-0.5087757,0.5087738
		v1.4623842c-1.9075232,0.2543869-3.1155186,1.5260191-3.1155186,3.1156721c0,2.0982752,1.2716312,2.9247665,3.9421635,3.2427883
		c1.780406,0.3178692,2.352664,0.6993732,2.352664,1.7167721c0,1.0173969-0.8902798,1.7167702-2.0982761,1.7167702
		c-1.6532888,0-2.2255449-0.6995258-2.4162979-1.6532879c-0.0634813-0.2542362-0.2542343-0.3815041-0.4449863-0.3815041h-1.0810318
		c-0.2542343,0-0.4449873,0.190752-0.4449873,0.4451389v0.0636368c0.2542343,1.5895004,1.2716322,2.7340145,3.3699074,3.0520363
		v1.5260181c0,0.2542362,0.190753,0.4449883,0.5086222,0.5086231h0.9537621c0.2543888,0,0.4451408-0.1907539,0.5087757-0.5086231
		v-1.5260181c1.9075222-0.3180218,3.1791534-1.6532879,3.1791534-3.3700581L20.3684883,18.2253933z"/>
	<path fill="#FFFFFF" d="M12.9291477,24.9017239c-4.9595609-1.7802525-7.5029764-7.3120708-5.6589351-12.208149
		c0.9537616-2.6705322,3.0520377-4.705173,5.6589351-5.6589346c0.2543869-0.1271172,0.3815041-0.3178692,0.3815041-0.6358919
		V5.5086222c0-0.2543874-0.1271172-0.4451399-0.3815041-0.5086222c-0.0636349,0-0.190753,0-0.2543879,0.0634823
		c-6.0404391,1.9075236-9.3468637,8.3296213-7.4393406,14.37006c1.1445141,3.5606594,3.8786812,6.2948265,7.4393406,7.4393406
		c0.2543879,0.1271172,0.5087757,0,0.572257-0.2543869c0.0636349-0.0634842,0.0636349-0.1271172,0.0636349-0.2542362v-0.8902779
		C13.3106518,25.2832298,13.1198997,25.0289936,12.9291477,24.9017239z M19.6691151,5.0634823
		c-0.2543888-0.1271172-0.5087738,0-0.572258,0.2543879c-0.0636349,0.0636349-0.0636349,0.1271172-0.0636349,0.2543874v0.8901262
		c0,0.2543879,0.190752,0.5086226,0.3815041,0.6358919c4.9595604,1.7802529,7.5029774,7.3120704,5.6589336,12.208147
		c-0.9537601,2.6705341-3.0520363,4.7051735-5.6589336,5.6589355c-0.2543869,0.1271152-0.3815041,0.3178692-0.3815041,0.6358929
		v0.8901272c0,0.2543869,0.1271172,0.4451408,0.3815041,0.5086212c0.0636368,0,0.190752,0,0.2543888-0.0634823
		c6.0404377-1.9075241,9.3468628-8.3296223,7.4393406-14.37006c-1.1445141-3.6242943-3.9423161-6.3584623-7.4393406-7.5029764
		V5.0634823z"/>
</g>
</svg>
