<?xml version="1.0" encoding="utf-8"?>
<!-- Generator: Adobe Illustrator 25.2.3, SVG Export Plug-In . SVG Version: 6.00 Build 0)  -->
<svg version="1.1" id="Слой_1" xmlns="http://www.w3.org/2000/svg" xmlns:xlink="http://www.w3.org/1999/xlink" x="0px" y="0px"
	 width="32px" height="32px" viewBox="0 0 32 32" enable-background="new 0 0 32 32" xml:space="preserve">
<circle fill="#50AF95" cx="16" cy="16" r="16"/>
<path fill-rule="evenodd" clip-rule="evenodd" fill="#FFFFFF" d="M18.4545689,17.5800934L18.4545689,17.5800934
	c-0.0987225,0.0074043-0.6087799,0.0378437-1.746542,0.0378437c-0.9049435,0-1.5474529-0.0271473-1.7728672-0.0378437l0,0
	c-3.4971952-0.1538391-6.1075468-0.7626209-6.1075468-1.4915104c0-0.7288904,2.6103516-1.3368492,6.1075468-1.4931574v2.378356
	c0.2287045,0.0164547,0.8835545,0.0551205,1.7884979,0.0551205c1.0859318,0,1.6297207-0.045248,1.7276211-0.0542984v-2.377533
	c3.48979,0.1554861,6.0943832,0.764266,6.0943832,1.4915123c0,0.7272453-2.6037693,1.3360252-6.0943832,1.4906883l0,0
	L18.4545689,17.5800934z M18.4545689,14.3510904v-2.1282625H23.32481V8.9773703H10.0649176v3.2454576h4.8694191v2.1274405
	C10.9764423,14.5320787,8,15.3160896,8,16.2555847c0,0.939497,2.9764423,1.7226849,6.9343367,1.9053192v6.8199844h3.5194082
	v-6.8224525c3.9488449-0.1818123,6.9203491-0.9649982,6.9203491-1.9036732c0-0.938673-2.9690361-1.7218609-6.9203491-1.9044943l0,0
	L18.4545689,14.3510904z M18.4545689,14.3510904L18.4545689,14.3510904z"/>
</svg>
