<?xml version="1.0" encoding="utf-8"?>
<!-- Generator: Adobe Illustrator 25.2.3, SVG Export Plug-In . SVG Version: 6.00 Build 0)  -->
<svg version="1.1" id="Слой_1" xmlns="http://www.w3.org/2000/svg" xmlns:xlink="http://www.w3.org/1999/xlink" x="0px" y="0px"
	 width="32px" height="32px" viewBox="0 0 32 32" enable-background="new 0 0 32 32" xml:space="preserve">
<g id="Layer_2">
	<g id="Layer_1-2">
		<g id="Page-1">
			<g id="wbtc_colour">
				<path id="Shape" fill="#5A5564" d="M26.0926228,6.651536l-0.8786373,0.8786383
					c4.345644,4.7522736,4.345644,12.0355721,0,16.7878456l0.8786373,0.8786373
					c4.8348026-5.2442436,4.8348026-13.3213797,0-18.5656223V6.651536z"/>
				<path id="Shape-2" fill="#5A5564" d="M7.6148653,6.727685c4.7522736-4.3456459,12.0355711-4.3456459,16.7878456,0
					l0.8786392-0.8786383c-5.2442436-4.8348017-13.3213806-4.8348012-18.5656242,0L7.6148653,6.727685z"/>
				<path id="Shape-3" fill="#5A5564" d="M6.7918744,24.3268051c-4.340292-4.7509823-4.340292-12.0280771,0-16.7790585
					L5.9132366,6.6691084c-4.8348017,5.2442427-4.8348017,13.3213797,0,18.5656242L6.7918744,24.3268051z"/>
				<path id="Shape-4" fill="#5A5564" d="M24.390995,25.1380825c-4.7522736,4.3456459-12.0355721,4.3456459-16.7878456,0
					l-0.8786378,0.8786373c5.2442427,4.8348026,13.3213787,4.8348026,18.5656223,0L24.390995,25.1380825z"/>
				<path id="Shape-5" fill="#F09242" d="M21.5471363,13.0040894c-0.1757259-1.8334246-1.7572765-2.448472-3.7576427-2.6359148
					V7.843555h-1.546402v2.4777589c-0.4071026,0-0.8229914,0-1.2359514,0V7.843555h-1.534687v2.5421929h-3.1367378v1.6547689
					c0,0,1.14223-0.0205011,1.1246567,0c0.4280748-0.0470924,0.8165426,0.2533226,0.8786383,0.6794806v6.9588146
					c-0.0088902,0.1460838-0.076499,0.2823601-0.1874428,0.3778133c-0.1088781,0.09729-0.2527361,0.1459465-0.3983164,0.1347256
					c0.0205011,0.0175705-1.1246567,0-1.1246567,0l-0.2928791,1.8480682h3.1074495v2.5831947h1.5464029v-2.5451221h1.2359514
					v2.5334072h1.5493317v-2.5539093c2.612484-0.1581535,4.4341946-0.8024883,4.6626396-3.2480297
					c0.1845131-1.9681511-0.740984-2.8467884-2.220026-3.2011719
					C21.1166039,15.1655388,21.6730747,14.3454771,21.5471363,13.0040894z M19.3798294,18.504364
					c0,1.9212875-3.2919636,1.7016296-4.3404722,1.7016296v-3.4091167
					C16.0878658,16.7998066,19.3798294,16.4981403,19.3798294,18.504364z M18.6622753,13.7011423
					c0,1.7572765-2.7472086,1.5434742-3.6199894,1.5434742v-3.0986643
					C15.9150667,12.1459522,18.6622753,11.8706465,18.6622753,13.7011423z"/>
				<path id="Shape-6" fill="#282138" d="M15.9970722,31.935812C7.1605167,31.9341946-0.0016165,24.7694397,0.0000003,15.9328852
					S7.1663713-0.0658039,16.0029278-0.0641871C24.8371964-0.0625708,31.9983826,7.0986147,32,15.9328842
					c0.0016174,8.8365555-7.1605148,16.0013103-15.9970703,16.0029278
					C16.0009766,31.935812,15.9990244,31.935812,15.9970722,31.935812z M15.9970722,1.1834791
					C7.8544388,1.1899498,1.2587755,7.7961044,1.2652462,15.9387388
					c0.0064708,8.1426325,6.6126251,14.7382975,14.7552595,14.7318258
					c8.1357689-0.006464,14.7285938-6.6019096,14.7318287-14.7376814
					c0.0032387-8.1426353-6.5950489-14.746171-14.7376842-14.7494078C16.008791,1.183473,16.0029316,1.1834742,15.9970722,1.1834791
					z"/>
			</g>
		</g>
	</g>
</g>
</svg>
