<?xml version="1.0" encoding="utf-8"?>
<!-- Generator: Adobe Illustrator 25.2.3, SVG Export Plug-In . SVG Version: 6.00 Build 0)  -->
<svg version="1.1" id="Слой_1" xmlns="http://www.w3.org/2000/svg" xmlns:xlink="http://www.w3.org/1999/xlink" x="0px" y="0px"
	 width="32px" height="32px" viewBox="0 0 32 32" enable-background="new 0 0 32 32" xml:space="preserve">
<circle fill="none" stroke="#050405" stroke-width="0.5" stroke-miterlimit="10" cx="16.0289593" cy="16.1825199" r="15.817481"/>
<path fill="#050405" d="M28.0575771,14.3182392c0.5095119,0.4365501,0.9983902,0.865737,1.5002441,1.2792311
	c0.1541595,0.1270199,0.1363392,0.1816854-0.0177917,0.2854195c-0.4748573,0.3195887-0.9398327,0.6538076-1.4329281,0.9993544
	c0.4630165,0.3386288,0.8950272,0.6649246,1.3389874,0.9741058c0.1736221,0.1209145,0.2285366,0.1822701,0.0180092,0.3362236
	c-0.4711933,0.3445683-0.9203548,0.7191658-1.4093246,1.1059265c0.3839569,0.340847,0.7574196,0.6724739,1.1310062,1.0039673
	c0.1529922,0.1357555,0.3067474,0.2706623,0.459053,0.4071808c0.0417061,0.0373802,0.1070995,0.0692596,0.0897331,0.1362438
	c-0.0198746,0.0766888-0.0951729,0.0477982-0.1474476,0.0510235c-1.3529758,0.0835361-2.6868172-0.006134-3.9811096-0.4454861
	c-0.3220005-0.1093063-0.4002914-0.0624771-0.4262848,0.2930946c-0.0447102,0.611517-0.0886803,1.2234535-0.111269,1.83601
	c-0.00741,0.2009335-0.0742741,0.3100014-0.2516041,0.4030323c-0.6971264,0.3657265-1.3839397,0.7509975-2.0789738,1.1207886
	c-0.1584339,0.0842972-0.2898483,0.1896439-0.4072781,0.3229065c-0.4701099,0.5334873-0.9506912,1.0579243-1.4134846,1.597599
	c-0.1360683,0.1586742-0.2737389,0.2155342-0.4778767,0.1874847c-0.9070759-0.1246471-1.8182259-0.2221985-2.7224236-0.3642979
	c-0.493351-0.0775337-0.9427223,0.1004505-1.41222,0.1558933c-0.3664818,0.0432777-0.728384,0.1273956-1.0910578,0.1996899
	c-0.1856194,0.0370007-0.3258429-0.0023937-0.4690866-0.142498c-0.4456329-0.4358692-0.9289474-0.8346348-1.3595905-1.284132
	c-0.4691133-0.4896507-1.032938-0.8115845-1.6405048-1.0832291c-0.451684-0.2019501-0.8960037-0.4207401-1.339488-0.6403122
	c-0.152174-0.0753441-0.3201866-0.146677-0.3239889-0.3660374c-0.0008717-0.0502815-0.0500298-0.1028881-0.0843267-0.1489601
	c-0.6740484-0.9054394-1.3489599-1.8102398-2.0244474-2.7146053c-0.0666461-0.0892296-0.1041369-0.194376-0.2651935-0.0820217
	c-1.0029716,0.6996918-2.1535187,0.9681702-3.3455596,1.0974598c-0.6406519,0.0694847-1.2837794,0.0934315-1.9267666,0.0216141
	C2.370903,20.853796,2.2807002,20.8884201,2.2500229,20.813818c-0.0378478-0.0920448,0.0567405-0.134243,0.1118538-0.1832638
	c0.4513175-0.4014378,0.9006162-0.805294,1.3591554-1.1983852c0.1399217-0.1199493,0.1723599-0.1832237-0.0010948-0.3127956
	c-0.4756513-0.3553123-0.9343545-0.7332401-1.4330578-1.1286068c0.5166538-0.3773899,1.0224864-0.7468719,1.5586019-1.1384773
	c-0.5452781-0.3841553-1.0704973-0.7541771-1.6220772-1.1427708c0.5051694-0.4149866,0.987658-0.8210011,1.4819536-1.212142
	c0.1723089-0.1363487,0.2186632-0.2135515,0.0103791-0.3712196c-0.4423738-0.3348742-0.8513947-0.7139196-1.296442-1.0448999
	c-0.1974158-0.1468182-0.2070081-0.323451-0.1711874-0.5078573c0.0328972-0.1693525,0.2210698-0.1206436,0.3373208-0.1322966
	c1.5529137-0.1556597,3.0760231-0.0769796,4.506712,0.6326399c0.1283398,0.0636549,0.1603103,0.0078382,0.2194266-0.0817766
	c0.23105-0.3502502,0.325491-0.7388744,0.372345-1.1501999c0.0560951-0.4924631,0.152061-0.9805479,0.2028642-1.4733944
	c0.022469-0.2179832,0.1254139-0.3099689,0.3121529-0.3881416c0.6809511-0.285059,1.35396-0.5889692,2.0331507-0.8783131
	c0.1566467-0.0667353,0.2837095-0.1587582,0.3977051-0.2837667c0.4857235-0.5326557,0.984024-1.0540648,1.4617958-1.5936475
	c0.1364908-0.1541491,0.2736206-0.1913919,0.4599257-0.1554508c0.659359,0.1272001,1.3214931,0.2408457,1.978693,0.3781433
	c0.4396696,0.0918517,0.8491154-0.0618572,1.2692184-0.1199617c0.4913559-0.0679588,0.9783859-0.1679993,1.466259-0.2596154
	c0.1754208-0.0329413,0.3089046,0.0079408,0.4484711,0.1296577c0.7341309,0.6402445,1.4411125,1.3204594,2.228754,1.8883104
	c0.957304,0.6901703,1.7648773,1.5412025,2.6683159,2.2861004c0.0818119,0.0674524,0.1735229,0.1249428,0.266468,0.1766033
	c0.6542263,0.363636,1.3099766,0.7245445,1.9652653,1.0862789c0.0595875,0.0328932,0.1620426,0.0555964,0.1722946,0.0997572
	c0.0829563,0.3573933,0.2897911,0.1515188,0.4445782,0.09659c1.3143673-0.4664068,2.6656399-0.5331316,4.0366287-0.3759642
	c0.0823479,0.0094404,0.2471008-0.0440969,0.2450542,0.1259556c-0.0018463,0.1537714,0.0579243,0.3147001-0.1155014,0.4485998
	c-0.4547272,0.3510818-0.8918018,0.7249641-1.3355026,1.0902472C28.2163506,14.1808023,28.1442165,14.2442923,28.0575771,14.3182392
	z M20.3398285,25.5367508c0.094183,0.0340424,0.161459-0.0287762,0.2288513-0.1079559
	c0.1261005-0.1481533,0.2697163-0.2825279,0.3865051-0.4373322c0.6920929-0.9173641,1.5509949-1.6183262,2.6096897-2.0820217
	c0.2964592-0.1298447,0.6871033-0.2263775,0.823843-0.5017776c0.1358204-0.2735519,0.080864-0.6474762,0.0872574-0.9778156
	c0.0113983-0.5886631,0.1078243-1.1454258,0.3910942-1.6783504c0.2954483-0.5558357,0.5243435-1.1466255,0.7941494-1.7165604
	c0.0722446-0.1526051,0.0835285-0.2705917-0.0003433-0.4278774c-0.2374096-0.4451981-0.4433937-0.907032-0.6779346-1.3538456
	c-0.1108608-0.211195-0.1708679-0.4299107-0.2017193-0.6618958c-0.0974083-0.7324276-0.2049007-1.4636869-0.2883472-2.1976814
	c-0.0206146-0.1813183-0.0925274-0.2743273-0.2470932-0.3480597c-1.3282166-0.6335878-2.5196457-1.4611149-3.5508041-2.5136652
	c-0.0204048-0.0208292-0.0476131-0.0360699-0.0644798-0.0591402c-0.3713322-0.5079451-0.8472366-0.5465651-1.4337578-0.4196291
	c-0.5825806,0.1260815-1.1753788,0.2913904-1.78722,0.2110338c-0.6467915-0.0849476-1.2947197-0.1648369-1.9378672-0.2724485
	c-0.3363943-0.0562859-0.6081095-0.0319567-0.8563309,0.2435665c-0.239728,0.2660923-0.55019,0.4677868-0.7973433,0.7282581
	c-0.6501799,0.6852102-1.4218349,1.1592836-2.3246489,1.4353104c-0.3055058,0.0934057-0.5938683,0.2415323-0.8968649,0.3447552
	c-0.1686916,0.0574684-0.2149973,0.1508331-0.2138901,0.3205643c0.0041981,0.6422758-0.0106611,1.2846603-0.0086441,1.9269753
	c0.0005941,0.1896019-0.0354815,0.3600302-0.1201887,0.5305882c-0.3323708,0.66922-0.6515284,1.3449898-0.9856176,2.0133362
	c-0.0734148,0.1468697-0.0705061,0.2610035,0.0077896,0.4051418c0.3845882,0.7079849,0.7576618,1.4222012,1.1360531,2.1335506
	c0.069067,0.1298428,0.1215105,0.2611294,0.1336908,0.4116535c0.0305901,0.3780155,0.1269455,0.7594643,0.0975132,1.1317024
	c-0.0550842,0.6966629,0.2757626,1.0427074,0.8944073,1.2636452c1.1288109,0.4031372,2.0962067,1.0775471,2.8684444,1.9848175
	c0.5075731,0.5963345,1.0471449,0.7321777,1.7825861,0.5109673c0.6890831-0.2072639,1.4048767-0.2532978,2.1341171-0.107357
	C18.9799118,25.4007225,19.6537762,25.4491673,20.3398285,25.5367508z M3.8688736,20.1675434
	c1.1392732-0.0195293,2.222826-0.2179298,3.2071218-0.7872715c0.6832547-0.3952084,1.1804943-0.9479656,1.397294-1.7208385
	c0.0604095-0.2153549,0.1307888-0.4350529,0.0772352-0.6903667c-0.5859194,0.2987862-1.1506176,0.5791454-1.7073169,0.874527
	c-0.2109346,0.1119213-0.3823566,0.0990505-0.4947233-0.1104031c-0.1218872-0.2271957,0.0130053-0.3576546,0.2133565-0.4546566
	c0.2885017-0.1396809,0.5711813-0.291296,0.8576598-0.435215c0.129333-0.0649719,0.2339444-0.1512642,0.2342734-0.3060665
	c0.0003514-0.1665249-0.103137-0.2638187-0.2517028-0.3210278c-0.0361009-0.0139027-0.069943-0.0337505-0.104558-0.051384
	c-0.1923661-0.0979996-0.3313894-0.2356386-0.220984-0.4622774c0.1051259-0.2158012,0.2924809-0.2239017,0.4995165-0.138525
	c0.2989602,0.1232853,0.6011696,0.2387238,0.9320841,0.3693914c-0.1784506-0.9225893-0.6362653-1.6123972-1.3957405-2.1005344
	c-0.7297182-0.4690132-1.5463185-0.6701164-2.3966932-0.7590437c-0.4185376-0.0437689-0.8382859-0.0879726-1.3032277-0.0311298
	c0.4803233,0.3954201,0.9187295,0.7661829,1.3692958,1.1215801c0.1456351,0.1148739,0.1575313,0.1694126,0.0030212,0.290822
	c-0.4968476,0.3904057-0.9801152,0.7980375-1.4869881,1.2141037c0.5630195,0.3953896,1.1059198,0.7766495,1.6675768,1.1710815
	C4.4163752,17.2416,3.8989973,17.6197739,3.3633418,18.0113087c0.474227,0.3754215,0.9274669,0.7430191,1.3915863,1.0963764
	c0.1421366,0.1082172,0.134624,0.1654015,0.0040336,0.274498C4.4554009,19.6357803,4.1647539,19.9047832,3.8688736,20.1675434z
	 M28.5992928,13.020978c-1.1637287-0.0002413-2.2125759,0.1067095-3.208189,0.5357933
	c-0.1556149,0.0670681-0.2133694,0.1389742-0.1800232,0.3258305c0.0853443,0.4781799,0.1400185,0.9620371,0.1980972,1.4446869
	c0.0141411,0.1175165,0.0264187,0.1770058,0.174881,0.1977119c0.3018703,0.0421066,0.385004,0.2909985,0.2025471,0.5342627
	c-0.0369263,0.0492325-0.1378136,0.0756397-0.0831642,0.159893c0.241003,0.3715591,0.2622261,0.8868694,0.7366848,1.1071091
	c0.2187996,0.1015625,0.2293186,0.2809486,0.1086254,0.4609871c-0.3809643,0.5682831-0.5836906,1.2223244-0.8948383,1.823801
	c-0.0557213,0.1077156-0.0466347,0.1690407,0.0863838,0.2035465c0.206501,0.0535641,0.405962,0.1347027,0.6129475,0.1858292
	c0.5694408,0.1406441,1.1460419,0.2340908,1.8004951,0.2604446c-0.3370304-0.2996159-0.6098804-0.561861-0.9045258-0.7968731
	c-0.182066-0.1452179-0.1941719-0.2246876,0.0032539-0.3705025c0.4489937-0.3316174,0.879858-0.6877041,1.338932-1.0503082
	c-0.4882641-0.3554344-0.938158-0.6945858-1.4013653-1.014534c-0.1914787-0.1322594-0.1599197-0.1988068,0.0116558-0.3133163
	c0.4289589-0.2862873,0.8404942-0.5989075,1.2731838-0.8791685c0.1910782-0.123764,0.146368-0.1868973,0.0046597-0.304203
	c-0.4201469-0.3477955-0.8246059-0.7146721-1.2488899-1.0571918c-0.1630421-0.1316233-0.1727448-0.1995411-0.0022831-0.3325691
	C27.6706295,13.7970648,28.0981674,13.4331074,28.5992928,13.020978z M19.2664814,9.3898573
	c-0.5052223-0.4330053-0.9903069-0.795598-1.4086933-1.223237c-0.3711796-0.3793898-0.7449226-0.4470854-1.2488136-0.3317809
	c-0.9923592,0.2270808-1.995759,0.4285588-3.0153189,0.0986967c-0.2662687-0.0861473-0.553586-0.1056252-0.8287153-0.1669879
	c-0.1692734-0.0377531-0.2899733-0.0002766-0.4091778,0.1341023c-0.3874521,0.4367776-0.7818193,0.867929-1.1872492,1.2880445
	c-0.1318617,0.1366386-0.1199942,0.2205715-0.0026073,0.3542643c0.4173241,0.4752941,0.8304529,0.9547606,1.2288332,1.4458561
	c0.1346426,0.1659784,0.2118788,0.1894169,0.379756,0.0336723c0.585062-0.5427771,1.1904182-1.0636854,1.7805624-1.6011105
	c0.133769-0.1218195,0.2646723-0.1714334,0.4452009-0.1446619c0.6351347,0.0941839,1.2788267,0.1437063,1.9063902,0.2726593
	C17.6959038,9.7115536,18.4420509,9.5286131,19.2664814,9.3898573z M9.2115126,16.1142178
	c0.4773693-0.7921772,0.5096359-0.9038153,0.5149021-1.7348337c0.0020952-0.3308172-0.0216236-0.6643028,0.0124235-0.991807
	c0.0474634-0.4565706-0.0821428-0.8208141-0.3944368-1.1602249c-0.311657-0.3387175-0.5725479-0.7239943-0.8808327-1.121254
	c-0.0244741,0.106101-0.0383873,0.1528053-0.0457792,0.2005177c-0.1109142,0.7157717-0.1264219,1.4580173-0.5797935,2.0784435
	c-0.0863233,0.1181326,0.007987,0.1741772,0.0799766,0.2375612c0.2348967,0.2068119,0.4448166,0.435585,0.6232138,0.6932697
	C8.9083338,14.8462133,9.1054878,15.4413185,9.2115126,16.1142178z M10.2380781,12.1927671
	c0.5471478-0.21525,1.10075-0.4294662,1.650795-0.6524324c0.1104984-0.0447912,0.0266199-0.1118698-0.0129423-0.1585703
	c-0.4344282-0.5128078-0.8721247-1.0228643-1.3047295-1.5371923c-0.0808935-0.0961761-0.1531715-0.1222553-0.2750463-0.066761
	c-0.4516401,0.2056532-0.9064674,0.4046726-1.3641863,0.5964584c-0.1315861,0.0551357-0.1324282,0.1040964-0.0511293,0.2072649
	c0.3917723,0.4971552,0.7779579,0.9986944,1.1669512,1.4980383C10.0945597,12.1396074,10.1343641,12.2150707,10.2380781,12.1927671z
	 M9.9121513,21.3349743c0.0182333-0.0058804,0.0364637-0.0117607,0.054697-0.017643
	c-0.0292006-0.2787762,0.0094099-0.5882511-0.1005974-0.8304424c-0.3030968-0.6672897-0.668417-1.3064098-1.0141459-1.9662628
	c-0.1499577,0.2052441-0.2765055,0.3870392-0.4127588,0.5612698c-0.0669327,0.0855865-0.0973368,0.1511898-0.0203104,0.2533112
	C8.9199848,19.9993572,9.4151173,20.667881,9.9121513,21.3349743z"/>
<path fill="#D63977" d="M19.2664814,9.3898573c-0.8244305,0.1387558-1.5705776,0.3216963-2.3598328,0.1595173
	c-0.6275635-0.128953-1.2712555-0.1784754-1.9063902-0.2726593c-0.1805286-0.0267715-0.3114319,0.0228424-0.4452009,0.1446619
	c-0.5901442,0.537425-1.1955004,1.0583334-1.7805624,1.6011105c-0.1678772,0.1557446-0.2451134,0.1323061-0.379756-0.0336723
	c-0.3983803-0.4910955-0.8115091-0.970562-1.2288332-1.4458561c-0.1173868-0.1336927-0.1292543-0.2176256,0.0026073-0.3542643
	c0.4054298-0.4201155,0.7997971-0.8512669,1.1872492-1.2880445c0.1192045-0.1343789,0.2399044-0.1718554,0.4091778-0.1341023
	c0.2751293,0.0613627,0.5624466,0.0808406,0.8287153,0.1669879c1.0195599,0.3298621,2.0229597,0.1283841,3.0153189-0.0986967
	c0.503891-0.1153045,0.877634-0.0476089,1.2488136,0.3317809C18.2761745,8.5942593,18.7612591,8.956852,19.2664814,9.3898573z"/>
<path fill="#D63977" d="M9.2115126,16.1142178c-0.1060247-0.6728992-0.3031788-1.2680044-0.6703262-1.7983274
	c-0.1783972-0.2576847-0.3883171-0.4864578-0.6232138-0.6932697c-0.0719895-0.0633841-0.1662998-0.1194286-0.0799766-0.2375612
	c0.4533715-0.6204262,0.4688792-1.3626719,0.5797935-2.0784435c0.0073919-0.0477123,0.0213051-0.0944166,0.0457792-0.2005177
	c0.3082848,0.3972597,0.5691757,0.7825365,0.8808327,1.121254c0.312294,0.3394108,0.4419003,0.7036543,0.3944368,1.1602249
	c-0.0340471,0.3275042-0.0103283,0.6609898-0.0124235,0.991807C9.7211485,15.2104025,9.6888819,15.3220406,9.2115126,16.1142178z"/>
<path fill="#D63977" d="M10.2380781,12.1927671c-0.103714,0.0223036-0.1435184-0.0531597-0.1902876-0.1131945
	c-0.3889933-0.4993439-0.7751789-1.0008831-1.1669512-1.4980383c-0.0812988-0.1031685-0.0804567-0.1521292,0.0511293-0.2072649
	c0.4577188-0.1917858,0.9125462-0.3908052,1.3641863-0.5964584c0.1218748-0.0554943,0.1941528-0.0294151,0.2750463,0.066761
	c0.4326048,0.514328,0.8703012,1.0243845,1.3047295,1.5371923c0.0395622,0.0467005,0.1234407,0.1137791,0.0129423,0.1585703
	C11.3388281,11.7633009,10.7852259,11.9775171,10.2380781,12.1927671z"/>
<path fill="#D63977" d="M9.9121513,21.3349743c-0.4970341-0.6670933-0.9921665-1.3356171-1.4931154-1.9997673
	c-0.0770264-0.1021214-0.0466223-0.1677246,0.0203104-0.2533112c0.1362534-0.1742306,0.2628012-0.3560257,0.4127588-0.5612698
	c0.3457289,0.659853,0.7110491,1.2989731,1.0141459,1.9662628c0.1100073,0.2421913,0.0713968,0.5516663,0.1005974,0.8304424
	C9.9486151,21.3232136,9.9303846,21.3290939,9.9121513,21.3349743z"/>
<path fill="#050405" d="M13.3602934,17.7467232c-0.080143,0.5575085-0.1825209,1.0884666-0.2234907,1.6241035
	c-0.0237751,0.3108215-0.1446114,0.3960438-0.4257212,0.3593197c-0.1192236-0.0155773-0.2421942-0.0026016-0.3634615-0.0026016
	c-0.7335491,0-0.7328939-0.0000706-0.8106241-0.7171803c-0.1212387-1.1184883-0.2397013-2.237299-0.368186-3.3549614
	c-0.028677-0.2494602-0.0201569-0.3833847,0.3088627-0.3731766c0.8097887,0.0251245,0.8082724,0.0056896,0.8541365,0.8146133
	c0.0171232,0.3019791,0.0451317,0.6033955,0.0711317,0.9048119c0.024826,0.2878323,0.0534954,0.5753345,0.12288,0.8642635
	c0.082201-0.7246628,0.1769438-1.448225,0.2406664-2.1745024c0.0269022-0.3066206,0.1202259-0.4520273,0.4546623-0.4052019
	c0.260622,0.0364923,0.5898552-0.0675106,0.7752266,0.0579224c0.181859,0.1230564,0.062211,0.4739475,0.0964088,0.7230968
	c0.037796,0.2753677,0.0508661,0.5541248,0.0744696,0.8314247c0.0225763,0.2652054,0.0448523,0.5304356,0.0705814,0.8349781
	c0.1853743-0.360508,0.1371336-0.729229,0.1913691-1.077158c0.0595741-0.382164,0.108799-0.7668819,0.1383772-1.1523342
	c0.0135746-0.1768856,0.0784807-0.2103558,0.243063-0.2169294c0.9439287-0.037715,0.934557-0.0436878,0.8150234,0.8945684
	c-0.1375751,1.079895-0.2684698,2.1609688-0.3754454,3.2441711c-0.0255632,0.2588272-0.1098766,0.3234463-0.3499928,0.3062229
	c-0.277483-0.0199032-0.5584478-0.0188103-0.8361244-0.0002918c-0.2363691,0.0157623-0.3403664-0.0462799-0.3664293-0.3045464
	c-0.0496883-0.4923916-0.1441383-0.9802895-0.2206669-1.4699516C13.466238,17.8884697,13.4643641,17.8139553,13.3602934,17.7467232z
	"/>
<path fill="#050405" d="M23.4588375,17.5098267c0.0000038,0.652771-0.0073814,1.3056717,0.0044422,1.9582291
	c0.0036163,0.1994686-0.0460396,0.2622166-0.2562828,0.2652817c-0.9170265,0.0133667-0.9169102,0.0210686-0.916914-0.9059296
	c0-0.241766-0.0078716-0.483881,0.0027847-0.7251759c0.0068436-0.1550732-0.0419769-0.20924-0.2027493-0.2101841
	c-0.1709633-0.0010033-0.1605511,0.0954933-0.1601734,0.2085209c0.0015316,0.4593525-0.0176563,0.9197159,0.0075779,1.3776836
	c0.0147476,0.2675972-0.139328,0.3022575-0.302454,0.2406731c-0.2766762-0.1044502-0.796978,0.2951736-0.8234386-0.2125187
	c-0.0691147-1.3261261-0.0207405-2.6582375-0.0264626-3.9879284c-0.0007229-0.1685572,0.0436954-0.2227392,0.2212811-0.2318258
	c0.9641438-0.0493288,0.9638424-0.0549984,0.9638538,0.9012709c0.0000057,0.1692352,0.0051975,0.3386745-0.0014915,0.5076447
	c-0.0050716,0.1280842,0.0196056,0.199564,0.1745033,0.1990128c0.1472111-0.0005264,0.184248-0.054966,0.1818848-0.1918774
	c-0.0068893-0.3987961-0.0657654-0.810935,0.0137653-1.1933784c0.0997162-0.4795036,0.5313492-0.1170607,0.799366-0.2078762
	c0.1331177-0.045105,0.3355083-0.0829649,0.3266773,0.2139874C23.4452553,16.1797104,23.4588299,16.8449688,23.4588375,17.5098267z"
	/>
<path fill="#050405" d="M15.9264402,17.4570713c0.0000162-0.641304,0.006403-1.2827053-0.0039396-1.9238415
	c-0.0030384-0.1882553,0.0501242-0.2507639,0.2435741-0.2457685c0.4965801,0.0128298,0.9937935,0.009284,1.4905777,0.0012951
	c0.1516647-0.0024385,0.2314186,0.0313377,0.2073555,0.1985426c-0.0085316,0.0592728-0.0013733,0.1208029-0.0013275,0.1813021
	c0.0003719,0.4905634,0.0000401,0.5057077-0.4814644,0.4950724c-0.2329865-0.0051403-0.280365,0.0720863-0.2781792,0.2875614
	c0.0053291,0.5254765-0.0062084,0.5357285,0.5108776,0.5563965c0.1834583,0.0073338,0.2316017,0.0745907,0.2176857,0.2384758
	c-0.009182,0.1081257-0.0142708,0.2194252,0.0008698,0.3261871c0.0322609,0.2275047-0.0594482,0.3168831-0.2809086,0.27561
	c-0.363636-0.0677681-0.512701,0.0729961-0.4449997,0.4405956c0.0129337,0.0702267,0.0110035,0.1462517,0.0001831,0.217205
	c-0.0360565,0.2364712,0.0560036,0.3142014,0.2958508,0.3021564c0.1706467-0.0085678,0.4359589-0.1048241,0.5015793,0.0593262
	c0.0838623,0.2097874,0.034132,0.4752083,0.0304585,0.7164803c-0.0019131,0.1255302-0.1107712,0.105032-0.1918468,0.105257
	c-0.533268,0.0014668-1.0667477-0.0078316-1.5997143,0.0049362c-0.2252417,0.0053997-0.2188683-0.1203194-0.2180643-0.2765923
	C15.9283772,18.7638836,15.9264269,18.1104736,15.9264402,17.4570713z"/>
<path fill="#050405" d="M18.7070599,17.9337654c-0.0000057-0.4958611-0.0117645-0.9921265,0.0052452-1.4874039
	c0.007822-0.2277489-0.0650005-0.2958965-0.2871494-0.2826538c-0.1330013,0.0079288-0.3571968,0.0856342-0.3918228-0.065712
	c-0.0548096-0.2395554-0.016861-0.5025282-0.0004177-0.7544365c0.0039577-0.0606184,0.0988712-0.0512638,0.1579361-0.0513105
	c0.7268372-0.0005522,1.4536953,0.0025673,2.1804905-0.003027c0.1397152-0.0010729,0.1995716,0.039526,0.1856956,0.1835222
	c-0.0092354,0.0958652-0.0136681,0.1951275,0.0005226,0.2897644c0.0470695,0.3138809-0.0505905,0.4759636-0.395853,0.4082851
	c-0.2212334-0.0433655-0.2867966,0.0456047-0.283865,0.2724838c0.0128155,0.9915581-0.0041332,1.983532,0.0120411,2.9749908
	c0.0042362,0.25984-0.0738926,0.3178043-0.3229637,0.315527c-0.8597622-0.0078602-0.8598537,0.00214-0.8598537-0.8566818
	C18.7070656,18.562664,18.7070656,18.2482147,18.7070599,17.9337654z"/>
<path fill="#050405" d="M14.9001417,11.6400843c0.1642914,0.0102787,0.3051929,0.0663834,0.33918,0.2518921
	c0.0362988,0.1981287-0.0668001,0.3185091-0.2517672,0.3630095c-0.3314304,0.0797377-0.6592999,0.1706276-0.9712887,0.3080587
	c-0.6488199,0.2858114-1.22507,0.6778221-1.7046185,1.2024679c-0.1398268,0.152976-0.2898016,0.2072964-0.4562483,0.0691996
	c-0.1791897-0.1486664-0.1531572-0.3305092-0.0109749-0.4866018c0.8115492-0.8909416,1.8103247-1.456398,2.9931669-1.6961756
	C14.8566847,11.6480646,14.8758726,11.6446686,14.9001417,11.6400843z"/>
</svg>
