<svg version="1.1" id="Layer_1" xmlns="http://www.w3.org/2000/svg" x="0" y="0" viewBox="0 0 469.5 69.8" xml:space="preserve"><style>.st2{fill:#fff}</style><linearGradient id="SVGID_1_" gradientUnits="userSpaceOnUse" x1="32.1" y1="983.791" x2="32.1" y2="914.252" gradientTransform="translate(0 -914)"><stop offset="0" stop-color="#497dea"/><stop offset="1" stop-color="#74a0ff"/></linearGradient><path d="M25.9 33.8V21.9c0-.3.1-.4.4-.4H40c2.6 0 4.9.8 7 2.3 2.5 1.8 4.2 4.3 4.9 7.3.5 2.2.4 4.4-.3 6.6-.9 2.7-2.5 4.8-4.8 6.4-.4.3-.4.3-.2.8l8.1 16.5c.2.5.2.9 0 1.4-.2.7-.7 1.2-1.3 1.5-2.9 1.9-6.1 3.3-9.4 4.2-1.9.5-3.8.9-5.7 1.1-1.8.2-3.6.2-5.4.1-2.5-.1-5-.5-7.4-1.2-3.9-1.1-7.4-2.8-10.7-5.1-2.8-1.9-5.2-4.2-7.3-6.9-3-3.8-5.1-8.1-6.4-12.7-.4-1.7-.7-3.4-.9-5.1C0 36.8 0 35 0 33.1.2 29 1.1 25 2.7 21.2c1-2.4 2.2-4.6 3.8-6.7 1.7-2.3 3.6-4.4 5.8-6.3C15.5 5.5 19 3.4 23 2c1.8-.6 3.6-1.1 5.5-1.5.8-.2 1.6-.3 2.5-.4 2.2-.2 4.4-.1 6.6-.1 1.7 0 3.3.4 4.9.7 2.3.5 4.5 1.2 6.6 2.2 2.9 1.3 5.6 3 8 5 2 1.7 3.8 3.6 5.4 5.7.6.7 1.1 1.5 1.5 2.3.4.8.2 1.8-.6 2.3-1.5.9-3.1 1.7-4.6 2.6-.8.5-1.8.2-2.2-.6-.6-1.1-1.4-2-2.3-3-2.3-2.7-5.1-4.8-8.3-6.3-2.1-1-4.3-1.7-6.5-2.1-1-.2-1.9-.3-2.9-.4-1.2-.1-2.5-.1-3.7 0-2.6.2-5.1.8-7.6 1.7-2.6 1-5 2.4-7.2 4.1-2.6 2.1-4.6 4.3-6.1 6.8-1.6 2.6-2.7 5.3-3.4 8.3-.2 1-.4 2-.5 3-.1.9-.2 1.8-.2 2.7 0 .9 0 1.9.2 2.8.1 1 .3 2.1.5 3.1.6 2.8 1.7 5.3 3.1 7.8 1.1 1.8 2.4 3.4 3.8 4.9 2.5 2.5 5.3 4.4 8.6 5.8 2 .9 4.1 1.4 6.3 1.7 1 .1 1.9.3 2.9.3.4 0 .7.2 1.1.1.3 0 .5-.1.8-.1 3.1-.1 6.2-.7 9.1-2 .6-.2.6-.2.3-.8-2-4-3.9-7.9-5.9-11.9-.1-.2-.1-.3-.1-.5v-5.6c0-1.1.8-2.1 1.9-2.2.8-.1 1.5-.5 2.2-1 1.2-.9 1.9-2.2 1.9-3.7 0-2-1-3.4-2.8-4.3-.6-.3-1.2-.4-1.9-.4h-5.5c-.3 0-.3.1-.3.3v16.3c0 1.1-1 2.1-2.1 2.1-1.3-.1-2.7 0-4.1 0-1.1 0-2-1.1-2-2V33.8z" fill="url(#SVGID_1_)"/><path d="M96.4 54.3c-3.3 0-6.1-.7-8.5-2.1-2.4-1.4-4.2-3.4-5.5-6s-1.9-5.6-1.9-9 .6-6.4 1.9-9 3.1-4.6 5.5-6c2.4-1.4 5.2-2.1 8.5-2.1 3.8 0 6.9.9 9.5 2.8 2.6 1.9 4.4 4.4 5.4 7.6l-6.3 1.7c-.6-2-1.6-3.5-3.1-4.6-1.4-1.1-3.3-1.7-5.6-1.7-2.1 0-3.8.5-5.2 1.4s-2.4 2.2-3.1 3.9c-.7 1.7-1.1 3.7-1.1 6s.4 4.3 1.1 6 1.7 3 3.1 3.9c1.4.9 3.1 1.4 5.2 1.4 2.3 0 4.1-.6 5.6-1.7 1.4-1.1 2.5-2.7 3.1-4.6l6.3 1.7c-1.1 3.2-2.9 5.7-5.4 7.6-2.6 1.8-5.8 2.8-9.5 2.8zm31 0c-2.5 0-4.7-.6-6.5-1.7-1.9-1.1-3.3-2.6-4.4-4.6-1-2-1.6-4.2-1.6-6.7 0-2.6.5-4.8 1.6-6.8s2.5-3.5 4.4-4.6 4-1.6 6.5-1.6 4.7.6 6.5 1.7c1.9 1.1 3.3 2.6 4.4 4.6 1.1 2 1.6 4.2 1.6 6.7 0 2.6-.5 4.8-1.6 6.8s-2.5 3.5-4.4 4.6c-1.9 1-4 1.6-6.5 1.6zm0-5.8c2 0 3.5-.7 4.5-2s1.5-3.1 1.5-5.2c0-2.2-.5-3.9-1.5-5.3s-2.5-2-4.4-2c-1.4 0-2.5.3-3.3.9-.9.6-1.5 1.5-1.9 2.5s-.6 2.3-.6 3.8c0 2.2.5 4 1.5 5.3s2.3 2 4.2 2zm18-23V20h6.2v5.5h-6.2zm0 28.1V28.9h6.2v24.7h-6.2zm13 0V28.9h5.5v8.2h.8v16.5h-6.3zm16.9 0V42c0-.6 0-1.3-.1-2.2-.1-.9-.3-1.8-.6-2.6-.3-.9-.8-1.6-1.6-2.2s-1.7-.9-3.1-.9c-.5 0-1.1.1-1.7.3-.6.2-1.2.5-1.7 1s-1 1.2-1.3 2.1-.5 2.2-.5 3.7l-3.6-1.7c0-1.9.4-3.8 1.2-5.5s2-3.1 3.6-4.1c1.6-1.1 3.6-1.6 6-1.6 1.9 0 3.5.3 4.7 1s2.2 1.5 2.8 2.5 1.2 2.1 1.5 3.1c.3 1.1.5 2.1.5 3 .1.9.1 1.6.1 2v13.8h-6.2v-.1z"/><path d="M193 53.6V20.7h14.5c.5 0 .9.1 1.3.1 1.8.3 3.4.9 4.6 1.9 1.2 1 2.1 2.2 2.8 3.6.6 1.5.9 3.1.9 4.8 0 2.6-.7 4.9-2 6.8s-3.3 3.1-6 3.6l-1.9.2h-9.3v11.8l-4.9.1zm4.8-16.3h9.3c.4 0 .7-.1 1.1-.2 1-.2 1.8-.7 2.4-1.3.6-.6 1-1.3 1.3-2.1.3-.8.4-1.6.4-2.4s-.1-1.6-.4-2.4c-.3-.8-.7-1.5-1.3-2.1s-1.4-1-2.4-1.3c-.3-.1-.7-.2-1.1-.2h-9.3v12zm14.4 16.3l-6.5-13.4 4.8-1.2 7.1 14.6h-5.4zm21.4.7c-2.5 0-4.6-.5-6.5-1.6-1.8-1.1-3.3-2.6-4.3-4.5s-1.5-4.2-1.5-6.7c0-2.7.5-5 1.5-7s2.4-3.5 4.2-4.6 3.9-1.6 6.3-1.6c2.5 0 4.7.6 6.4 1.7 1.8 1.2 3.1 2.8 4 5 .9 2.1 1.2 4.7 1 7.7h-4.8V41c0-2.9-.6-5-1.6-6.3-1.1-1.4-2.7-2.1-4.8-2.1-2.4 0-4.2.8-5.4 2.3s-1.8 3.7-1.8 6.5c0 2.7.6 4.8 1.8 6.3s2.9 2.2 5.2 2.2c1.5 0 2.8-.3 3.9-1s1.9-1.6 2.5-2.9l4.7 1.5c-1 2.2-2.4 3.9-4.4 5.1-1.8 1.1-4 1.7-6.4 1.7zm-8.8-11.7v-3.7h17.7v3.7h-17.7zm30.9 11l-9-24.7h4.8l6.6 18.7 6.6-18.7h4.8l-9 24.7h-4.8zm18.4-28.7v-4.6h4.8v4.6h-4.8zm0 28.7V28.9h4.8v24.7h-4.8zm22.5.7c-2.5 0-4.6-.5-6.5-1.6s-3.3-2.6-4.3-4.5-1.5-4.2-1.5-6.7c0-2.7.5-5 1.5-7s2.4-3.5 4.2-4.6 3.9-1.6 6.3-1.6c2.5 0 4.7.6 6.4 1.7 1.8 1.2 3.1 2.8 4 5 .9 2.1 1.2 4.7 1 7.7h-4.8V41c0-2.9-.6-5-1.6-6.3-1.1-1.4-2.7-2.1-4.8-2.1-2.4 0-4.2.8-5.4 2.3-1.2 1.5-1.8 3.7-1.8 6.5 0 2.7.6 4.8 1.8 6.3 1.2 1.5 2.9 2.2 5.2 2.2 1.5 0 2.8-.3 3.9-1s1.9-1.6 2.5-2.9l4.7 1.5c-1 2.2-2.4 3.9-4.4 5.1-1.8 1.1-4 1.7-6.4 1.7zm-8.8-11.7v-3.7h17.6v3.7h-17.6zm29.5 11l-7.5-24.7h4.7l5.2 16.9 5.2-16.9h4.1l5.2 16.9 5.2-16.9h4.7l-7.5 24.7h-3.8L327 35.7l-5.8 17.9h-3.9z" fill="#4c7fed"/><path d="M438.9 54.5h-62.7c-5-.1-9.1-2.2-11.9-6.4-5.6-8.4-.7-19.9 9.2-21.8.9-.2 1.8-.2 2.7-.2h78.9c6.9 0 12.7 4.8 14.1 11.6 1.5 7.6-3.5 15.1-11.1 16.6-1 .2-1.9.3-2.9.3-5.4-.1-10.8-.1-16.3-.1z"/><path class="st2" d="M393.4 46.4c-1.2 0-2.2-.2-3.1-.7s-1.6-1.2-2.1-2.1-.7-1.9-.7-3c0-1.2.2-2.3.7-3.2.5-.9 1.2-1.6 2-2.1s1.8-.8 3-.8 2.2.3 3 .8c.8.6 1.4 1.3 1.8 2.3s.5 2.2.4 3.6h-2.8v-1c0-1.1-.2-2-.5-2.5-.4-.5-1-.8-1.8-.8-1 0-1.7.3-2.1.9-.5.6-.7 1.5-.7 2.6 0 1 .2 1.9.7 2.4.5.6 1.1.9 2 .9.6 0 1-.1 1.4-.4s.7-.6.9-1.1l2.8.8c-.4 1-1.1 1.8-2 2.4-.8.7-1.8 1-2.9 1zm-3.7-5.2v-2.1h7.5v2.1h-7.5zm9.5 4.9l4-5.7-3.9-5.6h3.3l2.3 3.3 2.2-3.3h3.3l-3.9 5.6 4 5.7h-3.3l-2.3-3.5-2.3 3.5h-3.4zm13 5V34.8h2.5v7.7h.4v8.6h-2.9zm5.5-4.7c-1.1 0-2.1-.3-2.8-.8s-1.3-1.2-1.7-2.1-.6-1.9-.6-3 .2-2.1.6-3 .9-1.6 1.7-2.1c.7-.5 1.6-.8 2.7-.8s2 .3 2.8.8 1.4 1.2 1.9 2.1c.4.9.7 1.9.7 3.1 0 1.1-.2 2.1-.7 3-.4.9-1 1.6-1.8 2.1-.8.4-1.7.7-2.8.7zm-.4-2.6c.6 0 1.1-.2 1.5-.5s.7-.7.9-1.2c.2-.5.3-1.1.3-1.7s-.1-1.2-.3-1.7c-.2-.5-.5-.9-.9-1.2-.4-.3-.9-.5-1.6-.5-.6 0-1.1.1-1.4.4s-.6.7-.8 1.2c-.2.5-.3 1.1-.3 1.8s.1 1.3.3 1.8c.2.5.4.9.8 1.2s.9.4 1.5.4zm12.8 2.6c-1.2 0-2.2-.2-3.1-.7s-1.6-1.2-2.1-2.1-.7-1.9-.7-3c0-1.2.2-2.3.7-3.2.5-.9 1.2-1.6 2-2.1s1.8-.8 3-.8 2.2.3 3 .8c.8.6 1.4 1.3 1.8 2.3s.5 2.2.4 3.6h-2.8v-1c0-1.1-.2-2-.5-2.5-.4-.5-1-.8-1.8-.8-1 0-1.7.3-2.1.9-.5.6-.7 1.5-.7 2.6 0 1 .2 1.9.7 2.4.5.6 1.1.9 2 .9.6 0 1-.1 1.4-.4s.7-.6.9-1.1l2.8.8c-.4 1-1.1 1.8-2 2.4-.9.7-1.9 1-2.9 1zm-3.8-5.2v-2.1h7.5v2.1h-7.5zm18.8-4.2v-2.2h8V37h-8zm8 9.1c-.8.1-1.5.2-2.3.2-.7 0-1.4-.2-2-.4-.6-.2-1-.6-1.3-1.2-.3-.5-.4-1-.4-1.6V31.7h2.8v10.7c0 .4.1.6.2.8.3.4.7.6 1.2.6s1.2 0 1.8-.1v2.4zm-16.2 0V34.8h2.5v2.7l-.3-.4c.1-.4.3-.7.6-1.1.2-.3.5-.6.9-.8.3-.2.6-.3.9-.4s.7-.2 1-.2h1v2.6c-.3-.1-.7-.1-1.1-.1s-.8.1-1.1.3c-.3.2-.6.4-.8.6s-.4.6-.5.9-.2.7-.2 1.2v5.8h-2.9v.2z"/><circle class="st2" cx="375.8" cy="40.1" r="5"/></svg>