<svg xmlns="http://www.w3.org/2000/svg" viewBox="0 0 344.1 69.8"><path d="M25.9 33.8V21.9c0-.3.1-.4.4-.4H40c2.6 0 4.9.8 7 2.3 2.5 1.8 4.2 4.3 4.9 7.3.5 2.2.4 4.4-.3 6.6-.9 2.7-2.5 4.8-4.8 6.4-.4.3-.4.3-.2.8l8.1 16.5c.2.5.2.9 0 1.4-.2.7-.7 1.2-1.3 1.5-2.9 1.9-6.1 3.3-9.4 4.2-1.9.5-3.8.9-5.7 1.1-1.8.2-3.6.2-5.4.1-2.5-.1-5-.5-7.4-1.2-3.9-1.1-7.4-2.8-10.7-5.1-2.8-1.9-5.2-4.2-7.3-6.9-3-3.8-5.1-8.1-6.4-12.7-.4-1.7-.7-3.4-.9-5.1C0 36.8 0 35 0 33.1.2 29 1.1 25 2.7 21.2c1-2.4 2.2-4.6 3.8-6.7 1.7-2.3 3.6-4.4 5.8-6.3C15.5 5.5 19 3.4 23 2c1.8-.6 3.6-1.1 5.5-1.5.8-.2 1.6-.3 2.5-.4 2.2-.2 4.4-.1 6.6-.1 1.7 0 3.3.4 4.9.7 2.3.5 4.5 1.2 6.6 2.2 2.9 1.3 5.6 3 8 5 2 1.7 3.8 3.6 5.4 5.7.6.7 1.1 1.5 1.5 2.3s.2 1.8-.6 2.3c-1.5.9-3.1 1.7-4.6 2.6-.8.5-1.8.2-2.2-.6-.6-1.1-1.4-2-2.3-3-2.3-2.7-5.1-4.8-8.3-6.3-2.1-1-4.3-1.7-6.5-2.1-1-.2-1.9-.3-2.9-.4-1.2-.1-2.5-.1-3.7 0-2.6.2-5.1.8-7.6 1.7-2.6 1-5 2.4-7.2 4.1-2.6 2.1-4.6 4.3-6.1 6.8-1.6 2.6-2.7 5.3-3.4 8.3-.2 1-.4 2-.5 3-.1.9-.2 1.8-.2 2.7s0 1.9.2 2.8c.1 1 .3 2.1.5 3.1.6 2.8 1.7 5.3 3.1 7.8 1.1 1.8 2.4 3.4 3.8 4.9 2.5 2.5 5.3 4.4 8.6 5.8 2 .9 4.1 1.4 6.3 1.7 1 .1 1.9.3 2.9.3.4 0 .7.2 1.1.1.3 0 .5-.1.8-.1 3.1-.1 6.2-.7 9.1-2 .6-.2.6-.2.3-.8-2-4-3.9-7.9-5.9-11.9-.1-.2-.1-.3-.1-.5v-5.6c0-1.1.8-2.1 1.9-2.2.8-.1 1.5-.5 2.2-1 1.2-.9 1.9-2.2 1.9-3.7 0-2-1-3.4-2.8-4.3-.6-.3-1.2-.4-1.9-.4h-5.5c-.3 0-.3.1-.3.3v16.3c0 1.1-1 2.1-2.1 2.1-1.3-.1-2.7 0-4.1 0-1.1 0-2-1.1-2-2V33.8zm70.5 20.5c-3.3 0-6.1-.7-8.5-2.1-2.4-1.4-4.2-3.4-5.5-6s-1.9-5.6-1.9-9 .6-6.4 1.9-9 3.1-4.6 5.5-6 5.2-2.1 8.5-2.1c3.8 0 6.9.9 9.5 2.8s4.4 4.4 5.4 7.6l-6.3 1.7c-.6-2-1.6-3.5-3.1-4.6-1.4-1.1-3.3-1.7-5.6-1.7-2.1 0-3.8.5-5.2 1.4s-2.4 2.2-3.1 3.9c-.7 1.7-1.1 3.7-1.1 6s.4 4.3 1.1 6 1.7 3 3.1 3.9 3.1 1.4 5.2 1.4c2.3 0 4.1-.6 5.6-1.7 1.4-1.1 2.5-2.7 3.1-4.6l6.3 1.7c-1.1 3.2-2.9 5.7-5.4 7.6-2.6 1.8-5.8 2.8-9.5 2.8zm31 0c-2.5 0-4.7-.6-6.5-1.7-1.9-1.1-3.3-2.6-4.4-4.6-1-2-1.6-4.2-1.6-6.7 0-2.6.5-4.8 1.6-6.8s2.5-3.5 4.4-4.6 4-1.6 6.5-1.6 4.7.6 6.5 1.7c1.9 1.1 3.3 2.6 4.4 4.6 1.1 2 1.6 4.2 1.6 6.7 0 2.6-.5 4.8-1.6 6.8s-2.5 3.5-4.4 4.6c-1.9 1-4 1.6-6.5 1.6zm0-5.8c2 0 3.5-.7 4.5-2s1.5-3.1 1.5-5.2c0-2.2-.5-3.9-1.5-5.3s-2.5-2-4.4-2c-1.4 0-2.5.3-3.3.9-.9.6-1.5 1.5-1.9 2.5s-.6 2.3-.6 3.8c0 2.2.5 4 1.5 5.3s2.3 2 4.2 2zm18-23V20h6.2v5.5h-6.2zm0 28.1V28.9h6.2v24.7h-6.2zm13 0V28.9h5.5v8.2h.8v16.5h-6.3zm16.9 0V42c0-.6 0-1.3-.1-2.2s-.3-1.8-.6-2.6c-.3-.9-.8-1.6-1.6-2.2s-1.7-.9-3.1-.9c-.5 0-1.1.1-1.7.3-.6.2-1.2.5-1.7 1s-1 1.2-1.3 2.1-.5 2.2-.5 3.7l-3.6-1.7c0-1.9.4-3.8 1.2-5.5s2-3.1 3.6-4.1c1.6-1.1 3.6-1.6 6-1.6 1.9 0 3.5.3 4.7 1s2.2 1.5 2.8 2.5c.6 1 1.2 2.1 1.5 3.1.3 1.1.5 2.1.5 3 .1.9.1 1.6.1 2v13.8l-6.2-.1zm17.7 0V20.7h14.5c.5 0 .9.1 1.3.1 1.8.3 3.4.9 4.6 1.9 1.2 1 2.1 2.2 2.8 3.6.6 1.5.9 3.1.9 4.8 0 2.6-.7 4.9-2 6.8s-3.3 3.1-6 3.6l-1.9.2h-9.3v11.8l-4.9.1zm4.8-16.3h9.3c.4 0 .7-.1 1.1-.2 1-.2 1.8-.7 2.4-1.3.6-.6 1-1.3 1.3-2.1s.4-1.6.4-2.4c0-.8-.1-1.6-.4-2.4-.3-.8-.7-1.5-1.3-2.1s-1.4-1-2.4-1.3c-.3-.1-.7-.2-1.1-.2h-9.3v12zm14.4 16.3l-6.5-13.4 4.8-1.2 7.1 14.6h-5.4zm21.4.7c-2.5 0-4.6-.5-6.5-1.6-1.8-1.1-3.3-2.6-4.3-4.5s-1.5-4.2-1.5-6.7c0-2.7.5-5 1.5-7s2.4-3.5 4.2-4.6 3.9-1.6 6.3-1.6c2.5 0 4.7.6 6.4 1.7 1.8 1.2 3.1 2.8 4 5 .9 2.1 1.2 4.7 1 7.7h-4.8V41c0-2.9-.6-5-1.6-6.3-1.1-1.4-2.7-2.1-4.8-2.1-2.4 0-4.2.8-5.4 2.3s-1.8 3.7-1.8 6.5c0 2.7.6 4.8 1.8 6.3s2.9 2.2 5.2 2.2c1.5 0 2.8-.3 3.9-1s1.9-1.6 2.5-2.9l4.7 1.5c-1 2.2-2.4 3.9-4.4 5.1-1.8 1.1-4 1.7-6.4 1.7zm-8.8-11.7v-3.7h17.7v3.7h-17.7zm30.9 11l-9-24.7h4.8l6.6 18.7 6.6-18.7h4.8l-9 24.7h-4.8zm18.4-28.7v-4.6h4.8v4.6h-4.8zm0 28.7V28.9h4.8v24.7h-4.8zm22.5.7c-2.5 0-4.6-.5-6.5-1.6s-3.3-2.6-4.3-4.5-1.5-4.2-1.5-6.7c0-2.7.5-5 1.5-7s2.4-3.5 4.2-4.6 3.9-1.6 6.3-1.6c2.5 0 4.7.6 6.4 1.7 1.8 1.2 3.1 2.8 4 5 .9 2.1 1.2 4.7 1 7.7h-4.8V41c0-2.9-.6-5-1.6-6.3-1.1-1.4-2.7-2.1-4.8-2.1-2.4 0-4.2.8-5.4 2.3-1.2 1.5-1.8 3.7-1.8 6.5 0 2.7.6 4.8 1.8 6.3 1.2 1.5 2.9 2.2 5.2 2.2 1.5 0 2.8-.3 3.9-1s1.9-1.6 2.5-2.9l4.7 1.5c-1 2.2-2.4 3.9-4.4 5.1-1.8 1.1-4 1.7-6.4 1.7zm-8.8-11.7v-3.7h17.6v3.7h-17.6zm29.5 11l-7.5-24.7h4.7l5.2 16.9 5.2-16.9h4.1l5.2 16.9 5.2-16.9h4.7l-7.5 24.7h-3.8L327 35.7l-5.8 17.9h-3.9z" fill="#fff"/></svg>