<?xml version="1.0" encoding="utf-8"?>
<!-- Generator: Adobe Illustrator 25.4.1, SVG Export Plug-In . SVG Version: 6.00 Build 0)  -->
<svg version="1.1" id="Слой_1" xmlns="http://www.w3.org/2000/svg" xmlns:xlink="http://www.w3.org/1999/xlink" x="0px" y="0px"
	 viewBox="0 0 383.1 383.4" style="enable-background:new 0 0 383.1 383.4;" xml:space="preserve">
<style type="text/css">
	.st0{fill:#338AF2;}
	.st1{fill:#FED944;}
</style>
<g>
	<path class="st0" d="M0,191.9c0-5.5,0-11,0-16.5c1.5-2.9,1.2-6.2,1.7-9.3C9.4,114.4,33.5,72,74.9,40.2C120,5.5,171.4-7,227.1,3.8
		C293.4,16.7,340.3,55.4,367.9,117c10.6,23.7,15.4,48.8,15.2,74.8C255.3,191.9,127.6,191.9,0,191.9z"/>
	<path class="st1" d="M0,191.9c127.7,0,255.3,0,383,0c0,1.4,0.1,2.7,0.1,4.1c-1,36.8-11.1,70.8-31.7,101.3
		c-30.5,45.3-72.8,73.2-126.6,83.2c-6.3,1.2-12.7,2-19,2.9c-9.7,0-19.5,0-29.2,0c-0.5-0.8-1.3-0.7-2-0.7
		c-35.3-3.3-67.5-15.1-96-36.2c-41-30.5-66.4-70.9-75.7-121.3c-1.2-6.3-2-12.7-2.9-19.1C0,201.3,0,196.6,0,191.9z"/>
</g>
</svg>
